solid Untitled-55f0e8aa
facet normal 0.0 0.0 -1.0
  outer loop
    vertex -15.454813220625091 -37.858895278359654 0.0
    vertex -15.454813220625091 -46.14110472164032 0.0
    vertex -15.999999999999998 -41.99999999999999 0.0
  endloop
endfacet
facet normal 0.0 0.0 -1.0
  outer loop
    vertex -15.454813220625091 -46.14110472164032 0.0
    vertex -15.454813220625091 -37.858895278359654 0.0
    vertex -13.856406460551016 -33.999999999999986 0.0
  endloop
endfacet
facet normal 0.0 0.0 -1.0
  outer loop
    vertex -15.454813220625091 -46.14110472164032 0.0
    vertex -13.856406460551016 -33.999999999999986 0.0
    vertex -13.999999999999996 -41.99999999999999 0.0
  endloop
endfacet
facet normal 0.0 0.0 -1.0
  outer loop
    vertex -13.999999999999996 -41.99999999999999 0.0
    vertex -13.856406460551016 -33.999999999999986 0.0
    vertex -13.522961568046952 -38.376533368564694 0.0
  endloop
endfacet
facet normal 0.0 0.0 -1.0
  outer loop
    vertex -13.522961568046952 -38.376533368564694 0.0
    vertex -13.856406460551016 -33.999999999999986 0.0
    vertex -11.31370849898476 -30.68629150101523 0.0
  endloop
endfacet
facet normal 0.0 0.0 -1.0
  outer loop
    vertex -13.522961568046952 -38.376533368564694 0.0
    vertex -11.31370849898476 -30.68629150101523 0.0
    vertex -12.124355652982137 -34.999999999999986 0.0
  endloop
endfacet
facet normal 0.0 0.0 -1.0
  outer loop
    vertex -12.124355652982137 -34.999999999999986 0.0
    vertex -11.31370849898476 -30.68629150101523 0.0
    vertex -9.899494936611662 -32.100505063388326 0.0
  endloop
endfacet
facet normal 0.0 0.0 -1.0
  outer loop
    vertex -9.899494936611662 -32.100505063388326 0.0
    vertex -11.31370849898476 -30.68629150101523 0.0
    vertex -7.999999999999998 -28.143593539448975 0.0
  endloop
endfacet
facet normal 0.0 0.0 -1.0
  outer loop
    vertex -9.899494936611662 -32.100505063388326 0.0
    vertex -7.999999999999998 -28.143593539448975 0.0
    vertex -6.999999999999997 -29.875644347017847 0.0
  endloop
endfacet
facet normal 0.0 0.0 -1.0
  outer loop
    vertex -6.999999999999997 -29.875644347017847 0.0
    vertex -7.999999999999998 -28.143593539448975 0.0
    vertex -4.141104721640332 -26.545186779374898 0.0
  endloop
endfacet
facet normal 0.0 0.0 -1.0
  outer loop
    vertex -6.999999999999997 -29.875644347017847 0.0
    vertex -4.141104721640332 -26.545186779374898 0.0
    vertex -3.6234666314352904 -28.477038431953037 0.0
  endloop
endfacet
facet normal 0.0 0.0 -1.0
  outer loop
    vertex -3.6234666314352904 -28.477038431953037 0.0
    vertex -4.141104721640332 -26.545186779374898 0.0
    vertex 0.0 -25.999999999999993 0.0
  endloop
endfacet
facet normal 0.0 0.0 -1.0
  outer loop
    vertex -3.6234666314352904 -28.477038431953037 0.0
    vertex 0.0 -25.999999999999993 0.0
    vertex 0.0 -27.999999999999993 0.0
  endloop
endfacet
facet normal 0.0 0.0 -1.0
  outer loop
    vertex 0.0 -27.999999999999993 0.0
    vertex 0.0 -25.999999999999993 0.0
    vertex 4.141104721640344 -26.545186779374905 0.0
  endloop
endfacet
facet normal 0.0 0.0 -1.0
  outer loop
    vertex 0.0 -27.999999999999993 0.0
    vertex 4.141104721640344 -26.545186779374905 0.0
    vertex 3.623466631435302 -28.477038431953037 0.0
  endloop
endfacet
facet normal 0.0 0.0 -1.0
  outer loop
    vertex 3.623466631435302 -28.477038431953037 0.0
    vertex 4.141104721640344 -26.545186779374905 0.0
    vertex 7.000000000000004 -29.875644347017854 0.0
  endloop
endfacet
facet normal 0.0 0.0 -1.0
  outer loop
    vertex 7.000000000000004 -29.875644347017854 0.0
    vertex 4.141104721640344 -26.545186779374905 0.0
    vertex 8.000000000000007 -28.143593539448975 0.0
  endloop
endfacet
facet normal 0.0 0.0 -1.0
  outer loop
    vertex 7.000000000000004 -29.875644347017854 0.0
    vertex 8.000000000000007 -28.143593539448975 0.0
    vertex 9.899494936611667 -32.100505063388326 0.0
  endloop
endfacet
facet normal 0.0 0.0 -1.0
  outer loop
    vertex 9.899494936611667 -32.100505063388326 0.0
    vertex 8.000000000000007 -28.143593539448975 0.0
    vertex 11.313708498984761 -30.686291501015237 0.0
  endloop
endfacet
facet normal 0.0 0.0 -1.0
  outer loop
    vertex 9.899494936611667 -32.100505063388326 0.0
    vertex 11.313708498984761 -30.686291501015237 0.0
    vertex 12.124355652982143 -35.0 0.0
  endloop
endfacet
facet normal 0.0 0.0 -1.0
  outer loop
    vertex 12.124355652982143 -35.0 0.0
    vertex 11.313708498984761 -30.686291501015237 0.0
    vertex 13.856406460551021 -34.0 0.0
  endloop
endfacet
facet normal 0.0 0.0 -1.0
  outer loop
    vertex 12.124355652982143 -35.0 0.0
    vertex 13.856406460551021 -34.0 0.0
    vertex 13.522961568046957 -38.37653336856471 0.0
  endloop
endfacet
facet normal 0.0 0.0 -1.0
  outer loop
    vertex 13.522961568046957 -38.37653336856471 0.0
    vertex 13.856406460551021 -34.0 0.0
    vertex 13.999999999999996 -41.99999999999999 0.0
  endloop
endfacet
facet normal 0.0 0.0 -1.0
  outer loop
    vertex 13.999999999999996 -41.99999999999999 0.0
    vertex 13.856406460551021 -34.0 0.0
    vertex 15.454813220625091 -37.85889527835967 0.0
  endloop
endfacet
facet normal 0.0 0.0 -1.0
  outer loop
    vertex -13.999999999999996 -41.99999999999999 0.0
    vertex -13.856406460551018 -49.99999999999998 0.0
    vertex -15.454813220625091 -46.14110472164032 0.0
  endloop
endfacet
facet normal 0.0 0.0 -1.0
  outer loop
    vertex -13.856406460551018 -49.99999999999998 0.0
    vertex -13.999999999999996 -41.99999999999999 0.0
    vertex -13.522961568046952 -45.62346663143528 0.0
  endloop
endfacet
facet normal 0.0 0.0 -1.0
  outer loop
    vertex -13.856406460551018 -49.99999999999998 0.0
    vertex -13.522961568046952 -45.62346663143528 0.0
    vertex -11.313708498984761 -53.313708498984745 0.0
  endloop
endfacet
facet normal 0.0 0.0 -1.0
  outer loop
    vertex -11.313708498984761 -53.313708498984745 0.0
    vertex -13.522961568046952 -45.62346663143528 0.0
    vertex -12.12435565298214 -48.999999999999986 0.0
  endloop
endfacet
facet normal 0.0 0.0 -1.0
  outer loop
    vertex -11.313708498984761 -53.313708498984745 0.0
    vertex -12.12435565298214 -48.999999999999986 0.0
    vertex -9.899494936611664 -51.899494936611646 0.0
  endloop
endfacet
facet normal 0.0 0.0 -1.0
  outer loop
    vertex -11.313708498984761 -53.313708498984745 0.0
    vertex -9.899494936611664 -51.899494936611646 0.0
    vertex -8.000000000000005 -55.85640646055099 0.0
  endloop
endfacet
facet normal 0.0 0.0 -1.0
  outer loop
    vertex -8.000000000000005 -55.85640646055099 0.0
    vertex -9.899494936611664 -51.899494936611646 0.0
    vertex -7.000000000000003 -54.124355652982125 0.0
  endloop
endfacet
facet normal 0.0 0.0 -1.0
  outer loop
    vertex -8.000000000000005 -55.85640646055099 0.0
    vertex -7.000000000000003 -54.124355652982125 0.0
    vertex -4.141104721640336 -57.45481322062508 0.0
  endloop
endfacet
facet normal 0.0 0.0 -1.0
  outer loop
    vertex -4.141104721640336 -57.45481322062508 0.0
    vertex -7.000000000000003 -54.124355652982125 0.0
    vertex -3.6234666314352935 -55.522961568046945 0.0
  endloop
endfacet
facet normal 0.0 0.0 -1.0
  outer loop
    vertex -4.141104721640336 -57.45481322062508 0.0
    vertex -3.6234666314352935 -55.522961568046945 0.0
    vertex -2.8199664825478975e-15 -57.999999999999986 0.0
  endloop
endfacet
facet normal 0.0 0.0 -1.0
  outer loop
    vertex -2.8199664825478975e-15 -57.999999999999986 0.0
    vertex -3.6234666314352935 -55.522961568046945 0.0
    vertex -2.8199664825478975e-15 -55.999999999999986 0.0
  endloop
endfacet
facet normal 0.0 0.0 -1.0
  outer loop
    vertex -2.8199664825478975e-15 -57.999999999999986 0.0
    vertex -2.8199664825478975e-15 -55.999999999999986 0.0
    vertex 3.623466631435285 -55.522961568046945 0.0
  endloop
endfacet
facet normal 0.0 0.0 -1.0
  outer loop
    vertex -2.8199664825478975e-15 -57.999999999999986 0.0
    vertex 3.623466631435285 -55.522961568046945 0.0
    vertex 4.141104721640325 -57.45481322062508 0.0
  endloop
endfacet
facet normal 0.0 0.0 -1.0
  outer loop
    vertex 4.141104721640325 -57.45481322062508 0.0
    vertex 3.623466631435285 -55.522961568046945 0.0
    vertex 6.999999999999993 -54.124355652982125 0.0
  endloop
endfacet
facet normal 0.0 0.0 -1.0
  outer loop
    vertex 4.141104721640325 -57.45481322062508 0.0
    vertex 6.999999999999993 -54.124355652982125 0.0
    vertex 7.9999999999999964 -55.85640646055101 0.0
  endloop
endfacet
facet normal 0.0 0.0 -1.0
  outer loop
    vertex 7.9999999999999964 -55.85640646055101 0.0
    vertex 6.999999999999993 -54.124355652982125 0.0
    vertex 9.899494936611656 -51.89949493661166 0.0
  endloop
endfacet
facet normal 0.0 0.0 -1.0
  outer loop
    vertex 7.9999999999999964 -55.85640646055101 0.0
    vertex 9.899494936611656 -51.89949493661166 0.0
    vertex 11.313708498984754 -53.31370849898476 0.0
  endloop
endfacet
facet normal 0.0 0.0 -1.0
  outer loop
    vertex 11.313708498984754 -53.31370849898476 0.0
    vertex 9.899494936611656 -51.89949493661166 0.0
    vertex 12.124355652982132 -48.999999999999986 0.0
  endloop
endfacet
facet normal 0.0 0.0 -1.0
  outer loop
    vertex 11.313708498984754 -53.31370849898476 0.0
    vertex 12.124355652982132 -48.999999999999986 0.0
    vertex 13.85640646055101 -49.99999999999999 0.0
  endloop
endfacet
facet normal 0.0 0.0 -1.0
  outer loop
    vertex 13.85640646055101 -49.99999999999999 0.0
    vertex 12.124355652982132 -48.999999999999986 0.0
    vertex 13.522961568046947 -45.623466631435285 0.0
  endloop
endfacet
facet normal 0.0 0.0 -1.0
  outer loop
    vertex 13.85640646055101 -49.99999999999999 0.0
    vertex 13.522961568046947 -45.623466631435285 0.0
    vertex 13.999999999999996 -41.99999999999999 0.0
  endloop
endfacet
facet normal 0.0 0.0 -1.0
  outer loop
    vertex 13.85640646055101 -49.99999999999999 0.0
    vertex 13.999999999999996 -41.99999999999999 0.0
    vertex 15.454813220625091 -46.14110472164033 0.0
  endloop
endfacet
facet normal 0.0 0.0 -1.0
  outer loop
    vertex 15.454813220625091 -46.14110472164033 0.0
    vertex 13.999999999999996 -41.99999999999999 0.0
    vertex 15.454813220625091 -37.85889527835967 0.0
  endloop
endfacet
facet normal 0.0 0.0 -1.0
  outer loop
    vertex 15.454813220625091 -46.14110472164033 0.0
    vertex 15.454813220625091 -37.85889527835967 0.0
    vertex 15.999999999999998 -41.99999999999999 0.0
  endloop
endfacet
facet normal 0.0 0.0 1.0
  outer loop
    vertex -15.182219830937603 -56.211657082460384 20.0
    vertex -15.182219830937603 -43.78834291753952 20.0
    vertex -15.999999999999973 -50.00000000000001 20.0
  endloop
endfacet
facet normal 0.0 0.0 1.0
  outer loop
    vertex -15.182219830937603 -43.78834291753952 20.0
    vertex -15.182219830937603 -56.211657082460384 20.0
    vertex -12.784609690826526 -61.99999999999994 20.0
  endloop
endfacet
facet normal 0.0 0.0 1.0
  outer loop
    vertex -15.182219830937603 -43.78834291753952 20.0
    vertex -12.784609690826526 -61.99999999999994 20.0
    vertex -12.99999999999997 -50.00000000000001 20.0
  endloop
endfacet
facet normal 0.0 0.0 1.0
  outer loop
    vertex -12.99999999999997 -50.00000000000001 20.0
    vertex -12.784609690826526 -61.99999999999994 20.0
    vertex -12.284442352070432 -55.43519994715287 20.0
  endloop
endfacet
facet normal 0.0 0.0 1.0
  outer loop
    vertex -12.284442352070432 -55.43519994715287 20.0
    vertex -12.784609690826526 -61.99999999999994 20.0
    vertex -8.97056274847714 -66.97056274847708 20.0
  endloop
endfacet
facet normal 0.0 0.0 1.0
  outer loop
    vertex -12.284442352070432 -55.43519994715287 20.0
    vertex -8.97056274847714 -66.97056274847708 20.0
    vertex -10.186533479473217 -60.4999999999999 20.0
  endloop
endfacet
facet normal 0.0 0.0 1.0
  outer loop
    vertex -10.186533479473217 -60.4999999999999 20.0
    vertex -8.97056274847714 -66.97056274847708 20.0
    vertex -6.84924240491749 -64.8492424049174 20.0
  endloop
endfacet
facet normal 0.0 0.0 1.0
  outer loop
    vertex -6.84924240491749 -64.8492424049174 20.0
    vertex -8.97056274847714 -66.97056274847708 20.0
    vertex -4.00000000000001 -70.78460969082647 20.0
  endloop
endfacet
facet normal 0.0 0.0 1.0
  outer loop
    vertex -6.84924240491749 -64.8492424049174 20.0
    vertex -4.00000000000001 -70.78460969082647 20.0
    vertex -2.5000000000000027 -68.18653347947317 20.0
  endloop
endfacet
facet normal 0.0 0.0 1.0
  outer loop
    vertex -2.5000000000000027 -68.18653347947317 20.0
    vertex -4.00000000000001 -70.78460969082647 20.0
    vertex 1.7883429175394967 -73.18221983093761 20.0
  endloop
endfacet
facet normal 0.0 0.0 1.0
  outer loop
    vertex -2.5000000000000027 -68.18653347947317 20.0
    vertex 1.7883429175394967 -73.18221983093761 20.0
    vertex 2.5648000528470614 -70.28444235207037 20.0
  endloop
endfacet
facet normal 0.0 0.0 1.0
  outer loop
    vertex 2.5648000528470614 -70.28444235207037 20.0
    vertex 1.7883429175394967 -73.18221983093761 20.0
    vertex 7.999999999999991 -73.99999999999994 20.0
  endloop
endfacet
facet normal 0.0 0.0 1.0
  outer loop
    vertex 2.5648000528470614 -70.28444235207037 20.0
    vertex 7.999999999999991 -73.99999999999994 20.0
    vertex 7.999999999999991 -70.99999999999989 20.0
  endloop
endfacet
facet normal 0.0 0.0 1.0
  outer loop
    vertex 7.999999999999991 -70.99999999999989 20.0
    vertex 7.999999999999991 -73.99999999999994 20.0
    vertex 14.211657082460482 -73.18221983093761 20.0
  endloop
endfacet
facet normal 0.0 0.0 1.0
  outer loop
    vertex 7.999999999999991 -70.99999999999989 20.0
    vertex 14.211657082460482 -73.18221983093761 20.0
    vertex 13.435199947152933 -70.28444235207037 20.0
  endloop
endfacet
facet normal 0.0 0.0 1.0
  outer loop
    vertex 13.435199947152933 -70.28444235207037 20.0
    vertex 14.211657082460482 -73.18221983093761 20.0
    vertex 18.499999999999975 -68.18653347947317 20.0
  endloop
endfacet
facet normal 0.0 0.0 1.0
  outer loop
    vertex 18.499999999999975 -68.18653347947317 20.0
    vertex 14.211657082460482 -73.18221983093761 20.0
    vertex 19.999999999999986 -70.78460969082647 20.0
  endloop
endfacet
facet normal 0.0 0.0 1.0
  outer loop
    vertex 18.499999999999975 -68.18653347947317 20.0
    vertex 19.999999999999986 -70.78460969082647 20.0
    vertex 22.84924240491749 -64.84924240491742 20.0
  endloop
endfacet
facet normal 0.0 0.0 1.0
  outer loop
    vertex 22.84924240491749 -64.84924240491742 20.0
    vertex 19.999999999999986 -70.78460969082647 20.0
    vertex 24.970562748477164 -66.97056274847711 20.0
  endloop
endfacet
facet normal 0.0 0.0 1.0
  outer loop
    vertex 22.84924240491749 -64.84924240491742 20.0
    vertex 24.970562748477164 -66.97056274847711 20.0
    vertex 26.186533479473212 -60.499999999999936 20.0
  endloop
endfacet
facet normal 0.0 0.0 1.0
  outer loop
    vertex 26.186533479473212 -60.499999999999936 20.0
    vertex 24.970562748477164 -66.97056274847711 20.0
    vertex 28.784609690826507 -61.999999999999964 20.0
  endloop
endfacet
facet normal 0.0 0.0 1.0
  outer loop
    vertex 26.186533479473212 -60.499999999999936 20.0
    vertex 28.784609690826507 -61.999999999999964 20.0
    vertex 28.284442352070414 -55.43519994715289 20.0
  endloop
endfacet
facet normal 0.0 0.0 1.0
  outer loop
    vertex 28.284442352070414 -55.43519994715289 20.0
    vertex 28.784609690826507 -61.999999999999964 20.0
    vertex 28.999999999999982 -50.00000000000001 20.0
  endloop
endfacet
facet normal 0.0 0.0 1.0
  outer loop
    vertex 28.999999999999982 -50.00000000000001 20.0
    vertex 28.784609690826507 -61.999999999999964 20.0
    vertex 31.18221983093761 -56.21165708246042 20.0
  endloop
endfacet
facet normal 0.0 0.0 1.0
  outer loop
    vertex -12.99999999999997 -50.00000000000001 20.0
    vertex -12.784609690826521 -37.999999999999936 20.0
    vertex -15.182219830937603 -43.78834291753952 20.0
  endloop
endfacet
facet normal 0.0 0.0 1.0
  outer loop
    vertex -12.784609690826521 -37.999999999999936 20.0
    vertex -12.99999999999997 -50.00000000000001 20.0
    vertex -12.284442352070432 -44.56480005284707 20.0
  endloop
endfacet
facet normal 0.0 0.0 1.0
  outer loop
    vertex -12.784609690826521 -37.999999999999936 20.0
    vertex -12.284442352070432 -44.56480005284707 20.0
    vertex -8.97056274847714 -33.02943725152281 20.0
  endloop
endfacet
facet normal 0.0 0.0 1.0
  outer loop
    vertex -8.97056274847714 -33.02943725152281 20.0
    vertex -12.284442352070432 -44.56480005284707 20.0
    vertex -10.186533479473212 -39.500000000000014 20.0
  endloop
endfacet
facet normal 0.0 0.0 1.0
  outer loop
    vertex -8.97056274847714 -33.02943725152281 20.0
    vertex -10.186533479473212 -39.500000000000014 20.0
    vertex -6.84924240491749 -35.150757595082446 20.0
  endloop
endfacet
facet normal 0.0 0.0 1.0
  outer loop
    vertex -8.97056274847714 -33.02943725152281 20.0
    vertex -6.84924240491749 -35.150757595082446 20.0
    vertex -3.999999999999996 -29.215390309173454 20.0
  endloop
endfacet
facet normal 0.0 0.0 1.0
  outer loop
    vertex -3.999999999999996 -29.215390309173454 20.0
    vertex -6.84924240491749 -35.150757595082446 20.0
    vertex -2.4999999999999933 -31.813466520526738 20.0
  endloop
endfacet
facet normal 0.0 0.0 1.0
  outer loop
    vertex -3.999999999999996 -29.215390309173454 20.0
    vertex -2.4999999999999933 -31.813466520526738 20.0
    vertex 1.7883429175395045 -26.81778016906232 20.0
  endloop
endfacet
facet normal 0.0 0.0 1.0
  outer loop
    vertex 1.7883429175395045 -26.81778016906232 20.0
    vertex -2.4999999999999933 -31.813466520526738 20.0
    vertex 2.5648000528470654 -29.71555764792953 20.0
  endloop
endfacet
facet normal 0.0 0.0 1.0
  outer loop
    vertex 1.7883429175395045 -26.81778016906232 20.0
    vertex 2.5648000528470654 -29.71555764792953 20.0
    vertex 7.999999999999994 -25.99999999999994 20.0
  endloop
endfacet
facet normal 0.0 0.0 1.0
  outer loop
    vertex 7.999999999999994 -25.99999999999994 20.0
    vertex 2.5648000528470654 -29.71555764792953 20.0
    vertex 7.999999999999994 -28.999999999999964 20.0
  endloop
endfacet
facet normal 0.0 0.0 1.0
  outer loop
    vertex 7.999999999999994 -25.99999999999994 20.0
    vertex 7.999999999999994 -28.999999999999964 20.0
    vertex 13.435199947152958 -29.71555764792953 20.0
  endloop
endfacet
facet normal 0.0 0.0 1.0
  outer loop
    vertex 7.999999999999994 -25.99999999999994 20.0
    vertex 13.435199947152958 -29.71555764792953 20.0
    vertex 14.211657082460516 -26.81778016906232 20.0
  endloop
endfacet
facet normal 0.0 0.0 1.0
  outer loop
    vertex 14.211657082460516 -26.81778016906232 20.0
    vertex 13.435199947152958 -29.71555764792953 20.0
    vertex 18.499999999999993 -31.81346652052676 20.0
  endloop
endfacet
facet normal 0.0 0.0 1.0
  outer loop
    vertex 14.211657082460516 -26.81778016906232 20.0
    vertex 18.499999999999993 -31.81346652052676 20.0
    vertex 19.999999999999996 -29.215390309173454 20.0
  endloop
endfacet
facet normal 0.0 0.0 1.0
  outer loop
    vertex 19.999999999999996 -29.215390309173454 20.0
    vertex 18.499999999999993 -31.81346652052676 20.0
    vertex 22.8492424049175 -35.15075759508246 20.0
  endloop
endfacet
facet normal 0.0 0.0 1.0
  outer loop
    vertex 19.999999999999996 -29.215390309173454 20.0
    vertex 22.8492424049175 -35.15075759508246 20.0
    vertex 24.970562748477178 -33.02943725152282 20.0
  endloop
endfacet
facet normal 0.0 0.0 1.0
  outer loop
    vertex 24.970562748477178 -33.02943725152282 20.0
    vertex 22.8492424049175 -35.15075759508246 20.0
    vertex 26.18653347947324 -39.50000000000002 20.0
  endloop
endfacet
facet normal 0.0 0.0 1.0
  outer loop
    vertex 24.970562748477178 -33.02943725152282 20.0
    vertex 26.18653347947324 -39.50000000000002 20.0
    vertex 28.78460969082652 -37.99999999999995 20.0
  endloop
endfacet
facet normal 0.0 0.0 1.0
  outer loop
    vertex 28.78460969082652 -37.99999999999995 20.0
    vertex 26.18653347947324 -39.50000000000002 20.0
    vertex 28.284442352070425 -44.5648000528471 20.0
  endloop
endfacet
facet normal 0.0 0.0 1.0
  outer loop
    vertex 28.78460969082652 -37.99999999999995 20.0
    vertex 28.284442352070425 -44.5648000528471 20.0
    vertex 28.999999999999982 -50.00000000000001 20.0
  endloop
endfacet
facet normal 0.0 0.0 1.0
  outer loop
    vertex 28.78460969082652 -37.99999999999995 20.0
    vertex 28.999999999999982 -50.00000000000001 20.0
    vertex 31.18221983093761 -43.78834291753953 20.0
  endloop
endfacet
facet normal 0.0 0.0 1.0
  outer loop
    vertex 31.18221983093761 -43.78834291753953 20.0
    vertex 28.999999999999982 -50.00000000000001 20.0
    vertex 31.18221983093761 -56.21165708246042 20.0
  endloop
endfacet
facet normal 0.0 0.0 1.0
  outer loop
    vertex 31.18221983093761 -43.78834291753953 20.0
    vertex 31.18221983093761 -56.21165708246042 20.0
    vertex 31.999999999999993 -50.00000000000001 20.0
  endloop
endfacet
facet normal -0.5872451140078663 -0.7653127326520786 0.2635139414044286
  outer loop
    vertex 22.8492424049175 -35.15075759508246 20.0
    vertex 7.000000000000004 -29.875644347017854 0.0
    vertex 9.899494936611667 -32.100505063388326 0.0
  endloop
endfacet
facet normal -0.5872451140078663 -0.7653127326520786 0.2635139414044286
  outer loop
    vertex 7.000000000000004 -29.875644347017854 0.0
    vertex 22.8492424049175 -35.15075759508246 20.0
    vertex 18.499999999999993 -31.81346652052676 20.0
  endloop
endfacet
facet normal 0.37691512497976526 -0.9099536065897036 -0.17297231690614298
  outer loop
    vertex 2.5648000528470654 -29.71555764792953 20.0
    vertex -6.999999999999997 -29.875644347017847 0.0
    vertex -3.6234666314352904 -28.477038431953037 0.0
  endloop
endfacet
facet normal 0.37691512497976526 -0.9099536065897036 -0.17297231690614298
  outer loop
    vertex -6.999999999999997 -29.875644347017847 0.0
    vertex 2.5648000528470654 -29.71555764792953 20.0
    vertex -2.4999999999999933 -31.813466520526738 20.0
  endloop
endfacet
facet normal -0.5873961265501403 0.4507249005362291 0.672170257115337
  outer loop
    vertex 22.84924240491749 -64.84924240491742 20.0
    vertex 12.124355652982132 -48.999999999999986 0.0
    vertex 9.899494936611656 -51.89949493661166 0.0
  endloop
endfacet
facet normal -0.5873961265501403 0.4507249005362291 0.672170257115337
  outer loop
    vertex 12.124355652982132 -48.999999999999986 0.0
    vertex 22.84924240491749 -64.84924240491742 20.0
    vertex 26.186533479473212 -60.499999999999936 20.0
  endloop
endfacet
facet normal -0.5508555476478897 -0.7178889264650666 -0.42566848002216195
  outer loop
    vertex -4.00000000000001 -70.78460969082647 20.0
    vertex -11.313708498984761 -53.313708498984745 0.0
    vertex -8.000000000000005 -55.85640646055099 0.0
  endloop
endfacet
facet normal -0.5508555476478897 -0.7178889264650666 -0.42566848002216195
  outer loop
    vertex -11.313708498984761 -53.313708498984745 0.0
    vertex -4.00000000000001 -70.78460969082647 20.0
    vertex -8.97056274847714 -66.97056274847708 20.0
  endloop
endfacet
facet normal 0.5730520439152329 -0.4397182988126594 -0.6915628479421627
  outer loop
    vertex 13.85640646055101 -49.99999999999999 0.0
    vertex 24.970562748477164 -66.97056274847711 20.0
    vertex 11.313708498984754 -53.31370849898476 0.0
  endloop
endfacet
facet normal 0.5730520439152329 -0.4397182988126594 -0.6915628479421627
  outer loop
    vertex 24.970562748477164 -66.97056274847711 20.0
    vertex 13.85640646055101 -49.99999999999999 0.0
    vertex 28.784609690826507 -61.999999999999964 20.0
  endloop
endfacet
facet normal 0.2817404454003226 -0.6801816043544872 -0.6767387284051238
  outer loop
    vertex 19.999999999999986 -70.78460969082647 20.0
    vertex 4.141104721640325 -57.45481322062508 0.0
    vertex 7.9999999999999964 -55.85640646055101 0.0
  endloop
endfacet
facet normal 0.2817404454003226 -0.6801816043544872 -0.6767387284051238
  outer loop
    vertex 4.141104721640325 -57.45481322062508 0.0
    vertex 19.999999999999986 -70.78460969082647 20.0
    vertex 14.211657082460482 -73.18221983093761 20.0
  endloop
endfacet
facet normal -0.4507249005362292 0.5873961265501406 0.6721702571153366
  outer loop
    vertex 18.499999999999975 -68.18653347947317 20.0
    vertex 9.899494936611656 -51.89949493661166 0.0
    vertex 6.999999999999993 -54.124355652982125 0.0
  endloop
endfacet
facet normal -0.4507249005362292 0.5873961265501406 0.6721702571153366
  outer loop
    vertex 9.899494936611656 -51.89949493661166 0.0
    vertex 18.499999999999975 -68.18653347947317 20.0
    vertex 22.84924240491749 -64.84924240491742 20.0
  endloop
endfacet
facet normal 0.9863488755035723 -0.12985529295256135 -0.10125956095620407
  outer loop
    vertex -13.999999999999996 -41.99999999999999 0.0
    vertex -12.284442352070432 -44.56480005284707 20.0
    vertex -12.99999999999997 -50.00000000000001 20.0
  endloop
endfacet
facet normal 0.9863488755035723 -0.12985529295256135 -0.10125956095620407
  outer loop
    vertex -12.284442352070432 -44.56480005284707 20.0
    vertex -13.999999999999996 -41.99999999999999 0.0
    vertex -13.522961568046952 -38.376533368564694 0.0
  endloop
endfacet
facet normal -0.2887656413321059 0.6971419276513421 0.6562069316127563
  outer loop
    vertex 13.435199947152933 -70.28444235207037 20.0
    vertex 6.999999999999993 -54.124355652982125 0.0
    vertex 3.623466631435285 -55.522961568046945 0.0
  endloop
endfacet
facet normal -0.2887656413321059 0.6971419276513421 0.6562069316127563
  outer loop
    vertex 6.999999999999993 -54.124355652982125 0.0
    vertex 13.435199947152933 -70.28444235207037 20.0
    vertex 18.499999999999975 -68.18653347947317 20.0
  endloop
endfacet
facet normal -0.804892099001572 -0.33339722365339486 0.49091241604287406
  outer loop
    vertex 26.18653347947324 -39.50000000000002 20.0
    vertex 13.522961568046957 -38.37653336856471 0.0
    vertex 28.284442352070425 -44.5648000528471 20.0
  endloop
endfacet
facet normal -0.804892099001572 -0.33339722365339486 0.49091241604287406
  outer loop
    vertex 13.522961568046957 -38.37653336856471 0.0
    vertex 26.18653347947324 -39.50000000000002 20.0
    vertex 12.124355652982143 -35.0 0.0
  endloop
endfacet
facet normal -0.37946454661645146 -0.9161084548811874 0.12942935044407222
  outer loop
    vertex 18.499999999999993 -31.81346652052676 20.0
    vertex 3.623466631435302 -28.477038431953037 0.0
    vertex 7.000000000000004 -29.875644347017854 0.0
  endloop
endfacet
facet normal -0.37946454661645146 -0.9161084548811874 0.12942935044407222
  outer loop
    vertex 3.623466631435302 -28.477038431953037 0.0
    vertex 18.499999999999993 -31.81346652052676 20.0
    vertex 13.435199947152958 -29.71555764792953 20.0
  endloop
endfacet
facet normal -0.782861297940901 0.6007106017542915 0.16209553086462594
  outer loop
    vertex -8.97056274847714 -33.02943725152281 20.0
    vertex -13.856406460551016 -33.999999999999986 0.0
    vertex -12.784609690826521 -37.999999999999936 20.0
  endloop
endfacet
facet normal -0.782861297940901 0.6007106017542915 0.16209553086462594
  outer loop
    vertex -13.856406460551016 -33.999999999999986 0.0
    vertex -8.97056274847714 -33.02943725152281 20.0
    vertex -11.31370849898476 -30.68629150101523 0.0
  endloop
endfacet
facet normal -0.1305257379731509 -0.9914414110260497 0.0026382246379593353
  outer loop
    vertex 13.435199947152958 -29.71555764792953 20.0
    vertex 0.0 -27.999999999999993 0.0
    vertex 3.623466631435302 -28.477038431953037 0.0
  endloop
endfacet
facet normal -0.1305257379731509 -0.9914414110260497 0.0026382246379593353
  outer loop
    vertex 0.0 -27.999999999999993 0.0
    vertex 13.435199947152958 -29.71555764792953 20.0
    vertex 7.999999999999994 -28.999999999999964 20.0
  endloop
endfacet
facet normal 0.9099536065897025 -0.3769151249797667 -0.17297231690614517
  outer loop
    vertex -13.522961568046952 -38.376533368564694 0.0
    vertex -10.186533479473212 -39.500000000000014 20.0
    vertex -12.284442352070432 -44.56480005284707 20.0
  endloop
endfacet
facet normal 0.9099536065897025 -0.3769151249797667 -0.17297231690614517
  outer loop
    vertex -10.186533479473212 -39.500000000000014 20.0
    vertex -13.522961568046952 -38.376533368564694 0.0
    vertex -12.124355652982137 -34.999999999999986 0.0
  endloop
endfacet
facet normal -0.7550057896369148 -0.5793363184687694 -0.3071411527584537
  outer loop
    vertex -12.784609690826526 -61.99999999999994 20.0
    vertex -11.313708498984761 -53.313708498984745 0.0
    vertex -8.97056274847714 -66.97056274847708 20.0
  endloop
endfacet
facet normal -0.7550057896369148 -0.5793363184687694 -0.3071411527584537
  outer loop
    vertex -11.313708498984761 -53.313708498984745 0.0
    vertex -12.784609690826526 -61.99999999999994 20.0
    vertex -13.856406460551018 -49.99999999999998 0.0
  endloop
endfacet
facet normal -0.9092510507021253 -0.37662411680280045 -0.17724785313112174
  outer loop
    vertex -15.182219830937603 -56.211657082460384 20.0
    vertex -13.856406460551018 -49.99999999999998 0.0
    vertex -12.784609690826526 -61.99999999999994 20.0
  endloop
endfacet
facet normal -0.9092510507021253 -0.37662411680280045 -0.17724785313112174
  outer loop
    vertex -13.856406460551018 -49.99999999999998 0.0
    vertex -15.182219830937603 -56.211657082460384 20.0
    vertex -15.454813220625091 -46.14110472164032 0.0
  endloop
endfacet
facet normal 0.765312732652077 0.5872451140078688 0.26351394140442697
  outer loop
    vertex -9.899494936611664 -51.899494936611646 0.0
    vertex -10.186533479473217 -60.4999999999999 20.0
    vertex -6.84924240491749 -64.8492424049174 20.0
  endloop
endfacet
facet normal 0.765312732652077 0.5872451140078688 0.26351394140442697
  outer loop
    vertex -10.186533479473217 -60.4999999999999 20.0
    vertex -9.899494936611664 -51.899494936611646 0.0
    vertex -12.12435565298214 -48.999999999999986 0.0
  endloop
endfacet
facet normal -0.6971419276513406 0.2887656413321068 0.6562069316127574
  outer loop
    vertex 28.284442352070414 -55.43519994715289 20.0
    vertex 12.124355652982132 -48.999999999999986 0.0
    vertex 26.186533479473212 -60.499999999999936 20.0
  endloop
endfacet
facet normal -0.6971419276513406 0.2887656413321068 0.6562069316127574
  outer loop
    vertex 12.124355652982132 -48.999999999999986 0.0
    vertex 28.284442352070414 -55.43519994715289 20.0
    vertex 13.522961568046947 -45.623466631435285 0.0
  endloop
endfacet
facet normal -0.10487499310509374 -0.7966046602000588 -0.5953337309180086
  outer loop
    vertex 7.999999999999991 -73.99999999999994 20.0
    vertex -4.141104721640336 -57.45481322062508 0.0
    vertex -2.8199664825478975e-15 -57.999999999999986 0.0
  endloop
endfacet
facet normal -0.10487499310509374 -0.7966046602000588 -0.5953337309180086
  outer loop
    vertex -4.141104721640336 -57.45481322062508 0.0
    vertex 7.999999999999991 -73.99999999999994 20.0
    vertex 1.7883429175394967 -73.18221983093761 20.0
  endloop
endfacet
facet normal 0.1298552929525649 -0.9863488755035719 -0.10125956095620303
  outer loop
    vertex 7.999999999999994 -28.999999999999964 20.0
    vertex -3.6234666314352904 -28.477038431953037 0.0
    vertex 0.0 -27.999999999999993 0.0
  endloop
endfacet
facet normal 0.1298552929525649 -0.9863488755035719 -0.10125956095620303
  outer loop
    vertex -3.6234666314352904 -28.477038431953037 0.0
    vertex 7.999999999999994 -28.999999999999964 20.0
    vertex 2.5648000528470654 -29.71555764792953 20.0
  endloop
endfacet
facet normal 0.9161084548811887 0.3794645466164495 0.1294293504440687
  outer loop
    vertex -12.12435565298214 -48.999999999999986 0.0
    vertex -12.284442352070432 -55.43519994715287 20.0
    vertex -10.186533479473217 -60.4999999999999 20.0
  endloop
endfacet
facet normal 0.9161084548811887 0.3794645466164495 0.1294293504440687
  outer loop
    vertex -12.284442352070432 -55.43519994715287 20.0
    vertex -12.12435565298214 -48.999999999999986 0.0
    vertex -13.522961568046952 -45.62346663143528 0.0
  endloop
endfacet
facet normal -0.10213303674230567 0.7757774338804984 0.6226862901072929
  outer loop
    vertex 7.999999999999991 -70.99999999999989 20.0
    vertex 3.623466631435285 -55.522961568046945 0.0
    vertex -2.8199664825478975e-15 -55.999999999999986 0.0
  endloop
endfacet
facet normal -0.10213303674230567 0.7757774338804984 0.6226862901072929
  outer loop
    vertex 3.623466631435285 -55.522961568046945 0.0
    vertex 7.999999999999991 -70.99999999999989 20.0
    vertex 13.435199947152933 -70.28444235207037 20.0
  endloop
endfacet
facet normal 0.4397182988126587 -0.5730520439152332 -0.6915628479421629
  outer loop
    vertex 11.313708498984754 -53.31370849898476 0.0
    vertex 19.999999999999986 -70.78460969082647 20.0
    vertex 7.9999999999999964 -55.85640646055101 0.0
  endloop
endfacet
facet normal 0.4397182988126587 -0.5730520439152332 -0.6915628479421629
  outer loop
    vertex 19.999999999999986 -70.78460969082647 20.0
    vertex 11.313708498984754 -53.31370849898476 0.0
    vertex 24.970562748477164 -66.97056274847711 20.0
  endloop
endfacet
facet normal -0.9900963112150606 -0.1303486522235332 -0.052139460889411716
  outer loop
    vertex -15.999999999999973 -50.00000000000001 20.0
    vertex -15.454813220625091 -46.14110472164032 0.0
    vertex -15.182219830937603 -56.211657082460384 20.0
  endloop
endfacet
facet normal -0.9900963112150606 -0.1303486522235332 -0.052139460889411716
  outer loop
    vertex -15.454813220625091 -46.14110472164032 0.0
    vertex -15.999999999999973 -50.00000000000001 20.0
    vertex -15.999999999999998 -41.99999999999999 0.0
  endloop
endfacet
facet normal -0.13034865222353248 0.9900963112150608 0.05213946088941079
  outer loop
    vertex 1.7883429175395045 -26.81778016906232 20.0
    vertex 0.0 -25.999999999999993 0.0
    vertex -4.141104721640332 -26.545186779374898 0.0
  endloop
endfacet
facet normal -0.13034865222353248 0.9900963112150608 0.05213946088941079
  outer loop
    vertex 0.0 -25.999999999999993 0.0
    vertex 1.7883429175395045 -26.81778016906232 20.0
    vertex 7.999999999999994 -25.99999999999994 20.0
  endloop
endfacet
facet normal 0.7178889264650673 0.5508555476478856 -0.4256684800221662
  outer loop
    vertex 13.856406460551021 -34.0 0.0
    vertex 24.970562748477178 -33.02943725152282 20.0
    vertex 28.78460969082652 -37.99999999999995 20.0
  endloop
endfacet
facet normal 0.7178889264650673 0.5508555476478856 -0.4256684800221662
  outer loop
    vertex 24.970562748477178 -33.02943725152282 20.0
    vertex 13.856406460551021 -34.0 0.0
    vertex 11.313708498984761 -30.686291501015237 0.0
  endloop
endfacet
facet normal 0.7966046602000592 0.10487499310509919 -0.5953337309180068
  outer loop
    vertex 15.999999999999998 -41.99999999999999 0.0
    vertex 31.18221983093761 -43.78834291753953 20.0
    vertex 31.999999999999993 -50.00000000000001 20.0
  endloop
endfacet
facet normal 0.7966046602000592 0.10487499310509919 -0.5953337309180068
  outer loop
    vertex 31.18221983093761 -43.78834291753953 20.0
    vertex 15.999999999999998 -41.99999999999999 0.0
    vertex 15.454813220625091 -37.85889527835967 0.0
  endloop
endfacet
facet normal -0.326254108786745 -0.7876470942128995 -0.5226569730499564
  outer loop
    vertex 1.7883429175394967 -73.18221983093761 20.0
    vertex -8.000000000000005 -55.85640646055099 0.0
    vertex -4.141104721640336 -57.45481322062508 0.0
  endloop
endfacet
facet normal -0.326254108786745 -0.7876470942128995 -0.5226569730499564
  outer loop
    vertex -8.000000000000005 -55.85640646055099 0.0
    vertex 1.7883429175394967 -73.18221983093761 20.0
    vertex -4.00000000000001 -70.78460969082647 20.0
  endloop
endfacet
facet normal 0.579336318468767 0.7550057896369161 -0.30714115275845455
  outer loop
    vertex 19.999999999999996 -29.215390309173454 20.0
    vertex 11.313708498984761 -30.686291501015237 0.0
    vertex 8.000000000000007 -28.143593539448975 0.0
  endloop
endfacet
facet normal 0.579336318468767 0.7550057896369161 -0.30714115275845455
  outer loop
    vertex 11.313708498984761 -30.686291501015237 0.0
    vertex 19.999999999999996 -29.215390309173454 20.0
    vertex 24.970562748477178 -33.02943725152282 20.0
  endloop
endfacet
facet normal 0.757149338156913 -0.0996806014150047 -0.6455917110915317
  outer loop
    vertex 15.454813220625091 -46.14110472164033 0.0
    vertex 31.999999999999993 -50.00000000000001 20.0
    vertex 31.18221983093761 -56.21165708246042 20.0
  endloop
endfacet
facet normal 0.757149338156913 -0.0996806014150047 -0.6455917110915317
  outer loop
    vertex 31.999999999999993 -50.00000000000001 20.0
    vertex 15.454813220625091 -46.14110472164033 0.0
    vertex 15.999999999999998 -41.99999999999999 0.0
  endloop
endfacet
facet normal -0.8155147316099348 -0.10736455123576129 0.5686902282131459
  outer loop
    vertex 28.284442352070425 -44.5648000528471 20.0
    vertex 13.999999999999996 -41.99999999999999 0.0
    vertex 28.999999999999982 -50.00000000000001 20.0
  endloop
endfacet
facet normal -0.8155147316099348 -0.10736455123576129 0.5686902282131459
  outer loop
    vertex 13.999999999999996 -41.99999999999999 0.0
    vertex 28.284442352070425 -44.5648000528471 20.0
    vertex 13.522961568046957 -38.37653336856471 0.0
  endloop
endfacet
facet normal 0.33339722365339663 0.8048920990015723 0.4909124160428724
  outer loop
    vertex -2.5000000000000027 -68.18653347947317 20.0
    vertex -3.6234666314352935 -55.522961568046945 0.0
    vertex -7.000000000000003 -54.124355652982125 0.0
  endloop
endfacet
facet normal 0.33339722365339663 0.8048920990015723 0.4909124160428724
  outer loop
    vertex -3.6234666314352935 -55.522961568046945 0.0
    vertex -2.5000000000000027 -68.18653347947317 20.0
    vertex 2.5648000528470614 -70.28444235207037 20.0
  endloop
endfacet
facet normal -0.7757774338804958 0.10213303674231015 0.6226862901072957
  outer loop
    vertex 28.999999999999982 -50.00000000000001 20.0
    vertex 13.522961568046947 -45.623466631435285 0.0
    vertex 28.284442352070414 -55.43519994715289 20.0
  endloop
endfacet
facet normal -0.7757774338804958 0.10213303674231015 0.6226862901072957
  outer loop
    vertex 13.522961568046947 -45.623466631435285 0.0
    vertex 28.999999999999982 -50.00000000000001 20.0
    vertex 13.999999999999996 -41.99999999999999 0.0
  endloop
endfacet
facet normal 0.1303486522235324 0.9900963112150606 -0.0521394608894153
  outer loop
    vertex 7.999999999999994 -25.99999999999994 20.0
    vertex 4.141104721640344 -26.545186779374905 0.0
    vertex 0.0 -25.999999999999993 0.0
  endloop
endfacet
facet normal 0.1303486522235324 0.9900963112150606 -0.0521394608894153
  outer loop
    vertex 4.141104721640344 -26.545186779374905 0.0
    vertex 7.999999999999994 -25.99999999999994 20.0
    vertex 14.211657082460516 -26.81778016906232 20.0
  endloop
endfacet
facet normal 0.7876470942129008 0.3262541087867364 -0.5226569730499595
  outer loop
    vertex 15.454813220625091 -37.85889527835967 0.0
    vertex 28.78460969082652 -37.99999999999995 20.0
    vertex 31.18221983093761 -43.78834291753953 20.0
  endloop
endfacet
facet normal 0.7876470942129008 0.3262541087867364 -0.5226569730499595
  outer loop
    vertex 28.78460969082652 -37.99999999999995 20.0
    vertex 15.454813220625091 -37.85889527835967 0.0
    vertex 13.856406460551021 -34.0 0.0
  endloop
endfacet
facet normal 0.6801816043544898 -0.2817404454003181 -0.676738728405123
  outer loop
    vertex 13.85640646055101 -49.99999999999999 0.0
    vertex 31.18221983093761 -56.21165708246042 20.0
    vertex 28.784609690826507 -61.999999999999964 20.0
  endloop
endfacet
facet normal 0.6801816043544898 -0.2817404454003181 -0.676738728405123
  outer loop
    vertex 31.18221983093761 -56.21165708246042 20.0
    vertex 13.85640646055101 -49.99999999999999 0.0
    vertex 15.454813220625091 -46.14110472164033 0.0
  endloop
endfacet
facet normal -0.9900963112150606 0.1303486522235315 0.05213946088941419
  outer loop
    vertex -15.182219830937603 -43.78834291753952 20.0
    vertex -15.999999999999998 -41.99999999999999 0.0
    vertex -15.999999999999973 -50.00000000000001 20.0
  endloop
endfacet
facet normal -0.9900963112150606 0.1303486522235315 0.05213946088941419
  outer loop
    vertex -15.999999999999998 -41.99999999999999 0.0
    vertex -15.182219830937603 -43.78834291753952 20.0
    vertex -15.454813220625091 -37.858895278359654 0.0
  endloop
endfacet
facet normal 0.09968060141499953 -0.7571493381569149 -0.6455917110915305
  outer loop
    vertex 14.211657082460482 -73.18221983093761 20.0
    vertex -2.8199664825478975e-15 -57.999999999999986 0.0
    vertex 4.141104721640325 -57.45481322062508 0.0
  endloop
endfacet
facet normal 0.09968060141499953 -0.7571493381569149 -0.6455917110915305
  outer loop
    vertex -2.8199664825478975e-15 -57.999999999999986 0.0
    vertex 14.211657082460482 -73.18221983093761 20.0
    vertex 7.999999999999991 -73.99999999999994 20.0
  endloop
endfacet
facet normal 0.3766241168028084 0.9092510507021208 -0.17724785313112934
  outer loop
    vertex 14.211657082460516 -26.81778016906232 20.0
    vertex 8.000000000000007 -28.143593539448975 0.0
    vertex 4.141104721640344 -26.545186779374905 0.0
  endloop
endfacet
facet normal 0.3766241168028084 0.9092510507021208 -0.17724785313112934
  outer loop
    vertex 8.000000000000007 -28.143593539448975 0.0
    vertex 14.211657082460516 -26.81778016906232 20.0
    vertex 19.999999999999996 -29.215390309173454 20.0
  endloop
endfacet
facet normal -0.9166265884842476 0.37967916458195045 0.12505770374544026
  outer loop
    vertex -12.784609690826521 -37.999999999999936 20.0
    vertex -15.454813220625091 -37.858895278359654 0.0
    vertex -15.182219830937603 -43.78834291753952 20.0
  endloop
endfacet
facet normal -0.9166265884842476 0.37967916458195045 0.12505770374544026
  outer loop
    vertex -15.454813220625091 -37.858895278359654 0.0
    vertex -12.784609690826521 -37.999999999999936 20.0
    vertex -13.856406460551016 -33.999999999999986 0.0
  endloop
endfacet
facet normal 0.9914414110260499 0.1305257379731493 0.0026382246379563963
  outer loop
    vertex -13.522961568046952 -45.62346663143528 0.0
    vertex -12.99999999999997 -50.00000000000001 20.0
    vertex -12.284442352070432 -55.43519994715287 20.0
  endloop
endfacet
facet normal 0.9914414110260499 0.1305257379731493 0.0026382246379563963
  outer loop
    vertex -12.99999999999997 -50.00000000000001 20.0
    vertex -13.522961568046952 -45.62346663143528 0.0
    vertex -13.999999999999996 -41.99999999999999 0.0
  endloop
endfacet
facet normal -0.7312374552827265 -0.5610982340594904 0.3878924538154408
  outer loop
    vertex 22.8492424049175 -35.15075759508246 20.0
    vertex 12.124355652982143 -35.0 0.0
    vertex 26.18653347947324 -39.50000000000002 20.0
  endloop
endfacet
facet normal -0.7312374552827265 -0.5610982340594904 0.3878924538154408
  outer loop
    vertex 12.124355652982143 -35.0 0.0
    vertex 22.8492424049175 -35.15075759508246 20.0
    vertex 9.899494936611667 -32.100505063388326 0.0
  endloop
endfacet
facet normal 0.7758135532096367 -0.5953026770176005 -0.20911253762487927
  outer loop
    vertex -12.124355652982137 -34.999999999999986 0.0
    vertex -6.84924240491749 -35.150757595082446 20.0
    vertex -10.186533479473212 -39.500000000000014 20.0
  endloop
endfacet
facet normal 0.7758135532096367 -0.5953026770176005 -0.20911253762487927
  outer loop
    vertex -6.84924240491749 -35.150757595082446 20.0
    vertex -12.124355652982137 -34.999999999999986 0.0
    vertex -9.899494936611662 -32.100505063388326 0.0
  endloop
endfacet
facet normal 0.5953026770176038 -0.7758135532096347 -0.20911253762487833
  outer loop
    vertex -2.4999999999999933 -31.813466520526738 20.0
    vertex -9.899494936611662 -32.100505063388326 0.0
    vertex -6.999999999999997 -29.875644347017847 0.0
  endloop
endfacet
facet normal 0.5953026770176038 -0.7758135532096347 -0.20911253762487833
  outer loop
    vertex -9.899494936611662 -32.100505063388326 0.0
    vertex -2.4999999999999933 -31.813466520526738 20.0
    vertex -6.84924240491749 -35.150757595082446 20.0
  endloop
endfacet
facet normal 0.10736455123575911 0.8155147316099355 0.568690228213145
  outer loop
    vertex 2.5648000528470614 -70.28444235207037 20.0
    vertex -2.8199664825478975e-15 -55.999999999999986 0.0
    vertex -3.6234666314352935 -55.522961568046945 0.0
  endloop
endfacet
facet normal 0.10736455123575911 0.8155147316099355 0.568690228213145
  outer loop
    vertex -2.8199664825478975e-15 -55.999999999999986 0.0
    vertex 2.5648000528470614 -70.28444235207037 20.0
    vertex 7.999999999999991 -70.99999999999989 20.0
  endloop
endfacet
facet normal -0.6007106017542889 0.7828612979409031 0.16209553086462603
  outer loop
    vertex -8.97056274847714 -33.02943725152281 20.0
    vertex -7.999999999999998 -28.143593539448975 0.0
    vertex -11.31370849898476 -30.68629150101523 0.0
  endloop
endfacet
facet normal -0.6007106017542889 0.7828612979409031 0.16209553086462603
  outer loop
    vertex -7.999999999999998 -28.143593539448975 0.0
    vertex -8.97056274847714 -33.02943725152281 20.0
    vertex -3.999999999999996 -29.215390309173454 20.0
  endloop
endfacet
facet normal 0.5610982340595 0.731237455282723 0.3878924538154338
  outer loop
    vertex -6.84924240491749 -64.8492424049174 20.0
    vertex -7.000000000000003 -54.124355652982125 0.0
    vertex -9.899494936611664 -51.899494936611646 0.0
  endloop
endfacet
facet normal 0.5610982340595 0.731237455282723 0.3878924538154338
  outer loop
    vertex -7.000000000000003 -54.124355652982125 0.0
    vertex -6.84924240491749 -64.8492424049174 20.0
    vertex -2.5000000000000027 -68.18653347947317 20.0
  endloop
endfacet
facet normal -0.3796791645819585 0.9166265884842443 0.12505770374544045
  outer loop
    vertex -3.999999999999996 -29.215390309173454 20.0
    vertex -4.141104721640332 -26.545186779374898 0.0
    vertex -7.999999999999998 -28.143593539448975 0.0
  endloop
endfacet
facet normal -0.3796791645819585 0.9166265884842443 0.12505770374544045
  outer loop
    vertex -4.141104721640332 -26.545186779374898 0.0
    vertex -3.999999999999996 -29.215390309173454 20.0
    vertex 1.7883429175395045 -26.81778016906232 20.0
  endloop
endfacet
endsolid Untitled-55f0e8aa
