solid Untitled
facet normal -0.9969860317826973 0.0699669314754939 0.033518367055904275
  outer loop
    vertex 42.539769032127104 12.172655188794636 7.9092111563746315
    vertex 41.66358206848653 0.0 7.256946907521469
    vertex 41.68551099408182 0.0 7.909211156374633
  endloop
endfacet
facet normal -0.9969860317826973 0.0699669314754939 0.033518367055904275
  outer loop
    vertex 41.66358206848653 0.0 7.256946907521469
    vertex 42.539769032127104 12.172655188794636 7.9092111563746315
    vertex 42.517947577510796 12.174186584592734 7.256946907521466
  endloop
endfacet
facet normal 0.5274495551480666 -0.03701559069572672 0.8487796020284379
  outer loop
    vertex 45.749291321693704 0.0 9.431257168368237
    vertex 46.031052485433825 11.92764233770959 9.776333705981752
    vertex 45.1939890687935 0.0 9.776333705981727
  endloop
endfacet
facet normal 0.5274495551480666 -0.03701559069572672 0.8487796020284379
  outer loop
    vertex 46.031052485433825 11.92764233770959 9.776333705981752
    vertex 45.749291321693704 0.0 9.431257168368237
    vertex 46.583633269993456 11.888863076360435 9.431257168368257
  endloop
endfacet
facet normal -0.7286184991204242 0.05113331478534417 -0.6830083944275965
  outer loop
    vertex 42.971707935719245 12.142342387305137 6.045431353716164
    vertex 42.56642594827721 0.0 5.568742831631719
    vertex 42.1195772030093 0.0 6.045431353716139
  endloop
endfacet
facet normal -0.7286184991204242 0.05113331478534417 -0.6830083944275965
  outer loop
    vertex 42.56642594827721 0.0 5.568742831631719
    vertex 42.971707935719245 12.142342387305137 6.045431353716164
    vertex 43.416366730006544 12.111136923639567 5.568742831631744
  endloop
endfacet
facet normal -0.5274495551480609 0.03701559069572566 -0.8487796020284415
  outer loop
    vertex 43.416366730006544 12.111136923639567 5.568742831631744
    vertex 43.12172820117743 0.0 5.223666294018229
    vertex 42.56642594827721 0.0 5.568742831631719
  endloop
endfacet
facet normal -0.5274495551480609 0.03701559069572566 -0.8487796020284415
  outer loop
    vertex 43.12172820117743 0.0 5.223666294018229
    vertex 43.416366730006544 12.111136923639567 5.568742831631744
    vertex 43.96894751456618 12.07235766229041 5.223666294018249
  endloop
endfacet
facet normal -0.8801332964767223 0.06176638797413866 -0.47069129347125843
  outer loop
    vertex 42.66527389370156 12.16384745250778 6.621246325256486
    vertex 42.1195772030093 0.0 6.045431353716139
    vertex 41.81163396891124 0.0 6.6212463252564655
  endloop
endfacet
facet normal -0.8801332964767223 0.06176638797413866 -0.47069129347125843
  outer loop
    vertex 42.1195772030093 0.0 6.045431353716139
    vertex 42.66527389370156 12.16384745250778 6.621246325256486
    vertex 42.971707935719245 12.142342387305137 6.045431353716164
  endloop
endfacet
facet normal 0.03343613146933801 -0.0023464957830328843 0.9994381016700863
  outer loop
    vertex 44.5680762391158 0.0 9.966281863351902
    vertex 45.0 12.0 9.980005664475573
    vertex 44.15785863498549 0.0 9.980005664475572
  endloop
endfacet
facet normal 0.03343613146933801 -0.0023464957830328843 0.9994381016700863
  outer loop
    vertex 45.0 12.0 9.980005664475573
    vertex 44.5680762391158 0.0 9.966281863351902
    vertex 45.408207177886666 11.971352654167148 9.966281863351904
  endloop
endfacet
facet normal -0.2903357956439734 0.020375315271350284 -0.9567078824256515
  outer loop
    vertex 43.96894751456618 12.07235766229041 5.223666294018249
    vertex 43.747641030855156 0.0 5.033718136648083
    vertex 43.12172820117743 0.0 5.223666294018229
  endloop
endfacet
facet normal -0.2903357956439734 0.020375315271350284 -0.9567078824256515
  outer loop
    vertex 43.747641030855156 0.0 5.033718136648083
    vertex 43.96894751456618 12.07235766229041 5.223666294018249
    vertex 44.591792822113334 12.028647345832852 5.033718136648094
  endloop
endfacet
facet normal -0.46953647663462805 0.03295134077976742 0.8822979690843423
  outer loop
    vertex 43.27694368079011 0.0 9.840468324742915
    vertex 43.549000062944614 12.101828922302325 9.533280613503218
    vertex 42.69971250229462 0.0 9.533280613503244
  endloop
endfacet
facet normal -0.46953647663462805 0.03295134077976742 0.8822979690843423
  outer loop
    vertex 43.549000062944614 12.101828922302325 9.533280613503218
    vertex 43.27694368079011 0.0 9.840468324742915
    vertex 44.12340230212056 12.06151826515507 9.840468324742888
  endloop
endfacet
facet normal -0.9543606489295446 0.06697554830047518 0.29104987150766726
  outer loop
    vertex 42.729251161480036 12.159357627206374 8.533588341174276
    vertex 41.68551099408182 0.0 7.909211156374633
    vertex 41.87592632565704 0.0 8.533588341174287
  endloop
endfacet
facet normal -0.9543606489295446 0.06697554830047518 0.29104987150766726
  outer loop
    vertex 41.68551099408182 0.0 7.909211156374633
    vertex 42.729251161480036 12.159357627206374 8.533588341174276
    vertex 42.539769032127104 12.172655188794636 7.9092111563746315
  endloop
endfacet
facet normal 0.22574214980912255 -0.015842233515131813 -0.9740582659352611
  outer loop
    vertex 45.242456774239216 11.982984760098764 5.011843012541887
    vertex 45.03877358918083 0.0 5.159531675257125
    vertex 44.40150951233772 0.0 5.0118430125419
  endloop
endfacet
facet normal 0.22574214980912255 -0.015842233515131813 -0.9740582659352611
  outer loop
    vertex 45.03877358918083 0.0 5.159531675257125
    vertex 45.242456774239216 11.982984760098764 5.011843012541887
    vertex 45.87659769787945 11.938481734844931 5.159531675257113
  endloop
endfacet
facet normal 0.03343613146933523 -0.002346495783032671 0.9994381016700863
  outer loop
    vertex 44.15785863498549 0.0 9.980005664475572
    vertex 44.75754322576079 12.017015239901237 9.988156987458114
    vertex 43.91420775763323 0.0 9.988156987458112
  endloop
endfacet
facet normal 0.03343613146933523 -0.002346495783032671 0.9994381016700863
  outer loop
    vertex 44.75754322576079 12.017015239901237 9.988156987458114
    vertex 44.15785863498549 0.0 9.980005664475572
    vertex 45.0 12.0 9.980005664475573
  endloop
endfacet
facet normal -0.6813326685231946 0.047814868624927245 0.7304105237066644
  outer loop
    vertex 42.69971250229462 0.0 9.533280613503244
    vertex 43.073481071588226 12.135200106674926 9.08752818860839
    vertex 42.22185157304157 0.0 9.087528188608417
  endloop
endfacet
facet normal -0.6813326685231946 0.047814868624927245 0.7304105237066644
  outer loop
    vertex 43.073481071588226 12.135200106674926 9.08752818860839
    vertex 42.69971250229462 0.0 9.533280613503244
    vertex 43.549000062944614 12.101828922302325 9.533280613503218
  endloop
endfacet
facet normal 0.7286184991204374 -0.051133314785346176 0.6830083944275823
  outer loop
    vertex 47.028292064280755 11.857657612694863 8.954568646283837
    vertex 45.749291321693704 0.0 9.431257168368237
    vertex 46.19614006696157 0.0 8.954568646283816
  endloop
endfacet
facet normal 0.7286184991204374 -0.051133314785346176 0.6830083944275823
  outer loop
    vertex 45.749291321693704 0.0 9.431257168368237
    vertex 47.028292064280755 11.857657612694863 8.954568646283837
    vertex 46.583633269993456 11.888863076360435 9.431257168368257
  endloop
endfacet
facet normal -0.22574214980910842 0.015842233515130193 0.9740582659352643
  outer loop
    vertex 43.91420775763323 0.0 9.988156987458112
    vertex 44.12340230212056 12.06151826515507 9.840468324742888
    vertex 43.27694368079011 0.0 9.840468324742915
  endloop
endfacet
facet normal -0.22574214980910842 0.015842233515130193 0.9740582659352643
  outer loop
    vertex 44.12340230212056 12.06151826515507 9.840468324742888
    vertex 43.91420775763323 0.0 9.988156987458112
    vertex 44.75754322576079 12.017015239901237 9.988156987458114
  endloop
endfacet
facet normal -0.8466971650073842 0.05941989219110561 0.5287468081988352
  outer loop
    vertex 43.073481071588226 12.135200106674926 9.08752818860839
    vertex 41.87592632565704 0.0 8.533588341174287
    vertex 42.22185157304157 0.0 9.087528188608417
  endloop
endfacet
facet normal -0.8466971650073842 0.05941989219110561 0.5287468081988352
  outer loop
    vertex 41.87592632565704 0.0 8.533588341174287
    vertex 43.073481071588226 12.135200106674926 9.08752818860839
    vertex 42.729251161480036 12.159357627206374 8.533588341174276
  endloop
endfacet
facet normal -0.9716684641671758 0.06819018389627829 -0.22629735871899534
  outer loop
    vertex 42.517947577510796 12.174186584592734 7.256946907521466
    vertex 41.81163396891124 0.0 6.6212463252564655
    vertex 41.66358206848653 0.0 7.256946907521469
  endloop
endfacet
facet normal -0.9716684641671758 0.06819018389627829 -0.22629735871899534
  outer loop
    vertex 41.81163396891124 0.0 6.6212463252564655
    vertex 42.517947577510796 12.174186584592734 7.256946907521466
    vertex 42.66527389370156 12.16384745250778 6.621246325256486
  endloop
endfacet
facet normal 0.290335795643995 -0.020375315271352078 0.9567078824256448
  outer loop
    vertex 45.1939890687935 0.0 9.776333705981727
    vertex 45.408207177886666 11.971352654167148 9.966281863351904
    vertex 44.5680762391158 0.0 9.966281863351902
  endloop
endfacet
facet normal 0.290335795643995 -0.020375315271352078 0.9567078824256448
  outer loop
    vertex 45.408207177886666 11.971352654167148 9.966281863351904
    vertex 45.1939890687935 0.0 9.776333705981727
    vertex 46.031052485433825 11.92764233770959 9.776333705981752
  endloop
endfacet
facet normal -0.03343613146932593 0.0023464957830322047 -0.9994381016700865
  outer loop
    vertex 44.591792822113334 12.028647345832852 5.033718136648094
    vertex 44.15785863498549 0.0 5.019994335524425
    vertex 43.747641030855156 0.0 5.033718136648083
  endloop
endfacet
facet normal -0.03343613146932593 0.0023464957830322047 -0.9994381016700865
  outer loop
    vertex 44.15785863498549 0.0 5.019994335524425
    vertex 44.591792822113334 12.028647345832852 5.033718136648094
    vertex 45.0 12.0 5.0199943355244265
  endloop
endfacet
facet normal -0.03343613146931643 0.002346495783031126 -0.999438101670087
  outer loop
    vertex 45.0 12.0 5.0199943355244265
    vertex 44.40150951233772 0.0 5.0118430125419
    vertex 44.15785863498549 0.0 5.019994335524425
  endloop
endfacet
facet normal -0.03343613146931643 0.002346495783031126 -0.999438101670087
  outer loop
    vertex 44.40150951233772 0.0 5.0118430125419
    vertex 45.0 12.0 5.0199943355244265
    vertex 45.242456774239216 11.982984760098764 5.011843012541887
  endloop
endfacet
facet normal 0.9543606489295473 -0.06697554830047699 -0.2910498715076571
  outer loop
    vertex 47.27074883851997 11.840642372793628 6.466411658825724
    vertex 46.63020627588902 0.0 7.09078884362537
    vertex 46.43979094431383 0.0 6.466411658825747
  endloop
endfacet
facet normal 0.9543606489295473 -0.06697554830047699 -0.2910498715076571
  outer loop
    vertex 46.63020627588902 0.0 7.09078884362537
    vertex 47.27074883851997 11.840642372793628 6.466411658825724
    vertex 47.4602309678729 11.827344811205366 7.090788843625369
  endloop
endfacet
facet normal 0.46953647663463727 -0.03295134077976879 -0.8822979690843376
  outer loop
    vertex 45.87659769787945 11.938481734844931 5.159531675257113
    vertex 45.61600476767632 0.0 5.46671938649681
    vertex 45.03877358918083 0.0 5.159531675257125
  endloop
endfacet
facet normal 0.46953647663463727 -0.03295134077976879 -0.8822979690843376
  outer loop
    vertex 45.61600476767632 0.0 5.46671938649681
    vertex 45.87659769787945 11.938481734844931 5.159531675257113
    vertex 46.450999937055386 11.898171077697675 5.466719386496784
  endloop
endfacet
facet normal 0.8801332964767223 -0.06176638797414076 0.4706912934712583
  outer loop
    vertex 47.33472610629845 11.836152547492222 8.378753674743516
    vertex 46.19614006696157 0.0 8.954568646283816
    vertex 46.50408330105963 0.0 8.378753674743496
  endloop
endfacet
facet normal 0.8801332964767223 -0.06176638797414076 0.4706912934712583
  outer loop
    vertex 46.19614006696157 0.0 8.954568646283816
    vertex 47.33472610629845 11.836152547492222 8.378753674743516
    vertex 47.028292064280755 11.857657612694863 8.954568646283837
  endloop
endfacet
facet normal 0.971668464167178 -0.0681901838962803 0.22629735871898538
  outer loop
    vertex 47.48205242248921 11.825813415407266 7.743053092478535
    vertex 46.50408330105963 0.0 8.378753674743496
    vertex 46.65213520148431 0.0 7.743053092478535
  endloop
endfacet
facet normal 0.971668464167178 -0.0681901838962803 0.22629735871898538
  outer loop
    vertex 46.50408330105963 0.0 8.378753674743496
    vertex 47.48205242248921 11.825813415407266 7.743053092478535
    vertex 47.33472610629845 11.836152547492222 8.378753674743516
  endloop
endfacet
facet normal 0.6813326685232081 -0.04781486862492984 -0.7304105237066515
  outer loop
    vertex 46.450999937055386 11.898171077697675 5.466719386496784
    vertex 46.09386569692932 0.0 5.91247181139163
    vertex 45.61600476767632 0.0 5.46671938649681
  endloop
endfacet
facet normal 0.6813326685232081 -0.04781486862492984 -0.7304105237066515
  outer loop
    vertex 46.09386569692932 0.0 5.91247181139163
    vertex 46.450999937055386 11.898171077697675 5.466719386496784
    vertex 46.92651892841178 11.864799893325074 5.912471811391611
  endloop
endfacet
facet normal 0.8466971650073871 -0.05941989219110795 -0.5287468081988304
  outer loop
    vertex 46.92651892841178 11.864799893325074 5.912471811391611
    vertex 46.43979094431383 0.0 6.466411658825747
    vertex 46.09386569692932 0.0 5.91247181139163
  endloop
endfacet
facet normal 0.8466971650073871 -0.05941989219110795 -0.5287468081988304
  outer loop
    vertex 46.43979094431383 0.0 6.466411658825747
    vertex 46.92651892841178 11.864799893325074 5.912471811391611
    vertex 47.27074883851997 11.840642372793628 6.466411658825724
  endloop
endfacet
facet normal 0.9969860317826971 -0.0699669314754956 -0.03351836705590385
  outer loop
    vertex 47.4602309678729 11.827344811205366 7.090788843625369
    vertex 46.65213520148431 0.0 7.743053092478535
    vertex 46.63020627588902 0.0 7.09078884362537
  endloop
endfacet
facet normal 0.9969860317826971 -0.0699669314754956 -0.03351836705590385
  outer loop
    vertex 46.65213520148431 0.0 7.743053092478535
    vertex 47.4602309678729 11.827344811205366 7.090788843625369
    vertex 47.48205242248921 11.825813415407266 7.743053092478535
  endloop
endfacet
facet normal -0.0 -0.0 1.0
  outer loop
    vertex 0.0 0.0 0.0
    vertex 62.946979860690746 10.740508823519061 0.0
    vertex -9.865060333820523 15.850344733427574 0.0
  endloop
endfacet
facet normal -0.0 -0.0 1.0
  outer loop
    vertex 62.946979860690746 10.740508823519061 0.0
    vertex 0.0 0.0 0.0
    vertex 60.32299910860401 0.0 0.0
  endloop
endfacet
facet normal -0.0 -0.0 1.0
  outer loop
    vertex 0.0 0.0 15.0
    vertex 62.946979860690746 10.740508823519061 15.0
    vertex -9.865060333820523 15.850344733427574 15.0
  endloop
endfacet
facet normal -0.0 -0.0 1.0
  outer loop
    vertex 62.946979860690746 10.740508823519061 15.0
    vertex 0.0 0.0 15.0
    vertex 60.32299910860401 0.0 15.0
  endloop
endfacet
facet normal -0.8489935624186704 -0.5284031897818705 0.0
  outer loop
    vertex -9.865060333820523 15.850344733427574 15.0
    vertex 0.0 0.0 0.0
    vertex 0.0 0.0 15.0
  endloop
endfacet
facet normal -0.8489935624186704 -0.5284031897818705 0.0
  outer loop
    vertex 0.0 0.0 0.0
    vertex -9.865060333820523 15.850344733427574 15.0
    vertex -9.865060333820523 15.850344733427574 0.0
  endloop
endfacet
facet normal -0.9714298110982206 0.2373270361962065 0.0
  outer loop
    vertex 62.946979860690746 10.740508823519061 15.0
    vertex 60.32299910860401 0.0 0.0
    vertex 60.32299910860401 0.0 15.0
  endloop
endfacet
facet normal -0.9714298110982206 0.2373270361962065 0.0
  outer loop
    vertex 60.32299910860401 0.0 0.0
    vertex 62.946979860690746 10.740508823519061 15.0
    vertex 62.946979860690746 10.740508823519061 0.0
  endloop
endfacet
facet normal 0.0 -1.0 0.0
  outer loop
    vertex 60.32299910860401 0.0 0.0
    vertex 44.40150951233772 0.0 5.0118430125419
    vertex 0.0 0.0 0.0
  endloop
endfacet
facet normal 0.0 -1.0 0.0
  outer loop
    vertex 44.40150951233772 0.0 5.0118430125419
    vertex 60.32299910860401 0.0 0.0
    vertex 45.03877358918083 0.0 5.159531675257125
  endloop
endfacet
facet normal 0.0 -1.0 0.0
  outer loop
    vertex 45.03877358918083 0.0 5.159531675257125
    vertex 60.32299910860401 0.0 0.0
    vertex 45.61600476767632 0.0 5.46671938649681
  endloop
endfacet
facet normal 0.0 -1.0 0.0
  outer loop
    vertex 45.61600476767632 0.0 5.46671938649681
    vertex 60.32299910860401 0.0 0.0
    vertex 60.32299910860401 0.0 15.0
  endloop
endfacet
facet normal 0.0 -1.0 0.0
  outer loop
    vertex 45.61600476767632 0.0 5.46671938649681
    vertex 60.32299910860401 0.0 15.0
    vertex 46.09386569692932 0.0 5.91247181139163
  endloop
endfacet
facet normal 0.0 -1.0 0.0
  outer loop
    vertex 46.09386569692932 0.0 5.91247181139163
    vertex 60.32299910860401 0.0 15.0
    vertex 46.43979094431383 0.0 6.466411658825747
  endloop
endfacet
facet normal 0.0 -1.0 0.0
  outer loop
    vertex 46.43979094431383 0.0 6.466411658825747
    vertex 60.32299910860401 0.0 15.0
    vertex 46.63020627588902 0.0 7.09078884362537
  endloop
endfacet
facet normal 0.0 -1.0 0.0
  outer loop
    vertex 46.63020627588902 0.0 7.09078884362537
    vertex 60.32299910860401 0.0 15.0
    vertex 46.65213520148431 0.0 7.743053092478535
  endloop
endfacet
facet normal 0.0 -1.0 0.0
  outer loop
    vertex 46.65213520148431 0.0 7.743053092478535
    vertex 60.32299910860401 0.0 15.0
    vertex 46.50408330105963 0.0 8.378753674743496
  endloop
endfacet
facet normal 0.0 -1.0 0.0
  outer loop
    vertex 46.50408330105963 0.0 8.378753674743496
    vertex 60.32299910860401 0.0 15.0
    vertex 46.19614006696157 0.0 8.954568646283816
  endloop
endfacet
facet normal 0.0 -1.0 0.0
  outer loop
    vertex 46.19614006696157 0.0 8.954568646283816
    vertex 60.32299910860401 0.0 15.0
    vertex 45.749291321693704 0.0 9.431257168368237
  endloop
endfacet
facet normal 0.0 -1.0 0.0
  outer loop
    vertex 45.749291321693704 0.0 9.431257168368237
    vertex 60.32299910860401 0.0 15.0
    vertex 45.1939890687935 0.0 9.776333705981727
  endloop
endfacet
facet normal 0.0 -1.0 0.0
  outer loop
    vertex 45.1939890687935 0.0 9.776333705981727
    vertex 60.32299910860401 0.0 15.0
    vertex 44.5680762391158 0.0 9.966281863351902
  endloop
endfacet
facet normal 0.0 -1.0 0.0
  outer loop
    vertex 44.5680762391158 0.0 9.966281863351902
    vertex 60.32299910860401 0.0 15.0
    vertex 44.15785863498549 0.0 9.980005664475572
  endloop
endfacet
facet normal 0.0 -1.0 0.0
  outer loop
    vertex 44.15785863498549 0.0 9.980005664475572
    vertex 60.32299910860401 0.0 15.0
    vertex 43.91420775763323 0.0 9.988156987458112
  endloop
endfacet
facet normal 0.0 -1.0 0.0
  outer loop
    vertex 0.0 0.0 0.0
    vertex 43.747641030855156 0.0 5.033718136648083
    vertex 0.0 0.0 15.0
  endloop
endfacet
facet normal 0.0 -1.0 0.0
  outer loop
    vertex 43.747641030855156 0.0 5.033718136648083
    vertex 0.0 0.0 0.0
    vertex 44.15785863498549 0.0 5.019994335524425
  endloop
endfacet
facet normal 0.0 -1.0 0.0
  outer loop
    vertex 44.15785863498549 0.0 5.019994335524425
    vertex 0.0 0.0 0.0
    vertex 44.40150951233772 0.0 5.0118430125419
  endloop
endfacet
facet normal 0.0 -1.0 0.0
  outer loop
    vertex 0.0 0.0 15.0
    vertex 43.747641030855156 0.0 5.033718136648083
    vertex 43.12172820117743 0.0 5.223666294018229
  endloop
endfacet
facet normal 0.0 -1.0 0.0
  outer loop
    vertex 0.0 0.0 15.0
    vertex 43.12172820117743 0.0 5.223666294018229
    vertex 42.56642594827721 0.0 5.568742831631719
  endloop
endfacet
facet normal 0.0 -1.0 0.0
  outer loop
    vertex 0.0 0.0 15.0
    vertex 42.56642594827721 0.0 5.568742831631719
    vertex 42.1195772030093 0.0 6.045431353716139
  endloop
endfacet
facet normal 0.0 -1.0 0.0
  outer loop
    vertex 0.0 0.0 15.0
    vertex 42.1195772030093 0.0 6.045431353716139
    vertex 41.81163396891124 0.0 6.6212463252564655
  endloop
endfacet
facet normal 0.0 -1.0 0.0
  outer loop
    vertex 0.0 0.0 15.0
    vertex 41.81163396891124 0.0 6.6212463252564655
    vertex 41.66358206848653 0.0 7.256946907521469
  endloop
endfacet
facet normal 0.0 -1.0 0.0
  outer loop
    vertex 0.0 0.0 15.0
    vertex 41.66358206848653 0.0 7.256946907521469
    vertex 41.68551099408182 0.0 7.909211156374633
  endloop
endfacet
facet normal 0.0 -1.0 0.0
  outer loop
    vertex 0.0 0.0 15.0
    vertex 41.68551099408182 0.0 7.909211156374633
    vertex 41.87592632565704 0.0 8.533588341174287
  endloop
endfacet
facet normal 0.0 -1.0 0.0
  outer loop
    vertex 0.0 0.0 15.0
    vertex 41.87592632565704 0.0 8.533588341174287
    vertex 42.22185157304157 0.0 9.087528188608417
  endloop
endfacet
facet normal 0.0 -1.0 0.0
  outer loop
    vertex 0.0 0.0 15.0
    vertex 42.22185157304157 0.0 9.087528188608417
    vertex 42.69971250229462 0.0 9.533280613503244
  endloop
endfacet
facet normal 0.0 -1.0 0.0
  outer loop
    vertex 0.0 0.0 15.0
    vertex 42.69971250229462 0.0 9.533280613503244
    vertex 43.27694368079011 0.0 9.840468324742915
  endloop
endfacet
facet normal 0.0 -1.0 0.0
  outer loop
    vertex 0.0 0.0 15.0
    vertex 43.27694368079011 0.0 9.840468324742915
    vertex 43.91420775763323 0.0 9.988156987458112
  endloop
endfacet
facet normal 0.0 -1.0 0.0
  outer loop
    vertex 0.0 0.0 15.0
    vertex 43.91420775763323 0.0 9.988156987458112
    vertex 60.32299910860401 0.0 15.0
  endloop
endfacet
facet normal -0.07000626788050135 -0.9975465515240097 0.0
  outer loop
    vertex 62.946979860690746 10.740508823519061 0.0
    vertex 45.242456774239216 11.982984760098764 5.011843012541887
    vertex -9.865060333820523 15.850344733427574 0.0
  endloop
endfacet
facet normal -0.07000626788050135 -0.9975465515240097 0.0
  outer loop
    vertex 45.242456774239216 11.982984760098764 5.011843012541887
    vertex 62.946979860690746 10.740508823519061 0.0
    vertex 45.87659769787945 11.938481734844931 5.159531675257113
  endloop
endfacet
facet normal -0.07000626788050135 -0.9975465515240097 0.0
  outer loop
    vertex 45.87659769787945 11.938481734844931 5.159531675257113
    vertex 62.946979860690746 10.740508823519061 0.0
    vertex 46.450999937055386 11.898171077697675 5.466719386496784
  endloop
endfacet
facet normal -0.07000626788050135 -0.9975465515240097 0.0
  outer loop
    vertex 46.450999937055386 11.898171077697675 5.466719386496784
    vertex 62.946979860690746 10.740508823519061 0.0
    vertex 62.946979860690746 10.740508823519061 15.0
  endloop
endfacet
facet normal -0.07000626788050135 -0.9975465515240097 0.0
  outer loop
    vertex 46.450999937055386 11.898171077697675 5.466719386496784
    vertex 62.946979860690746 10.740508823519061 15.0
    vertex 46.92651892841178 11.864799893325074 5.912471811391611
  endloop
endfacet
facet normal -0.07000626788050135 -0.9975465515240097 0.0
  outer loop
    vertex 46.92651892841178 11.864799893325074 5.912471811391611
    vertex 62.946979860690746 10.740508823519061 15.0
    vertex 47.27074883851997 11.840642372793628 6.466411658825724
  endloop
endfacet
facet normal -0.07000626788050135 -0.9975465515240097 0.0
  outer loop
    vertex 47.27074883851997 11.840642372793628 6.466411658825724
    vertex 62.946979860690746 10.740508823519061 15.0
    vertex 47.4602309678729 11.827344811205366 7.090788843625369
  endloop
endfacet
facet normal -0.07000626788050135 -0.9975465515240097 0.0
  outer loop
    vertex 47.4602309678729 11.827344811205366 7.090788843625369
    vertex 62.946979860690746 10.740508823519061 15.0
    vertex 47.48205242248921 11.825813415407266 7.743053092478535
  endloop
endfacet
facet normal -0.07000626788050135 -0.9975465515240097 0.0
  outer loop
    vertex 47.48205242248921 11.825813415407266 7.743053092478535
    vertex 62.946979860690746 10.740508823519061 15.0
    vertex 47.33472610629845 11.836152547492222 8.378753674743516
  endloop
endfacet
facet normal -0.07000626788050135 -0.9975465515240097 0.0
  outer loop
    vertex 47.33472610629845 11.836152547492222 8.378753674743516
    vertex 62.946979860690746 10.740508823519061 15.0
    vertex 47.028292064280755 11.857657612694863 8.954568646283837
  endloop
endfacet
facet normal -0.07000626788050135 -0.9975465515240097 0.0
  outer loop
    vertex 47.028292064280755 11.857657612694863 8.954568646283837
    vertex 62.946979860690746 10.740508823519061 15.0
    vertex 46.583633269993456 11.888863076360435 9.431257168368257
  endloop
endfacet
facet normal -0.07000626788050135 -0.9975465515240097 0.0
  outer loop
    vertex 46.583633269993456 11.888863076360435 9.431257168368257
    vertex 62.946979860690746 10.740508823519061 15.0
    vertex 46.031052485433825 11.92764233770959 9.776333705981752
  endloop
endfacet
facet normal -0.07000626788050135 -0.9975465515240097 0.0
  outer loop
    vertex 46.031052485433825 11.92764233770959 9.776333705981752
    vertex 62.946979860690746 10.740508823519061 15.0
    vertex 45.408207177886666 11.971352654167148 9.966281863351904
  endloop
endfacet
facet normal -0.07000626788050135 -0.9975465515240097 0.0
  outer loop
    vertex 45.408207177886666 11.971352654167148 9.966281863351904
    vertex 62.946979860690746 10.740508823519061 15.0
    vertex 45.0 12.0 9.980005664475573
  endloop
endfacet
facet normal -0.07000626788050135 -0.9975465515240097 0.0
  outer loop
    vertex 45.0 12.0 9.980005664475573
    vertex 62.946979860690746 10.740508823519061 15.0
    vertex 44.75754322576079 12.017015239901237 9.988156987458114
  endloop
endfacet
facet normal -0.07000626788050135 -0.9975465515240097 0.0
  outer loop
    vertex -9.865060333820523 15.850344733427574 0.0
    vertex 44.591792822113334 12.028647345832852 5.033718136648094
    vertex -9.865060333820523 15.850344733427574 15.0
  endloop
endfacet
facet normal -0.07000626788050135 -0.9975465515240097 0.0
  outer loop
    vertex 44.591792822113334 12.028647345832852 5.033718136648094
    vertex -9.865060333820523 15.850344733427574 0.0
    vertex 45.0 12.0 5.0199943355244265
  endloop
endfacet
facet normal -0.07000626788050135 -0.9975465515240097 0.0
  outer loop
    vertex 45.0 12.0 5.0199943355244265
    vertex -9.865060333820523 15.850344733427574 0.0
    vertex 45.242456774239216 11.982984760098764 5.011843012541887
  endloop
endfacet
facet normal -0.07000626788050135 -0.9975465515240097 0.0
  outer loop
    vertex -9.865060333820523 15.850344733427574 15.0
    vertex 44.591792822113334 12.028647345832852 5.033718136648094
    vertex 43.96894751456618 12.07235766229041 5.223666294018249
  endloop
endfacet
facet normal -0.07000626788050135 -0.9975465515240097 0.0
  outer loop
    vertex -9.865060333820523 15.850344733427574 15.0
    vertex 43.96894751456618 12.07235766229041 5.223666294018249
    vertex 43.416366730006544 12.111136923639567 5.568742831631744
  endloop
endfacet
facet normal -0.07000626788050135 -0.9975465515240097 0.0
  outer loop
    vertex -9.865060333820523 15.850344733427574 15.0
    vertex 43.416366730006544 12.111136923639567 5.568742831631744
    vertex 42.971707935719245 12.142342387305137 6.045431353716164
  endloop
endfacet
facet normal -0.07000626788050135 -0.9975465515240097 0.0
  outer loop
    vertex -9.865060333820523 15.850344733427574 15.0
    vertex 42.971707935719245 12.142342387305137 6.045431353716164
    vertex 42.66527389370156 12.16384745250778 6.621246325256486
  endloop
endfacet
facet normal -0.07000626788050135 -0.9975465515240097 0.0
  outer loop
    vertex -9.865060333820523 15.850344733427574 15.0
    vertex 42.66527389370156 12.16384745250778 6.621246325256486
    vertex 42.517947577510796 12.174186584592734 7.256946907521466
  endloop
endfacet
facet normal -0.07000626788050135 -0.9975465515240097 0.0
  outer loop
    vertex -9.865060333820523 15.850344733427574 15.0
    vertex 42.517947577510796 12.174186584592734 7.256946907521466
    vertex 42.539769032127104 12.172655188794636 7.9092111563746315
  endloop
endfacet
facet normal -0.07000626788050135 -0.9975465515240097 0.0
  outer loop
    vertex -9.865060333820523 15.850344733427574 15.0
    vertex 42.539769032127104 12.172655188794636 7.9092111563746315
    vertex 42.729251161480036 12.159357627206374 8.533588341174276
  endloop
endfacet
facet normal -0.07000626788050135 -0.9975465515240097 0.0
  outer loop
    vertex -9.865060333820523 15.850344733427574 15.0
    vertex 42.729251161480036 12.159357627206374 8.533588341174276
    vertex 43.073481071588226 12.135200106674926 9.08752818860839
  endloop
endfacet
facet normal -0.07000626788050135 -0.9975465515240097 0.0
  outer loop
    vertex -9.865060333820523 15.850344733427574 15.0
    vertex 43.073481071588226 12.135200106674926 9.08752818860839
    vertex 43.549000062944614 12.101828922302325 9.533280613503218
  endloop
endfacet
facet normal -0.07000626788050135 -0.9975465515240097 0.0
  outer loop
    vertex -9.865060333820523 15.850344733427574 15.0
    vertex 43.549000062944614 12.101828922302325 9.533280613503218
    vertex 44.12340230212056 12.06151826515507 9.840468324742888
  endloop
endfacet
facet normal -0.07000626788050135 -0.9975465515240097 0.0
  outer loop
    vertex -9.865060333820523 15.850344733427574 15.0
    vertex 44.12340230212056 12.06151826515507 9.840468324742888
    vertex 44.75754322576079 12.017015239901237 9.988156987458114
  endloop
endfacet
facet normal -0.07000626788050135 -0.9975465515240097 0.0
  outer loop
    vertex -9.865060333820523 15.850344733427574 15.0
    vertex 44.75754322576079 12.017015239901237 9.988156987458114
    vertex 62.946979860690746 10.740508823519061 15.0
  endloop
endfacet
endsolid Untitled
