solid Untitled
facet normal -0.9821916648927891 0.11818780333365075 0.14605196526681077
  outer loop
    vertex 49.082834616489784 -0.1844119984322977 7.703863289716734
    vertex 50.47245594598942 12.16178936532275 7.058230542953667
    vertex 48.98663907450236 -0.18599023264324935 7.058230542953674
  endloop
endfacet
facet normal -0.9821916648927891 0.11818780333365075 0.14605196526681077
  outer loop
    vertex 50.47245594598942 12.16178936532275 7.058230542953667
    vertex 49.082834616489784 -0.1844119984322977 7.703863289716734
    vertex 50.56709130755346 12.150401826718296 7.703863289716734
  endloop
endfacet
facet normal 0.911193998315029 -0.10964460493911357 -0.3971190728766589
  outer loop
    vertex 25.843827885243726 15.125369238441293 8.741394064097824
    vertex 24.213535932319342 -0.5924306776229029 9.34035728583354
    vertex 23.95197776444993 -0.5967219372816855 8.741394064097824
  endloop
endfacet
facet normal 0.911193998315029 -0.10964460493911357 -0.3971190728766589
  outer loop
    vertex 24.213535932319342 -0.5924306776229029 9.34035728583354
    vertex 25.843827885243726 15.125369238441293 8.741394064097824
    vertex 26.10114388216992 15.09440622630594 9.340357285833544
  endloop
endfacet
facet normal -0.7970490653643015 0.09590946609675148 -0.5962500831990967
  outer loop
    vertex 30.013385759478236 14.623643451466611 9.79640987824168
    vertex 28.582989579485062 -0.5207431431836664 9.272478556311507
    vertex 28.19027593260873 -0.5271862080056188 9.79640987824169
  endloop
endfacet
facet normal -0.7970490653643015 0.09590946609675148 -0.5962500831990967
  outer loop
    vertex 28.582989579485062 -0.5207431431836664 9.272478556311507
    vertex 30.013385759478236 14.623643451466611 9.79640987824168
    vertex 30.399730045247043 14.577154375965742 9.272478556311496
  endloop
endfacet
facet normal 0.6166746543162989 -0.07420488828230692 0.7837129610251982
  outer loop
    vertex 25.082883028157173 -0.5781677159565285 5.911368938239237
    vertex 26.448579044655876 15.052599112559394 6.31673315090423
    vertex 24.566698991121704 -0.5866365003675879 6.316733150904237
  endloop
endfacet
facet normal 0.6166746543162989 -0.07420488828230692 0.7837129610251982
  outer loop
    vertex 26.448579044655876 15.052599112559394 6.31673315090423
    vertex 25.082883028157173 -0.5781677159565285 5.911368938239237
    vertex 26.956391173671438 14.991493727348162 5.911368938239227
  endloop
endfacet
facet normal 0.5919797079768974 -0.07123332828478335 -0.8027987532906735
  outer loop
    vertex 26.503604854502534 15.045977818747922 9.851832628814151
    vertex 25.1513866561705 -0.5770438097227129 10.240963893668477
    vertex 24.622631969175732 -0.5857188347703941 9.851832628814142
  endloop
endfacet
facet normal 0.5919797079768974 -0.07123332828478335 -0.8027987532906735
  outer loop
    vertex 25.1513866561705 -0.5770438097227129 10.240963893668477
    vertex 26.503604854502534 15.045977818747922 9.851832628814151
    vertex 27.023783752075296 14.983384331710587 10.240963893668486
  endloop
endfacet
facet normal 0.9862545926565728 -0.11867669824558034 0.11496834241366326
  outer loop
    vertex 23.931504873572834 -0.5970578262024374 7.447457850277689
    vertex 25.749192523679678 15.136756777045747 8.095761317334759
    vertex 23.855782222462494 -0.5983001714926373 8.09576131733476
  endloop
endfacet
facet normal 0.9862545926565728 -0.11867669824558034 0.11496834241366326
  outer loop
    vertex 25.749192523679678 15.136756777045747 8.095761317334759
    vertex 23.931504873572834 -0.5970578262024374 7.447457850277689
    vertex 25.823687040976033 15.12779280018221 7.447457850277688
  endloop
endfacet
facet normal 0.394274884679671 -0.04744336996079614 0.9177670957043489
  outer loop
    vertex 45.869002281484185 -0.23713980717037453 5.338678313942068
    vertex 46.81071020077046 12.602409767086199 5.597850516144806
    vertex 45.26452494337905 -0.24705717750825618 5.5978505161447885
  endloop
endfacet
facet normal 0.394274884679671 -0.04744336996079614 0.9177670957043489
  outer loop
    vertex 46.81071020077046 12.602409767086199 5.597850516144806
    vertex 45.869002281484185 -0.23713980717037453 5.338678313942068
    vertex 47.405383615639586 12.530852303185327 5.338678313942072
  endloop
endfacet
facet normal -0.14500593322220606 0.017448664380337063 -0.9892769194930707
  outer loop
    vertex 28.26989152534991 14.833439320258684 10.556264327572084
    vertex 27.069614557468093 -0.5455723627545606 10.460946293109421
    vertex 26.418038049939156 -0.5562624666199665 10.556264327572087
  endloop
endfacet
facet normal -0.14500593322220606 0.017448664380337063 -0.9892769194930707
  outer loop
    vertex 27.069614557468093 -0.5455723627545606 10.460946293109421
    vertex 28.26989152534991 14.833439320258684 10.556264327572084
    vertex 28.91090021559355 14.756306300578714 10.460946293109417
  endloop
endfacet
facet normal -0.9111939983150312 0.10964460493911313 0.3971190728766535
  outer loop
    vertex 48.98663907450236 -0.18599023264324935 7.058230542953674
    vertex 50.21513994906322 12.1927523774581 6.459267321217949
    vertex 48.725080906632954 -0.19028149230203176 6.459267321217963
  endloop
endfacet
facet normal -0.9111939983150312 0.10964460493911313 0.3971190728766535
  outer loop
    vertex 50.21513994906322 12.1927523774581 6.459267321217949
    vertex 48.98663907450236 -0.18599023264324935 7.058230542953674
    vertex 50.47245594598942 12.16178936532275 7.058230542953667
  endloop
endfacet
facet normal 0.39427488467968747 -0.0474433699607986 0.9177670957043416
  outer loop
    vertex 25.687360366262308 -0.568250345618647 5.652196736036492
    vertex 26.956391173671438 14.991493727348162 5.911368938239227
    vertex 25.082883028157173 -0.5781677159565285 5.911368938239237
  endloop
endfacet
facet normal 0.39427488467968747 -0.0474433699607986 0.9177670957043416
  outer loop
    vertex 26.956391173671438 14.991493727348162 5.911368938239227
    vertex 25.687360366262308 -0.568250345618647 5.652196736036492
    vertex 27.551064588540562 14.91993626344729 5.652196736036492
  endloop
endfacet
facet normal -0.6166746543162877 0.07420488828230551 -0.7837129610252072
  outer loop
    vertex 29.505573630462678 14.684748836677842 10.201774090906683
    vertex 28.19027593260873 -0.5271862080056188 9.79640987824169
    vertex 27.674091895573223 -0.535654992416679 10.201774090906696
  endloop
endfacet
facet normal -0.6166746543162877 0.07420488828230551 -0.7837129610252072
  outer loop
    vertex 28.19027593260873 -0.5271862080056188 9.79640987824169
    vertex 29.505573630462678 14.684748836677842 10.201774090906683
    vertex 30.013385759478236 14.623643451466611 9.79640987824168
  endloop
endfacet
facet normal 0.0 0.0 -1.0
  outer loop
    vertex 63.47723153124652 10.596915711628684 0.0
    vertex -2.6794171005597383 -1.0336504850392905 0.0
    vertex -8.99112228044913 19.317082919670533 0.0
  endloop
endfacet
facet normal 0.0 0.0 -1.0
  outer loop
    vertex -2.6794171005597383 -1.0336504850392905 0.0
    vertex 63.47723153124652 10.596915711628684 0.0
    vertex 60.32299910860401 0.0 0.0
  endloop
endfacet
facet normal -0.0 -0.0 1.0
  outer loop
    vertex -2.6794171005597383 -1.0336504850392905 15.0
    vertex 63.47723153124652 10.596915711628684 15.0
    vertex -8.99112228044913 19.317082919670533 15.0
  endloop
endfacet
facet normal -0.0 -0.0 1.0
  outer loop
    vertex 63.47723153124652 10.596915711628684 15.0
    vertex -2.6794171005597383 -1.0336504850392905 15.0
    vertex 60.32299910860401 0.0 15.0
  endloop
endfacet
facet normal -0.39427488467967997 0.04744336996079733 -0.9177670957043449
  outer loop
    vertex 48.765219242692574 12.367222340316752 10.147427871014997
    vertex 47.8557338107951 -0.20454445396840665 9.888255668812253
    vertex 47.25125647268997 -0.2144618243062881 10.147427871014987
  endloop
endfacet
facet normal -0.39427488467967997 0.04744336996079733 -0.9177670957043449
  outer loop
    vertex 47.8557338107951 -0.20454445396840665 9.888255668812253
    vertex 48.765219242692574 12.367222340316752 10.147427871014997
    vertex 49.3598926575617 12.29566487641588 9.888255668812265
  endloop
endfacet
facet normal 0.36551701057649755 -0.04398291505134534 -0.9297649262920209
  outer loop
    vertex 46.87810277917432 12.594300371448625 9.927445471574066
    vertex 45.94540815041529 -0.23588625265242888 10.167714005672138
    vertex 45.33302857139236 -0.24593327127444056 9.92744547157407
  endloop
endfacet
facet normal 0.36551701057649755 -0.04398291505134534 -0.9297649262920209
  outer loop
    vertex 45.94540815041529 -0.23588625265242888 10.167714005672138
    vertex 46.87810277917432 12.594300371448625 9.927445471574066
    vertex 47.48055026975393 12.52180744763294 10.16771400567213
  endloop
endfacet
facet normal 0.9111939983150305 -0.10964460493911307 -0.39711907287665543
  outer loop
    vertex 45.69814691234274 12.73628527817933 8.427875642003402
    vertex 44.39517784754117 -0.26132013917463137 9.02683886373913
    vertex 44.13361967967176 -0.26561139883341384 8.427875642003412
  endloop
endfacet
facet normal 0.9111939983150305 -0.10964460493911307 -0.39711907287665543
  outer loop
    vertex 44.39517784754117 -0.26132013917463137 9.02683886373913
    vertex 45.69814691234274 12.73628527817933 8.427875642003402
    vertex 45.95546290926894 12.705322266043979 9.02683886373912
  endloop
endfacet
facet normal 0.9231058997935883 -0.11107797229458899 0.3681537475528296
  outer loop
    vertex 44.35562725946721 -0.26196902674126876 6.527146050739982
    vertex 45.67800606807506 12.738708839920248 7.1339394281832655
    vertex 44.113146788794666 -0.2659472877541658 7.133939428183263
  endloop
endfacet
facet normal 0.9231058997935883 -0.11107797229458899 0.3681537475528296
  outer loop
    vertex 45.67800606807506 12.738708839920248 7.1339394281832655
    vertex 44.35562725946721 -0.26196902674126876 6.527146050739982
    vertex 45.916553785986096 12.710004227798295 6.527146050739992
  endloop
endfacet
facet normal 0.797049065364299 -0.09590946609675084 0.5962500831991002
  outer loop
    vertex 44.74834090634355 -0.25552596191931615 6.003214728809793
    vertex 45.916553785986096 12.710004227798295 6.527146050739992
    vertex 44.35562725946721 -0.26196902674126876 6.527146050739982
  endloop
endfacet
facet normal 0.797049065364299 -0.09590946609675084 0.5962500831991002
  outer loop
    vertex 45.916553785986096 12.710004227798295 6.527146050739992
    vertex 44.74834090634355 -0.25552596191931615 6.003214728809793
    vertex 46.302898071754896 12.66351515229743 6.003214728809809
  endloop
endfacet
facet normal 0.9821916648927881 -0.11818780333365035 -0.14605196526681702
  outer loop
    vertex 45.6035115507787 12.747672816783782 7.782242895240335
    vertex 44.13361967967176 -0.26561139883341384 8.427875642003412
    vertex 44.037424137684326 -0.26718963304436566 7.7822428952403335
  endloop
endfacet
facet normal 0.9821916648927881 -0.11818780333365035 -0.14605196526681702
  outer loop
    vertex 44.13361967967176 -0.26561139883341384 8.427875642003412
    vertex 45.6035115507787 12.747672816783782 7.782242895240335
    vertex 45.69814691234274 12.73628527817933 8.427875642003402
  endloop
endfacet
facet normal 0.616674654316291 -0.07420488828230566 0.7837129610252045
  outer loop
    vertex 45.26452494337905 -0.24705717750825618 5.5978505161447885
    vertex 46.302898071754896 12.66351515229743 6.003214728809809
    vertex 44.74834090634355 -0.25552596191931615 6.003214728809793
  endloop
endfacet
facet normal 0.616674654316291 -0.07420488828230566 0.7837129610252045
  outer loop
    vertex 46.302898071754896 12.66351515229743 6.003214728809809
    vertex 45.26452494337905 -0.24705717750825618 5.5978505161447885
    vertex 46.81071020077046 12.602409767086199 5.597850516144806
  endloop
endfacet
facet normal -0.14500593322221594 0.01744866438033818 -0.9892769194930694
  outer loop
    vertex 48.12421055244893 12.44435535999672 10.242745905477664
    vertex 47.25125647268997 -0.2144618243062881 10.147427871014987
    vertex 46.59967996516103 -0.22515192817169422 10.242745905477667
  endloop
endfacet
facet normal -0.14500593322221594 0.01744866438033818 -0.9892769194930694
  outer loop
    vertex 47.25125647268997 -0.2144618243062881 10.147427871014987
    vertex 48.12421055244893 12.44435535999672 10.242745905477664
    vertex 48.765219242692574 12.367222340316752 10.147427871014997
  endloop
endfacet
facet normal -0.9231058997935925 0.11107797229458943 -0.3681537475528186
  outer loop
    vertex 50.25404907234607 12.188070415703784 8.958960134217078
    vertex 49.00711196537944 -0.1856543437224975 8.352166756773796
    vertex 48.76463149470691 -0.18963260473539453 8.958960134217062
  endloop
endfacet
facet normal -0.9231058997935925 0.11107797229458943 -0.3681537475528186
  outer loop
    vertex 49.00711196537944 -0.1856543437224975 8.352166756773796
    vertex 50.25404907234607 12.188070415703784 8.958960134217078
    vertex 50.492596790257096 12.159365803581833 8.352166756773807
  endloop
endfacet
facet normal -0.5919797079768863 0.07123332828478222 0.8027987532906817
  outer loop
    vertex 28.134342954554704 -0.5281038736028127 6.26131040033175
    vertex 29.438181052058816 14.692858232315416 5.872179135477422
    vertex 27.605588267559902 -0.5367788986504946 5.872179135477412
  endloop
endfacet
facet normal -0.5919797079768863 0.07123332828478222 0.8027987532906817
  outer loop
    vertex 29.438181052058816 14.692858232315416 5.872179135477422
    vertex 28.134342954554704 -0.5281038736028127 6.26131040033175
    vertex 29.95835994963158 14.630264745278081 6.26131040033176
  endloop
endfacet
facet normal 0.778099966571382 -0.09362930791425186 -0.621123171940246
  outer loop
    vertex 45.95546290926894 12.705322266043979 9.02683886373912
    vertex 44.804273884397574 -0.25460829632212234 9.538314206719736
    vertex 44.39517784754117 -0.26132013917463137 9.02683886373913
  endloop
endfacet
facet normal 0.778099966571382 -0.09362930791425186 -0.621123171940246
  outer loop
    vertex 44.804273884397574 -0.25460829632212234 9.538314206719736
    vertex 45.95546290926894 12.705322266043979 9.02683886373912
    vertex 46.35792388160155 12.65689385848596 9.538314206719727
  endloop
endfacet
facet normal -0.6166746543162989 0.07420488828230638 -0.7837129610251983
  outer loop
    vertex 49.3598926575617 12.29566487641588 9.888255668812265
    vertex 48.371917847830574 -0.19607566955734695 9.482891456147248
    vertex 47.8557338107951 -0.20454445396840665 9.888255668812253
  endloop
endfacet
facet normal -0.6166746543162989 0.07420488828230638 -0.7837129610251983
  outer loop
    vertex 48.371917847830574 -0.19607566955734695 9.482891456147248
    vertex 49.3598926575617 12.29566487641588 9.888255668812265
    vertex 49.867704786577264 12.23455949120465 9.482891456147263
  endloop
endfacet
facet normal -0.39427488467967564 0.04744336996079712 -0.9177670957043468
  outer loop
    vertex 28.91090021559355 14.756306300578714 10.460946293109417
    vertex 27.674091895573223 -0.535654992416679 10.201774090906696
    vertex 27.069614557468093 -0.5455723627545606 10.460946293109421
  endloop
endfacet
facet normal -0.39427488467967564 0.04744336996079712 -0.9177670957043468
  outer loop
    vertex 27.674091895573223 -0.535654992416679 10.201774090906696
    vertex 28.91090021559355 14.756306300578714 10.460946293109417
    vertex 29.505573630462678 14.684748836677842 10.201774090906683
  endloop
endfacet
facet normal 0.1141449329507285 -0.013735138842362564 -0.9933691560757535
  outer loop
    vertex 47.48055026975393 12.52180744763294 10.16771400567213
    vertex 46.59967996516103 -0.22515192817169422 10.242745905477667
    vertex 45.94540815041529 -0.23588625265242888 10.167714005672138
  endloop
endfacet
facet normal 0.1141449329507285 -0.013735138842362564 -0.9933691560757535
  outer loop
    vertex 46.59967996516103 -0.22515192817169422 10.242745905477667
    vertex 47.48055026975393 12.52180744763294 10.16771400567213
    vertex 48.12421055244893 12.44435535999672 10.242745905477664
  endloop
endfacet
facet normal 0.9862545926565732 -0.11867669824557948 0.11496834241366125
  outer loop
    vertex 44.113146788794666 -0.2659472877541658 7.133939428183263
    vertex 45.6035115507787 12.747672816783782 7.782242895240335
    vertex 44.037424137684326 -0.26718963304436566 7.7822428952403335
  endloop
endfacet
facet normal 0.9862545926565732 -0.11867669824557948 0.11496834241366125
  outer loop
    vertex 45.6035115507787 12.747672816783782 7.782242895240335
    vertex 44.113146788794666 -0.2659472877541658 7.133939428183263
    vertex 45.67800606807506 12.738708839920248 7.1339394281832655
  endloop
endfacet
facet normal 0.7970490653643016 -0.09590946609675147 0.5962500831990963
  outer loop
    vertex 24.566698991121704 -0.5866365003675879 6.316733150904237
    vertex 26.06223475888707 15.09908818806026 6.840664472834415
    vertex 24.173985344245377 -0.5930795651895403 6.840664472834416
  endloop
endfacet
facet normal 0.7970490653643016 -0.09590946609675147 0.5962500831990963
  outer loop
    vertex 26.06223475888707 15.09908818806026 6.840664472834415
    vertex 24.566698991121704 -0.5866365003675879 6.316733150904237
    vertex 26.448579044655876 15.052599112559394 6.31673315090423
  endloop
endfacet
facet normal -0.1141449329507264 0.013735138842361948 0.9933691560757539
  outer loop
    vertex 26.99320868853698 -0.5468259172725063 5.631910601379351
    vertex 28.192073278784203 14.84280324376732 5.556878701573826
    vertex 26.33893687379123 -0.5575602417532411 5.5568787015738215
  endloop
endfacet
facet normal -0.1141449329507264 0.013735138842361948 0.9933691560757539
  outer loop
    vertex 28.192073278784203 14.84280324376732 5.556878701573826
    vertex 26.99320868853698 -0.5468259172725063 5.631910601379351
    vertex 28.835733561479206 14.765351156131103 5.631910601379359
  endloop
endfacet
facet normal -0.9862545926565721 0.11867669824557958 -0.1149683424136705
  outer loop
    vertex 50.492596790257096 12.159365803581833 8.352166756773807
    vertex 49.082834616489784 -0.1844119984322977 7.703863289716734
    vertex 49.00711196537944 -0.1856543437224975 8.352166756773796
  endloop
endfacet
facet normal -0.9862545926565721 0.11867669824557958 -0.1149683424136705
  outer loop
    vertex 49.082834616489784 -0.1844119984322977 7.703863289716734
    vertex 50.492596790257096 12.159365803581833 8.352166756773807
    vertex 50.56709130755346 12.150401826718296 7.703863289716734
  endloop
endfacet
facet normal -0.11414493295073165 0.013735138842362698 0.9933691560757533
  outer loop
    vertex 47.17485060375886 -0.21571537882423375 5.318392179284944
    vertex 48.04639230588323 12.45371928350536 5.243360279479407
    vertex 46.52057878901312 -0.22644970330496866 5.2433602794794085
  endloop
endfacet
facet normal -0.11414493295073165 0.013735138842362698 0.9933691560757533
  outer loop
    vertex 48.04639230588323 12.45371928350536 5.243360279479407
    vertex 47.17485060375886 -0.21571537882423375 5.318392179284944
    vertex 48.69005258857823 12.37626719586914 5.318392179284941
  endloop
endfacet
facet normal -0.923105899793585 0.11107797229458917 -0.3681537475528374
  outer loop
    vertex 30.399730045247043 14.577154375965742 9.272478556311496
    vertex 28.825470050157616 -0.5167648821707691 8.665685178868229
    vertex 28.582989579485062 -0.5207431431836664 9.272478556311507
  endloop
endfacet
facet normal -0.923105899793585 0.11107797229458917 -0.3681537475528374
  outer loop
    vertex 28.825470050157616 -0.5167648821707691 8.665685178868229
    vertex 30.399730045247043 14.577154375965742 9.272478556311496
    vertex 30.63827776315808 14.548449763843793 8.665685178868223
  endloop
endfacet
facet normal 0.5919797079768845 -0.0712333282847812 -0.8027987532906832
  outer loop
    vertex 46.35792388160155 12.65689385848596 9.538314206719727
    vertex 45.33302857139236 -0.24593327127444056 9.92744547157407
    vertex 44.804273884397574 -0.25460829632212234 9.538314206719736
  endloop
endfacet
facet normal 0.5919797079768845 -0.0712333282847812 -0.8027987532906832
  outer loop
    vertex 45.33302857139236 -0.24593327127444056 9.92744547157407
    vertex 46.35792388160155 12.65689385848596 9.538314206719727
    vertex 46.87810277917432 12.594300371448625 9.927445471574066
  endloop
endfacet
facet normal -0.7970490653643003 0.09590946609675087 -0.5962500831990982
  outer loop
    vertex 49.867704786577264 12.23455949120465 9.482891456147263
    vertex 48.76463149470691 -0.18963260473539453 8.958960134217062
    vertex 48.371917847830574 -0.19607566955734695 9.482891456147248
  endloop
endfacet
facet normal -0.7970490653643003 0.09590946609675087 -0.5962500831990982
  outer loop
    vertex 48.76463149470691 -0.18963260473539453 8.958960134217062
    vertex 49.867704786577264 12.23455949120465 9.482891456147263
    vertex 50.25404907234607 12.188070415703784 8.958960134217078
  endloop
endfacet
facet normal -0.9821916648927874 0.1181878033336512 0.14605196526682113
  outer loop
    vertex 28.901192701267956 -0.5155225368805693 8.017381711811158
    vertex 30.618136918890386 14.550873325584712 7.371748965048084
    vertex 28.80499715928052 -0.5171007710915211 7.371748965048077
  endloop
endfacet
facet normal -0.9821916648927874 0.1181878033336512 0.14605196526682113
  outer loop
    vertex 30.618136918890386 14.550873325584712 7.371748965048084
    vertex 28.901192701267956 -0.5155225368805693 8.017381711811158
    vertex 30.712772280454434 14.539485786980256 8.017381711811153
  endloop
endfacet
facet normal 0.9821916648927868 -0.11818780333365131 -0.1460519652668252
  outer loop
    vertex 25.749192523679678 15.136756777045747 8.095761317334759
    vertex 23.95197776444993 -0.5967219372816855 8.741394064097824
    vertex 23.855782222462494 -0.5983001714926373 8.09576131733476
  endloop
endfacet
facet normal 0.9821916648927868 -0.11818780333365131 -0.1460519652668252
  outer loop
    vertex 23.95197776444993 -0.5967219372816855 8.741394064097824
    vertex 25.749192523679678 15.136756777045747 8.095761317334759
    vertex 25.843827885243726 15.125369238441293 8.741394064097824
  endloop
endfacet
facet normal 0.9584424720577082 -0.2852858702352947 -0.0
  outer loop
    vertex 63.47723153124652 10.596915711628684 0.0
    vertex 60.32299910860401 0.0 15.0
    vertex 60.32299910860401 0.0 0.0
  endloop
endfacet
facet normal 0.9584424720577082 -0.2852858702352947 -0.0
  outer loop
    vertex 60.32299910860401 0.0 15.0
    vertex 63.47723153124652 10.596915711628684 0.0
    vertex 63.47723153124652 10.596915711628684 15.0
  endloop
endfacet
facet normal -0.7780999665713844 0.0936293079142523 0.6211231719402431
  outer loop
    vertex 48.725080906632954 -0.19028149230203176 6.459267321217963
    vertex 49.81267897673061 12.24118078501612 5.947791978237341
    vertex 48.31598486977656 -0.19699333515454065 5.947791978237356
  endloop
endfacet
facet normal -0.7780999665713844 0.0936293079142523 0.6211231719402431
  outer loop
    vertex 49.81267897673061 12.24118078501612 5.947791978237341
    vertex 48.725080906632954 -0.19028149230203176 6.459267321217963
    vertex 50.21513994906322 12.1927523774581 6.459267321217949
  endloop
endfacet
facet normal -0.9551177912447306 -0.29622627305454785 0.0
  outer loop
    vertex -8.99112228044913 19.317082919670533 15.0
    vertex -2.6794171005597383 -1.0336504850392905 0.0
    vertex -2.6794171005597383 -1.0336504850392905 15.0
  endloop
endfacet
facet normal -0.9551177912447306 -0.29622627305454785 0.0
  outer loop
    vertex -2.6794171005597383 -1.0336504850392905 0.0
    vertex -8.99112228044913 19.317082919670533 15.0
    vertex -8.99112228044913 19.317082919670533 0.0
  endloop
endfacet
facet normal -0.5919797079768951 0.07123332828478277 0.8027987532906752
  outer loop
    vertex 48.31598486977656 -0.19699333515454065 5.947791978237356
    vertex 49.29250007915784 12.303774272053454 5.558660713383004
    vertex 47.78723018278177 -0.20566836020222243 5.558660713383007
  endloop
endfacet
facet normal -0.5919797079768951 0.07123332828478277 0.8027987532906752
  outer loop
    vertex 49.29250007915784 12.303774272053454 5.558660713383004
    vertex 48.31598486977656 -0.19699333515454065 5.947791978237356
    vertex 49.81267897673061 12.24118078501612 5.947791978237341
  endloop
endfacet
facet normal -0.986254592656573 0.11867669824558008 -0.1149683424136612
  outer loop
    vertex 30.63827776315808 14.548449763843793 8.665685178868223
    vertex 28.901192701267956 -0.5155225368805693 8.017381711811158
    vertex 28.825470050157616 -0.5167648821707691 8.665685178868229
  endloop
endfacet
facet normal -0.986254592656573 0.11867669824558008 -0.1149683424136612
  outer loop
    vertex 28.901192701267956 -0.5155225368805693 8.017381711811158
    vertex 30.63827776315808 14.548449763843793 8.665685178868223
    vertex 30.712772280454434 14.539485786980256 8.017381711811153
  endloop
endfacet
facet normal 0.9231058997935875 -0.11107797229458949 0.3681537475528312
  outer loop
    vertex 24.173985344245377 -0.5930795651895403 6.840664472834416
    vertex 25.823687040976033 15.12779280018221 7.447457850277688
    vertex 23.931504873572834 -0.5970578262024374 7.447457850277689
  endloop
endfacet
facet normal 0.9231058997935875 -0.11107797229458949 0.3681537475528312
  outer loop
    vertex 25.823687040976033 15.12779280018221 7.447457850277688
    vertex 24.173985344245377 -0.5930795651895403 6.840664472834416
    vertex 26.06223475888707 15.09908818806026 6.840664472834415
  endloop
endfacet
facet normal -0.7780999665713857 0.09362930791425315 0.6211231719402412
  outer loop
    vertex 28.543438991411094 -0.5213920307503038 6.772785743312356
    vertex 29.95835994963158 14.630264745278081 6.26131040033176
    vertex 28.134342954554704 -0.5281038736028127 6.26131040033175
  endloop
endfacet
facet normal -0.7780999665713857 0.09362930791425315 0.6211231719402412
  outer loop
    vertex 29.95835994963158 14.630264745278081 6.26131040033176
    vertex 28.543438991411094 -0.5213920307503038 6.772785743312356
    vertex 30.36082092196419 14.581836337720063 6.772785743312366
  endloop
endfacet
facet normal -0.3655170105764927 0.043982915051345155 0.9297649262920228
  outer loop
    vertex 27.605588267559902 -0.5367788986504946 5.872179135477412
    vertex 28.835733561479206 14.765351156131103 5.631910601379359
    vertex 26.99320868853698 -0.5468259172725063 5.631910601379351
  endloop
endfacet
facet normal -0.3655170105764927 0.043982915051345155 0.9297649262920228
  outer loop
    vertex 28.835733561479206 14.765351156131103 5.631910601379359
    vertex 27.605588267559902 -0.5367788986504946 5.872179135477412
    vertex 29.438181052058816 14.692858232315416 5.872179135477422
  endloop
endfacet
facet normal -0.911193998315026 0.10964460493911352 0.3971190728766654
  outer loop
    vertex 28.80499715928052 -0.5171007710915211 7.371748965048077
    vertex 30.36082092196419 14.581836337720063 6.772785743312366
    vertex 28.543438991411094 -0.5213920307503038 6.772785743312356
  endloop
endfacet
facet normal -0.911193998315026 0.10964460493911352 0.3971190728766654
  outer loop
    vertex 30.36082092196419 14.581836337720063 6.772785743312366
    vertex 28.80499715928052 -0.5171007710915211 7.371748965048077
    vertex 30.618136918890386 14.550873325584712 7.371748965048084
  endloop
endfacet
facet normal 0.14500593322221042 -0.017448664380337903 0.9892769194930701
  outer loop
    vertex 26.33893687379123 -0.5575602417532411 5.5568787015738215
    vertex 27.551064588540562 14.91993626344729 5.652196736036492
    vertex 25.687360366262308 -0.568250345618647 5.652196736036492
  endloop
endfacet
facet normal 0.14500593322221042 -0.017448664380337903 0.9892769194930701
  outer loop
    vertex 27.551064588540562 14.91993626344729 5.652196736036492
    vertex 26.33893687379123 -0.5575602417532411 5.5568787015738215
    vertex 28.192073278784203 14.84280324376732 5.556878701573826
  endloop
endfacet
facet normal 0.36551701057649155 -0.04398291505134482 -0.9297649262920231
  outer loop
    vertex 27.023783752075296 14.983384331710587 10.240963893668486
    vertex 25.763766235193422 -0.5669967911007011 10.48123242776654
    vertex 25.1513866561705 -0.5770438097227129 10.240963893668477
  endloop
endfacet
facet normal 0.36551701057649155 -0.04398291505134482 -0.9297649262920231
  outer loop
    vertex 25.763766235193422 -0.5669967911007011 10.48123242776654
    vertex 27.023783752075296 14.983384331710587 10.240963893668486
    vertex 27.62623124265491 14.910891407894901 10.48123242776655
  endloop
endfacet
facet normal 0.016404313666300387 -0.9998654401933982 0.0
  outer loop
    vertex 60.32299910860401 0.0 0.0
    vertex 46.52057878901312 -0.22644970330496866 5.2433602794794085
    vertex -2.6794171005597383 -1.0336504850392905 0.0
  endloop
endfacet
facet normal 0.016404313666300387 -0.9998654401933982 0.0
  outer loop
    vertex 46.52057878901312 -0.22644970330496866 5.2433602794794085
    vertex 60.32299910860401 0.0 0.0
    vertex 47.17485060375886 -0.21571537882423375 5.318392179284944
  endloop
endfacet
facet normal 0.016404313666300387 -0.9998654401933982 0.0
  outer loop
    vertex 47.17485060375886 -0.21571537882423375 5.318392179284944
    vertex 60.32299910860401 0.0 0.0
    vertex 47.78723018278177 -0.20566836020222243 5.558660713383007
  endloop
endfacet
facet normal 0.016404313666300387 -0.9998654401933982 0.0
  outer loop
    vertex 47.78723018278177 -0.20566836020222243 5.558660713383007
    vertex 60.32299910860401 0.0 0.0
    vertex 48.31598486977656 -0.19699333515454065 5.947791978237356
  endloop
endfacet
facet normal 0.016404313666300387 -0.9998654401933982 0.0
  outer loop
    vertex 48.31598486977656 -0.19699333515454065 5.947791978237356
    vertex 60.32299910860401 0.0 0.0
    vertex 60.32299910860401 0.0 15.0
  endloop
endfacet
facet normal 0.016404313666300387 -0.9998654401933982 0.0
  outer loop
    vertex 48.31598486977656 -0.19699333515454065 5.947791978237356
    vertex 60.32299910860401 0.0 15.0
    vertex 48.725080906632954 -0.19028149230203176 6.459267321217963
  endloop
endfacet
facet normal 0.016404313666300387 -0.9998654401933982 0.0
  outer loop
    vertex 48.725080906632954 -0.19028149230203176 6.459267321217963
    vertex 60.32299910860401 0.0 15.0
    vertex 48.98663907450236 -0.18599023264324935 7.058230542953674
  endloop
endfacet
facet normal 0.016404313666300387 -0.9998654401933982 0.0
  outer loop
    vertex 48.98663907450236 -0.18599023264324935 7.058230542953674
    vertex 60.32299910860401 0.0 15.0
    vertex 49.082834616489784 -0.1844119984322977 7.703863289716734
  endloop
endfacet
facet normal 0.016404313666300387 -0.9998654401933982 0.0
  outer loop
    vertex 49.082834616489784 -0.1844119984322977 7.703863289716734
    vertex 60.32299910860401 0.0 15.0
    vertex 49.00711196537944 -0.1856543437224975 8.352166756773796
  endloop
endfacet
facet normal 0.016404313666300387 -0.9998654401933982 0.0
  outer loop
    vertex 49.00711196537944 -0.1856543437224975 8.352166756773796
    vertex 60.32299910860401 0.0 15.0
    vertex 48.76463149470691 -0.18963260473539453 8.958960134217062
  endloop
endfacet
facet normal 0.016404313666300387 -0.9998654401933982 0.0
  outer loop
    vertex 48.76463149470691 -0.18963260473539453 8.958960134217062
    vertex 60.32299910860401 0.0 15.0
    vertex 48.371917847830574 -0.19607566955734695 9.482891456147248
  endloop
endfacet
facet normal 0.016404313666300387 -0.9998654401933982 0.0
  outer loop
    vertex 48.371917847830574 -0.19607566955734695 9.482891456147248
    vertex 60.32299910860401 0.0 15.0
    vertex 47.8557338107951 -0.20454445396840665 9.888255668812253
  endloop
endfacet
facet normal 0.016404313666300387 -0.9998654401933982 0.0
  outer loop
    vertex 47.8557338107951 -0.20454445396840665 9.888255668812253
    vertex 60.32299910860401 0.0 15.0
    vertex 47.25125647268997 -0.2144618243062881 10.147427871014987
  endloop
endfacet
facet normal 0.016404313666300387 -0.9998654401933982 0.0
  outer loop
    vertex 47.25125647268997 -0.2144618243062881 10.147427871014987
    vertex 60.32299910860401 0.0 15.0
    vertex 46.59967996516103 -0.22515192817169422 10.242745905477667
  endloop
endfacet
facet normal 0.016404313666300387 -0.9998654401933982 0.0
  outer loop
    vertex 46.59967996516103 -0.22515192817169422 10.242745905477667
    vertex 60.32299910860401 0.0 15.0
    vertex 27.069614557468093 -0.5455723627545606 10.460946293109421
  endloop
endfacet
facet normal 0.016404313666300387 -0.9998654401933982 0.0
  outer loop
    vertex 27.069614557468093 -0.5455723627545606 10.460946293109421
    vertex 60.32299910860401 0.0 15.0
    vertex 26.418038049939156 -0.5562624666199665 10.556264327572087
  endloop
endfacet
facet normal 0.016404313666300387 -0.9998654401933982 0.0
  outer loop
    vertex -2.6794171005597383 -1.0336504850392905 0.0
    vertex 25.687360366262308 -0.568250345618647 5.652196736036492
    vertex -2.6794171005597383 -1.0336504850392905 15.0
  endloop
endfacet
facet normal 0.016404313666300387 -0.9998654401933982 0.0
  outer loop
    vertex 25.687360366262308 -0.568250345618647 5.652196736036492
    vertex -2.6794171005597383 -1.0336504850392905 0.0
    vertex 26.33893687379123 -0.5575602417532411 5.5568787015738215
  endloop
endfacet
facet normal 0.016404313666300387 -0.9998654401933982 0.0
  outer loop
    vertex 26.33893687379123 -0.5575602417532411 5.5568787015738215
    vertex -2.6794171005597383 -1.0336504850392905 0.0
    vertex 46.52057878901312 -0.22644970330496866 5.2433602794794085
  endloop
endfacet
facet normal 0.016404313666300387 -0.9998654401933982 0.0
  outer loop
    vertex 26.33893687379123 -0.5575602417532411 5.5568787015738215
    vertex 46.52057878901312 -0.22644970330496866 5.2433602794794085
    vertex 45.869002281484185 -0.23713980717037453 5.338678313942068
  endloop
endfacet
facet normal 0.016404313666300387 -0.9998654401933982 0.0
  outer loop
    vertex -2.6794171005597383 -1.0336504850392905 15.0
    vertex 25.687360366262308 -0.568250345618647 5.652196736036492
    vertex 25.082883028157173 -0.5781677159565285 5.911368938239237
  endloop
endfacet
facet normal 0.016404313666300387 -0.9998654401933982 0.0
  outer loop
    vertex -2.6794171005597383 -1.0336504850392905 15.0
    vertex 25.082883028157173 -0.5781677159565285 5.911368938239237
    vertex 24.566698991121704 -0.5866365003675879 6.316733150904237
  endloop
endfacet
facet normal 0.016404313666300387 -0.9998654401933982 0.0
  outer loop
    vertex -2.6794171005597383 -1.0336504850392905 15.0
    vertex 24.566698991121704 -0.5866365003675879 6.316733150904237
    vertex 24.173985344245377 -0.5930795651895403 6.840664472834416
  endloop
endfacet
facet normal 0.016404313666300387 -0.9998654401933982 0.0
  outer loop
    vertex -2.6794171005597383 -1.0336504850392905 15.0
    vertex 24.173985344245377 -0.5930795651895403 6.840664472834416
    vertex 23.931504873572834 -0.5970578262024374 7.447457850277689
  endloop
endfacet
facet normal 0.016404313666300387 -0.9998654401933982 0.0
  outer loop
    vertex -2.6794171005597383 -1.0336504850392905 15.0
    vertex 23.931504873572834 -0.5970578262024374 7.447457850277689
    vertex 23.855782222462494 -0.5983001714926373 8.09576131733476
  endloop
endfacet
facet normal 0.016404313666300387 -0.9998654401933982 0.0
  outer loop
    vertex -2.6794171005597383 -1.0336504850392905 15.0
    vertex 23.855782222462494 -0.5983001714926373 8.09576131733476
    vertex 23.95197776444993 -0.5967219372816855 8.741394064097824
  endloop
endfacet
facet normal 0.016404313666300387 -0.9998654401933982 0.0
  outer loop
    vertex -2.6794171005597383 -1.0336504850392905 15.0
    vertex 23.95197776444993 -0.5967219372816855 8.741394064097824
    vertex 24.213535932319342 -0.5924306776229029 9.34035728583354
  endloop
endfacet
facet normal 0.016404313666300387 -0.9998654401933982 0.0
  outer loop
    vertex -2.6794171005597383 -1.0336504850392905 15.0
    vertex 24.213535932319342 -0.5924306776229029 9.34035728583354
    vertex 24.622631969175732 -0.5857188347703941 9.851832628814142
  endloop
endfacet
facet normal 0.016404313666300387 -0.9998654401933982 0.0
  outer loop
    vertex -2.6794171005597383 -1.0336504850392905 15.0
    vertex 24.622631969175732 -0.5857188347703941 9.851832628814142
    vertex 25.1513866561705 -0.5770438097227129 10.240963893668477
  endloop
endfacet
facet normal 0.016404313666300387 -0.9998654401933982 0.0
  outer loop
    vertex -2.6794171005597383 -1.0336504850392905 15.0
    vertex 25.1513866561705 -0.5770438097227129 10.240963893668477
    vertex 25.763766235193422 -0.5669967911007011 10.48123242776654
  endloop
endfacet
facet normal 0.016404313666300387 -0.9998654401933982 0.0
  outer loop
    vertex -2.6794171005597383 -1.0336504850392905 15.0
    vertex 25.763766235193422 -0.5669967911007011 10.48123242776654
    vertex 26.418038049939156 -0.5562624666199665 10.556264327572087
  endloop
endfacet
facet normal 0.016404313666300387 -0.9998654401933982 0.0
  outer loop
    vertex -2.6794171005597383 -1.0336504850392905 15.0
    vertex 26.418038049939156 -0.5562624666199665 10.556264327572087
    vertex 60.32299910860401 0.0 15.0
  endloop
endfacet
facet normal 0.016404313666300387 -0.9998654401933982 0.0
  outer loop
    vertex 45.26452494337905 -0.24705717750825618 5.5978505161447885
    vertex 26.33893687379123 -0.5575602417532411 5.5568787015738215
    vertex 45.869002281484185 -0.23713980717037453 5.338678313942068
  endloop
endfacet
facet normal 0.016404313666300387 -0.9998654401933982 0.0
  outer loop
    vertex 26.33893687379123 -0.5575602417532411 5.5568787015738215
    vertex 45.26452494337905 -0.24705717750825618 5.5978505161447885
    vertex 26.99320868853698 -0.5468259172725063 5.631910601379351
  endloop
endfacet
facet normal 0.016404313666300387 -0.9998654401933982 0.0
  outer loop
    vertex 26.99320868853698 -0.5468259172725063 5.631910601379351
    vertex 45.26452494337905 -0.24705717750825618 5.5978505161447885
    vertex 44.74834090634355 -0.25552596191931615 6.003214728809793
  endloop
endfacet
facet normal 0.016404313666300387 -0.9998654401933982 0.0
  outer loop
    vertex 26.99320868853698 -0.5468259172725063 5.631910601379351
    vertex 44.74834090634355 -0.25552596191931615 6.003214728809793
    vertex 27.605588267559902 -0.5367788986504946 5.872179135477412
  endloop
endfacet
facet normal 0.016404313666300387 -0.9998654401933982 0.0
  outer loop
    vertex 27.605588267559902 -0.5367788986504946 5.872179135477412
    vertex 44.74834090634355 -0.25552596191931615 6.003214728809793
    vertex 28.134342954554704 -0.5281038736028127 6.26131040033175
  endloop
endfacet
facet normal 0.016404313666300387 -0.9998654401933982 0.0
  outer loop
    vertex 28.134342954554704 -0.5281038736028127 6.26131040033175
    vertex 44.74834090634355 -0.25552596191931615 6.003214728809793
    vertex 44.35562725946721 -0.26196902674126876 6.527146050739982
  endloop
endfacet
facet normal 0.016404313666300387 -0.9998654401933982 0.0
  outer loop
    vertex 28.134342954554704 -0.5281038736028127 6.26131040033175
    vertex 44.35562725946721 -0.26196902674126876 6.527146050739982
    vertex 28.543438991411094 -0.5213920307503038 6.772785743312356
  endloop
endfacet
facet normal 0.016404313666300387 -0.9998654401933982 0.0
  outer loop
    vertex 28.543438991411094 -0.5213920307503038 6.772785743312356
    vertex 44.35562725946721 -0.26196902674126876 6.527146050739982
    vertex 44.113146788794666 -0.2659472877541658 7.133939428183263
  endloop
endfacet
facet normal 0.016404313666300387 -0.9998654401933982 0.0
  outer loop
    vertex 28.543438991411094 -0.5213920307503038 6.772785743312356
    vertex 44.113146788794666 -0.2659472877541658 7.133939428183263
    vertex 28.80499715928052 -0.5171007710915211 7.371748965048077
  endloop
endfacet
facet normal 0.016404313666300387 -0.9998654401933982 0.0
  outer loop
    vertex 28.80499715928052 -0.5171007710915211 7.371748965048077
    vertex 44.113146788794666 -0.2659472877541658 7.133939428183263
    vertex 44.037424137684326 -0.26718963304436566 7.7822428952403335
  endloop
endfacet
facet normal 0.016404313666300387 -0.9998654401933982 0.0
  outer loop
    vertex 28.80499715928052 -0.5171007710915211 7.371748965048077
    vertex 44.037424137684326 -0.26718963304436566 7.7822428952403335
    vertex 28.901192701267956 -0.5155225368805693 8.017381711811158
  endloop
endfacet
facet normal 0.016404313666300387 -0.9998654401933982 0.0
  outer loop
    vertex 28.901192701267956 -0.5155225368805693 8.017381711811158
    vertex 44.037424137684326 -0.26718963304436566 7.7822428952403335
    vertex 44.13361967967176 -0.26561139883341384 8.427875642003412
  endloop
endfacet
facet normal 0.016404313666300387 -0.9998654401933982 0.0
  outer loop
    vertex 28.901192701267956 -0.5155225368805693 8.017381711811158
    vertex 44.13361967967176 -0.26561139883341384 8.427875642003412
    vertex 28.825470050157616 -0.5167648821707691 8.665685178868229
  endloop
endfacet
facet normal 0.016404313666300387 -0.9998654401933982 0.0
  outer loop
    vertex 28.825470050157616 -0.5167648821707691 8.665685178868229
    vertex 44.13361967967176 -0.26561139883341384 8.427875642003412
    vertex 44.39517784754117 -0.26132013917463137 9.02683886373913
  endloop
endfacet
facet normal 0.016404313666300387 -0.9998654401933982 0.0
  outer loop
    vertex 28.825470050157616 -0.5167648821707691 8.665685178868229
    vertex 44.39517784754117 -0.26132013917463137 9.02683886373913
    vertex 28.582989579485062 -0.5207431431836664 9.272478556311507
  endloop
endfacet
facet normal 0.016404313666300387 -0.9998654401933982 0.0
  outer loop
    vertex 28.582989579485062 -0.5207431431836664 9.272478556311507
    vertex 44.39517784754117 -0.26132013917463137 9.02683886373913
    vertex 44.804273884397574 -0.25460829632212234 9.538314206719736
  endloop
endfacet
facet normal 0.016404313666300387 -0.9998654401933982 0.0
  outer loop
    vertex 28.582989579485062 -0.5207431431836664 9.272478556311507
    vertex 44.804273884397574 -0.25460829632212234 9.538314206719736
    vertex 28.19027593260873 -0.5271862080056188 9.79640987824169
  endloop
endfacet
facet normal 0.016404313666300387 -0.9998654401933982 0.0
  outer loop
    vertex 28.19027593260873 -0.5271862080056188 9.79640987824169
    vertex 44.804273884397574 -0.25460829632212234 9.538314206719736
    vertex 45.33302857139236 -0.24593327127444056 9.92744547157407
  endloop
endfacet
facet normal 0.016404313666300387 -0.9998654401933982 0.0
  outer loop
    vertex 28.19027593260873 -0.5271862080056188 9.79640987824169
    vertex 45.33302857139236 -0.24593327127444056 9.92744547157407
    vertex 27.674091895573223 -0.535654992416679 10.201774090906696
  endloop
endfacet
facet normal 0.016404313666300387 -0.9998654401933982 0.0
  outer loop
    vertex 27.674091895573223 -0.535654992416679 10.201774090906696
    vertex 45.33302857139236 -0.24593327127444056 9.92744547157407
    vertex 45.94540815041529 -0.23588625265242888 10.167714005672138
  endloop
endfacet
facet normal 0.016404313666300387 -0.9998654401933982 0.0
  outer loop
    vertex 27.674091895573223 -0.535654992416679 10.201774090906696
    vertex 45.94540815041529 -0.23588625265242888 10.167714005672138
    vertex 46.59967996516103 -0.22515192817169422 10.242745905477667
  endloop
endfacet
facet normal 0.016404313666300387 -0.9998654401933982 0.0
  outer loop
    vertex 27.674091895573223 -0.535654992416679 10.201774090906696
    vertex 46.59967996516103 -0.22515192817169422 10.242745905477667
    vertex 27.069614557468093 -0.5455723627545606 10.460946293109421
  endloop
endfacet
facet normal 0.11946887772759641 0.9928379461193597 -0.0
  outer loop
    vertex 28.192073278784203 14.84280324376732 5.556878701573826
    vertex 46.81071020077046 12.602409767086199 5.597850516144806
    vertex 47.405383615639586 12.530852303185327 5.338678313942072
  endloop
endfacet
facet normal 0.11946887772759641 0.9928379461193597 -0.0
  outer loop
    vertex 46.81071020077046 12.602409767086199 5.597850516144806
    vertex 28.192073278784203 14.84280324376732 5.556878701573826
    vertex 28.835733561479206 14.765351156131103 5.631910601379359
  endloop
endfacet
facet normal 0.11946887772759641 0.9928379461193597 -0.0
  outer loop
    vertex 46.81071020077046 12.602409767086199 5.597850516144806
    vertex 28.835733561479206 14.765351156131103 5.631910601379359
    vertex 46.302898071754896 12.66351515229743 6.003214728809809
  endloop
endfacet
facet normal 0.11946887772759641 0.9928379461193597 -0.0
  outer loop
    vertex 46.302898071754896 12.66351515229743 6.003214728809809
    vertex 28.835733561479206 14.765351156131103 5.631910601379359
    vertex 29.438181052058816 14.692858232315416 5.872179135477422
  endloop
endfacet
facet normal 0.11946887772759641 0.9928379461193597 -0.0
  outer loop
    vertex 46.302898071754896 12.66351515229743 6.003214728809809
    vertex 29.438181052058816 14.692858232315416 5.872179135477422
    vertex 29.95835994963158 14.630264745278081 6.26131040033176
  endloop
endfacet
facet normal 0.11946887772759641 0.9928379461193597 -0.0
  outer loop
    vertex 46.302898071754896 12.66351515229743 6.003214728809809
    vertex 29.95835994963158 14.630264745278081 6.26131040033176
    vertex 45.916553785986096 12.710004227798295 6.527146050739992
  endloop
endfacet
facet normal 0.11946887772759641 0.9928379461193597 -0.0
  outer loop
    vertex 45.916553785986096 12.710004227798295 6.527146050739992
    vertex 29.95835994963158 14.630264745278081 6.26131040033176
    vertex 30.36082092196419 14.581836337720063 6.772785743312366
  endloop
endfacet
facet normal 0.11946887772759641 0.9928379461193597 -0.0
  outer loop
    vertex 45.916553785986096 12.710004227798295 6.527146050739992
    vertex 30.36082092196419 14.581836337720063 6.772785743312366
    vertex 45.67800606807506 12.738708839920248 7.1339394281832655
  endloop
endfacet
facet normal 0.11946887772759641 0.9928379461193597 -0.0
  outer loop
    vertex 45.67800606807506 12.738708839920248 7.1339394281832655
    vertex 30.36082092196419 14.581836337720063 6.772785743312366
    vertex 30.618136918890386 14.550873325584712 7.371748965048084
  endloop
endfacet
facet normal 0.11946887772759641 0.9928379461193597 -0.0
  outer loop
    vertex 45.67800606807506 12.738708839920248 7.1339394281832655
    vertex 30.618136918890386 14.550873325584712 7.371748965048084
    vertex 45.6035115507787 12.747672816783782 7.782242895240335
  endloop
endfacet
facet normal 0.11946887772759641 0.9928379461193597 -0.0
  outer loop
    vertex 45.6035115507787 12.747672816783782 7.782242895240335
    vertex 30.618136918890386 14.550873325584712 7.371748965048084
    vertex 30.712772280454434 14.539485786980256 8.017381711811153
  endloop
endfacet
facet normal 0.11946887772759641 0.9928379461193597 -0.0
  outer loop
    vertex 45.6035115507787 12.747672816783782 7.782242895240335
    vertex 30.712772280454434 14.539485786980256 8.017381711811153
    vertex 45.69814691234274 12.73628527817933 8.427875642003402
  endloop
endfacet
facet normal 0.11946887772759641 0.9928379461193597 -0.0
  outer loop
    vertex 45.69814691234274 12.73628527817933 8.427875642003402
    vertex 30.712772280454434 14.539485786980256 8.017381711811153
    vertex 30.63827776315808 14.548449763843793 8.665685178868223
  endloop
endfacet
facet normal 0.11946887772759641 0.9928379461193597 -0.0
  outer loop
    vertex 45.69814691234274 12.73628527817933 8.427875642003402
    vertex 30.63827776315808 14.548449763843793 8.665685178868223
    vertex 45.95546290926894 12.705322266043979 9.02683886373912
  endloop
endfacet
facet normal 0.11946887772759641 0.9928379461193597 -0.0
  outer loop
    vertex 45.95546290926894 12.705322266043979 9.02683886373912
    vertex 30.63827776315808 14.548449763843793 8.665685178868223
    vertex 30.399730045247043 14.577154375965742 9.272478556311496
  endloop
endfacet
facet normal 0.11946887772759641 0.9928379461193597 -0.0
  outer loop
    vertex 45.95546290926894 12.705322266043979 9.02683886373912
    vertex 30.399730045247043 14.577154375965742 9.272478556311496
    vertex 46.35792388160155 12.65689385848596 9.538314206719727
  endloop
endfacet
facet normal 0.11946887772759641 0.9928379461193597 -0.0
  outer loop
    vertex 46.35792388160155 12.65689385848596 9.538314206719727
    vertex 30.399730045247043 14.577154375965742 9.272478556311496
    vertex 30.013385759478236 14.623643451466611 9.79640987824168
  endloop
endfacet
facet normal 0.11946887772759641 0.9928379461193597 -0.0
  outer loop
    vertex 46.35792388160155 12.65689385848596 9.538314206719727
    vertex 30.013385759478236 14.623643451466611 9.79640987824168
    vertex 46.87810277917432 12.594300371448625 9.927445471574066
  endloop
endfacet
facet normal 0.11946887772759641 0.9928379461193597 -0.0
  outer loop
    vertex 46.87810277917432 12.594300371448625 9.927445471574066
    vertex 30.013385759478236 14.623643451466611 9.79640987824168
    vertex 29.505573630462678 14.684748836677842 10.201774090906683
  endloop
endfacet
facet normal 0.11946887772759641 0.9928379461193597 -0.0
  outer loop
    vertex 46.87810277917432 12.594300371448625 9.927445471574066
    vertex 29.505573630462678 14.684748836677842 10.201774090906683
    vertex 47.48055026975393 12.52180744763294 10.16771400567213
  endloop
endfacet
facet normal 0.11946887772759641 0.9928379461193597 -0.0
  outer loop
    vertex 47.48055026975393 12.52180744763294 10.16771400567213
    vertex 29.505573630462678 14.684748836677842 10.201774090906683
    vertex 48.12421055244893 12.44435535999672 10.242745905477664
  endloop
endfacet
facet normal 0.11946887772759641 0.9928379461193597 -0.0
  outer loop
    vertex 48.12421055244893 12.44435535999672 10.242745905477664
    vertex 29.505573630462678 14.684748836677842 10.201774090906683
    vertex 28.91090021559355 14.756306300578714 10.460946293109417
  endloop
endfacet
facet normal 0.11946887772759641 0.9928379461193597 -0.0
  outer loop
    vertex -8.99112228044913 19.317082919670533 0.0
    vertex 27.551064588540562 14.91993626344729 5.652196736036492
    vertex 63.47723153124652 10.596915711628684 0.0
  endloop
endfacet
facet normal 0.11946887772759641 0.9928379461193597 -0.0
  outer loop
    vertex 27.551064588540562 14.91993626344729 5.652196736036492
    vertex -8.99112228044913 19.317082919670533 0.0
    vertex -8.99112228044913 19.317082919670533 15.0
  endloop
endfacet
facet normal 0.11946887772759641 0.9928379461193597 -0.0
  outer loop
    vertex 63.47723153124652 10.596915711628684 0.0
    vertex 27.551064588540562 14.91993626344729 5.652196736036492
    vertex 28.192073278784203 14.84280324376732 5.556878701573826
  endloop
endfacet
facet normal 0.11946887772759641 0.9928379461193597 -0.0
  outer loop
    vertex 63.47723153124652 10.596915711628684 0.0
    vertex 28.192073278784203 14.84280324376732 5.556878701573826
    vertex 48.04639230588323 12.45371928350536 5.243360279479407
  endloop
endfacet
facet normal 0.11946887772759641 0.9928379461193597 -0.0
  outer loop
    vertex 48.04639230588323 12.45371928350536 5.243360279479407
    vertex 28.192073278784203 14.84280324376732 5.556878701573826
    vertex 47.405383615639586 12.530852303185327 5.338678313942072
  endloop
endfacet
facet normal 0.11946887772759641 0.9928379461193597 -0.0
  outer loop
    vertex 27.551064588540562 14.91993626344729 5.652196736036492
    vertex -8.99112228044913 19.317082919670533 15.0
    vertex 26.956391173671438 14.991493727348162 5.911368938239227
  endloop
endfacet
facet normal 0.11946887772759641 0.9928379461193597 -0.0
  outer loop
    vertex 26.956391173671438 14.991493727348162 5.911368938239227
    vertex -8.99112228044913 19.317082919670533 15.0
    vertex 26.448579044655876 15.052599112559394 6.31673315090423
  endloop
endfacet
facet normal 0.11946887772759641 0.9928379461193597 -0.0
  outer loop
    vertex 26.448579044655876 15.052599112559394 6.31673315090423
    vertex -8.99112228044913 19.317082919670533 15.0
    vertex 26.06223475888707 15.09908818806026 6.840664472834415
  endloop
endfacet
facet normal 0.11946887772759641 0.9928379461193597 -0.0
  outer loop
    vertex 26.06223475888707 15.09908818806026 6.840664472834415
    vertex -8.99112228044913 19.317082919670533 15.0
    vertex 25.823687040976033 15.12779280018221 7.447457850277688
  endloop
endfacet
facet normal 0.11946887772759641 0.9928379461193597 -0.0
  outer loop
    vertex 25.823687040976033 15.12779280018221 7.447457850277688
    vertex -8.99112228044913 19.317082919670533 15.0
    vertex 25.749192523679678 15.136756777045747 8.095761317334759
  endloop
endfacet
facet normal 0.11946887772759641 0.9928379461193597 -0.0
  outer loop
    vertex 25.749192523679678 15.136756777045747 8.095761317334759
    vertex -8.99112228044913 19.317082919670533 15.0
    vertex 25.843827885243726 15.125369238441293 8.741394064097824
  endloop
endfacet
facet normal 0.11946887772759641 0.9928379461193597 -0.0
  outer loop
    vertex 25.843827885243726 15.125369238441293 8.741394064097824
    vertex -8.99112228044913 19.317082919670533 15.0
    vertex 26.10114388216992 15.09440622630594 9.340357285833544
  endloop
endfacet
facet normal 0.11946887772759641 0.9928379461193597 -0.0
  outer loop
    vertex 26.10114388216992 15.09440622630594 9.340357285833544
    vertex -8.99112228044913 19.317082919670533 15.0
    vertex 26.503604854502534 15.045977818747922 9.851832628814151
  endloop
endfacet
facet normal 0.11946887772759641 0.9928379461193597 -0.0
  outer loop
    vertex 26.503604854502534 15.045977818747922 9.851832628814151
    vertex -8.99112228044913 19.317082919670533 15.0
    vertex 27.023783752075296 14.983384331710587 10.240963893668486
  endloop
endfacet
facet normal 0.11946887772759641 0.9928379461193597 -0.0
  outer loop
    vertex 27.023783752075296 14.983384331710587 10.240963893668486
    vertex -8.99112228044913 19.317082919670533 15.0
    vertex 27.62623124265491 14.910891407894901 10.48123242776655
  endloop
endfacet
facet normal 0.11946887772759641 0.9928379461193597 -0.0
  outer loop
    vertex 27.62623124265491 14.910891407894901 10.48123242776655
    vertex -8.99112228044913 19.317082919670533 15.0
    vertex 28.26989152534991 14.833439320258684 10.556264327572084
  endloop
endfacet
facet normal 0.11946887772759641 0.9928379461193597 -0.0
  outer loop
    vertex 63.47723153124652 10.596915711628684 0.0
    vertex 49.29250007915784 12.303774272053454 5.558660713383004
    vertex 63.47723153124652 10.596915711628684 15.0
  endloop
endfacet
facet normal 0.11946887772759641 0.9928379461193597 -0.0
  outer loop
    vertex 49.29250007915784 12.303774272053454 5.558660713383004
    vertex 63.47723153124652 10.596915711628684 0.0
    vertex 48.69005258857823 12.37626719586914 5.318392179284941
  endloop
endfacet
facet normal 0.11946887772759641 0.9928379461193597 -0.0
  outer loop
    vertex 48.69005258857823 12.37626719586914 5.318392179284941
    vertex 63.47723153124652 10.596915711628684 0.0
    vertex 48.04639230588323 12.45371928350536 5.243360279479407
  endloop
endfacet
facet normal 0.11946887772759641 0.9928379461193597 -0.0
  outer loop
    vertex 63.47723153124652 10.596915711628684 15.0
    vertex 49.29250007915784 12.303774272053454 5.558660713383004
    vertex 49.81267897673061 12.24118078501612 5.947791978237341
  endloop
endfacet
facet normal 0.11946887772759641 0.9928379461193597 -0.0
  outer loop
    vertex 63.47723153124652 10.596915711628684 15.0
    vertex 49.81267897673061 12.24118078501612 5.947791978237341
    vertex 50.21513994906322 12.1927523774581 6.459267321217949
  endloop
endfacet
facet normal 0.11946887772759641 0.9928379461193597 -0.0
  outer loop
    vertex 63.47723153124652 10.596915711628684 15.0
    vertex 50.21513994906322 12.1927523774581 6.459267321217949
    vertex 50.47245594598942 12.16178936532275 7.058230542953667
  endloop
endfacet
facet normal 0.11946887772759641 0.9928379461193597 -0.0
  outer loop
    vertex 63.47723153124652 10.596915711628684 15.0
    vertex 50.47245594598942 12.16178936532275 7.058230542953667
    vertex 50.56709130755346 12.150401826718296 7.703863289716734
  endloop
endfacet
facet normal 0.11946887772759641 0.9928379461193597 -0.0
  outer loop
    vertex 63.47723153124652 10.596915711628684 15.0
    vertex 50.56709130755346 12.150401826718296 7.703863289716734
    vertex 50.492596790257096 12.159365803581833 8.352166756773807
  endloop
endfacet
facet normal 0.11946887772759641 0.9928379461193597 -0.0
  outer loop
    vertex 63.47723153124652 10.596915711628684 15.0
    vertex 50.492596790257096 12.159365803581833 8.352166756773807
    vertex 50.25404907234607 12.188070415703784 8.958960134217078
  endloop
endfacet
facet normal 0.11946887772759641 0.9928379461193597 -0.0
  outer loop
    vertex 63.47723153124652 10.596915711628684 15.0
    vertex 50.25404907234607 12.188070415703784 8.958960134217078
    vertex 49.867704786577264 12.23455949120465 9.482891456147263
  endloop
endfacet
facet normal 0.11946887772759641 0.9928379461193597 -0.0
  outer loop
    vertex 63.47723153124652 10.596915711628684 15.0
    vertex 49.867704786577264 12.23455949120465 9.482891456147263
    vertex 49.3598926575617 12.29566487641588 9.888255668812265
  endloop
endfacet
facet normal 0.11946887772759641 0.9928379461193597 -0.0
  outer loop
    vertex 63.47723153124652 10.596915711628684 15.0
    vertex 49.3598926575617 12.29566487641588 9.888255668812265
    vertex 48.765219242692574 12.367222340316752 10.147427871014997
  endloop
endfacet
facet normal 0.11946887772759641 0.9928379461193597 -0.0
  outer loop
    vertex 63.47723153124652 10.596915711628684 15.0
    vertex 48.765219242692574 12.367222340316752 10.147427871014997
    vertex 48.12421055244893 12.44435535999672 10.242745905477664
  endloop
endfacet
facet normal 0.11946887772759641 0.9928379461193597 -0.0
  outer loop
    vertex 63.47723153124652 10.596915711628684 15.0
    vertex 48.12421055244893 12.44435535999672 10.242745905477664
    vertex 28.91090021559355 14.756306300578714 10.460946293109417
  endloop
endfacet
facet normal 0.11946887772759641 0.9928379461193597 -0.0
  outer loop
    vertex 63.47723153124652 10.596915711628684 15.0
    vertex 28.91090021559355 14.756306300578714 10.460946293109417
    vertex 28.26989152534991 14.833439320258684 10.556264327572084
  endloop
endfacet
facet normal 0.11946887772759641 0.9928379461193597 -0.0
  outer loop
    vertex 63.47723153124652 10.596915711628684 15.0
    vertex 28.26989152534991 14.833439320258684 10.556264327572084
    vertex -8.99112228044913 19.317082919670533 15.0
  endloop
endfacet
facet normal 0.11414493295074184 -0.013735138842363987 -0.993369156075752
  outer loop
    vertex 27.62623124265491 14.910891407894901 10.48123242776655
    vertex 26.418038049939156 -0.5562624666199665 10.556264327572087
    vertex 25.763766235193422 -0.5669967911007011 10.48123242776654
  endloop
endfacet
facet normal 0.11414493295074184 -0.013735138842363987 -0.993369156075752
  outer loop
    vertex 26.418038049939156 -0.5562624666199665 10.556264327572087
    vertex 27.62623124265491 14.910891407894901 10.48123242776655
    vertex 28.26989152534991 14.833439320258684 10.556264327572084
  endloop
endfacet
facet normal -0.36551701057649916 0.04398291505134536 0.9297649262920201
  outer loop
    vertex 47.78723018278177 -0.20566836020222243 5.558660713383007
    vertex 48.69005258857823 12.37626719586914 5.318392179284941
    vertex 47.17485060375886 -0.21571537882423375 5.318392179284944
  endloop
endfacet
facet normal -0.36551701057649916 0.04398291505134536 0.9297649262920201
  outer loop
    vertex 48.69005258857823 12.37626719586914 5.318392179284941
    vertex 47.78723018278177 -0.20566836020222243 5.558660713383007
    vertex 49.29250007915784 12.303774272053454 5.558660713383004
  endloop
endfacet
facet normal 0.14500593322220015 -0.017448664380335998 0.9892769194930716
  outer loop
    vertex 46.52057878901312 -0.22644970330496866 5.2433602794794085
    vertex 47.405383615639586 12.530852303185327 5.338678313942072
    vertex 45.869002281484185 -0.23713980717037453 5.338678313942068
  endloop
endfacet
facet normal 0.14500593322220015 -0.017448664380335998 0.9892769194930716
  outer loop
    vertex 47.405383615639586 12.530852303185327 5.338678313942072
    vertex 46.52057878901312 -0.22644970330496866 5.2433602794794085
    vertex 48.04639230588323 12.45371928350536 5.243360279479407
  endloop
endfacet
facet normal 0.7780999665713856 -0.09362930791425271 -0.6211231719402417
  outer loop
    vertex 26.10114388216992 15.09440622630594 9.340357285833544
    vertex 24.622631969175732 -0.5857188347703941 9.851832628814142
    vertex 24.213535932319342 -0.5924306776229029 9.34035728583354
  endloop
endfacet
facet normal 0.7780999665713856 -0.09362930791425271 -0.6211231719402417
  outer loop
    vertex 24.622631969175732 -0.5857188347703941 9.851832628814142
    vertex 26.10114388216992 15.09440622630594 9.340357285833544
    vertex 26.503604854502534 15.045977818747922 9.851832628814151
  endloop
endfacet
endsolid Untitled
