solid Untitled
facet normal 0.0 0.0 -1.0
  outer loop
    vertex -5.312592044589876 61.563661570110206 0.0
    vertex -5.5 0.043080231787998594 0.0
    vertex -5.5 60.14015682204634 0.0
  endloop
endfacet
facet normal 0.0 0.0 -1.0
  outer loop
    vertex -5.5 0.043080231787998594 0.0
    vertex -5.312592044589876 61.563661570110206 0.0
    vertex -5.312592044589876 -1.3804245162758662 0.0
  endloop
endfacet
facet normal 0.0 0.0 -1.0
  outer loop
    vertex -5.312592044589876 -1.3804245162758662 0.0
    vertex -5.312592044589876 61.563661570110206 0.0
    vertex -4.763139720814412 62.89015682204634 0.0
  endloop
endfacet
facet normal 0.0 0.0 -1.0
  outer loop
    vertex -5.312592044589876 -1.3804245162758662 0.0
    vertex -4.763139720814412 62.89015682204634 0.0
    vertex -4.763139720814412 -2.7069197682120025 0.0
  endloop
endfacet
facet normal 0.0 0.0 -1.0
  outer loop
    vertex -4.763139720814412 -2.7069197682120025 0.0
    vertex -4.763139720814412 62.89015682204634 0.0
    vertex -3.8890872965260113 64.02924411857235 0.0
  endloop
endfacet
facet normal 0.0 0.0 -1.0
  outer loop
    vertex -4.763139720814412 -2.7069197682120025 0.0
    vertex -3.8890872965260113 64.02924411857235 0.0
    vertex -3.8890872965260113 -3.8460070647380142 0.0
  endloop
endfacet
facet normal 0.0 0.0 -1.0
  outer loop
    vertex -3.8890872965260113 -3.8460070647380142 0.0
    vertex -3.8890872965260113 64.02924411857235 0.0
    vertex -2.749999999999999 64.90329654286076 0.0
  endloop
endfacet
facet normal 0.0 0.0 -1.0
  outer loop
    vertex -3.8890872965260113 -3.8460070647380142 0.0
    vertex -2.749999999999999 64.90329654286076 0.0
    vertex -2.749999999999999 -4.720059489026416 0.0
  endloop
endfacet
facet normal 0.0 0.0 -1.0
  outer loop
    vertex -2.749999999999999 -4.720059489026416 0.0
    vertex -2.749999999999999 64.90329654286076 0.0
    vertex -2.4999999999999956 60.0 0.0
  endloop
endfacet
facet normal 0.0 0.0 -1.0
  outer loop
    vertex -2.4999999999999956 60.0 0.0
    vertex -2.749999999999999 64.90329654286076 0.0
    vertex -2.414814565722666 60.6470476127563 0.0
  endloop
endfacet
facet normal 0.0 0.0 -1.0
  outer loop
    vertex -2.414814565722666 60.6470476127563 0.0
    vertex -2.749999999999999 64.90329654286076 0.0
    vertex -1.4235047480638625 65.45274886663623 0.0
  endloop
endfacet
facet normal 0.0 0.0 -1.0
  outer loop
    vertex -2.749999999999999 -4.720059489026416 0.0
    vertex -2.4999999999999956 60.0 0.0
    vertex -2.4999999999999996 4.592425496802573e-16 0.0
  endloop
endfacet
facet normal 0.0 0.0 -1.0
  outer loop
    vertex -2.414814565722666 60.6470476127563 0.0
    vertex -1.4235047480638625 65.45274886663623 0.0
    vertex -2.165063509461092 61.25 0.0
  endloop
endfacet
facet normal 0.0 0.0 -1.0
  outer loop
    vertex -2.165063509461092 61.25 0.0
    vertex -1.4235047480638625 65.45274886663623 0.0
    vertex -1.7677669529663647 61.76776695296636 0.0
  endloop
endfacet
facet normal 0.0 0.0 -1.0
  outer loop
    vertex -1.7677669529663647 61.76776695296636 0.0
    vertex -1.4235047480638625 65.45274886663623 0.0
    vertex -1.2499999999999971 62.1650635094611 0.0
  endloop
endfacet
facet normal 0.0 0.0 -1.0
  outer loop
    vertex -1.2499999999999971 62.1650635094611 0.0
    vertex -1.4235047480638625 65.45274886663623 0.0
    vertex -1.0645967574850896 65.49999999999999 0.0
  endloop
endfacet
facet normal 0.0 0.0 -1.0
  outer loop
    vertex -1.2499999999999971 62.1650635094611 0.0
    vertex -1.0645967574850896 65.49999999999999 0.0
    vertex -0.6470476127562997 62.414814565722665 0.0
  endloop
endfacet
facet normal 0.0 0.0 -1.0
  outer loop
    vertex -0.6470476127562997 62.414814565722665 0.0
    vertex -1.0645967574850896 65.49999999999999 0.0
    vertex 1.2055273865347072e-15 65.64015682204635 0.0
  endloop
endfacet
facet normal 0.0 0.0 -1.0
  outer loop
    vertex -0.6470476127562997 62.414814565722665 0.0
    vertex 1.2055273865347072e-15 65.64015682204635 0.0
    vertex 0.0 62.5 0.0
  endloop
endfacet
facet normal 0.0 0.0 -1.0
  outer loop
    vertex 0.0 62.5 0.0
    vertex 1.2055273865347072e-15 65.64015682204635 0.0
    vertex 0.6470476127563014 62.414814565722665 0.0
  endloop
endfacet
facet normal 0.0 0.0 -1.0
  outer loop
    vertex 0.6470476127563014 62.414814565722665 0.0
    vertex 1.2055273865347072e-15 65.64015682204635 0.0
    vertex 1.0645967574850916 65.49999999999999 0.0
  endloop
endfacet
facet normal 0.0 0.0 -1.0
  outer loop
    vertex 0.6470476127563014 62.414814565722665 0.0
    vertex 1.0645967574850916 65.49999999999999 0.0
    vertex 1.2499999999999987 62.1650635094611 0.0
  endloop
endfacet
facet normal 0.0 0.0 -1.0
  outer loop
    vertex 1.2499999999999987 62.1650635094611 0.0
    vertex 1.0645967574850916 65.49999999999999 0.0
    vertex 1.4235047480638647 65.45274886663623 0.0
  endloop
endfacet
facet normal 0.0 0.0 -1.0
  outer loop
    vertex 1.2499999999999987 62.1650635094611 0.0
    vertex 1.4235047480638647 65.45274886663623 0.0
    vertex 1.7677669529663658 61.76776695296636 0.0
  endloop
endfacet
facet normal 0.0 0.0 -1.0
  outer loop
    vertex 1.7677669529663658 61.76776695296636 0.0
    vertex 1.4235047480638647 65.45274886663623 0.0
    vertex 2.7500000000000004 64.90329654286076 0.0
  endloop
endfacet
facet normal 0.0 0.0 -1.0
  outer loop
    vertex 1.7677669529663658 61.76776695296636 0.0
    vertex 2.7500000000000004 64.90329654286076 0.0
    vertex 2.165063509461093 61.25 0.0
  endloop
endfacet
facet normal 0.0 0.0 -1.0
  outer loop
    vertex 2.165063509461093 61.25 0.0
    vertex 2.7500000000000004 64.90329654286076 0.0
    vertex 2.4148145657226663 60.6470476127563 0.0
  endloop
endfacet
facet normal 0.0 0.0 -1.0
  outer loop
    vertex 2.4148145657226663 60.6470476127563 0.0
    vertex 2.7500000000000004 64.90329654286076 0.0
    vertex 2.4999999999999956 60.0 0.0
  endloop
endfacet
facet normal 0.0 0.0 -1.0
  outer loop
    vertex 2.4999999999999956 60.0 0.0
    vertex 2.7500000000000004 64.90329654286076 0.0
    vertex 2.4999999999999996 -1.530808498934191e-16 0.0
  endloop
endfacet
facet normal 0.0 0.0 -1.0
  outer loop
    vertex -2.749999999999999 -4.720059489026416 0.0
    vertex -2.4148145657226707 -0.6470476127563006 0.0
    vertex -1.4235047480638625 -5.269511812801879 0.0
  endloop
endfacet
facet normal 0.0 0.0 -1.0
  outer loop
    vertex -2.4148145657226707 -0.6470476127563006 0.0
    vertex -2.749999999999999 -4.720059489026416 0.0
    vertex -2.4999999999999996 4.592425496802573e-16 0.0
  endloop
endfacet
facet normal 0.0 0.0 -1.0
  outer loop
    vertex -1.4235047480638625 -5.269511812801879 0.0
    vertex -2.4148145657226707 -0.6470476127563006 0.0
    vertex -2.1650635094610973 -1.2499999999999978 0.0
  endloop
endfacet
facet normal 0.0 0.0 -1.0
  outer loop
    vertex -1.4235047480638625 -5.269511812801879 0.0
    vertex -2.1650635094610973 -1.2499999999999978 0.0
    vertex -1.767766952966369 -1.767766952966368 0.0
  endloop
endfacet
facet normal 0.0 0.0 -1.0
  outer loop
    vertex -1.4235047480638625 -5.269511812801879 0.0
    vertex -1.767766952966369 -1.767766952966368 0.0
    vertex -1.2500000000000009 -2.165063509461095 0.0
  endloop
endfacet
facet normal 0.0 0.0 -1.0
  outer loop
    vertex -1.4235047480638625 -5.269511812801879 0.0
    vertex -1.2500000000000009 -2.165063509461095 0.0
    vertex 1.2055273865347072e-15 -5.4569197682120025 0.0
  endloop
endfacet
facet normal 0.0 0.0 -1.0
  outer loop
    vertex 1.2055273865347072e-15 -5.4569197682120025 0.0
    vertex -1.2500000000000009 -2.165063509461095 0.0
    vertex -0.6470476127563038 -2.4148145657226694 0.0
  endloop
endfacet
facet normal 0.0 0.0 -1.0
  outer loop
    vertex 1.2055273865347072e-15 -5.4569197682120025 0.0
    vertex -0.6470476127563038 -2.4148145657226694 0.0
    vertex 0.0 -2.4999999999999996 0.0
  endloop
endfacet
facet normal 0.0 0.0 -1.0
  outer loop
    vertex 1.2055273865347072e-15 -5.4569197682120025 0.0
    vertex 0.0 -2.4999999999999996 0.0
    vertex 0.6470476127563017 -2.41481456572267 0.0
  endloop
endfacet
facet normal 0.0 0.0 -1.0
  outer loop
    vertex 1.2055273865347072e-15 -5.4569197682120025 0.0
    vertex 0.6470476127563017 -2.41481456572267 0.0
    vertex 1.4235047480638647 -5.269511812801879 0.0
  endloop
endfacet
facet normal 0.0 0.0 -1.0
  outer loop
    vertex 1.4235047480638647 -5.269511812801879 0.0
    vertex 0.6470476127563017 -2.41481456572267 0.0
    vertex 1.2499999999999996 -2.1650635094610964 0.0
  endloop
endfacet
facet normal 0.0 0.0 -1.0
  outer loop
    vertex 1.4235047480638647 -5.269511812801879 0.0
    vertex 1.2499999999999996 -2.1650635094610964 0.0
    vertex 1.7677669529663682 -1.7677669529663682 0.0
  endloop
endfacet
facet normal 0.0 0.0 -1.0
  outer loop
    vertex 1.4235047480638647 -5.269511812801879 0.0
    vertex 1.7677669529663682 -1.7677669529663682 0.0
    vertex 2.7500000000000004 -4.720059489026415 0.0
  endloop
endfacet
facet normal 0.0 0.0 -1.0
  outer loop
    vertex 2.7500000000000004 -4.720059489026415 0.0
    vertex 1.7677669529663682 -1.7677669529663682 0.0
    vertex 2.1650635094610964 -1.25 0.0
  endloop
endfacet
facet normal 0.0 0.0 -1.0
  outer loop
    vertex 2.7500000000000004 -4.720059489026415 0.0
    vertex 2.1650635094610964 -1.25 0.0
    vertex 2.4148145657226703 -0.6470476127563023 0.0
  endloop
endfacet
facet normal 0.0 0.0 -1.0
  outer loop
    vertex 2.7500000000000004 -4.720059489026415 0.0
    vertex 2.4148145657226703 -0.6470476127563023 0.0
    vertex 2.4999999999999996 -1.530808498934191e-16 0.0
  endloop
endfacet
facet normal 0.0 0.0 -1.0
  outer loop
    vertex 2.7500000000000004 -4.720059489026415 0.0
    vertex 2.4999999999999996 -1.530808498934191e-16 0.0
    vertex 2.7500000000000004 64.90329654286076 0.0
  endloop
endfacet
facet normal 0.0 0.0 -1.0
  outer loop
    vertex 2.7500000000000004 -4.720059489026415 0.0
    vertex 2.7500000000000004 64.90329654286076 0.0
    vertex 3.8890872965260113 64.02924411857235 0.0
  endloop
endfacet
facet normal 0.0 0.0 -1.0
  outer loop
    vertex 2.7500000000000004 -4.720059489026415 0.0
    vertex 3.8890872965260113 64.02924411857235 0.0
    vertex 3.8890872965260113 -3.8460070647380142 0.0
  endloop
endfacet
facet normal 0.0 0.0 -1.0
  outer loop
    vertex 3.8890872965260113 -3.8460070647380142 0.0
    vertex 3.8890872965260113 64.02924411857235 0.0
    vertex 4.763139720814412 62.89015682204634 0.0
  endloop
endfacet
facet normal 0.0 0.0 -1.0
  outer loop
    vertex 3.8890872965260113 -3.8460070647380142 0.0
    vertex 4.763139720814412 62.89015682204634 0.0
    vertex 4.763139720814412 -2.7069197682120025 0.0
  endloop
endfacet
facet normal 0.0 0.0 -1.0
  outer loop
    vertex 4.763139720814412 -2.7069197682120025 0.0
    vertex 4.763139720814412 62.89015682204634 0.0
    vertex 5.312592044589875 61.563661570110206 0.0
  endloop
endfacet
facet normal 0.0 0.0 -1.0
  outer loop
    vertex 4.763139720814412 -2.7069197682120025 0.0
    vertex 5.312592044589875 61.563661570110206 0.0
    vertex 5.312592044589875 -1.380424516275867 0.0
  endloop
endfacet
facet normal 0.0 0.0 -1.0
  outer loop
    vertex 5.312592044589875 -1.380424516275867 0.0
    vertex 5.312592044589875 61.563661570110206 0.0
    vertex 5.5 60.14015682204634 0.0
  endloop
endfacet
facet normal 0.0 0.0 -1.0
  outer loop
    vertex 5.312592044589875 -1.380424516275867 0.0
    vertex 5.5 60.14015682204634 0.0
    vertex 5.5 0.043080231787996824 0.0
  endloop
endfacet
facet normal 0.0 0.0 -1.0
  outer loop
    vertex -2.4999999999999956 60.0 0.0
    vertex -2.41481456572267 0.6470476127563036 0.0
    vertex -2.4999999999999996 4.592425496802573e-16 0.0
  endloop
endfacet
facet normal 0.0 0.0 -1.0
  outer loop
    vertex -2.41481456572267 0.6470476127563036 0.0
    vertex -2.4999999999999956 60.0 0.0
    vertex -2.4148145657226667 59.352952387243704 0.0
  endloop
endfacet
facet normal 0.0 0.0 -1.0
  outer loop
    vertex -2.41481456572267 0.6470476127563036 0.0
    vertex -2.4148145657226667 59.352952387243704 0.0
    vertex -2.1650635094610955 1.2500000000000007 0.0
  endloop
endfacet
facet normal 0.0 0.0 -1.0
  outer loop
    vertex -2.1650635094610955 1.2500000000000007 0.0
    vertex -2.4148145657226667 59.352952387243704 0.0
    vertex -2.1650635094610937 58.75000000000001 0.0
  endloop
endfacet
facet normal 0.0 0.0 -1.0
  outer loop
    vertex -2.1650635094610955 1.2500000000000007 0.0
    vertex -2.1650635094610937 58.75000000000001 0.0
    vertex -1.7677669529663675 1.767766952966369 0.0
  endloop
endfacet
facet normal 0.0 0.0 -1.0
  outer loop
    vertex -1.7677669529663675 1.767766952966369 0.0
    vertex -2.1650635094610937 58.75000000000001 0.0
    vertex -1.7677669529663658 58.23223304703364 0.0
  endloop
endfacet
facet normal 0.0 0.0 -1.0
  outer loop
    vertex -1.7677669529663675 1.767766952966369 0.0
    vertex -1.7677669529663658 58.23223304703364 0.0
    vertex -1.2499999999999991 2.1650635094610964 0.0
  endloop
endfacet
facet normal 0.0 0.0 -1.0
  outer loop
    vertex -1.2499999999999991 2.1650635094610964 0.0
    vertex -1.7677669529663658 58.23223304703364 0.0
    vertex -1.2499999999999987 57.83493649053891 0.0
  endloop
endfacet
facet normal 0.0 0.0 -1.0
  outer loop
    vertex -1.2499999999999991 2.1650635094610964 0.0
    vertex -1.2499999999999987 57.83493649053891 0.0
    vertex -0.6470476127563007 2.4148145657226703 0.0
  endloop
endfacet
facet normal 0.0 0.0 -1.0
  outer loop
    vertex -0.6470476127563007 2.4148145657226703 0.0
    vertex -1.2499999999999987 57.83493649053891 0.0
    vertex -0.6470476127563027 57.58518543427734 0.0
  endloop
endfacet
facet normal 0.0 0.0 -1.0
  outer loop
    vertex -0.6470476127563007 2.4148145657226703 0.0
    vertex -0.6470476127563027 57.58518543427734 0.0
    vertex 0.0 57.50000000000001 0.0
  endloop
endfacet
facet normal 0.0 0.0 -1.0
  outer loop
    vertex -0.6470476127563007 2.4148145657226703 0.0
    vertex 0.0 57.50000000000001 0.0
    vertex 3.0616169978683826e-16 2.499999999999999 0.0
  endloop
endfacet
facet normal 0.0 0.0 -1.0
  outer loop
    vertex 3.0616169978683826e-16 2.499999999999999 0.0
    vertex 0.0 57.50000000000001 0.0
    vertex 0.6470476127563006 57.58518543427734 0.0
  endloop
endfacet
facet normal 0.0 0.0 -1.0
  outer loop
    vertex 3.0616169978683826e-16 2.499999999999999 0.0
    vertex 0.6470476127563006 57.58518543427734 0.0
    vertex 0.6470476127563024 2.41481456572267 0.0
  endloop
endfacet
facet normal 0.0 0.0 -1.0
  outer loop
    vertex 0.6470476127563024 2.41481456572267 0.0
    vertex 0.6470476127563006 57.58518543427734 0.0
    vertex 1.2499999999999976 57.83493649053891 0.0
  endloop
endfacet
facet normal 0.0 0.0 -1.0
  outer loop
    vertex 0.6470476127563024 2.41481456572267 0.0
    vertex 1.2499999999999976 57.83493649053891 0.0
    vertex 1.2500000000000007 2.1650635094610955 0.0
  endloop
endfacet
facet normal 0.0 0.0 -1.0
  outer loop
    vertex 1.2500000000000007 2.1650635094610955 0.0
    vertex 1.2499999999999976 57.83493649053891 0.0
    vertex 1.7677669529663655 58.23223304703364 0.0
  endloop
endfacet
facet normal 0.0 0.0 -1.0
  outer loop
    vertex 1.2500000000000007 2.1650635094610955 0.0
    vertex 1.7677669529663655 58.23223304703364 0.0
    vertex 1.7677669529663687 1.767766952966368 0.0
  endloop
endfacet
facet normal 0.0 0.0 -1.0
  outer loop
    vertex 1.7677669529663687 1.767766952966368 0.0
    vertex 1.7677669529663655 58.23223304703364 0.0
    vertex 2.165063509461093 58.75000000000001 0.0
  endloop
endfacet
facet normal 0.0 0.0 -1.0
  outer loop
    vertex 1.7677669529663687 1.767766952966368 0.0
    vertex 2.165063509461093 58.75000000000001 0.0
    vertex 2.1650635094610964 1.2499999999999991 0.0
  endloop
endfacet
facet normal 0.0 0.0 -1.0
  outer loop
    vertex 2.1650635094610964 1.2499999999999991 0.0
    vertex 2.165063509461093 58.75000000000001 0.0
    vertex 2.414814565722666 59.352952387243704 0.0
  endloop
endfacet
facet normal 0.0 0.0 -1.0
  outer loop
    vertex 2.1650635094610964 1.2499999999999991 0.0
    vertex 2.414814565722666 59.352952387243704 0.0
    vertex 2.4148145657226703 0.6470476127563014 0.0
  endloop
endfacet
facet normal 0.0 0.0 -1.0
  outer loop
    vertex 2.4148145657226703 0.6470476127563014 0.0
    vertex 2.414814565722666 59.352952387243704 0.0
    vertex 2.4999999999999956 60.0 0.0
  endloop
endfacet
facet normal 0.0 0.0 -1.0
  outer loop
    vertex 2.4148145657226703 0.6470476127563014 0.0
    vertex 2.4999999999999956 60.0 0.0
    vertex 2.4999999999999996 -1.530808498934191e-16 0.0
  endloop
endfacet
facet normal 0.6087614290087207 -0.7933533402912354 0.0
  outer loop
    vertex 3.8890872965260113 -3.8460070647380142 3.0
    vertex 2.7500000000000004 -4.720059489026415 0.0
    vertex 3.8890872965260113 -3.8460070647380142 0.0
  endloop
endfacet
facet normal 0.6087614290087207 -0.7933533402912354 0.0
  outer loop
    vertex 2.7500000000000004 -4.720059489026415 0.0
    vertex 3.8890872965260113 -3.8460070647380142 3.0
    vertex 2.7500000000000004 -4.720059489026415 3.0
  endloop
endfacet
facet normal -0.3826834323650901 -0.9238795325112866 -0.0
  outer loop
    vertex 1.2500000000000007 2.1650635094610955 3.0
    vertex 0.6470476127563024 2.41481456572267 0.0
    vertex 1.2500000000000007 2.1650635094610955 0.0
  endloop
endfacet
facet normal -0.3826834323650901 -0.9238795325112866 -0.0
  outer loop
    vertex 0.6470476127563024 2.41481456572267 0.0
    vertex 1.2500000000000007 2.1650635094610955 3.0
    vertex 0.6470476127563024 2.41481456572267 3.0
  endloop
endfacet
facet normal -0.1305261922200561 -0.9914448613738098 -0.0
  outer loop
    vertex 0.6470476127563014 62.414814565722665 3.0
    vertex 0.0 62.5 0.0
    vertex 0.6470476127563014 62.414814565722665 0.0
  endloop
endfacet
facet normal -0.1305261922200561 -0.9914448613738098 -0.0
  outer loop
    vertex 0.0 62.5 0.0
    vertex 0.6470476127563014 62.414814565722665 3.0
    vertex 0.0 62.5 3.0
  endloop
endfacet
facet normal -0.13052619222005232 0.9914448613738104 0.0
  outer loop
    vertex 0.0 -2.4999999999999996 3.0
    vertex 0.6470476127563017 -2.41481456572267 0.0
    vertex 0.0 -2.4999999999999996 0.0
  endloop
endfacet
facet normal -0.13052619222005232 0.9914448613738104 0.0
  outer loop
    vertex 0.6470476127563017 -2.41481456572267 0.0
    vertex 0.0 -2.4999999999999996 3.0
    vertex 0.6470476127563017 -2.41481456572267 3.0
  endloop
endfacet
facet normal 0.1305261922200499 0.9914448613738107 0.0
  outer loop
    vertex 1.2055273865347072e-15 65.64015682204635 3.0
    vertex 1.0645967574850916 65.49999999999999 0.0
    vertex 1.2055273865347072e-15 65.64015682204635 0.0
  endloop
endfacet
facet normal 0.1305261922200499 0.9914448613738107 0.0
  outer loop
    vertex 1.0645967574850916 65.49999999999999 0.0
    vertex 1.2055273865347072e-15 65.64015682204635 3.0
    vertex 1.0645967574850916 65.49999999999999 3.0
  endloop
endfacet
facet normal 0.13052619222005138 -0.9914448613738104 0.0
  outer loop
    vertex 3.0616169978683826e-16 2.499999999999999 3.0
    vertex -0.6470476127563007 2.4148145657226703 0.0
    vertex 3.0616169978683826e-16 2.499999999999999 0.0
  endloop
endfacet
facet normal 0.13052619222005138 -0.9914448613738104 0.0
  outer loop
    vertex -0.6470476127563007 2.4148145657226703 0.0
    vertex 3.0616169978683826e-16 2.499999999999999 3.0
    vertex -0.6470476127563007 2.4148145657226703 3.0
  endloop
endfacet
facet normal 0.38268343236509084 0.9238795325112864 0.0
  outer loop
    vertex -1.2500000000000009 -2.165063509461095 3.0
    vertex -0.6470476127563038 -2.4148145657226694 0.0
    vertex -1.2500000000000009 -2.165063509461095 0.0
  endloop
endfacet
facet normal 0.38268343236509084 0.9238795325112864 0.0
  outer loop
    vertex -0.6470476127563038 -2.4148145657226694 0.0
    vertex -1.2500000000000009 -2.165063509461095 3.0
    vertex -0.6470476127563038 -2.4148145657226694 3.0
  endloop
endfacet
facet normal -0.608761429008721 -0.7933533402912349 -0.0
  outer loop
    vertex 1.7677669529663687 1.767766952966368 3.0
    vertex 1.2500000000000007 2.1650635094610955 0.0
    vertex 1.7677669529663687 1.767766952966368 0.0
  endloop
endfacet
facet normal -0.608761429008721 -0.7933533402912349 -0.0
  outer loop
    vertex 1.2500000000000007 2.1650635094610955 0.0
    vertex 1.7677669529663687 1.767766952966368 3.0
    vertex 1.2500000000000007 2.1650635094610955 3.0
  endloop
endfacet
facet normal 0.13052619222005643 -0.9914448613738098 0.0
  outer loop
    vertex 0.0 62.5 3.0
    vertex -0.6470476127562997 62.414814565722665 0.0
    vertex 0.0 62.5 0.0
  endloop
endfacet
facet normal 0.13052619222005643 -0.9914448613738098 0.0
  outer loop
    vertex -0.6470476127562997 62.414814565722665 0.0
    vertex 0.0 62.5 3.0
    vertex -0.6470476127562997 62.414814565722665 3.0
  endloop
endfacet
facet normal 0.3826834323650824 -0.9238795325112898 0.0
  outer loop
    vertex -0.6470476127562997 62.414814565722665 3.0
    vertex -1.2499999999999971 62.1650635094611 0.0
    vertex -0.6470476127562997 62.414814565722665 0.0
  endloop
endfacet
facet normal 0.3826834323650824 -0.9238795325112898 0.0
  outer loop
    vertex -1.2499999999999971 62.1650635094611 0.0
    vertex -0.6470476127562997 62.414814565722665 3.0
    vertex -1.2499999999999971 62.1650635094611 3.0
  endloop
endfacet
facet normal 0.6087614290087265 -0.7933533402912306 0.0
  outer loop
    vertex -1.2499999999999971 62.1650635094611 3.0
    vertex -1.7677669529663647 61.76776695296636 0.0
    vertex -1.2499999999999971 62.1650635094611 0.0
  endloop
endfacet
facet normal 0.6087614290087265 -0.7933533402912306 0.0
  outer loop
    vertex -1.7677669529663647 61.76776695296636 0.0
    vertex -1.2499999999999971 62.1650635094611 3.0
    vertex -1.7677669529663647 61.76776695296636 3.0
  endloop
endfacet
facet normal 0.9914448613738104 -0.13052619222005177 0.0
  outer loop
    vertex 5.5 0.043080231787996824 0.0
    vertex 5.312592044589875 -1.380424516275867 3.0
    vertex 5.312592044589875 -1.380424516275867 0.0
  endloop
endfacet
facet normal 0.9914448613738104 -0.13052619222005177 0.0
  outer loop
    vertex 5.312592044589875 -1.380424516275867 3.0
    vertex 5.5 0.043080231787996824 0.0
    vertex 5.5 0.043080231787996824 3.0
  endloop
endfacet
facet normal -0.3826834323650898 -0.923879532511287 -0.0
  outer loop
    vertex -1.4235047480638625 -5.269511812801879 3.0
    vertex -2.749999999999999 -4.720059489026416 0.0
    vertex -1.4235047480638625 -5.269511812801879 0.0
  endloop
endfacet
facet normal -0.3826834323650898 -0.923879532511287 -0.0
  outer loop
    vertex -2.749999999999999 -4.720059489026416 0.0
    vertex -1.4235047480638625 -5.269511812801879 3.0
    vertex -2.749999999999999 -4.720059489026416 3.0
  endloop
endfacet
facet normal 0.9914448613738104 -0.13052619222005202 0.0
  outer loop
    vertex -2.41481456572267 0.6470476127563036 0.0
    vertex -2.4999999999999996 4.592425496802573e-16 3.0
    vertex -2.4999999999999996 4.592425496802573e-16 0.0
  endloop
endfacet
facet normal 0.9914448613738104 -0.13052619222005202 0.0
  outer loop
    vertex -2.4999999999999996 4.592425496802573e-16 3.0
    vertex -2.41481456572267 0.6470476127563036 0.0
    vertex -2.41481456572267 0.6470476127563036 3.0
  endloop
endfacet
facet normal -0.1305261922200513 -0.9914448613738105 -0.0
  outer loop
    vertex 1.2055273865347072e-15 -5.4569197682120025 3.0
    vertex -1.4235047480638625 -5.269511812801879 0.0
    vertex 1.2055273865347072e-15 -5.4569197682120025 0.0
  endloop
endfacet
facet normal -0.1305261922200513 -0.9914448613738105 -0.0
  outer loop
    vertex -1.4235047480638625 -5.269511812801879 0.0
    vertex 1.2055273865347072e-15 -5.4569197682120025 3.0
    vertex -1.4235047480638625 -5.269511812801879 3.0
  endloop
endfacet
facet normal -0.9914448613738105 0.1305261922200513 0.0
  outer loop
    vertex -5.312592044589876 61.563661570110206 3.0
    vertex -5.5 60.14015682204634 0.0
    vertex -5.5 60.14015682204634 3.0
  endloop
endfacet
facet normal -0.9914448613738105 0.1305261922200513 0.0
  outer loop
    vertex -5.5 60.14015682204634 0.0
    vertex -5.312592044589876 61.563661570110206 3.0
    vertex -5.312592044589876 61.563661570110206 0.0
  endloop
endfacet
facet normal -0.7933533402912353 -0.6087614290087208 -0.0
  outer loop
    vertex 1.7677669529663687 1.767766952966368 3.0
    vertex 2.1650635094610964 1.2499999999999991 0.0
    vertex 2.1650635094610964 1.2499999999999991 3.0
  endloop
endfacet
facet normal -0.7933533402912353 -0.6087614290087208 -0.0
  outer loop
    vertex 2.1650635094610964 1.2499999999999991 0.0
    vertex 1.7677669529663687 1.767766952966368 3.0
    vertex 1.7677669529663687 1.767766952966368 0.0
  endloop
endfacet
facet normal -0.9238795325112866 -0.38268343236509017 -0.0
  outer loop
    vertex -5.312592044589876 -1.3804245162758662 3.0
    vertex -4.763139720814412 -2.7069197682120025 0.0
    vertex -4.763139720814412 -2.7069197682120025 3.0
  endloop
endfacet
facet normal -0.9238795325112866 -0.38268343236509017 -0.0
  outer loop
    vertex -4.763139720814412 -2.7069197682120025 0.0
    vertex -5.312592044589876 -1.3804245162758662 3.0
    vertex -5.312592044589876 -1.3804245162758662 0.0
  endloop
endfacet
facet normal 0.7933533402912332 -0.6087614290087235 0.0
  outer loop
    vertex -1.7677669529663647 61.76776695296636 0.0
    vertex -2.165063509461092 61.25 3.0
    vertex -2.165063509461092 61.25 0.0
  endloop
endfacet
facet normal 0.7933533402912332 -0.6087614290087235 0.0
  outer loop
    vertex -2.165063509461092 61.25 3.0
    vertex -1.7677669529663647 61.76776695296636 0.0
    vertex -1.7677669529663647 61.76776695296636 3.0
  endloop
endfacet
facet normal 0.923879532511287 -0.3826834323650896 0.0
  outer loop
    vertex 5.312592044589875 -1.380424516275867 0.0
    vertex 4.763139720814412 -2.7069197682120025 3.0
    vertex 4.763139720814412 -2.7069197682120025 0.0
  endloop
endfacet
facet normal 0.923879532511287 -0.3826834323650896 0.0
  outer loop
    vertex 4.763139720814412 -2.7069197682120025 3.0
    vertex 5.312592044589875 -1.380424516275867 0.0
    vertex 5.312592044589875 -1.380424516275867 3.0
  endloop
endfacet
facet normal -0.1305261922200499 0.9914448613738107 0.0
  outer loop
    vertex -1.4235047480638625 65.45274886663623 3.0
    vertex -1.0645967574850896 65.49999999999999 0.0
    vertex -1.4235047480638625 65.45274886663623 0.0
  endloop
endfacet
facet normal -0.1305261922200499 0.9914448613738107 0.0
  outer loop
    vertex -1.0645967574850896 65.49999999999999 0.0
    vertex -1.4235047480638625 65.45274886663623 3.0
    vertex -1.0645967574850896 65.49999999999999 3.0
  endloop
endfacet
facet normal 0.9238795325112866 -0.3826834323650902 0.0
  outer loop
    vertex -2.165063509461092 61.25 0.0
    vertex -2.414814565722666 60.6470476127563 3.0
    vertex -2.414814565722666 60.6470476127563 0.0
  endloop
endfacet
facet normal 0.9238795325112866 -0.3826834323650902 0.0
  outer loop
    vertex -2.414814565722666 60.6470476127563 3.0
    vertex -2.165063509461092 61.25 0.0
    vertex -2.165063509461092 61.25 3.0
  endloop
endfacet
facet normal 0.7933533402912352 -0.6087614290087207 0.0
  outer loop
    vertex 4.763139720814412 -2.7069197682120025 0.0
    vertex 3.8890872965260113 -3.8460070647380142 3.0
    vertex 3.8890872965260113 -3.8460070647380142 0.0
  endloop
endfacet
facet normal 0.7933533402912352 -0.6087614290087207 0.0
  outer loop
    vertex 3.8890872965260113 -3.8460070647380142 3.0
    vertex 4.763139720814412 -2.7069197682120025 0.0
    vertex 4.763139720814412 -2.7069197682120025 3.0
  endloop
endfacet
facet normal 0.9914448613738105 -0.1305261922200524 0.0
  outer loop
    vertex -2.414814565722666 60.6470476127563 0.0
    vertex -2.4999999999999956 60.0 3.0
    vertex -2.4999999999999956 60.0 0.0
  endloop
endfacet
facet normal 0.9914448613738105 -0.1305261922200524 0.0
  outer loop
    vertex -2.4999999999999956 60.0 3.0
    vertex -2.414814565722666 60.6470476127563 0.0
    vertex -2.414814565722666 60.6470476127563 3.0
  endloop
endfacet
facet normal 0.9914448613738106 0.13052619222005082 0.0
  outer loop
    vertex -2.4999999999999956 60.0 0.0
    vertex -2.4148145657226667 59.352952387243704 3.0
    vertex -2.4148145657226667 59.352952387243704 0.0
  endloop
endfacet
facet normal 0.9914448613738106 0.13052619222005082 0.0
  outer loop
    vertex -2.4148145657226667 59.352952387243704 3.0
    vertex -2.4999999999999956 60.0 0.0
    vertex -2.4999999999999956 60.0 3.0
  endloop
endfacet
facet normal 0.923879532511287 0.3826834323650893 0.0
  outer loop
    vertex -2.4148145657226707 -0.6470476127563006 0.0
    vertex -2.1650635094610973 -1.2499999999999978 3.0
    vertex -2.1650635094610973 -1.2499999999999978 0.0
  endloop
endfacet
facet normal 0.923879532511287 0.3826834323650893 0.0
  outer loop
    vertex -2.1650635094610973 -1.2499999999999978 3.0
    vertex -2.4148145657226707 -0.6470476127563006 0.0
    vertex -2.4148145657226707 -0.6470476127563006 3.0
  endloop
endfacet
facet normal 1.0 0.0 0.0
  outer loop
    vertex 5.5 60.14015682204634 0.0
    vertex 5.5 0.043080231787996824 3.0
    vertex 5.5 0.043080231787996824 0.0
  endloop
endfacet
facet normal 1.0 0.0 0.0
  outer loop
    vertex 5.5 0.043080231787996824 3.0
    vertex 5.5 60.14015682204634 0.0
    vertex 5.5 60.14015682204634 3.0
  endloop
endfacet
facet normal -0.9914448613738104 0.1305261922200517 0.0
  outer loop
    vertex 2.4999999999999996 -1.530808498934191e-16 3.0
    vertex 2.4148145657226703 -0.6470476127563023 0.0
    vertex 2.4148145657226703 -0.6470476127563023 3.0
  endloop
endfacet
facet normal -0.9914448613738104 0.1305261922200517 0.0
  outer loop
    vertex 2.4148145657226703 -0.6470476127563023 0.0
    vertex 2.4999999999999996 -1.530808498934191e-16 3.0
    vertex 2.4999999999999996 -1.530808498934191e-16 0.0
  endloop
endfacet
facet normal 0.923879532511287 0.3826834323650893 0.0
  outer loop
    vertex -2.4148145657226667 59.352952387243704 0.0
    vertex -2.1650635094610937 58.75000000000001 3.0
    vertex -2.1650635094610937 58.75000000000001 0.0
  endloop
endfacet
facet normal 0.923879532511287 0.3826834323650893 0.0
  outer loop
    vertex -2.1650635094610937 58.75000000000001 3.0
    vertex -2.4148145657226667 59.352952387243704 0.0
    vertex -2.4148145657226667 59.352952387243704 3.0
  endloop
endfacet
facet normal 0.7933533402912325 0.6087614290087241 0.0
  outer loop
    vertex -2.1650635094610937 58.75000000000001 0.0
    vertex -1.7677669529663658 58.23223304703364 3.0
    vertex -1.7677669529663658 58.23223304703364 0.0
  endloop
endfacet
facet normal 0.7933533402912325 0.6087614290087241 0.0
  outer loop
    vertex -1.7677669529663658 58.23223304703364 3.0
    vertex -2.1650635094610937 58.75000000000001 0.0
    vertex -2.1650635094610937 58.75000000000001 3.0
  endloop
endfacet
facet normal 0.6087614290087271 0.7933533402912302 0.0
  outer loop
    vertex -1.7677669529663658 58.23223304703364 3.0
    vertex -1.2499999999999987 57.83493649053891 0.0
    vertex -1.7677669529663658 58.23223304703364 0.0
  endloop
endfacet
facet normal 0.6087614290087271 0.7933533402912302 0.0
  outer loop
    vertex -1.2499999999999987 57.83493649053891 0.0
    vertex -1.7677669529663658 58.23223304703364 3.0
    vertex -1.2499999999999987 57.83493649053891 3.0
  endloop
endfacet
facet normal -0.9914448613738106 -0.13052619222005074 -0.0
  outer loop
    vertex -5.5 0.043080231787998594 3.0
    vertex -5.312592044589876 -1.3804245162758662 0.0
    vertex -5.312592044589876 -1.3804245162758662 3.0
  endloop
endfacet
facet normal -0.9914448613738106 -0.13052619222005074 -0.0
  outer loop
    vertex -5.312592044589876 -1.3804245162758662 0.0
    vertex -5.5 0.043080231787998594 3.0
    vertex -5.5 0.043080231787998594 0.0
  endloop
endfacet
facet normal -0.13052619222004985 0.9914448613738108 0.0
  outer loop
    vertex -1.0645967574850896 65.49999999999999 3.0
    vertex 1.2055273865347072e-15 65.64015682204635 0.0
    vertex -1.0645967574850896 65.49999999999999 0.0
  endloop
endfacet
facet normal -0.13052619222004985 0.9914448613738108 0.0
  outer loop
    vertex 1.2055273865347072e-15 65.64015682204635 0.0
    vertex -1.0645967574850896 65.49999999999999 3.0
    vertex 1.2055273865347072e-15 65.64015682204635 3.0
  endloop
endfacet
facet normal 0.6087614290087207 -0.7933533402912354 0.0
  outer loop
    vertex -1.2499999999999991 2.1650635094610964 3.0
    vertex -1.7677669529663675 1.767766952966369 0.0
    vertex -1.2499999999999991 2.1650635094610964 0.0
  endloop
endfacet
facet normal 0.6087614290087207 -0.7933533402912354 0.0
  outer loop
    vertex -1.7677669529663675 1.767766952966369 0.0
    vertex -1.2499999999999991 2.1650635094610964 3.0
    vertex -1.7677669529663675 1.767766952966369 3.0
  endloop
endfacet
facet normal -0.7933533402912362 0.6087614290087197 0.0
  outer loop
    vertex -3.8890872965260113 64.02924411857235 3.0
    vertex -4.763139720814412 62.89015682204634 0.0
    vertex -4.763139720814412 62.89015682204634 3.0
  endloop
endfacet
facet normal -0.7933533402912362 0.6087614290087197 0.0
  outer loop
    vertex -4.763139720814412 62.89015682204634 0.0
    vertex -3.8890872965260113 64.02924411857235 3.0
    vertex -3.8890872965260113 64.02924411857235 0.0
  endloop
endfacet
facet normal 0.6087614290087207 0.7933533402912353 0.0
  outer loop
    vertex -1.767766952966369 -1.767766952966368 3.0
    vertex -1.2500000000000009 -2.165063509461095 0.0
    vertex -1.767766952966369 -1.767766952966368 0.0
  endloop
endfacet
facet normal 0.6087614290087207 0.7933533402912353 0.0
  outer loop
    vertex -1.2500000000000009 -2.165063509461095 0.0
    vertex -1.767766952966369 -1.767766952966368 3.0
    vertex -1.2500000000000009 -2.165063509461095 3.0
  endloop
endfacet
facet normal 0.923879532511287 0.3826834323650893 0.0
  outer loop
    vertex 4.763139720814412 62.89015682204634 0.0
    vertex 5.312592044589875 61.563661570110206 3.0
    vertex 5.312592044589875 61.563661570110206 0.0
  endloop
endfacet
facet normal 0.923879532511287 0.3826834323650893 0.0
  outer loop
    vertex 5.312592044589875 61.563661570110206 3.0
    vertex 4.763139720814412 62.89015682204634 0.0
    vertex 4.763139720814412 62.89015682204634 3.0
  endloop
endfacet
facet normal -0.0 -0.0 1.0
  outer loop
    vertex -2.41481456572267 0.6470476127563036 3.0
    vertex -2.4999999999999956 60.0 3.0
    vertex -2.4999999999999996 4.592425496802573e-16 3.0
  endloop
endfacet
facet normal -0.0 -0.0 1.0
  outer loop
    vertex -2.4999999999999956 60.0 3.0
    vertex -2.41481456572267 0.6470476127563036 3.0
    vertex -2.4148145657226667 59.352952387243704 3.0
  endloop
endfacet
facet normal -0.0 -0.0 1.0
  outer loop
    vertex -2.4148145657226667 59.352952387243704 3.0
    vertex -2.41481456572267 0.6470476127563036 3.0
    vertex -2.1650635094610955 1.2500000000000007 3.0
  endloop
endfacet
facet normal -0.0 -0.0 1.0
  outer loop
    vertex -2.4148145657226667 59.352952387243704 3.0
    vertex -2.1650635094610955 1.2500000000000007 3.0
    vertex -2.1650635094610937 58.75000000000001 3.0
  endloop
endfacet
facet normal -0.0 -0.0 1.0
  outer loop
    vertex -2.1650635094610937 58.75000000000001 3.0
    vertex -2.1650635094610955 1.2500000000000007 3.0
    vertex -1.7677669529663675 1.767766952966369 3.0
  endloop
endfacet
facet normal -0.0 -0.0 1.0
  outer loop
    vertex -2.1650635094610937 58.75000000000001 3.0
    vertex -1.7677669529663675 1.767766952966369 3.0
    vertex -1.7677669529663658 58.23223304703364 3.0
  endloop
endfacet
facet normal -0.0 -0.0 1.0
  outer loop
    vertex -1.7677669529663658 58.23223304703364 3.0
    vertex -1.7677669529663675 1.767766952966369 3.0
    vertex -1.2499999999999991 2.1650635094610964 3.0
  endloop
endfacet
facet normal -0.0 -0.0 1.0
  outer loop
    vertex -1.7677669529663658 58.23223304703364 3.0
    vertex -1.2499999999999991 2.1650635094610964 3.0
    vertex -1.2499999999999987 57.83493649053891 3.0
  endloop
endfacet
facet normal -0.0 -0.0 1.0
  outer loop
    vertex -1.2499999999999987 57.83493649053891 3.0
    vertex -1.2499999999999991 2.1650635094610964 3.0
    vertex -0.6470476127563007 2.4148145657226703 3.0
  endloop
endfacet
facet normal -0.0 -0.0 1.0
  outer loop
    vertex -1.2499999999999987 57.83493649053891 3.0
    vertex -0.6470476127563007 2.4148145657226703 3.0
    vertex -0.6470476127563027 57.58518543427734 3.0
  endloop
endfacet
facet normal -0.0 -0.0 1.0
  outer loop
    vertex -0.6470476127563027 57.58518543427734 3.0
    vertex -0.6470476127563007 2.4148145657226703 3.0
    vertex 0.0 57.50000000000001 3.0
  endloop
endfacet
facet normal -0.0 -0.0 1.0
  outer loop
    vertex 0.0 57.50000000000001 3.0
    vertex -0.6470476127563007 2.4148145657226703 3.0
    vertex 3.0616169978683826e-16 2.499999999999999 3.0
  endloop
endfacet
facet normal -0.0 -0.0 1.0
  outer loop
    vertex 0.0 57.50000000000001 3.0
    vertex 3.0616169978683826e-16 2.499999999999999 3.0
    vertex 0.6470476127563006 57.58518543427734 3.0
  endloop
endfacet
facet normal -0.0 -0.0 1.0
  outer loop
    vertex 0.6470476127563006 57.58518543427734 3.0
    vertex 3.0616169978683826e-16 2.499999999999999 3.0
    vertex 0.6470476127563024 2.41481456572267 3.0
  endloop
endfacet
facet normal -0.0 -0.0 1.0
  outer loop
    vertex 0.6470476127563006 57.58518543427734 3.0
    vertex 0.6470476127563024 2.41481456572267 3.0
    vertex 1.2499999999999976 57.83493649053891 3.0
  endloop
endfacet
facet normal -0.0 -0.0 1.0
  outer loop
    vertex 1.2499999999999976 57.83493649053891 3.0
    vertex 0.6470476127563024 2.41481456572267 3.0
    vertex 1.2500000000000007 2.1650635094610955 3.0
  endloop
endfacet
facet normal -0.0 -0.0 1.0
  outer loop
    vertex 1.2499999999999976 57.83493649053891 3.0
    vertex 1.2500000000000007 2.1650635094610955 3.0
    vertex 1.7677669529663655 58.23223304703364 3.0
  endloop
endfacet
facet normal -0.0 -0.0 1.0
  outer loop
    vertex 1.7677669529663655 58.23223304703364 3.0
    vertex 1.2500000000000007 2.1650635094610955 3.0
    vertex 1.7677669529663687 1.767766952966368 3.0
  endloop
endfacet
facet normal -0.0 -0.0 1.0
  outer loop
    vertex 1.7677669529663655 58.23223304703364 3.0
    vertex 1.7677669529663687 1.767766952966368 3.0
    vertex 2.165063509461093 58.75000000000001 3.0
  endloop
endfacet
facet normal -0.0 -0.0 1.0
  outer loop
    vertex 2.165063509461093 58.75000000000001 3.0
    vertex 1.7677669529663687 1.767766952966368 3.0
    vertex 2.1650635094610964 1.2499999999999991 3.0
  endloop
endfacet
facet normal -0.0 -0.0 1.0
  outer loop
    vertex 2.165063509461093 58.75000000000001 3.0
    vertex 2.1650635094610964 1.2499999999999991 3.0
    vertex 2.414814565722666 59.352952387243704 3.0
  endloop
endfacet
facet normal -0.0 -0.0 1.0
  outer loop
    vertex 2.414814565722666 59.352952387243704 3.0
    vertex 2.1650635094610964 1.2499999999999991 3.0
    vertex 2.4148145657226703 0.6470476127563014 3.0
  endloop
endfacet
facet normal -0.0 -0.0 1.0
  outer loop
    vertex 2.414814565722666 59.352952387243704 3.0
    vertex 2.4148145657226703 0.6470476127563014 3.0
    vertex 2.4999999999999956 60.0 3.0
  endloop
endfacet
facet normal -0.0 -0.0 1.0
  outer loop
    vertex 2.4999999999999956 60.0 3.0
    vertex 2.4148145657226703 0.6470476127563014 3.0
    vertex 2.4999999999999996 -1.530808498934191e-16 3.0
  endloop
endfacet
facet normal -0.0 -0.0 1.0
  outer loop
    vertex -5.312592044589876 -1.3804245162758662 3.0
    vertex -5.5 60.14015682204634 3.0
    vertex -5.5 0.043080231787998594 3.0
  endloop
endfacet
facet normal -0.0 -0.0 1.0
  outer loop
    vertex -5.5 60.14015682204634 3.0
    vertex -5.312592044589876 -1.3804245162758662 3.0
    vertex -5.312592044589876 61.563661570110206 3.0
  endloop
endfacet
facet normal -0.0 -0.0 1.0
  outer loop
    vertex -5.312592044589876 61.563661570110206 3.0
    vertex -5.312592044589876 -1.3804245162758662 3.0
    vertex -4.763139720814412 -2.7069197682120025 3.0
  endloop
endfacet
facet normal -0.0 -0.0 1.0
  outer loop
    vertex -5.312592044589876 61.563661570110206 3.0
    vertex -4.763139720814412 -2.7069197682120025 3.0
    vertex -4.763139720814412 62.89015682204634 3.0
  endloop
endfacet
facet normal -0.0 -0.0 1.0
  outer loop
    vertex -4.763139720814412 62.89015682204634 3.0
    vertex -4.763139720814412 -2.7069197682120025 3.0
    vertex -3.8890872965260113 -3.8460070647380142 3.0
  endloop
endfacet
facet normal -0.0 -0.0 1.0
  outer loop
    vertex -4.763139720814412 62.89015682204634 3.0
    vertex -3.8890872965260113 -3.8460070647380142 3.0
    vertex -3.8890872965260113 64.02924411857235 3.0
  endloop
endfacet
facet normal -0.0 -0.0 1.0
  outer loop
    vertex -3.8890872965260113 64.02924411857235 3.0
    vertex -3.8890872965260113 -3.8460070647380142 3.0
    vertex -2.749999999999999 -4.720059489026416 3.0
  endloop
endfacet
facet normal -0.0 -0.0 1.0
  outer loop
    vertex -3.8890872965260113 64.02924411857235 3.0
    vertex -2.749999999999999 -4.720059489026416 3.0
    vertex -2.749999999999999 64.90329654286076 3.0
  endloop
endfacet
facet normal -0.0 -0.0 1.0
  outer loop
    vertex -2.749999999999999 64.90329654286076 3.0
    vertex -2.749999999999999 -4.720059489026416 3.0
    vertex -2.4999999999999996 4.592425496802573e-16 3.0
  endloop
endfacet
facet normal -0.0 -0.0 1.0
  outer loop
    vertex -2.4999999999999996 4.592425496802573e-16 3.0
    vertex -2.749999999999999 -4.720059489026416 3.0
    vertex -2.4148145657226707 -0.6470476127563006 3.0
  endloop
endfacet
facet normal -0.0 -0.0 1.0
  outer loop
    vertex -2.4148145657226707 -0.6470476127563006 3.0
    vertex -2.749999999999999 -4.720059489026416 3.0
    vertex -1.4235047480638625 -5.269511812801879 3.0
  endloop
endfacet
facet normal -0.0 -0.0 1.0
  outer loop
    vertex -2.4148145657226707 -0.6470476127563006 3.0
    vertex -1.4235047480638625 -5.269511812801879 3.0
    vertex -2.1650635094610973 -1.2499999999999978 3.0
  endloop
endfacet
facet normal -0.0 -0.0 1.0
  outer loop
    vertex -2.1650635094610973 -1.2499999999999978 3.0
    vertex -1.4235047480638625 -5.269511812801879 3.0
    vertex -1.767766952966369 -1.767766952966368 3.0
  endloop
endfacet
facet normal -0.0 -0.0 1.0
  outer loop
    vertex -1.767766952966369 -1.767766952966368 3.0
    vertex -1.4235047480638625 -5.269511812801879 3.0
    vertex -1.2500000000000009 -2.165063509461095 3.0
  endloop
endfacet
facet normal -0.0 -0.0 1.0
  outer loop
    vertex -1.2500000000000009 -2.165063509461095 3.0
    vertex -1.4235047480638625 -5.269511812801879 3.0
    vertex 1.2055273865347072e-15 -5.4569197682120025 3.0
  endloop
endfacet
facet normal -0.0 -0.0 1.0
  outer loop
    vertex -1.2500000000000009 -2.165063509461095 3.0
    vertex 1.2055273865347072e-15 -5.4569197682120025 3.0
    vertex -0.6470476127563038 -2.4148145657226694 3.0
  endloop
endfacet
facet normal -0.0 -0.0 1.0
  outer loop
    vertex -0.6470476127563038 -2.4148145657226694 3.0
    vertex 1.2055273865347072e-15 -5.4569197682120025 3.0
    vertex 0.0 -2.4999999999999996 3.0
  endloop
endfacet
facet normal -0.0 -0.0 1.0
  outer loop
    vertex 0.0 -2.4999999999999996 3.0
    vertex 1.2055273865347072e-15 -5.4569197682120025 3.0
    vertex 0.6470476127563017 -2.41481456572267 3.0
  endloop
endfacet
facet normal -0.0 -0.0 1.0
  outer loop
    vertex 0.6470476127563017 -2.41481456572267 3.0
    vertex 1.2055273865347072e-15 -5.4569197682120025 3.0
    vertex 1.4235047480638647 -5.269511812801879 3.0
  endloop
endfacet
facet normal -0.0 -0.0 1.0
  outer loop
    vertex 0.6470476127563017 -2.41481456572267 3.0
    vertex 1.4235047480638647 -5.269511812801879 3.0
    vertex 1.2499999999999996 -2.1650635094610964 3.0
  endloop
endfacet
facet normal -0.0 -0.0 1.0
  outer loop
    vertex 1.2499999999999996 -2.1650635094610964 3.0
    vertex 1.4235047480638647 -5.269511812801879 3.0
    vertex 1.7677669529663682 -1.7677669529663682 3.0
  endloop
endfacet
facet normal -0.0 -0.0 1.0
  outer loop
    vertex 1.7677669529663682 -1.7677669529663682 3.0
    vertex 1.4235047480638647 -5.269511812801879 3.0
    vertex 2.7500000000000004 -4.720059489026415 3.0
  endloop
endfacet
facet normal -0.0 -0.0 1.0
  outer loop
    vertex 1.7677669529663682 -1.7677669529663682 3.0
    vertex 2.7500000000000004 -4.720059489026415 3.0
    vertex 2.1650635094610964 -1.25 3.0
  endloop
endfacet
facet normal -0.0 -0.0 1.0
  outer loop
    vertex 2.1650635094610964 -1.25 3.0
    vertex 2.7500000000000004 -4.720059489026415 3.0
    vertex 2.4148145657226703 -0.6470476127563023 3.0
  endloop
endfacet
facet normal -0.0 -0.0 1.0
  outer loop
    vertex 2.4148145657226703 -0.6470476127563023 3.0
    vertex 2.7500000000000004 -4.720059489026415 3.0
    vertex 2.4999999999999996 -1.530808498934191e-16 3.0
  endloop
endfacet
facet normal -0.0 -0.0 1.0
  outer loop
    vertex -2.749999999999999 64.90329654286076 3.0
    vertex -2.414814565722666 60.6470476127563 3.0
    vertex -1.4235047480638625 65.45274886663623 3.0
  endloop
endfacet
facet normal -0.0 -0.0 1.0
  outer loop
    vertex -2.414814565722666 60.6470476127563 3.0
    vertex -2.749999999999999 64.90329654286076 3.0
    vertex -2.4999999999999956 60.0 3.0
  endloop
endfacet
facet normal -0.0 -0.0 1.0
  outer loop
    vertex -2.4999999999999956 60.0 3.0
    vertex -2.749999999999999 64.90329654286076 3.0
    vertex -2.4999999999999996 4.592425496802573e-16 3.0
  endloop
endfacet
facet normal -0.0 -0.0 1.0
  outer loop
    vertex -1.4235047480638625 65.45274886663623 3.0
    vertex -2.414814565722666 60.6470476127563 3.0
    vertex -2.165063509461092 61.25 3.0
  endloop
endfacet
facet normal -0.0 -0.0 1.0
  outer loop
    vertex -1.4235047480638625 65.45274886663623 3.0
    vertex -2.165063509461092 61.25 3.0
    vertex -1.7677669529663647 61.76776695296636 3.0
  endloop
endfacet
facet normal -0.0 -0.0 1.0
  outer loop
    vertex -1.4235047480638625 65.45274886663623 3.0
    vertex -1.7677669529663647 61.76776695296636 3.0
    vertex -1.2499999999999971 62.1650635094611 3.0
  endloop
endfacet
facet normal -0.0 -0.0 1.0
  outer loop
    vertex -1.4235047480638625 65.45274886663623 3.0
    vertex -1.2499999999999971 62.1650635094611 3.0
    vertex -1.0645967574850896 65.49999999999999 3.0
  endloop
endfacet
facet normal -0.0 -0.0 1.0
  outer loop
    vertex -1.0645967574850896 65.49999999999999 3.0
    vertex -1.2499999999999971 62.1650635094611 3.0
    vertex -0.6470476127562997 62.414814565722665 3.0
  endloop
endfacet
facet normal -0.0 -0.0 1.0
  outer loop
    vertex -1.0645967574850896 65.49999999999999 3.0
    vertex -0.6470476127562997 62.414814565722665 3.0
    vertex 1.2055273865347072e-15 65.64015682204635 3.0
  endloop
endfacet
facet normal -0.0 -0.0 1.0
  outer loop
    vertex 1.2055273865347072e-15 65.64015682204635 3.0
    vertex -0.6470476127562997 62.414814565722665 3.0
    vertex 0.0 62.5 3.0
  endloop
endfacet
facet normal -0.0 -0.0 1.0
  outer loop
    vertex 1.2055273865347072e-15 65.64015682204635 3.0
    vertex 0.0 62.5 3.0
    vertex 0.6470476127563014 62.414814565722665 3.0
  endloop
endfacet
facet normal -0.0 -0.0 1.0
  outer loop
    vertex 1.2055273865347072e-15 65.64015682204635 3.0
    vertex 0.6470476127563014 62.414814565722665 3.0
    vertex 1.0645967574850916 65.49999999999999 3.0
  endloop
endfacet
facet normal -0.0 -0.0 1.0
  outer loop
    vertex 1.0645967574850916 65.49999999999999 3.0
    vertex 0.6470476127563014 62.414814565722665 3.0
    vertex 1.2499999999999987 62.1650635094611 3.0
  endloop
endfacet
facet normal -0.0 -0.0 1.0
  outer loop
    vertex 1.0645967574850916 65.49999999999999 3.0
    vertex 1.2499999999999987 62.1650635094611 3.0
    vertex 1.4235047480638647 65.45274886663623 3.0
  endloop
endfacet
facet normal -0.0 -0.0 1.0
  outer loop
    vertex 1.4235047480638647 65.45274886663623 3.0
    vertex 1.2499999999999987 62.1650635094611 3.0
    vertex 1.7677669529663658 61.76776695296636 3.0
  endloop
endfacet
facet normal -0.0 -0.0 1.0
  outer loop
    vertex 1.4235047480638647 65.45274886663623 3.0
    vertex 1.7677669529663658 61.76776695296636 3.0
    vertex 2.7500000000000004 64.90329654286076 3.0
  endloop
endfacet
facet normal -0.0 -0.0 1.0
  outer loop
    vertex 2.7500000000000004 64.90329654286076 3.0
    vertex 1.7677669529663658 61.76776695296636 3.0
    vertex 2.165063509461093 61.25 3.0
  endloop
endfacet
facet normal -0.0 -0.0 1.0
  outer loop
    vertex 2.7500000000000004 64.90329654286076 3.0
    vertex 2.165063509461093 61.25 3.0
    vertex 2.4148145657226663 60.6470476127563 3.0
  endloop
endfacet
facet normal -0.0 -0.0 1.0
  outer loop
    vertex 2.7500000000000004 64.90329654286076 3.0
    vertex 2.4148145657226663 60.6470476127563 3.0
    vertex 2.4999999999999956 60.0 3.0
  endloop
endfacet
facet normal -0.0 -0.0 1.0
  outer loop
    vertex 2.7500000000000004 64.90329654286076 3.0
    vertex 2.4999999999999956 60.0 3.0
    vertex 2.4999999999999996 -1.530808498934191e-16 3.0
  endloop
endfacet
facet normal -0.0 -0.0 1.0
  outer loop
    vertex 2.7500000000000004 64.90329654286076 3.0
    vertex 2.4999999999999996 -1.530808498934191e-16 3.0
    vertex 2.7500000000000004 -4.720059489026415 3.0
  endloop
endfacet
facet normal -0.0 -0.0 1.0
  outer loop
    vertex 2.7500000000000004 64.90329654286076 3.0
    vertex 2.7500000000000004 -4.720059489026415 3.0
    vertex 3.8890872965260113 -3.8460070647380142 3.0
  endloop
endfacet
facet normal -0.0 -0.0 1.0
  outer loop
    vertex 2.7500000000000004 64.90329654286076 3.0
    vertex 3.8890872965260113 -3.8460070647380142 3.0
    vertex 3.8890872965260113 64.02924411857235 3.0
  endloop
endfacet
facet normal -0.0 -0.0 1.0
  outer loop
    vertex 3.8890872965260113 64.02924411857235 3.0
    vertex 3.8890872965260113 -3.8460070647380142 3.0
    vertex 4.763139720814412 -2.7069197682120025 3.0
  endloop
endfacet
facet normal -0.0 -0.0 1.0
  outer loop
    vertex 3.8890872965260113 64.02924411857235 3.0
    vertex 4.763139720814412 -2.7069197682120025 3.0
    vertex 4.763139720814412 62.89015682204634 3.0
  endloop
endfacet
facet normal -0.0 -0.0 1.0
  outer loop
    vertex 4.763139720814412 62.89015682204634 3.0
    vertex 4.763139720814412 -2.7069197682120025 3.0
    vertex 5.312592044589875 -1.380424516275867 3.0
  endloop
endfacet
facet normal -0.0 -0.0 1.0
  outer loop
    vertex 4.763139720814412 62.89015682204634 3.0
    vertex 5.312592044589875 -1.380424516275867 3.0
    vertex 5.312592044589875 61.563661570110206 3.0
  endloop
endfacet
facet normal -0.0 -0.0 1.0
  outer loop
    vertex 5.312592044589875 61.563661570110206 3.0
    vertex 5.312592044589875 -1.380424516275867 3.0
    vertex 5.5 0.043080231787996824 3.0
  endloop
endfacet
facet normal -0.0 -0.0 1.0
  outer loop
    vertex 5.312592044589875 61.563661570110206 3.0
    vertex 5.5 0.043080231787996824 3.0
    vertex 5.5 60.14015682204634 3.0
  endloop
endfacet
facet normal 0.9914448613738105 0.1305261922200523 0.0
  outer loop
    vertex 5.312592044589875 61.563661570110206 0.0
    vertex 5.5 60.14015682204634 3.0
    vertex 5.5 60.14015682204634 0.0
  endloop
endfacet
facet normal 0.9914448613738105 0.1305261922200523 0.0
  outer loop
    vertex 5.5 60.14015682204634 3.0
    vertex 5.312592044589875 61.563661570110206 0.0
    vertex 5.312592044589875 61.563661570110206 3.0
  endloop
endfacet
facet normal 0.1305261922200498 0.9914448613738107 0.0
  outer loop
    vertex 1.0645967574850916 65.49999999999999 3.0
    vertex 1.4235047480638647 65.45274886663623 0.0
    vertex 1.0645967574850916 65.49999999999999 0.0
  endloop
endfacet
facet normal 0.1305261922200498 0.9914448613738107 0.0
  outer loop
    vertex 1.4235047480638647 65.45274886663623 0.0
    vertex 1.0645967574850916 65.49999999999999 3.0
    vertex 1.4235047480638647 65.45274886663623 3.0
  endloop
endfacet
facet normal 0.7933533402912362 0.6087614290087197 0.0
  outer loop
    vertex 3.8890872965260113 64.02924411857235 0.0
    vertex 4.763139720814412 62.89015682204634 3.0
    vertex 4.763139720814412 62.89015682204634 0.0
  endloop
endfacet
facet normal 0.7933533402912362 0.6087614290087197 0.0
  outer loop
    vertex 4.763139720814412 62.89015682204634 3.0
    vertex 3.8890872965260113 64.02924411857235 0.0
    vertex 3.8890872965260113 64.02924411857235 3.0
  endloop
endfacet
facet normal -0.6087614290087237 0.7933533402912328 0.0
  outer loop
    vertex -3.8890872965260113 64.02924411857235 3.0
    vertex -2.749999999999999 64.90329654286076 0.0
    vertex -3.8890872965260113 64.02924411857235 0.0
  endloop
endfacet
facet normal -0.6087614290087237 0.7933533402912328 0.0
  outer loop
    vertex -2.749999999999999 64.90329654286076 0.0
    vertex -3.8890872965260113 64.02924411857235 3.0
    vertex -2.749999999999999 64.90329654286076 3.0
  endloop
endfacet
facet normal -0.38268343236508845 0.9238795325112873 0.0
  outer loop
    vertex -2.749999999999999 64.90329654286076 3.0
    vertex -1.4235047480638625 65.45274886663623 0.0
    vertex -2.749999999999999 64.90329654286076 0.0
  endloop
endfacet
facet normal -0.38268343236508845 0.9238795325112873 0.0
  outer loop
    vertex -1.4235047480638625 65.45274886663623 0.0
    vertex -2.749999999999999 64.90329654286076 3.0
    vertex -1.4235047480638625 65.45274886663623 3.0
  endloop
endfacet
facet normal 0.7933533402912349 -0.6087614290087211 0.0
  outer loop
    vertex -1.7677669529663675 1.767766952966369 0.0
    vertex -2.1650635094610955 1.2500000000000007 3.0
    vertex -2.1650635094610955 1.2500000000000007 0.0
  endloop
endfacet
facet normal 0.7933533402912349 -0.6087614290087211 0.0
  outer loop
    vertex -2.1650635094610955 1.2500000000000007 3.0
    vertex -1.7677669529663675 1.767766952966369 0.0
    vertex -1.7677669529663675 1.767766952966369 3.0
  endloop
endfacet
facet normal 0.9238795325112864 -0.3826834323650908 0.0
  outer loop
    vertex -2.1650635094610955 1.2500000000000007 0.0
    vertex -2.41481456572267 0.6470476127563036 3.0
    vertex -2.41481456572267 0.6470476127563036 0.0
  endloop
endfacet
facet normal 0.9238795325112864 -0.3826834323650908 0.0
  outer loop
    vertex -2.41481456572267 0.6470476127563036 3.0
    vertex -2.1650635094610955 1.2500000000000007 0.0
    vertex -2.1650635094610955 1.2500000000000007 3.0
  endloop
endfacet
facet normal -0.3826834323650894 0.923879532511287 0.0
  outer loop
    vertex 0.6470476127563017 -2.41481456572267 3.0
    vertex 1.2499999999999996 -2.1650635094610964 0.0
    vertex 0.6470476127563017 -2.41481456572267 0.0
  endloop
endfacet
facet normal -0.3826834323650894 0.923879532511287 0.0
  outer loop
    vertex 1.2499999999999996 -2.1650635094610964 0.0
    vertex 0.6470476127563017 -2.41481456572267 3.0
    vertex 1.2499999999999996 -2.1650635094610964 3.0
  endloop
endfacet
facet normal -0.6087614290087209 0.7933533402912352 0.0
  outer loop
    vertex 1.2499999999999996 -2.1650635094610964 3.0
    vertex 1.7677669529663682 -1.7677669529663682 0.0
    vertex 1.2499999999999996 -2.1650635094610964 0.0
  endloop
endfacet
facet normal -0.6087614290087209 0.7933533402912352 0.0
  outer loop
    vertex 1.7677669529663682 -1.7677669529663682 0.0
    vertex 1.2499999999999996 -2.1650635094610964 3.0
    vertex 1.7677669529663682 -1.7677669529663682 3.0
  endloop
endfacet
facet normal -0.9238795325112866 0.3826834323650901 0.0
  outer loop
    vertex -4.763139720814412 62.89015682204634 3.0
    vertex -5.312592044589876 61.563661570110206 0.0
    vertex -5.312592044589876 61.563661570110206 3.0
  endloop
endfacet
facet normal -0.9238795325112866 0.3826834323650901 0.0
  outer loop
    vertex -5.312592044589876 61.563661570110206 0.0
    vertex -4.763139720814412 62.89015682204634 3.0
    vertex -4.763139720814412 62.89015682204634 0.0
  endloop
endfacet
facet normal 0.3826834323650901 -0.9238795325112868 0.0
  outer loop
    vertex 2.7500000000000004 -4.720059489026415 3.0
    vertex 1.4235047480638647 -5.269511812801879 0.0
    vertex 2.7500000000000004 -4.720059489026415 0.0
  endloop
endfacet
facet normal 0.3826834323650901 -0.9238795325112868 0.0
  outer loop
    vertex 1.4235047480638647 -5.269511812801879 0.0
    vertex 2.7500000000000004 -4.720059489026415 3.0
    vertex 1.4235047480638647 -5.269511812801879 3.0
  endloop
endfacet
facet normal -0.6087614290087205 -0.7933533402912353 -0.0
  outer loop
    vertex -2.749999999999999 -4.720059489026416 3.0
    vertex -3.8890872965260113 -3.8460070647380142 0.0
    vertex -2.749999999999999 -4.720059489026416 0.0
  endloop
endfacet
facet normal -0.6087614290087205 -0.7933533402912353 -0.0
  outer loop
    vertex -3.8890872965260113 -3.8460070647380142 0.0
    vertex -2.749999999999999 -4.720059489026416 3.0
    vertex -3.8890872965260113 -3.8460070647380142 3.0
  endloop
endfacet
facet normal -0.7933533402912349 0.6087614290087211 0.0
  outer loop
    vertex 2.1650635094610964 -1.25 3.0
    vertex 1.7677669529663682 -1.7677669529663682 0.0
    vertex 1.7677669529663682 -1.7677669529663682 3.0
  endloop
endfacet
facet normal -0.7933533402912349 0.6087614290087211 0.0
  outer loop
    vertex 1.7677669529663682 -1.7677669529663682 0.0
    vertex 2.1650635094610964 -1.25 3.0
    vertex 2.1650635094610964 -1.25 0.0
  endloop
endfacet
facet normal 0.38268343236509544 0.9238795325112844 0.0
  outer loop
    vertex 1.4235047480638647 65.45274886663623 3.0
    vertex 2.7500000000000004 64.90329654286076 0.0
    vertex 1.4235047480638647 65.45274886663623 0.0
  endloop
endfacet
facet normal 0.38268343236509544 0.9238795325112844 0.0
  outer loop
    vertex 2.7500000000000004 64.90329654286076 0.0
    vertex 1.4235047480638647 65.45274886663623 3.0
    vertex 2.7500000000000004 64.90329654286076 3.0
  endloop
endfacet
facet normal -0.7933533402912352 -0.6087614290087207 -0.0
  outer loop
    vertex -4.763139720814412 -2.7069197682120025 3.0
    vertex -3.8890872965260113 -3.8460070647380142 0.0
    vertex -3.8890872965260113 -3.8460070647380142 3.0
  endloop
endfacet
facet normal -0.7933533402912352 -0.6087614290087207 -0.0
  outer loop
    vertex -3.8890872965260113 -3.8460070647380142 0.0
    vertex -4.763139720814412 -2.7069197682120025 3.0
    vertex -4.763139720814412 -2.7069197682120025 0.0
  endloop
endfacet
facet normal 0.13052619222005243 0.9914448613738104 0.0
  outer loop
    vertex -0.6470476127563038 -2.4148145657226694 3.0
    vertex 0.0 -2.4999999999999996 0.0
    vertex -0.6470476127563038 -2.4148145657226694 0.0
  endloop
endfacet
facet normal 0.13052619222005243 0.9914448613738104 0.0
  outer loop
    vertex 0.0 -2.4999999999999996 0.0
    vertex -0.6470476127563038 -2.4148145657226694 3.0
    vertex 0.0 -2.4999999999999996 3.0
  endloop
endfacet
facet normal 0.1305261922200518 -0.9914448613738104 0.0
  outer loop
    vertex 1.4235047480638647 -5.269511812801879 3.0
    vertex 1.2055273865347072e-15 -5.4569197682120025 0.0
    vertex 1.4235047480638647 -5.269511812801879 0.0
  endloop
endfacet
facet normal 0.1305261922200518 -0.9914448613738104 0.0
  outer loop
    vertex 1.2055273865347072e-15 -5.4569197682120025 0.0
    vertex 1.4235047480638647 -5.269511812801879 3.0
    vertex 1.2055273865347072e-15 -5.4569197682120025 3.0
  endloop
endfacet
facet normal -1.0 0.0 0.0
  outer loop
    vertex -5.5 60.14015682204634 3.0
    vertex -5.5 0.043080231787998594 0.0
    vertex -5.5 0.043080231787998594 3.0
  endloop
endfacet
facet normal -1.0 0.0 0.0
  outer loop
    vertex -5.5 0.043080231787998594 0.0
    vertex -5.5 60.14015682204634 3.0
    vertex -5.5 60.14015682204634 0.0
  endloop
endfacet
facet normal 0.3826834323650892 -0.9238795325112871 0.0
  outer loop
    vertex -0.6470476127563007 2.4148145657226703 3.0
    vertex -1.2499999999999991 2.1650635094610964 0.0
    vertex -0.6470476127563007 2.4148145657226703 0.0
  endloop
endfacet
facet normal 0.3826834323650892 -0.9238795325112871 0.0
  outer loop
    vertex -1.2499999999999991 2.1650635094610964 0.0
    vertex -0.6470476127563007 2.4148145657226703 3.0
    vertex -1.2499999999999991 2.1650635094610964 3.0
  endloop
endfacet
facet normal 0.9914448613738104 0.13052619222005138 0.0
  outer loop
    vertex -2.4999999999999996 4.592425496802573e-16 0.0
    vertex -2.4148145657226707 -0.6470476127563006 3.0
    vertex -2.4148145657226707 -0.6470476127563006 0.0
  endloop
endfacet
facet normal 0.9914448613738104 0.13052619222005138 0.0
  outer loop
    vertex -2.4148145657226707 -0.6470476127563006 3.0
    vertex -2.4999999999999996 4.592425496802573e-16 0.0
    vertex -2.4999999999999996 4.592425496802573e-16 3.0
  endloop
endfacet
facet normal -0.9238795325112868 0.38268343236509006 0.0
  outer loop
    vertex 2.4148145657226703 -0.6470476127563023 3.0
    vertex 2.1650635094610964 -1.25 0.0
    vertex 2.1650635094610964 -1.25 3.0
  endloop
endfacet
facet normal -0.9238795325112868 0.38268343236509006 0.0
  outer loop
    vertex 2.1650635094610964 -1.25 0.0
    vertex 2.4148145657226703 -0.6470476127563023 3.0
    vertex 2.4148145657226703 -0.6470476127563023 0.0
  endloop
endfacet
facet normal -0.9914448613738105 -0.13052619222005182 -0.0
  outer loop
    vertex 2.4148145657226703 0.6470476127563014 3.0
    vertex 2.4999999999999996 -1.530808498934191e-16 0.0
    vertex 2.4999999999999996 -1.530808498934191e-16 3.0
  endloop
endfacet
facet normal -0.9914448613738105 -0.13052619222005182 -0.0
  outer loop
    vertex 2.4999999999999996 -1.530808498934191e-16 0.0
    vertex 2.4148145657226703 0.6470476127563014 3.0
    vertex 2.4148145657226703 0.6470476127563014 0.0
  endloop
endfacet
facet normal -0.923879532511287 -0.38268343236508956 -0.0
  outer loop
    vertex 2.1650635094610964 1.2499999999999991 3.0
    vertex 2.4148145657226703 0.6470476127563014 0.0
    vertex 2.4148145657226703 0.6470476127563014 3.0
  endloop
endfacet
facet normal -0.923879532511287 -0.38268343236508956 -0.0
  outer loop
    vertex 2.4148145657226703 0.6470476127563014 0.0
    vertex 2.1650635094610964 1.2499999999999991 3.0
    vertex 2.1650635094610964 1.2499999999999991 0.0
  endloop
endfacet
facet normal 0.6087614290087191 0.7933533402912364 0.0
  outer loop
    vertex 2.7500000000000004 64.90329654286076 3.0
    vertex 3.8890872965260113 64.02924411857235 0.0
    vertex 2.7500000000000004 64.90329654286076 0.0
  endloop
endfacet
facet normal 0.6087614290087191 0.7933533402912364 0.0
  outer loop
    vertex 3.8890872965260113 64.02924411857235 0.0
    vertex 2.7500000000000004 64.90329654286076 3.0
    vertex 3.8890872965260113 64.02924411857235 3.0
  endloop
endfacet
facet normal 0.7933533402912357 0.6087614290087202 0.0
  outer loop
    vertex -2.1650635094610973 -1.2499999999999978 0.0
    vertex -1.767766952966369 -1.767766952966368 3.0
    vertex -1.767766952966369 -1.767766952966368 0.0
  endloop
endfacet
facet normal 0.7933533402912357 0.6087614290087202 0.0
  outer loop
    vertex -1.767766952966369 -1.767766952966368 3.0
    vertex -2.1650635094610973 -1.2499999999999978 0.0
    vertex -2.1650635094610973 -1.2499999999999978 3.0
  endloop
endfacet
facet normal -0.13052619222005168 -0.9914448613738104 -0.0
  outer loop
    vertex 0.6470476127563024 2.41481456572267 3.0
    vertex 3.0616169978683826e-16 2.499999999999999 0.0
    vertex 0.6470476127563024 2.41481456572267 0.0
  endloop
endfacet
facet normal -0.13052619222005168 -0.9914448613738104 -0.0
  outer loop
    vertex 3.0616169978683826e-16 2.499999999999999 0.0
    vertex 0.6470476127563024 2.41481456572267 3.0
    vertex 3.0616169978683826e-16 2.499999999999999 3.0
  endloop
endfacet
facet normal 0.13052619222005582 0.9914448613738098 0.0
  outer loop
    vertex -0.6470476127563027 57.58518543427734 3.0
    vertex 0.0 57.50000000000001 0.0
    vertex -0.6470476127563027 57.58518543427734 0.0
  endloop
endfacet
facet normal 0.13052619222005582 0.9914448613738098 0.0
  outer loop
    vertex 0.0 57.50000000000001 0.0
    vertex -0.6470476127563027 57.58518543427734 3.0
    vertex 0.0 57.50000000000001 3.0
  endloop
endfacet
facet normal -0.7933533402912332 0.6087614290087235 0.0
  outer loop
    vertex 2.165063509461093 58.75000000000001 3.0
    vertex 1.7677669529663655 58.23223304703364 0.0
    vertex 1.7677669529663655 58.23223304703364 3.0
  endloop
endfacet
facet normal -0.7933533402912332 0.6087614290087235 0.0
  outer loop
    vertex 1.7677669529663655 58.23223304703364 0.0
    vertex 2.165063509461093 58.75000000000001 3.0
    vertex 2.165063509461093 58.75000000000001 0.0
  endloop
endfacet
facet normal -0.6087614290087264 0.7933533402912307 0.0
  outer loop
    vertex 1.2499999999999976 57.83493649053891 3.0
    vertex 1.7677669529663655 58.23223304703364 0.0
    vertex 1.2499999999999976 57.83493649053891 0.0
  endloop
endfacet
facet normal -0.6087614290087264 0.7933533402912307 0.0
  outer loop
    vertex 1.7677669529663655 58.23223304703364 0.0
    vertex 1.2499999999999976 57.83493649053891 3.0
    vertex 1.7677669529663655 58.23223304703364 3.0
  endloop
endfacet
facet normal -0.608761429008727 -0.7933533402912304 -0.0
  outer loop
    vertex 1.7677669529663658 61.76776695296636 3.0
    vertex 1.2499999999999987 62.1650635094611 0.0
    vertex 1.7677669529663658 61.76776695296636 0.0
  endloop
endfacet
facet normal -0.608761429008727 -0.7933533402912304 -0.0
  outer loop
    vertex 1.2499999999999987 62.1650635094611 0.0
    vertex 1.7677669529663658 61.76776695296636 3.0
    vertex 1.2499999999999987 62.1650635094611 3.0
  endloop
endfacet
facet normal -0.9914448613738106 -0.13052619222005135 -0.0
  outer loop
    vertex 2.4148145657226663 60.6470476127563 3.0
    vertex 2.4999999999999956 60.0 0.0
    vertex 2.4999999999999956 60.0 3.0
  endloop
endfacet
facet normal -0.9914448613738106 -0.13052619222005135 -0.0
  outer loop
    vertex 2.4999999999999956 60.0 0.0
    vertex 2.4148145657226663 60.6470476127563 3.0
    vertex 2.4148145657226663 60.6470476127563 0.0
  endloop
endfacet
facet normal -0.3826834323650825 -0.92387953251129 -0.0
  outer loop
    vertex 1.2499999999999987 62.1650635094611 3.0
    vertex 0.6470476127563014 62.414814565722665 0.0
    vertex 1.2499999999999987 62.1650635094611 0.0
  endloop
endfacet
facet normal -0.3826834323650825 -0.92387953251129 -0.0
  outer loop
    vertex 0.6470476127563014 62.414814565722665 0.0
    vertex 1.2499999999999987 62.1650635094611 3.0
    vertex 0.6470476127563014 62.414814565722665 3.0
  endloop
endfacet
facet normal 0.38268343236508306 0.9238795325112895 0.0
  outer loop
    vertex -1.2499999999999987 57.83493649053891 3.0
    vertex -0.6470476127563027 57.58518543427734 0.0
    vertex -1.2499999999999987 57.83493649053891 0.0
  endloop
endfacet
facet normal 0.38268343236508306 0.9238795325112895 0.0
  outer loop
    vertex -0.6470476127563027 57.58518543427734 0.0
    vertex -1.2499999999999987 57.83493649053891 3.0
    vertex -0.6470476127563027 57.58518543427734 3.0
  endloop
endfacet
facet normal -0.9238795325112866 -0.3826834323650902 -0.0
  outer loop
    vertex 2.165063509461093 61.25 3.0
    vertex 2.4148145657226663 60.6470476127563 0.0
    vertex 2.4148145657226663 60.6470476127563 3.0
  endloop
endfacet
facet normal -0.9238795325112866 -0.3826834323650902 -0.0
  outer loop
    vertex 2.4148145657226663 60.6470476127563 0.0
    vertex 2.165063509461093 61.25 3.0
    vertex 2.165063509461093 61.25 0.0
  endloop
endfacet
facet normal -0.13052619222005624 0.9914448613738098 0.0
  outer loop
    vertex 0.0 57.50000000000001 3.0
    vertex 0.6470476127563006 57.58518543427734 0.0
    vertex 0.0 57.50000000000001 0.0
  endloop
endfacet
facet normal -0.13052619222005624 0.9914448613738098 0.0
  outer loop
    vertex 0.6470476127563006 57.58518543427734 0.0
    vertex 0.0 57.50000000000001 3.0
    vertex 0.6470476127563006 57.58518543427734 3.0
  endloop
endfacet
facet normal -0.9238795325112868 0.3826834323650898 0.0
  outer loop
    vertex 2.414814565722666 59.352952387243704 3.0
    vertex 2.165063509461093 58.75000000000001 0.0
    vertex 2.165063509461093 58.75000000000001 3.0
  endloop
endfacet
facet normal -0.9238795325112868 0.3826834323650898 0.0
  outer loop
    vertex 2.165063509461093 58.75000000000001 0.0
    vertex 2.414814565722666 59.352952387243704 3.0
    vertex 2.414814565722666 59.352952387243704 0.0
  endloop
endfacet
facet normal -0.9914448613738104 0.13052619222005188 0.0
  outer loop
    vertex 2.4999999999999956 60.0 3.0
    vertex 2.414814565722666 59.352952387243704 0.0
    vertex 2.414814565722666 59.352952387243704 3.0
  endloop
endfacet
facet normal -0.9914448613738104 0.13052619222005188 0.0
  outer loop
    vertex 2.414814565722666 59.352952387243704 0.0
    vertex 2.4999999999999956 60.0 3.0
    vertex 2.4999999999999956 60.0 0.0
  endloop
endfacet
facet normal -0.3826834323650827 0.9238795325112898 0.0
  outer loop
    vertex 0.6470476127563006 57.58518543427734 3.0
    vertex 1.2499999999999976 57.83493649053891 0.0
    vertex 0.6470476127563006 57.58518543427734 0.0
  endloop
endfacet
facet normal -0.3826834323650827 0.9238795325112898 0.0
  outer loop
    vertex 1.2499999999999976 57.83493649053891 0.0
    vertex 0.6470476127563006 57.58518543427734 3.0
    vertex 1.2499999999999976 57.83493649053891 3.0
  endloop
endfacet
facet normal -0.7933533402912333 -0.6087614290087231 -0.0
  outer loop
    vertex 1.7677669529663658 61.76776695296636 3.0
    vertex 2.165063509461093 61.25 0.0
    vertex 2.165063509461093 61.25 3.0
  endloop
endfacet
facet normal -0.7933533402912333 -0.6087614290087231 -0.0
  outer loop
    vertex 2.165063509461093 61.25 0.0
    vertex 1.7677669529663658 61.76776695296636 3.0
    vertex 1.7677669529663658 61.76776695296636 0.0
  endloop
endfacet
endsolid Untitled
