solid Untitled-55f0de2b
facet normal 0.0 0.0 -1.0
  outer loop
    vertex -35.53780681587855 35.21639021112552 0.0
    vertex -35.53780681587855 26.93418076784486 0.0
    vertex -36.082993595253456 31.075285489485186 0.0
  endloop
endfacet
facet normal 0.0 0.0 -1.0
  outer loop
    vertex -35.53780681587855 26.93418076784486 0.0
    vertex -35.53780681587855 35.21639021112552 0.0
    vertex -33.93940005580447 39.07528548948519 0.0
  endloop
endfacet
facet normal 0.0 0.0 -1.0
  outer loop
    vertex -35.53780681587855 26.93418076784486 0.0
    vertex -33.93940005580447 39.07528548948519 0.0
    vertex -34.082993595253456 31.075285489485186 0.0
  endloop
endfacet
facet normal 0.0 0.0 -1.0
  outer loop
    vertex -34.082993595253456 31.075285489485186 0.0
    vertex -33.93940005580447 39.07528548948519 0.0
    vertex -33.60595516330041 34.69875212092048 0.0
  endloop
endfacet
facet normal 0.0 0.0 -1.0
  outer loop
    vertex -33.60595516330041 34.69875212092048 0.0
    vertex -33.93940005580447 39.07528548948519 0.0
    vertex -31.396702094238215 42.38899398846995 0.0
  endloop
endfacet
facet normal 0.0 0.0 -1.0
  outer loop
    vertex -33.60595516330041 34.69875212092048 0.0
    vertex -31.396702094238215 42.38899398846995 0.0
    vertex -32.207349248235595 38.07528548948519 0.0
  endloop
endfacet
facet normal 0.0 0.0 -1.0
  outer loop
    vertex -32.207349248235595 38.07528548948519 0.0
    vertex -31.396702094238215 42.38899398846995 0.0
    vertex -29.98248853186512 40.97478042609685 0.0
  endloop
endfacet
facet normal 0.0 0.0 -1.0
  outer loop
    vertex -29.98248853186512 40.97478042609685 0.0
    vertex -31.396702094238215 42.38899398846995 0.0
    vertex -28.082993595253452 44.9316919500362 0.0
  endloop
endfacet
facet normal 0.0 0.0 -1.0
  outer loop
    vertex -29.98248853186512 40.97478042609685 0.0
    vertex -28.082993595253452 44.9316919500362 0.0
    vertex -27.082993595253456 43.19964114246733 0.0
  endloop
endfacet
facet normal 0.0 0.0 -1.0
  outer loop
    vertex -27.082993595253456 43.19964114246733 0.0
    vertex -28.082993595253452 44.9316919500362 0.0
    vertex -24.224098316893787 46.53009871011027 0.0
  endloop
endfacet
facet normal 0.0 0.0 -1.0
  outer loop
    vertex -27.082993595253456 43.19964114246733 0.0
    vertex -24.224098316893787 46.53009871011027 0.0
    vertex -23.706460226688748 44.598247057532134 0.0
  endloop
endfacet
facet normal 0.0 0.0 -1.0
  outer loop
    vertex -23.706460226688748 44.598247057532134 0.0
    vertex -24.224098316893787 46.53009871011027 0.0
    vertex -20.082993595253456 47.07528548948518 0.0
  endloop
endfacet
facet normal 0.0 0.0 -1.0
  outer loop
    vertex -23.706460226688748 44.598247057532134 0.0
    vertex -20.082993595253456 47.07528548948518 0.0
    vertex -20.082993595253456 45.07528548948518 0.0
  endloop
endfacet
facet normal 0.0 0.0 -1.0
  outer loop
    vertex -20.082993595253456 45.07528548948518 0.0
    vertex -20.082993595253456 47.07528548948518 0.0
    vertex -15.941888873613111 46.53009871011027 0.0
  endloop
endfacet
facet normal 0.0 0.0 -1.0
  outer loop
    vertex -20.082993595253456 45.07528548948518 0.0
    vertex -15.941888873613111 46.53009871011027 0.0
    vertex -16.459526963818153 44.598247057532134 0.0
  endloop
endfacet
facet normal 0.0 0.0 -1.0
  outer loop
    vertex -16.459526963818153 44.598247057532134 0.0
    vertex -15.941888873613111 46.53009871011027 0.0
    vertex -13.082993595253452 43.19964114246732 0.0
  endloop
endfacet
facet normal 0.0 0.0 -1.0
  outer loop
    vertex -13.082993595253452 43.19964114246732 0.0
    vertex -15.941888873613111 46.53009871011027 0.0
    vertex -12.082993595253448 44.9316919500362 0.0
  endloop
endfacet
facet normal 0.0 0.0 -1.0
  outer loop
    vertex -13.082993595253452 43.19964114246732 0.0
    vertex -12.082993595253448 44.9316919500362 0.0
    vertex -10.183498658641788 40.97478042609685 0.0
  endloop
endfacet
facet normal 0.0 0.0 -1.0
  outer loop
    vertex -10.183498658641788 40.97478042609685 0.0
    vertex -12.082993595253448 44.9316919500362 0.0
    vertex -8.769285096268696 42.38899398846994 0.0
  endloop
endfacet
facet normal 0.0 0.0 -1.0
  outer loop
    vertex -10.183498658641788 40.97478042609685 0.0
    vertex -8.769285096268696 42.38899398846994 0.0
    vertex -7.958637942271313 38.075285489485175 0.0
  endloop
endfacet
facet normal 0.0 0.0 -1.0
  outer loop
    vertex -7.958637942271313 38.075285489485175 0.0
    vertex -8.769285096268696 42.38899398846994 0.0
    vertex -6.226587134702434 39.075285489485175 0.0
  endloop
endfacet
facet normal 0.0 0.0 -1.0
  outer loop
    vertex -7.958637942271313 38.075285489485175 0.0
    vertex -6.226587134702434 39.075285489485175 0.0
    vertex -6.560032027206498 34.69875212092047 0.0
  endloop
endfacet
facet normal 0.0 0.0 -1.0
  outer loop
    vertex -6.560032027206498 34.69875212092047 0.0
    vertex -6.226587134702434 39.075285489485175 0.0
    vertex -6.082993595253459 31.075285489485186 0.0
  endloop
endfacet
facet normal 0.0 0.0 -1.0
  outer loop
    vertex -6.082993595253459 31.075285489485186 0.0
    vertex -6.226587134702434 39.075285489485175 0.0
    vertex -4.628180374628365 35.21639021112551 0.0
  endloop
endfacet
facet normal 0.0 0.0 -1.0
  outer loop
    vertex -34.082993595253456 31.075285489485186 0.0
    vertex -33.93940005580448 23.075285489485193 0.0
    vertex -35.53780681587855 26.93418076784486 0.0
  endloop
endfacet
facet normal 0.0 0.0 -1.0
  outer loop
    vertex -33.93940005580448 23.075285489485193 0.0
    vertex -34.082993595253456 31.075285489485186 0.0
    vertex -33.60595516330041 27.4518188580499 0.0
  endloop
endfacet
facet normal 0.0 0.0 -1.0
  outer loop
    vertex -33.93940005580448 23.075285489485193 0.0
    vertex -33.60595516330041 27.4518188580499 0.0
    vertex -31.396702094238215 19.76157699050043 0.0
  endloop
endfacet
facet normal 0.0 0.0 -1.0
  outer loop
    vertex -31.396702094238215 19.76157699050043 0.0
    vertex -33.60595516330041 27.4518188580499 0.0
    vertex -32.2073492482356 24.075285489485193 0.0
  endloop
endfacet
facet normal 0.0 0.0 -1.0
  outer loop
    vertex -31.396702094238215 19.76157699050043 0.0
    vertex -32.2073492482356 24.075285489485193 0.0
    vertex -29.98248853186512 21.175790552873526 0.0
  endloop
endfacet
facet normal 0.0 0.0 -1.0
  outer loop
    vertex -31.396702094238215 19.76157699050043 0.0
    vertex -29.98248853186512 21.175790552873526 0.0
    vertex -28.08299359525346 17.218879028934175 0.0
  endloop
endfacet
facet normal 0.0 0.0 -1.0
  outer loop
    vertex -28.08299359525346 17.218879028934175 0.0
    vertex -29.98248853186512 21.175790552873526 0.0
    vertex -27.08299359525346 18.950929836503054 0.0
  endloop
endfacet
facet normal 0.0 0.0 -1.0
  outer loop
    vertex -28.08299359525346 17.218879028934175 0.0
    vertex -27.08299359525346 18.950929836503054 0.0
    vertex -24.22409831689379 15.6204722688601 0.0
  endloop
endfacet
facet normal 0.0 0.0 -1.0
  outer loop
    vertex -24.22409831689379 15.6204722688601 0.0
    vertex -27.08299359525346 18.950929836503054 0.0
    vertex -23.706460226688748 17.552323921438237 0.0
  endloop
endfacet
facet normal 0.0 0.0 -1.0
  outer loop
    vertex -24.22409831689379 15.6204722688601 0.0
    vertex -23.706460226688748 17.552323921438237 0.0
    vertex -20.08299359525346 15.075285489485191 0.0
  endloop
endfacet
facet normal 0.0 0.0 -1.0
  outer loop
    vertex -20.08299359525346 15.075285489485191 0.0
    vertex -23.706460226688748 17.552323921438237 0.0
    vertex -20.08299359525346 17.07528548948519 0.0
  endloop
endfacet
facet normal 0.0 0.0 -1.0
  outer loop
    vertex -20.08299359525346 15.075285489485191 0.0
    vertex -20.08299359525346 17.07528548948519 0.0
    vertex -16.45952696381817 17.552323921438234 0.0
  endloop
endfacet
facet normal 0.0 0.0 -1.0
  outer loop
    vertex -20.08299359525346 15.075285489485191 0.0
    vertex -16.45952696381817 17.552323921438234 0.0
    vertex -15.94188887361313 15.620472268860096 0.0
  endloop
endfacet
facet normal 0.0 0.0 -1.0
  outer loop
    vertex -15.94188887361313 15.620472268860096 0.0
    vertex -16.45952696381817 17.552323921438234 0.0
    vertex -13.082993595253463 18.950929836503047 0.0
  endloop
endfacet
facet normal 0.0 0.0 -1.0
  outer loop
    vertex -15.94188887361313 15.620472268860096 0.0
    vertex -13.082993595253463 18.950929836503047 0.0
    vertex -12.082993595253459 17.218879028934168 0.0
  endloop
endfacet
facet normal 0.0 0.0 -1.0
  outer loop
    vertex -12.082993595253459 17.218879028934168 0.0
    vertex -13.082993595253463 18.950929836503047 0.0
    vertex -10.183498658641799 21.17579055287352 0.0
  endloop
endfacet
facet normal 0.0 0.0 -1.0
  outer loop
    vertex -12.082993595253459 17.218879028934168 0.0
    vertex -10.183498658641799 21.17579055287352 0.0
    vertex -8.769285096268701 19.761576990500426 0.0
  endloop
endfacet
facet normal 0.0 0.0 -1.0
  outer loop
    vertex -8.769285096268701 19.761576990500426 0.0
    vertex -10.183498658641799 21.17579055287352 0.0
    vertex -7.9586379422713245 24.075285489485182 0.0
  endloop
endfacet
facet normal 0.0 0.0 -1.0
  outer loop
    vertex -8.769285096268701 19.761576990500426 0.0
    vertex -7.9586379422713245 24.075285489485182 0.0
    vertex -6.226587134702446 23.075285489485182 0.0
  endloop
endfacet
facet normal 0.0 0.0 -1.0
  outer loop
    vertex -6.226587134702446 23.075285489485182 0.0
    vertex -7.9586379422713245 24.075285489485182 0.0
    vertex -6.560032027206509 27.45181885804989 0.0
  endloop
endfacet
facet normal 0.0 0.0 -1.0
  outer loop
    vertex -6.226587134702446 23.075285489485182 0.0
    vertex -6.560032027206509 27.45181885804989 0.0
    vertex -6.082993595253459 31.075285489485186 0.0
  endloop
endfacet
facet normal 0.0 0.0 -1.0
  outer loop
    vertex -6.226587134702446 23.075285489485182 0.0
    vertex -6.082993595253459 31.075285489485186 0.0
    vertex -4.628180374628365 26.934180767844843 0.0
  endloop
endfacet
facet normal 0.0 0.0 -1.0
  outer loop
    vertex -4.628180374628365 26.934180767844843 0.0
    vertex -6.082993595253459 31.075285489485186 0.0
    vertex -4.628180374628365 35.21639021112551 0.0
  endloop
endfacet
facet normal 0.0 0.0 -1.0
  outer loop
    vertex -4.628180374628365 26.934180767844843 0.0
    vertex -4.628180374628365 35.21639021112551 0.0
    vertex -4.082993595253457 31.075285489485186 0.0
  endloop
endfacet
facet normal 0.13052619222005177 0.9914448613738105 0.0
  outer loop
    vertex -23.706460226688748 17.552323921438237 1.9999999999999998
    vertex -20.08299359525346 17.07528548948519 0.0
    vertex -23.706460226688748 17.552323921438237 0.0
  endloop
endfacet
facet normal 0.13052619222005177 0.9914448613738105 0.0
  outer loop
    vertex -20.08299359525346 17.07528548948519 0.0
    vertex -23.706460226688748 17.552323921438237 1.9999999999999998
    vertex -20.08299359525346 17.07528548948519 1.9999999999999998
  endloop
endfacet
facet normal -0.6087614290087199 0.7933533402912359 0.0
  outer loop
    vertex -31.396702094238215 42.38899398846995 1.9999999999999998
    vertex -28.082993595253452 44.9316919500362 0.0
    vertex -31.396702094238215 42.38899398846995 0.0
  endloop
endfacet
facet normal -0.6087614290087199 0.7933533402912359 0.0
  outer loop
    vertex -28.082993595253452 44.9316919500362 0.0
    vertex -31.396702094238215 42.38899398846995 1.9999999999999998
    vertex -28.082993595253452 44.9316919500362 1.9999999999999998
  endloop
endfacet
facet normal 0.9238795325112859 -0.3826834323650917 0.0
  outer loop
    vertex -4.628180374628365 26.934180767844843 0.0
    vertex -6.226587134702446 23.075285489485182 1.9999999999999998
    vertex -6.226587134702446 23.075285489485182 0.0
  endloop
endfacet
facet normal 0.9238795325112859 -0.3826834323650917 0.0
  outer loop
    vertex -6.226587134702446 23.075285489485182 1.9999999999999998
    vertex -4.628180374628365 26.934180767844843 0.0
    vertex -4.628180374628365 26.934180767844843 1.9999999999999998
  endloop
endfacet
facet normal -0.13052619222005135 -0.9914448613738105 -0.0
  outer loop
    vertex -16.459526963818153 44.598247057532134 1.9999999999999998
    vertex -20.082993595253456 45.07528548948518 0.0
    vertex -16.459526963818153 44.598247057532134 0.0
  endloop
endfacet
facet normal -0.13052619222005135 -0.9914448613738105 -0.0
  outer loop
    vertex -20.082993595253456 45.07528548948518 0.0
    vertex -16.459526963818153 44.598247057532134 1.9999999999999998
    vertex -20.082993595253456 45.07528548948518 1.9999999999999998
  endloop
endfacet
facet normal -0.7933533402912356 -0.6087614290087201 -0.0
  outer loop
    vertex -10.183498658641788 40.97478042609685 1.9999999999999998
    vertex -7.958637942271313 38.075285489485175 0.0
    vertex -7.958637942271313 38.075285489485175 1.9999999999999998
  endloop
endfacet
facet normal -0.7933533402912356 -0.6087614290087201 -0.0
  outer loop
    vertex -7.958637942271313 38.075285489485175 0.0
    vertex -10.183498658641788 40.97478042609685 1.9999999999999998
    vertex -10.183498658641788 40.97478042609685 0.0
  endloop
endfacet
facet normal -0.38268343236509056 -0.9238795325112865 -0.0
  outer loop
    vertex -13.082993595253452 43.19964114246732 1.9999999999999998
    vertex -16.459526963818153 44.598247057532134 0.0
    vertex -13.082993595253452 43.19964114246732 0.0
  endloop
endfacet
facet normal -0.38268343236509056 -0.9238795325112865 -0.0
  outer loop
    vertex -16.459526963818153 44.598247057532134 0.0
    vertex -13.082993595253452 43.19964114246732 1.9999999999999998
    vertex -16.459526963818153 44.598247057532134 1.9999999999999998
  endloop
endfacet
facet normal -0.1305261922200517 -0.9914448613738105 -0.0
  outer loop
    vertex -20.08299359525346 15.075285489485191 1.9999999999999998
    vertex -24.22409831689379 15.6204722688601 0.0
    vertex -20.08299359525346 15.075285489485191 0.0
  endloop
endfacet
facet normal -0.1305261922200517 -0.9914448613738105 -0.0
  outer loop
    vertex -24.22409831689379 15.6204722688601 0.0
    vertex -20.08299359525346 15.075285489485191 1.9999999999999998
    vertex -24.22409831689379 15.6204722688601 1.9999999999999998
  endloop
endfacet
facet normal 0.793353340291235 0.6087614290087207 0.0
  outer loop
    vertex -8.769285096268696 42.38899398846994 0.0
    vertex -6.226587134702434 39.075285489485175 1.9999999999999998
    vertex -6.226587134702434 39.075285489485175 0.0
  endloop
endfacet
facet normal 0.793353340291235 0.6087614290087207 0.0
  outer loop
    vertex -6.226587134702434 39.075285489485175 1.9999999999999998
    vertex -8.769285096268696 42.38899398846994 0.0
    vertex -8.769285096268696 42.38899398846994 1.9999999999999998
  endloop
endfacet
facet normal -0.793353340291235 -0.6087614290087207 -0.0
  outer loop
    vertex -33.93940005580448 23.075285489485193 1.9999999999999998
    vertex -31.396702094238215 19.76157699050043 0.0
    vertex -31.396702094238215 19.76157699050043 1.9999999999999998
  endloop
endfacet
facet normal -0.793353340291235 -0.6087614290087207 -0.0
  outer loop
    vertex -31.396702094238215 19.76157699050043 0.0
    vertex -33.93940005580448 23.075285489485193 1.9999999999999998
    vertex -33.93940005580448 23.075285489485193 0.0
  endloop
endfacet
facet normal -0.9238795325112871 -0.38268343236508895 -0.0
  outer loop
    vertex -35.53780681587855 26.93418076784486 1.9999999999999998
    vertex -33.93940005580448 23.075285489485193 0.0
    vertex -33.93940005580448 23.075285489485193 1.9999999999999998
  endloop
endfacet
facet normal -0.9238795325112871 -0.38268343236508895 -0.0
  outer loop
    vertex -33.93940005580448 23.075285489485193 0.0
    vertex -35.53780681587855 26.93418076784486 1.9999999999999998
    vertex -35.53780681587855 26.93418076784486 0.0
  endloop
endfacet
facet normal 0.38268343236508917 -0.9238795325112872 0.0
  outer loop
    vertex -12.082993595253459 17.218879028934168 1.9999999999999998
    vertex -15.94188887361313 15.620472268860096 0.0
    vertex -12.082993595253459 17.218879028934168 0.0
  endloop
endfacet
facet normal 0.38268343236508917 -0.9238795325112872 0.0
  outer loop
    vertex -15.94188887361313 15.620472268860096 0.0
    vertex -12.082993595253459 17.218879028934168 1.9999999999999998
    vertex -15.94188887361313 15.620472268860096 1.9999999999999998
  endloop
endfacet
facet normal -0.9238795325112867 0.3826834323650902 0.0
  outer loop
    vertex -33.93940005580447 39.07528548948519 1.9999999999999998
    vertex -35.53780681587855 35.21639021112552 0.0
    vertex -35.53780681587855 35.21639021112552 1.9999999999999998
  endloop
endfacet
facet normal -0.9238795325112867 0.3826834323650902 0.0
  outer loop
    vertex -35.53780681587855 35.21639021112552 0.0
    vertex -33.93940005580447 39.07528548948519 1.9999999999999998
    vertex -33.93940005580447 39.07528548948519 0.0
  endloop
endfacet
facet normal 0.13052619222005177 -0.9914448613738105 0.0
  outer loop
    vertex -20.082993595253456 45.07528548948518 1.9999999999999998
    vertex -23.706460226688748 44.598247057532134 0.0
    vertex -20.082993595253456 45.07528548948518 0.0
  endloop
endfacet
facet normal 0.13052619222005177 -0.9914448613738105 0.0
  outer loop
    vertex -23.706460226688748 44.598247057532134 0.0
    vertex -20.082993595253456 45.07528548948518 1.9999999999999998
    vertex -23.706460226688748 44.598247057532134 1.9999999999999998
  endloop
endfacet
facet normal 0.3826834323650888 -0.9238795325112874 0.0
  outer loop
    vertex -23.706460226688748 44.598247057532134 1.9999999999999998
    vertex -27.082993595253456 43.19964114246733 0.0
    vertex -23.706460226688748 44.598247057532134 0.0
  endloop
endfacet
facet normal 0.3826834323650888 -0.9238795325112874 0.0
  outer loop
    vertex -27.082993595253456 43.19964114246733 0.0
    vertex -23.706460226688748 44.598247057532134 1.9999999999999998
    vertex -27.082993595253456 43.19964114246733 1.9999999999999998
  endloop
endfacet
facet normal -0.7933533402912354 0.6087614290087205 0.0
  outer loop
    vertex -31.396702094238215 42.38899398846995 1.9999999999999998
    vertex -33.93940005580447 39.07528548948519 0.0
    vertex -33.93940005580447 39.07528548948519 1.9999999999999998
  endloop
endfacet
facet normal -0.7933533402912354 0.6087614290087205 0.0
  outer loop
    vertex -33.93940005580447 39.07528548948519 0.0
    vertex -31.396702094238215 42.38899398846995 1.9999999999999998
    vertex -31.396702094238215 42.38899398846995 0.0
  endloop
endfacet
facet normal 0.9914448613738105 -0.13052619222005155 0.0
  outer loop
    vertex -33.60595516330041 34.69875212092048 0.0
    vertex -34.082993595253456 31.075285489485186 1.9999999999999998
    vertex -34.082993595253456 31.075285489485186 0.0
  endloop
endfacet
facet normal 0.9914448613738105 -0.13052619222005155 0.0
  outer loop
    vertex -34.082993595253456 31.075285489485186 1.9999999999999998
    vertex -33.60595516330041 34.69875212092048 0.0
    vertex -33.60595516330041 34.69875212092048 1.9999999999999998
  endloop
endfacet
facet normal 0.3826834323650892 0.923879532511287 0.0
  outer loop
    vertex -15.941888873613111 46.53009871011027 1.9999999999999998
    vertex -12.082993595253448 44.9316919500362 0.0
    vertex -15.941888873613111 46.53009871011027 0.0
  endloop
endfacet
facet normal 0.3826834323650892 0.923879532511287 0.0
  outer loop
    vertex -12.082993595253448 44.9316919500362 0.0
    vertex -15.941888873613111 46.53009871011027 1.9999999999999998
    vertex -12.082993595253448 44.9316919500362 1.9999999999999998
  endloop
endfacet
facet normal -0.6087614290087199 0.7933533402912359 0.0
  outer loop
    vertex -13.082993595253463 18.950929836503047 1.9999999999999998
    vertex -10.183498658641799 21.17579055287352 0.0
    vertex -13.082993595253463 18.950929836503047 0.0
  endloop
endfacet
facet normal -0.6087614290087199 0.7933533402912359 0.0
  outer loop
    vertex -10.183498658641799 21.17579055287352 0.0
    vertex -13.082993595253463 18.950929836503047 1.9999999999999998
    vertex -10.183498658641799 21.17579055287352 1.9999999999999998
  endloop
endfacet
facet normal -0.9914448613738106 -0.13052619222005044 -0.0
  outer loop
    vertex -6.560032027206498 34.69875212092047 1.9999999999999998
    vertex -6.082993595253459 31.075285489485186 0.0
    vertex -6.082993595253459 31.075285489485186 1.9999999999999998
  endloop
endfacet
facet normal -0.9914448613738106 -0.13052619222005044 -0.0
  outer loop
    vertex -6.082993595253459 31.075285489485186 0.0
    vertex -6.560032027206498 34.69875212092047 1.9999999999999998
    vertex -6.560032027206498 34.69875212092047 0.0
  endloop
endfacet
facet normal -0.9914448613738104 0.13052619222005163 0.0
  outer loop
    vertex -35.53780681587855 35.21639021112552 1.9999999999999998
    vertex -36.082993595253456 31.075285489485186 0.0
    vertex -36.082993595253456 31.075285489485186 1.9999999999999998
  endloop
endfacet
facet normal -0.9914448613738104 0.13052619222005163 0.0
  outer loop
    vertex -36.082993595253456 31.075285489485186 0.0
    vertex -35.53780681587855 35.21639021112552 1.9999999999999998
    vertex -35.53780681587855 35.21639021112552 0.0
  endloop
endfacet
facet normal 0.793353340291235 -0.6087614290087208 0.0
  outer loop
    vertex -29.98248853186512 40.97478042609685 0.0
    vertex -32.207349248235595 38.07528548948519 1.9999999999999998
    vertex -32.207349248235595 38.07528548948519 0.0
  endloop
endfacet
facet normal 0.793353340291235 -0.6087614290087208 0.0
  outer loop
    vertex -32.207349248235595 38.07528548948519 1.9999999999999998
    vertex -29.98248853186512 40.97478042609685 0.0
    vertex -29.98248853186512 40.97478042609685 1.9999999999999998
  endloop
endfacet
facet normal -0.9238795325112868 -0.38268343236509006 -0.0
  outer loop
    vertex -7.958637942271313 38.075285489485175 1.9999999999999998
    vertex -6.560032027206498 34.69875212092047 0.0
    vertex -6.560032027206498 34.69875212092047 1.9999999999999998
  endloop
endfacet
facet normal -0.9238795325112868 -0.38268343236509006 -0.0
  outer loop
    vertex -6.560032027206498 34.69875212092047 0.0
    vertex -7.958637942271313 38.075285489485175 1.9999999999999998
    vertex -7.958637942271313 38.075285489485175 0.0
  endloop
endfacet
facet normal 0.6087614290087211 0.7933533402912348 0.0
  outer loop
    vertex -29.98248853186512 21.175790552873526 1.9999999999999998
    vertex -27.08299359525346 18.950929836503054 0.0
    vertex -29.98248853186512 21.175790552873526 0.0
  endloop
endfacet
facet normal 0.6087614290087211 0.7933533402912348 0.0
  outer loop
    vertex -27.08299359525346 18.950929836503054 0.0
    vertex -29.98248853186512 21.175790552873526 1.9999999999999998
    vertex -27.08299359525346 18.950929836503054 1.9999999999999998
  endloop
endfacet
facet normal -0.9914448613738105 -0.130526192220052 -0.0
  outer loop
    vertex -36.082993595253456 31.075285489485186 1.9999999999999998
    vertex -35.53780681587855 26.93418076784486 0.0
    vertex -35.53780681587855 26.93418076784486 1.9999999999999998
  endloop
endfacet
facet normal -0.9914448613738105 -0.130526192220052 -0.0
  outer loop
    vertex -35.53780681587855 26.93418076784486 0.0
    vertex -36.082993595253456 31.075285489485186 1.9999999999999998
    vertex -36.082993595253456 31.075285489485186 0.0
  endloop
endfacet
facet normal 0.6087614290087205 -0.7933533402912354 0.0
  outer loop
    vertex -8.769285096268701 19.761576990500426 1.9999999999999998
    vertex -12.082993595253459 17.218879028934168 0.0
    vertex -8.769285096268701 19.761576990500426 0.0
  endloop
endfacet
facet normal 0.6087614290087205 -0.7933533402912354 0.0
  outer loop
    vertex -12.082993595253459 17.218879028934168 0.0
    vertex -8.769285096268701 19.761576990500426 1.9999999999999998
    vertex -12.082993595253459 17.218879028934168 1.9999999999999998
  endloop
endfacet
facet normal 0.9238795325112871 0.38268343236508895 0.0
  outer loop
    vertex -6.226587134702434 39.075285489485175 0.0
    vertex -4.628180374628365 35.21639021112551 1.9999999999999998
    vertex -4.628180374628365 35.21639021112551 0.0
  endloop
endfacet
facet normal 0.9238795325112871 0.38268343236508895 0.0
  outer loop
    vertex -4.628180374628365 35.21639021112551 1.9999999999999998
    vertex -6.226587134702434 39.075285489485175 0.0
    vertex -6.226587134702434 39.075285489485175 1.9999999999999998
  endloop
endfacet
facet normal -0.3826834323650902 -0.9238795325112867 -0.0
  outer loop
    vertex -24.22409831689379 15.6204722688601 1.9999999999999998
    vertex -28.08299359525346 17.218879028934175 0.0
    vertex -24.22409831689379 15.6204722688601 0.0
  endloop
endfacet
facet normal -0.3826834323650902 -0.9238795325112867 -0.0
  outer loop
    vertex -28.08299359525346 17.218879028934175 0.0
    vertex -24.22409831689379 15.6204722688601 1.9999999999999998
    vertex -28.08299359525346 17.218879028934175 1.9999999999999998
  endloop
endfacet
facet normal 0.6087614290087208 -0.793353340291235 0.0
  outer loop
    vertex -27.082993595253456 43.19964114246733 1.9999999999999998
    vertex -29.98248853186512 40.97478042609685 0.0
    vertex -27.082993595253456 43.19964114246733 0.0
  endloop
endfacet
facet normal 0.6087614290087208 -0.793353340291235 0.0
  outer loop
    vertex -29.98248853186512 40.97478042609685 0.0
    vertex -27.082993595253456 43.19964114246733 1.9999999999999998
    vertex -29.98248853186512 40.97478042609685 1.9999999999999998
  endloop
endfacet
facet normal 0.9238795325112868 -0.38268343236509006 0.0
  outer loop
    vertex -32.207349248235595 38.07528548948519 0.0
    vertex -33.60595516330041 34.69875212092048 1.9999999999999998
    vertex -33.60595516330041 34.69875212092048 0.0
  endloop
endfacet
facet normal 0.9238795325112868 -0.38268343236509006 0.0
  outer loop
    vertex -33.60595516330041 34.69875212092048 1.9999999999999998
    vertex -32.207349248235595 38.07528548948519 0.0
    vertex -32.207349248235595 38.07528548948519 1.9999999999999998
  endloop
endfacet
facet normal 0.13052619222005124 -0.9914448613738106 0.0
  outer loop
    vertex -15.94188887361313 15.620472268860096 1.9999999999999998
    vertex -20.08299359525346 15.075285489485191 0.0
    vertex -15.94188887361313 15.620472268860096 0.0
  endloop
endfacet
facet normal 0.13052619222005124 -0.9914448613738106 0.0
  outer loop
    vertex -20.08299359525346 15.075285489485191 0.0
    vertex -15.94188887361313 15.620472268860096 1.9999999999999998
    vertex -20.08299359525346 15.075285489485191 1.9999999999999998
  endloop
endfacet
facet normal 0.13052619222005268 0.9914448613738103 0.0
  outer loop
    vertex -20.082993595253456 47.07528548948518 1.9999999999999998
    vertex -15.941888873613111 46.53009871011027 0.0
    vertex -20.082993595253456 47.07528548948518 0.0
  endloop
endfacet
facet normal 0.13052619222005268 0.9914448613738103 0.0
  outer loop
    vertex -15.941888873613111 46.53009871011027 0.0
    vertex -20.082993595253456 47.07528548948518 1.9999999999999998
    vertex -15.941888873613111 46.53009871011027 1.9999999999999998
  endloop
endfacet
facet normal 0.9914448613738105 -0.13052619222005143 0.0
  outer loop
    vertex -4.082993595253457 31.075285489485186 0.0
    vertex -4.628180374628365 26.934180767844843 1.9999999999999998
    vertex -4.628180374628365 26.934180767844843 0.0
  endloop
endfacet
facet normal 0.9914448613738105 -0.13052619222005143 0.0
  outer loop
    vertex -4.628180374628365 26.934180767844843 1.9999999999999998
    vertex -4.082993595253457 31.075285489485186 0.0
    vertex -4.082993595253457 31.075285489485186 1.9999999999999998
  endloop
endfacet
facet normal 0.9238795325112874 0.3826834323650888 0.0
  outer loop
    vertex -33.60595516330041 27.4518188580499 0.0
    vertex -32.2073492482356 24.075285489485193 1.9999999999999998
    vertex -32.2073492482356 24.075285489485193 0.0
  endloop
endfacet
facet normal 0.9238795325112874 0.3826834323650888 0.0
  outer loop
    vertex -32.2073492482356 24.075285489485193 1.9999999999999998
    vertex -33.60595516330041 27.4518188580499 0.0
    vertex -33.60595516330041 27.4518188580499 1.9999999999999998
  endloop
endfacet
facet normal 0.7933533402912346 0.6087614290087214 0.0
  outer loop
    vertex -32.2073492482356 24.075285489485193 0.0
    vertex -29.98248853186512 21.175790552873526 1.9999999999999998
    vertex -29.98248853186512 21.175790552873526 0.0
  endloop
endfacet
facet normal 0.7933533402912346 0.6087614290087214 0.0
  outer loop
    vertex -29.98248853186512 21.175790552873526 1.9999999999999998
    vertex -32.2073492482356 24.075285489485193 0.0
    vertex -32.2073492482356 24.075285489485193 1.9999999999999998
  endloop
endfacet
facet normal 0.7933533402912354 -0.6087614290087205 0.0
  outer loop
    vertex -6.226587134702446 23.075285489485182 0.0
    vertex -8.769285096268701 19.761576990500426 1.9999999999999998
    vertex -8.769285096268701 19.761576990500426 0.0
  endloop
endfacet
facet normal 0.7933533402912354 -0.6087614290087205 0.0
  outer loop
    vertex -8.769285096268701 19.761576990500426 1.9999999999999998
    vertex -6.226587134702446 23.075285489485182 0.0
    vertex -6.226587134702446 23.075285489485182 1.9999999999999998
  endloop
endfacet
facet normal -0.0 -0.0 1.0
  outer loop
    vertex -35.53780681587855 26.93418076784486 1.9999999999999998
    vertex -35.53780681587855 35.21639021112552 1.9999999999999998
    vertex -36.082993595253456 31.075285489485186 1.9999999999999998
  endloop
endfacet
facet normal -0.0 -0.0 1.0
  outer loop
    vertex -35.53780681587855 35.21639021112552 1.9999999999999998
    vertex -35.53780681587855 26.93418076784486 1.9999999999999998
    vertex -33.93940005580448 23.075285489485193 1.9999999999999998
  endloop
endfacet
facet normal -0.0 -0.0 1.0
  outer loop
    vertex -35.53780681587855 35.21639021112552 1.9999999999999998
    vertex -33.93940005580448 23.075285489485193 1.9999999999999998
    vertex -34.082993595253456 31.075285489485186 1.9999999999999998
  endloop
endfacet
facet normal -0.0 -0.0 1.0
  outer loop
    vertex -34.082993595253456 31.075285489485186 1.9999999999999998
    vertex -33.93940005580448 23.075285489485193 1.9999999999999998
    vertex -33.60595516330041 27.4518188580499 1.9999999999999998
  endloop
endfacet
facet normal -0.0 -0.0 1.0
  outer loop
    vertex -33.60595516330041 27.4518188580499 1.9999999999999998
    vertex -33.93940005580448 23.075285489485193 1.9999999999999998
    vertex -31.396702094238215 19.76157699050043 1.9999999999999998
  endloop
endfacet
facet normal -0.0 -0.0 1.0
  outer loop
    vertex -33.60595516330041 27.4518188580499 1.9999999999999998
    vertex -31.396702094238215 19.76157699050043 1.9999999999999998
    vertex -32.2073492482356 24.075285489485193 1.9999999999999998
  endloop
endfacet
facet normal -0.0 -0.0 1.0
  outer loop
    vertex -32.2073492482356 24.075285489485193 1.9999999999999998
    vertex -31.396702094238215 19.76157699050043 1.9999999999999998
    vertex -29.98248853186512 21.175790552873526 1.9999999999999998
  endloop
endfacet
facet normal -0.0 -0.0 1.0
  outer loop
    vertex -29.98248853186512 21.175790552873526 1.9999999999999998
    vertex -31.396702094238215 19.76157699050043 1.9999999999999998
    vertex -28.08299359525346 17.218879028934175 1.9999999999999998
  endloop
endfacet
facet normal -0.0 -0.0 1.0
  outer loop
    vertex -29.98248853186512 21.175790552873526 1.9999999999999998
    vertex -28.08299359525346 17.218879028934175 1.9999999999999998
    vertex -27.08299359525346 18.950929836503054 1.9999999999999998
  endloop
endfacet
facet normal -0.0 -0.0 1.0
  outer loop
    vertex -27.08299359525346 18.950929836503054 1.9999999999999998
    vertex -28.08299359525346 17.218879028934175 1.9999999999999998
    vertex -24.22409831689379 15.6204722688601 1.9999999999999998
  endloop
endfacet
facet normal -0.0 -0.0 1.0
  outer loop
    vertex -27.08299359525346 18.950929836503054 1.9999999999999998
    vertex -24.22409831689379 15.6204722688601 1.9999999999999998
    vertex -23.706460226688748 17.552323921438237 1.9999999999999998
  endloop
endfacet
facet normal -0.0 -0.0 1.0
  outer loop
    vertex -23.706460226688748 17.552323921438237 1.9999999999999998
    vertex -24.22409831689379 15.6204722688601 1.9999999999999998
    vertex -20.08299359525346 15.075285489485191 1.9999999999999998
  endloop
endfacet
facet normal -0.0 -0.0 1.0
  outer loop
    vertex -23.706460226688748 17.552323921438237 1.9999999999999998
    vertex -20.08299359525346 15.075285489485191 1.9999999999999998
    vertex -20.08299359525346 17.07528548948519 1.9999999999999998
  endloop
endfacet
facet normal -0.0 -0.0 1.0
  outer loop
    vertex -20.08299359525346 17.07528548948519 1.9999999999999998
    vertex -20.08299359525346 15.075285489485191 1.9999999999999998
    vertex -15.94188887361313 15.620472268860096 1.9999999999999998
  endloop
endfacet
facet normal -0.0 -0.0 1.0
  outer loop
    vertex -20.08299359525346 17.07528548948519 1.9999999999999998
    vertex -15.94188887361313 15.620472268860096 1.9999999999999998
    vertex -16.45952696381817 17.552323921438234 1.9999999999999998
  endloop
endfacet
facet normal -0.0 -0.0 1.0
  outer loop
    vertex -16.45952696381817 17.552323921438234 1.9999999999999998
    vertex -15.94188887361313 15.620472268860096 1.9999999999999998
    vertex -13.082993595253463 18.950929836503047 1.9999999999999998
  endloop
endfacet
facet normal -0.0 -0.0 1.0
  outer loop
    vertex -13.082993595253463 18.950929836503047 1.9999999999999998
    vertex -15.94188887361313 15.620472268860096 1.9999999999999998
    vertex -12.082993595253459 17.218879028934168 1.9999999999999998
  endloop
endfacet
facet normal -0.0 -0.0 1.0
  outer loop
    vertex -13.082993595253463 18.950929836503047 1.9999999999999998
    vertex -12.082993595253459 17.218879028934168 1.9999999999999998
    vertex -10.183498658641799 21.17579055287352 1.9999999999999998
  endloop
endfacet
facet normal -0.0 -0.0 1.0
  outer loop
    vertex -10.183498658641799 21.17579055287352 1.9999999999999998
    vertex -12.082993595253459 17.218879028934168 1.9999999999999998
    vertex -8.769285096268701 19.761576990500426 1.9999999999999998
  endloop
endfacet
facet normal -0.0 -0.0 1.0
  outer loop
    vertex -10.183498658641799 21.17579055287352 1.9999999999999998
    vertex -8.769285096268701 19.761576990500426 1.9999999999999998
    vertex -7.9586379422713245 24.075285489485182 1.9999999999999998
  endloop
endfacet
facet normal -0.0 -0.0 1.0
  outer loop
    vertex -7.9586379422713245 24.075285489485182 1.9999999999999998
    vertex -8.769285096268701 19.761576990500426 1.9999999999999998
    vertex -6.226587134702446 23.075285489485182 1.9999999999999998
  endloop
endfacet
facet normal -0.0 -0.0 1.0
  outer loop
    vertex -7.9586379422713245 24.075285489485182 1.9999999999999998
    vertex -6.226587134702446 23.075285489485182 1.9999999999999998
    vertex -6.560032027206509 27.45181885804989 1.9999999999999998
  endloop
endfacet
facet normal -0.0 -0.0 1.0
  outer loop
    vertex -6.560032027206509 27.45181885804989 1.9999999999999998
    vertex -6.226587134702446 23.075285489485182 1.9999999999999998
    vertex -6.082993595253459 31.075285489485186 1.9999999999999998
  endloop
endfacet
facet normal -0.0 -0.0 1.0
  outer loop
    vertex -6.082993595253459 31.075285489485186 1.9999999999999998
    vertex -6.226587134702446 23.075285489485182 1.9999999999999998
    vertex -4.628180374628365 26.934180767844843 1.9999999999999998
  endloop
endfacet
facet normal -0.0 -0.0 1.0
  outer loop
    vertex -34.082993595253456 31.075285489485186 1.9999999999999998
    vertex -33.93940005580447 39.07528548948519 1.9999999999999998
    vertex -35.53780681587855 35.21639021112552 1.9999999999999998
  endloop
endfacet
facet normal -0.0 -0.0 1.0
  outer loop
    vertex -33.93940005580447 39.07528548948519 1.9999999999999998
    vertex -34.082993595253456 31.075285489485186 1.9999999999999998
    vertex -33.60595516330041 34.69875212092048 1.9999999999999998
  endloop
endfacet
facet normal -0.0 -0.0 1.0
  outer loop
    vertex -33.93940005580447 39.07528548948519 1.9999999999999998
    vertex -33.60595516330041 34.69875212092048 1.9999999999999998
    vertex -31.396702094238215 42.38899398846995 1.9999999999999998
  endloop
endfacet
facet normal -0.0 -0.0 1.0
  outer loop
    vertex -31.396702094238215 42.38899398846995 1.9999999999999998
    vertex -33.60595516330041 34.69875212092048 1.9999999999999998
    vertex -32.207349248235595 38.07528548948519 1.9999999999999998
  endloop
endfacet
facet normal -0.0 -0.0 1.0
  outer loop
    vertex -31.396702094238215 42.38899398846995 1.9999999999999998
    vertex -32.207349248235595 38.07528548948519 1.9999999999999998
    vertex -29.98248853186512 40.97478042609685 1.9999999999999998
  endloop
endfacet
facet normal -0.0 -0.0 1.0
  outer loop
    vertex -31.396702094238215 42.38899398846995 1.9999999999999998
    vertex -29.98248853186512 40.97478042609685 1.9999999999999998
    vertex -28.082993595253452 44.9316919500362 1.9999999999999998
  endloop
endfacet
facet normal -0.0 -0.0 1.0
  outer loop
    vertex -28.082993595253452 44.9316919500362 1.9999999999999998
    vertex -29.98248853186512 40.97478042609685 1.9999999999999998
    vertex -27.082993595253456 43.19964114246733 1.9999999999999998
  endloop
endfacet
facet normal -0.0 -0.0 1.0
  outer loop
    vertex -28.082993595253452 44.9316919500362 1.9999999999999998
    vertex -27.082993595253456 43.19964114246733 1.9999999999999998
    vertex -24.224098316893787 46.53009871011027 1.9999999999999998
  endloop
endfacet
facet normal -0.0 -0.0 1.0
  outer loop
    vertex -24.224098316893787 46.53009871011027 1.9999999999999998
    vertex -27.082993595253456 43.19964114246733 1.9999999999999998
    vertex -23.706460226688748 44.598247057532134 1.9999999999999998
  endloop
endfacet
facet normal -0.0 -0.0 1.0
  outer loop
    vertex -24.224098316893787 46.53009871011027 1.9999999999999998
    vertex -23.706460226688748 44.598247057532134 1.9999999999999998
    vertex -20.082993595253456 47.07528548948518 1.9999999999999998
  endloop
endfacet
facet normal -0.0 -0.0 1.0
  outer loop
    vertex -20.082993595253456 47.07528548948518 1.9999999999999998
    vertex -23.706460226688748 44.598247057532134 1.9999999999999998
    vertex -20.082993595253456 45.07528548948518 1.9999999999999998
  endloop
endfacet
facet normal -0.0 -0.0 1.0
  outer loop
    vertex -20.082993595253456 47.07528548948518 1.9999999999999998
    vertex -20.082993595253456 45.07528548948518 1.9999999999999998
    vertex -16.459526963818153 44.598247057532134 1.9999999999999998
  endloop
endfacet
facet normal -0.0 -0.0 1.0
  outer loop
    vertex -20.082993595253456 47.07528548948518 1.9999999999999998
    vertex -16.459526963818153 44.598247057532134 1.9999999999999998
    vertex -15.941888873613111 46.53009871011027 1.9999999999999998
  endloop
endfacet
facet normal -0.0 -0.0 1.0
  outer loop
    vertex -15.941888873613111 46.53009871011027 1.9999999999999998
    vertex -16.459526963818153 44.598247057532134 1.9999999999999998
    vertex -13.082993595253452 43.19964114246732 1.9999999999999998
  endloop
endfacet
facet normal -0.0 -0.0 1.0
  outer loop
    vertex -15.941888873613111 46.53009871011027 1.9999999999999998
    vertex -13.082993595253452 43.19964114246732 1.9999999999999998
    vertex -12.082993595253448 44.9316919500362 1.9999999999999998
  endloop
endfacet
facet normal -0.0 -0.0 1.0
  outer loop
    vertex -12.082993595253448 44.9316919500362 1.9999999999999998
    vertex -13.082993595253452 43.19964114246732 1.9999999999999998
    vertex -10.183498658641788 40.97478042609685 1.9999999999999998
  endloop
endfacet
facet normal -0.0 -0.0 1.0
  outer loop
    vertex -12.082993595253448 44.9316919500362 1.9999999999999998
    vertex -10.183498658641788 40.97478042609685 1.9999999999999998
    vertex -8.769285096268696 42.38899398846994 1.9999999999999998
  endloop
endfacet
facet normal -0.0 -0.0 1.0
  outer loop
    vertex -8.769285096268696 42.38899398846994 1.9999999999999998
    vertex -10.183498658641788 40.97478042609685 1.9999999999999998
    vertex -7.958637942271313 38.075285489485175 1.9999999999999998
  endloop
endfacet
facet normal -0.0 -0.0 1.0
  outer loop
    vertex -8.769285096268696 42.38899398846994 1.9999999999999998
    vertex -7.958637942271313 38.075285489485175 1.9999999999999998
    vertex -6.226587134702434 39.075285489485175 1.9999999999999998
  endloop
endfacet
facet normal -0.0 -0.0 1.0
  outer loop
    vertex -6.226587134702434 39.075285489485175 1.9999999999999998
    vertex -7.958637942271313 38.075285489485175 1.9999999999999998
    vertex -6.560032027206498 34.69875212092047 1.9999999999999998
  endloop
endfacet
facet normal -0.0 -0.0 1.0
  outer loop
    vertex -6.226587134702434 39.075285489485175 1.9999999999999998
    vertex -6.560032027206498 34.69875212092047 1.9999999999999998
    vertex -6.082993595253459 31.075285489485186 1.9999999999999998
  endloop
endfacet
facet normal -0.0 -0.0 1.0
  outer loop
    vertex -6.226587134702434 39.075285489485175 1.9999999999999998
    vertex -6.082993595253459 31.075285489485186 1.9999999999999998
    vertex -4.628180374628365 35.21639021112551 1.9999999999999998
  endloop
endfacet
facet normal -0.0 -0.0 1.0
  outer loop
    vertex -4.628180374628365 35.21639021112551 1.9999999999999998
    vertex -6.082993595253459 31.075285489485186 1.9999999999999998
    vertex -4.628180374628365 26.934180767844843 1.9999999999999998
  endloop
endfacet
facet normal -0.0 -0.0 1.0
  outer loop
    vertex -4.628180374628365 35.21639021112551 1.9999999999999998
    vertex -4.628180374628365 26.934180767844843 1.9999999999999998
    vertex -4.082993595253457 31.075285489485186 1.9999999999999998
  endloop
endfacet
facet normal 0.9914448613738105 0.13052619222005196 0.0
  outer loop
    vertex -34.082993595253456 31.075285489485186 0.0
    vertex -33.60595516330041 27.4518188580499 1.9999999999999998
    vertex -33.60595516330041 27.4518188580499 0.0
  endloop
endfacet
facet normal 0.9914448613738105 0.13052619222005196 0.0
  outer loop
    vertex -33.60595516330041 27.4518188580499 1.9999999999999998
    vertex -34.082993595253456 31.075285489485186 0.0
    vertex -34.082993595253456 31.075285489485186 1.9999999999999998
  endloop
endfacet
facet normal 0.3826834323650904 0.9238795325112865 0.0
  outer loop
    vertex -27.08299359525346 18.950929836503054 1.9999999999999998
    vertex -23.706460226688748 17.552323921438237 0.0
    vertex -27.08299359525346 18.950929836503054 0.0
  endloop
endfacet
facet normal 0.3826834323650904 0.9238795325112865 0.0
  outer loop
    vertex -23.706460226688748 17.552323921438237 0.0
    vertex -27.08299359525346 18.950929836503054 1.9999999999999998
    vertex -23.706460226688748 17.552323921438237 1.9999999999999998
  endloop
endfacet
facet normal -0.3826834323650902 0.9238795325112867 0.0
  outer loop
    vertex -28.082993595253452 44.9316919500362 1.9999999999999998
    vertex -24.224098316893787 46.53009871011027 0.0
    vertex -28.082993595253452 44.9316919500362 0.0
  endloop
endfacet
facet normal -0.3826834323650902 0.9238795325112867 0.0
  outer loop
    vertex -24.224098316893787 46.53009871011027 0.0
    vertex -28.082993595253452 44.9316919500362 1.9999999999999998
    vertex -24.224098316893787 46.53009871011027 1.9999999999999998
  endloop
endfacet
facet normal 0.608761429008722 0.7933533402912342 0.0
  outer loop
    vertex -12.082993595253448 44.9316919500362 1.9999999999999998
    vertex -8.769285096268696 42.38899398846994 0.0
    vertex -12.082993595253448 44.9316919500362 0.0
  endloop
endfacet
facet normal 0.608761429008722 0.7933533402912342 0.0
  outer loop
    vertex -8.769285096268696 42.38899398846994 0.0
    vertex -12.082993595253448 44.9316919500362 1.9999999999999998
    vertex -8.769285096268696 42.38899398846994 1.9999999999999998
  endloop
endfacet
facet normal -0.13052619222005107 0.9914448613738105 0.0
  outer loop
    vertex -20.08299359525346 17.07528548948519 1.9999999999999998
    vertex -16.45952696381817 17.552323921438234 0.0
    vertex -20.08299359525346 17.07528548948519 0.0
  endloop
endfacet
facet normal -0.13052619222005107 0.9914448613738105 0.0
  outer loop
    vertex -16.45952696381817 17.552323921438234 0.0
    vertex -20.08299359525346 17.07528548948519 1.9999999999999998
    vertex -16.45952696381817 17.552323921438234 1.9999999999999998
  endloop
endfacet
facet normal -0.38268343236509006 0.9238795325112868 0.0
  outer loop
    vertex -16.45952696381817 17.552323921438234 1.9999999999999998
    vertex -13.082993595253463 18.950929836503047 0.0
    vertex -16.45952696381817 17.552323921438234 0.0
  endloop
endfacet
facet normal -0.38268343236509006 0.9238795325112868 0.0
  outer loop
    vertex -13.082993595253463 18.950929836503047 0.0
    vertex -16.45952696381817 17.552323921438234 1.9999999999999998
    vertex -13.082993595253463 18.950929836503047 1.9999999999999998
  endloop
endfacet
facet normal -0.7933533402912353 0.6087614290087204 0.0
  outer loop
    vertex -7.9586379422713245 24.075285489485182 1.9999999999999998
    vertex -10.183498658641799 21.17579055287352 0.0
    vertex -10.183498658641799 21.17579055287352 1.9999999999999998
  endloop
endfacet
facet normal -0.7933533402912353 0.6087614290087204 0.0
  outer loop
    vertex -10.183498658641799 21.17579055287352 0.0
    vertex -7.9586379422713245 24.075285489485182 1.9999999999999998
    vertex -7.9586379422713245 24.075285489485182 0.0
  endloop
endfacet
facet normal -0.9238795325112867 0.38268343236509034 0.0
  outer loop
    vertex -6.560032027206509 27.45181885804989 1.9999999999999998
    vertex -7.9586379422713245 24.075285489485182 0.0
    vertex -7.9586379422713245 24.075285489485182 1.9999999999999998
  endloop
endfacet
facet normal -0.9238795325112867 0.38268343236509034 0.0
  outer loop
    vertex -7.9586379422713245 24.075285489485182 0.0
    vertex -6.560032027206509 27.45181885804989 1.9999999999999998
    vertex -6.560032027206509 27.45181885804989 0.0
  endloop
endfacet
facet normal -0.9914448613738104 0.13052619222005307 0.0
  outer loop
    vertex -6.082993595253459 31.075285489485186 1.9999999999999998
    vertex -6.560032027206509 27.45181885804989 0.0
    vertex -6.560032027206509 27.45181885804989 1.9999999999999998
  endloop
endfacet
facet normal -0.9914448613738104 0.13052619222005307 0.0
  outer loop
    vertex -6.560032027206509 27.45181885804989 0.0
    vertex -6.082993595253459 31.075285489485186 1.9999999999999998
    vertex -6.082993595253459 31.075285489485186 0.0
  endloop
endfacet
facet normal -0.6087614290087208 -0.793353340291235 -0.0
  outer loop
    vertex -10.183498658641788 40.97478042609685 1.9999999999999998
    vertex -13.082993595253452 43.19964114246732 0.0
    vertex -10.183498658641788 40.97478042609685 0.0
  endloop
endfacet
facet normal -0.6087614290087208 -0.793353340291235 -0.0
  outer loop
    vertex -13.082993595253452 43.19964114246732 0.0
    vertex -10.183498658641788 40.97478042609685 1.9999999999999998
    vertex -13.082993595253452 43.19964114246732 1.9999999999999998
  endloop
endfacet
facet normal 0.9914448613738105 0.130526192220052 0.0
  outer loop
    vertex -4.628180374628365 35.21639021112551 0.0
    vertex -4.082993595253457 31.075285489485186 1.9999999999999998
    vertex -4.082993595253457 31.075285489485186 0.0
  endloop
endfacet
facet normal 0.9914448613738105 0.130526192220052 0.0
  outer loop
    vertex -4.082993595253457 31.075285489485186 1.9999999999999998
    vertex -4.628180374628365 35.21639021112551 0.0
    vertex -4.628180374628365 35.21639021112551 1.9999999999999998
  endloop
endfacet
facet normal -0.1305261922200518 0.9914448613738104 0.0
  outer loop
    vertex -24.224098316893787 46.53009871011027 1.9999999999999998
    vertex -20.082993595253456 47.07528548948518 0.0
    vertex -24.224098316893787 46.53009871011027 0.0
  endloop
endfacet
facet normal -0.1305261922200518 0.9914448613738104 0.0
  outer loop
    vertex -20.082993595253456 47.07528548948518 0.0
    vertex -24.224098316893787 46.53009871011027 1.9999999999999998
    vertex -20.082993595253456 47.07528548948518 1.9999999999999998
  endloop
endfacet
facet normal -0.6087614290087205 -0.7933533402912354 -0.0
  outer loop
    vertex -28.08299359525346 17.218879028934175 1.9999999999999998
    vertex -31.396702094238215 19.76157699050043 0.0
    vertex -28.08299359525346 17.218879028934175 0.0
  endloop
endfacet
facet normal -0.6087614290087205 -0.7933533402912354 -0.0
  outer loop
    vertex -31.396702094238215 19.76157699050043 0.0
    vertex -28.08299359525346 17.218879028934175 1.9999999999999998
    vertex -31.396702094238215 19.76157699050043 1.9999999999999998
  endloop
endfacet
endsolid Untitled-55f0de2b
