solid Untitled-57254bc9
facet normal 0.7933533402912353 0.6087614290087205 0.0
  outer loop
    vertex 3.1819805153394642 3.1819805153394642 0.0
    vertex 3.897114317029974 2.2499999999999996 14.0
    vertex 3.897114317029974 2.2499999999999996 0.0
  endloop
endfacet
facet normal 0.7933533402912353 0.6087614290087205 0.0
  outer loop
    vertex 3.897114317029974 2.2499999999999996 14.0
    vertex 3.1819805153394642 3.1819805153394642 0.0
    vertex 3.1819805153394642 3.1819805153394642 14.0
  endloop
endfacet
facet normal 0.9238795325112868 0.3826834323650897 0.0
  outer loop
    vertex 3.897114317029974 2.2499999999999996 0.0
    vertex 4.346666218300808 1.1646857029613435 14.0
    vertex 4.346666218300808 1.1646857029613435 0.0
  endloop
endfacet
facet normal 0.9238795325112868 0.3826834323650897 0.0
  outer loop
    vertex 4.346666218300808 1.1646857029613435 14.0
    vertex 3.897114317029974 2.2499999999999996 0.0
    vertex 3.897114317029974 2.2499999999999996 14.0
  endloop
endfacet
facet normal 0.9914448613738105 0.13052619222005174 0.0
  outer loop
    vertex 4.346666218300808 1.1646857029613435 0.0
    vertex 4.5 0.0 14.0
    vertex 4.5 0.0 0.0
  endloop
endfacet
facet normal 0.9914448613738105 0.13052619222005174 0.0
  outer loop
    vertex 4.5 0.0 14.0
    vertex 4.346666218300808 1.1646857029613435 0.0
    vertex 4.346666218300808 1.1646857029613435 14.0
  endloop
endfacet
facet normal -0.0 -0.0 1.0
  outer loop
    vertex -4.3466662183008085 -1.1646857029613418 14.0
    vertex -4.346666218300808 1.1646857029613447 14.0
    vertex -4.5 5.51091059616309e-16 14.0
  endloop
endfacet
facet normal -0.0 -0.0 1.0
  outer loop
    vertex -4.346666218300808 1.1646857029613447 14.0
    vertex -4.3466662183008085 -1.1646857029613418 14.0
    vertex -3.897114317029975 -2.2499999999999987 14.0
  endloop
endfacet
facet normal -0.0 -0.0 1.0
  outer loop
    vertex -4.346666218300808 1.1646857029613447 14.0
    vertex -3.897114317029975 -2.2499999999999987 14.0
    vertex -3.8971143170299736 2.2500000000000013 14.0
  endloop
endfacet
facet normal -0.0 -0.0 1.0
  outer loop
    vertex -3.8971143170299736 2.2500000000000013 14.0
    vertex -3.897114317029975 -2.2499999999999987 14.0
    vertex -3.1819805153394656 -3.181980515339462 14.0
  endloop
endfacet
facet normal -0.0 -0.0 1.0
  outer loop
    vertex -3.8971143170299736 2.2500000000000013 14.0
    vertex -3.1819805153394656 -3.181980515339462 14.0
    vertex -3.2469572520344694 0.14060086578953124 14.0
  endloop
endfacet
facet normal -0.0 -0.0 1.0
  outer loop
    vertex -3.2469572520344694 0.14060086578953124 14.0
    vertex -3.1819805153394656 -3.181980515339462 14.0
    vertex -3.1727100484209116 -0.7045643679955552 14.0
  endloop
endfacet
facet normal -0.0 -0.0 1.0
  outer loop
    vertex -3.1727100484209116 -0.7045643679955552 14.0
    vertex -3.1819805153394656 -3.181980515339462 14.0
    vertex -2.250000000000002 -3.8971143170299727 14.0
  endloop
endfacet
facet normal -0.0 -0.0 1.0
  outer loop
    vertex -3.1727100484209116 -0.7045643679955552 14.0
    vertex -2.250000000000002 -3.8971143170299727 14.0
    vertex -2.8822478981587287 -1.501714704449414 14.0
  endloop
endfacet
facet normal -0.0 -0.0 1.0
  outer loop
    vertex -2.8822478981587287 -1.501714704449414 14.0
    vertex -2.250000000000002 -3.8971143170299727 14.0
    vertex -2.3953653167768887 -2.196525665495934 14.0
  endloop
endfacet
facet normal -0.0 -0.0 1.0
  outer loop
    vertex -2.3953653167768887 -2.196525665495934 14.0
    vertex -2.250000000000002 -3.8971143170299727 14.0
    vertex -1.745242547585056 -2.7416470323691966 14.0
  endloop
endfacet
facet normal -0.0 -0.0 1.0
  outer loop
    vertex -1.745242547585056 -2.7416470323691966 14.0
    vertex -2.250000000000002 -3.8971143170299727 14.0
    vertex -1.1646857029613469 -4.346666218300807 14.0
  endloop
endfacet
facet normal -0.0 -0.0 1.0
  outer loop
    vertex -1.745242547585056 -2.7416470323691966 14.0
    vertex -1.1646857029613469 -4.346666218300807 14.0
    vertex -0.9761843829249768 -3.099929684772443 14.0
  endloop
endfacet
facet normal -0.0 -0.0 1.0
  outer loop
    vertex -0.9761843829249768 -3.099929684772443 14.0
    vertex -1.1646857029613469 -4.346666218300807 14.0
    vertex -8.266365894244633e-16 -4.5 14.0
  endloop
endfacet
facet normal -0.0 -0.0 1.0
  outer loop
    vertex -0.9761843829249768 -3.099929684772443 14.0
    vertex -8.266365894244633e-16 -4.5 14.0
    vertex -0.1406008657895314 -3.2469572520344694 14.0
  endloop
endfacet
facet normal -0.0 -0.0 1.0
  outer loop
    vertex -0.1406008657895314 -3.2469572520344694 14.0
    vertex -8.266365894244633e-16 -4.5 14.0
    vertex 0.7045643679955534 -3.1727100484209116 14.0
  endloop
endfacet
facet normal -0.0 -0.0 1.0
  outer loop
    vertex 0.7045643679955534 -3.1727100484209116 14.0
    vertex -8.266365894244633e-16 -4.5 14.0
    vertex 1.1646857029613413 -4.3466662183008085 14.0
  endloop
endfacet
facet normal -0.0 -0.0 1.0
  outer loop
    vertex 0.7045643679955534 -3.1727100484209116 14.0
    vertex 1.1646857029613413 -4.3466662183008085 14.0
    vertex 1.501714704449415 -2.8822478981587287 14.0
  endloop
endfacet
facet normal -0.0 -0.0 1.0
  outer loop
    vertex 1.501714704449415 -2.8822478981587287 14.0
    vertex 1.1646857029613413 -4.3466662183008085 14.0
    vertex 2.249999999999997 -3.8971143170299753 14.0
  endloop
endfacet
facet normal -0.0 -0.0 1.0
  outer loop
    vertex 1.501714704449415 -2.8822478981587287 14.0
    vertex 2.249999999999997 -3.8971143170299753 14.0
    vertex 2.196525665495934 -2.3953653167768887 14.0
  endloop
endfacet
facet normal -0.0 -0.0 1.0
  outer loop
    vertex 2.196525665495934 -2.3953653167768887 14.0
    vertex 2.249999999999997 -3.8971143170299753 14.0
    vertex 2.7416470323691966 -1.7452425475850561 14.0
  endloop
endfacet
facet normal -0.0 -0.0 1.0
  outer loop
    vertex 2.7416470323691966 -1.7452425475850561 14.0
    vertex 2.249999999999997 -3.8971143170299753 14.0
    vertex 3.1819805153394634 -3.1819805153394647 14.0
  endloop
endfacet
facet normal -0.0 -0.0 1.0
  outer loop
    vertex 2.7416470323691966 -1.7452425475850561 14.0
    vertex 3.1819805153394634 -3.1819805153394647 14.0
    vertex 3.0999296847724436 -0.9761843829249763 14.0
  endloop
endfacet
facet normal -0.0 -0.0 1.0
  outer loop
    vertex 3.0999296847724436 -0.9761843829249763 14.0
    vertex 3.1819805153394634 -3.1819805153394647 14.0
    vertex 3.2469572520344694 -0.14060086578953002 14.0
  endloop
endfacet
facet normal -0.0 -0.0 1.0
  outer loop
    vertex 3.2469572520344694 -0.14060086578953002 14.0
    vertex 3.1819805153394634 -3.1819805153394647 14.0
    vertex 3.8971143170299727 -2.250000000000002 14.0
  endloop
endfacet
facet normal -0.0 -0.0 1.0
  outer loop
    vertex -3.2469572520344694 0.14060086578953124 14.0
    vertex -3.1819805153394642 3.1819805153394642 14.0
    vertex -3.8971143170299736 2.2500000000000013 14.0
  endloop
endfacet
facet normal -0.0 -0.0 1.0
  outer loop
    vertex -3.1819805153394642 3.1819805153394642 14.0
    vertex -3.2469572520344694 0.14060086578953124 14.0
    vertex -3.0999296847724436 0.9761843829249767 14.0
  endloop
endfacet
facet normal -0.0 -0.0 1.0
  outer loop
    vertex -3.1819805153394642 3.1819805153394642 14.0
    vertex -3.0999296847724436 0.9761843829249767 14.0
    vertex -2.249999999999999 3.897114317029974 14.0
  endloop
endfacet
facet normal -0.0 -0.0 1.0
  outer loop
    vertex -2.249999999999999 3.897114317029974 14.0
    vertex -3.0999296847724436 0.9761843829249767 14.0
    vertex -2.741647032369198 1.7452425475850546 14.0
  endloop
endfacet
facet normal -0.0 -0.0 1.0
  outer loop
    vertex -2.249999999999999 3.897114317029974 14.0
    vertex -2.741647032369198 1.7452425475850546 14.0
    vertex -2.1965256654959346 2.3953653167768882 14.0
  endloop
endfacet
facet normal -0.0 -0.0 1.0
  outer loop
    vertex -2.249999999999999 3.897114317029974 14.0
    vertex -2.1965256654959346 2.3953653167768882 14.0
    vertex -1.1646857029613429 4.346666218300808 14.0
  endloop
endfacet
facet normal -0.0 -0.0 1.0
  outer loop
    vertex -1.1646857029613429 4.346666218300808 14.0
    vertex -2.1965256654959346 2.3953653167768882 14.0
    vertex -1.5017147044494157 2.8822478981587283 14.0
  endloop
endfacet
facet normal -0.0 -0.0 1.0
  outer loop
    vertex -1.1646857029613429 4.346666218300808 14.0
    vertex -1.5017147044494157 2.8822478981587283 14.0
    vertex -0.7045643679955556 3.1727100484209116 14.0
  endloop
endfacet
facet normal -0.0 -0.0 1.0
  outer loop
    vertex -1.1646857029613429 4.346666218300808 14.0
    vertex -0.7045643679955556 3.1727100484209116 14.0
    vertex 2.755455298081545e-16 4.5 14.0
  endloop
endfacet
facet normal -0.0 -0.0 1.0
  outer loop
    vertex 2.755455298081545e-16 4.5 14.0
    vertex -0.7045643679955556 3.1727100484209116 14.0
    vertex 0.14060086578953035 3.2469572520344694 14.0
  endloop
endfacet
facet normal -0.0 -0.0 1.0
  outer loop
    vertex 2.755455298081545e-16 4.5 14.0
    vertex 0.14060086578953035 3.2469572520344694 14.0
    vertex 1.1646857029613444 4.346666218300808 14.0
  endloop
endfacet
facet normal -0.0 -0.0 1.0
  outer loop
    vertex 1.1646857029613444 4.346666218300808 14.0
    vertex 0.14060086578953035 3.2469572520344694 14.0
    vertex 0.9761843829249764 3.0999296847724436 14.0
  endloop
endfacet
facet normal -0.0 -0.0 1.0
  outer loop
    vertex 1.1646857029613444 4.346666218300808 14.0
    vertex 0.9761843829249764 3.0999296847724436 14.0
    vertex 1.7452425475850546 2.741647032369198 14.0
  endloop
endfacet
facet normal -0.0 -0.0 1.0
  outer loop
    vertex 1.1646857029613444 4.346666218300808 14.0
    vertex 1.7452425475850546 2.741647032369198 14.0
    vertex 2.2500000000000004 3.897114317029974 14.0
  endloop
endfacet
facet normal -0.0 -0.0 1.0
  outer loop
    vertex 2.2500000000000004 3.897114317029974 14.0
    vertex 1.7452425475850546 2.741647032369198 14.0
    vertex 2.395365316776888 2.196525665495935 14.0
  endloop
endfacet
facet normal -0.0 -0.0 1.0
  outer loop
    vertex 2.2500000000000004 3.897114317029974 14.0
    vertex 2.395365316776888 2.196525665495935 14.0
    vertex 3.1819805153394642 3.1819805153394642 14.0
  endloop
endfacet
facet normal -0.0 -0.0 1.0
  outer loop
    vertex 3.1819805153394642 3.1819805153394642 14.0
    vertex 2.395365316776888 2.196525665495935 14.0
    vertex 2.8822478981587283 1.5017147044494157 14.0
  endloop
endfacet
facet normal -0.0 -0.0 1.0
  outer loop
    vertex 3.1819805153394642 3.1819805153394642 14.0
    vertex 2.8822478981587283 1.5017147044494157 14.0
    vertex 3.1727100484209116 0.7045643679955559 14.0
  endloop
endfacet
facet normal -0.0 -0.0 1.0
  outer loop
    vertex 3.1819805153394642 3.1819805153394642 14.0
    vertex 3.1727100484209116 0.7045643679955559 14.0
    vertex 3.2469572520344694 -0.14060086578953002 14.0
  endloop
endfacet
facet normal -0.0 -0.0 1.0
  outer loop
    vertex 3.1819805153394642 3.1819805153394642 14.0
    vertex 3.2469572520344694 -0.14060086578953002 14.0
    vertex 3.897114317029974 2.2499999999999996 14.0
  endloop
endfacet
facet normal -0.0 -0.0 1.0
  outer loop
    vertex 3.897114317029974 2.2499999999999996 14.0
    vertex 3.2469572520344694 -0.14060086578953002 14.0
    vertex 3.8971143170299727 -2.250000000000002 14.0
  endloop
endfacet
facet normal -0.0 -0.0 1.0
  outer loop
    vertex 3.897114317029974 2.2499999999999996 14.0
    vertex 3.8971143170299727 -2.250000000000002 14.0
    vertex 4.346666218300807 -1.164685702961347 14.0
  endloop
endfacet
facet normal -0.0 -0.0 1.0
  outer loop
    vertex 3.897114317029974 2.2499999999999996 14.0
    vertex 4.346666218300807 -1.164685702961347 14.0
    vertex 4.346666218300808 1.1646857029613435 14.0
  endloop
endfacet
facet normal -0.0 -0.0 1.0
  outer loop
    vertex 4.346666218300808 1.1646857029613435 14.0
    vertex 4.346666218300807 -1.164685702961347 14.0
    vertex 4.5 0.0 14.0
  endloop
endfacet
facet normal 0.9914448613738104 -0.13052619222005193 0.0
  outer loop
    vertex 4.5 0.0 0.0
    vertex 4.346666218300807 -1.164685702961347 14.0
    vertex 4.346666218300807 -1.164685702961347 0.0
  endloop
endfacet
facet normal 0.9914448613738104 -0.13052619222005193 0.0
  outer loop
    vertex 4.346666218300807 -1.164685702961347 14.0
    vertex 4.5 0.0 0.0
    vertex 4.5 0.0 14.0
  endloop
endfacet
facet normal 0.9238795325112864 -0.3826834323650906 0.0
  outer loop
    vertex 4.346666218300807 -1.164685702961347 0.0
    vertex 3.8971143170299727 -2.250000000000002 14.0
    vertex 3.8971143170299727 -2.250000000000002 0.0
  endloop
endfacet
facet normal 0.9238795325112864 -0.3826834323650906 0.0
  outer loop
    vertex 3.8971143170299727 -2.250000000000002 14.0
    vertex 4.346666218300807 -1.164685702961347 0.0
    vertex 4.346666218300807 -1.164685702961347 14.0
  endloop
endfacet
facet normal 0.7933533402912349 -0.6087614290087209 0.0
  outer loop
    vertex 3.8971143170299727 -2.250000000000002 0.0
    vertex 3.1819805153394634 -3.1819805153394647 14.0
    vertex 3.1819805153394634 -3.1819805153394647 0.0
  endloop
endfacet
facet normal 0.7933533402912349 -0.6087614290087209 0.0
  outer loop
    vertex 3.1819805153394634 -3.1819805153394647 14.0
    vertex 3.8971143170299727 -2.250000000000002 0.0
    vertex 3.8971143170299727 -2.250000000000002 14.0
  endloop
endfacet
facet normal 0.60876142900872 -0.7933533402912357 0.0
  outer loop
    vertex 3.1819805153394634 -3.1819805153394647 14.0
    vertex 2.249999999999997 -3.8971143170299753 0.0
    vertex 3.1819805153394634 -3.1819805153394647 0.0
  endloop
endfacet
facet normal 0.60876142900872 -0.7933533402912357 0.0
  outer loop
    vertex 2.249999999999997 -3.8971143170299753 0.0
    vertex 3.1819805153394634 -3.1819805153394647 14.0
    vertex 2.249999999999997 -3.8971143170299753 14.0
  endloop
endfacet
facet normal 0.3826834323650895 -0.9238795325112871 0.0
  outer loop
    vertex 2.249999999999997 -3.8971143170299753 14.0
    vertex 1.1646857029613413 -4.3466662183008085 0.0
    vertex 2.249999999999997 -3.8971143170299753 0.0
  endloop
endfacet
facet normal 0.3826834323650895 -0.9238795325112871 0.0
  outer loop
    vertex 1.1646857029613413 -4.3466662183008085 0.0
    vertex 2.249999999999997 -3.8971143170299753 14.0
    vertex 1.1646857029613413 -4.3466662183008085 14.0
  endloop
endfacet
facet normal 0.6087614290087209 0.793353340291235 0.0
  outer loop
    vertex 2.2500000000000004 3.897114317029974 14.0
    vertex 3.1819805153394642 3.1819805153394642 0.0
    vertex 2.2500000000000004 3.897114317029974 0.0
  endloop
endfacet
facet normal 0.6087614290087209 0.793353340291235 0.0
  outer loop
    vertex 3.1819805153394642 3.1819805153394642 0.0
    vertex 2.2500000000000004 3.897114317029974 14.0
    vertex 3.1819805153394642 3.1819805153394642 14.0
  endloop
endfacet
facet normal -0.6425133856002141 -0.7662744608327688 -0.0
  outer loop
    vertex 2.395365316776888 2.196525665495935 14.0
    vertex 1.7452425475850546 2.741647032369198 0.0
    vertex 2.395365316776888 2.196525665495935 0.0
  endloop
endfacet
facet normal -0.6425133856002141 -0.7662744608327688 -0.0
  outer loop
    vertex 1.7452425475850546 2.741647032369198 0.0
    vertex 2.395365316776888 2.196525665495935 14.0
    vertex 1.7452425475850546 2.741647032369198 14.0
  endloop
endfacet
facet normal 0.4222938486484874 0.9064589926707378 0.0
  outer loop
    vertex -1.745242547585056 -2.7416470323691966 14.0
    vertex -0.9761843829249768 -3.099929684772443 0.0
    vertex -1.745242547585056 -2.7416470323691966 0.0
  endloop
endfacet
facet normal 0.4222938486484874 0.9064589926707378 0.0
  outer loop
    vertex -0.9761843829249768 -3.099929684772443 0.0
    vertex -1.745242547585056 -2.7416470323691966 14.0
    vertex -0.9761843829249768 -3.099929684772443 14.0
  endloop
endfacet
facet normal 0.8189466971268602 0.5738695908174667 0.0
  outer loop
    vertex -2.8822478981587287 -1.501714704449414 0.0
    vertex -2.3953653167768887 -2.196525665495934 14.0
    vertex -2.3953653167768887 -2.196525665495934 0.0
  endloop
endfacet
facet normal 0.8189466971268602 0.5738695908174667 0.0
  outer loop
    vertex -2.3953653167768887 -2.196525665495934 14.0
    vertex -2.8822478981587287 -1.501714704449414 0.0
    vertex -2.8822478981587287 -1.501714704449414 14.0
  endloop
endfacet
facet normal 0.1305261922200513 -0.9914448613738106 0.0
  outer loop
    vertex 1.1646857029613413 -4.3466662183008085 14.0
    vertex -8.266365894244633e-16 -4.5 0.0
    vertex 1.1646857029613413 -4.3466662183008085 0.0
  endloop
endfacet
facet normal 0.1305261922200513 -0.9914448613738106 0.0
  outer loop
    vertex -8.266365894244633e-16 -4.5 0.0
    vertex 1.1646857029613413 -4.3466662183008085 14.0
    vertex -8.266365894244633e-16 -4.5 14.0
  endloop
endfacet
facet normal 0.9064589926707377 -0.4222938486484872 0.0
  outer loop
    vertex -2.741647032369198 1.7452425475850546 0.0
    vertex -3.0999296847724436 0.9761843829249767 14.0
    vertex -3.0999296847724436 0.9761843829249767 0.0
  endloop
endfacet
facet normal 0.9064589926707377 -0.4222938486484872 0.0
  outer loop
    vertex -3.0999296847724436 0.9761843829249767 14.0
    vertex -2.741647032369198 1.7452425475850546 0.0
    vertex -2.741647032369198 1.7452425475850546 14.0
  endloop
endfacet
facet normal -0.9238795325112867 0.3826834323650901 0.0
  outer loop
    vertex -3.8971143170299736 2.2500000000000013 14.0
    vertex -4.346666218300808 1.1646857029613447 0.0
    vertex -4.346666218300808 1.1646857029613447 14.0
  endloop
endfacet
facet normal -0.9238795325112867 0.3826834323650901 0.0
  outer loop
    vertex -4.346666218300808 1.1646857029613447 0.0
    vertex -3.8971143170299736 2.2500000000000013 14.0
    vertex -3.8971143170299736 2.2500000000000013 0.0
  endloop
endfacet
facet normal 0.7662744608327688 -0.6425133856002142 0.0
  outer loop
    vertex -2.1965256654959346 2.3953653167768882 0.0
    vertex -2.741647032369198 1.7452425475850546 14.0
    vertex -2.741647032369198 1.7452425475850546 0.0
  endloop
endfacet
facet normal 0.7662744608327688 -0.6425133856002142 0.0
  outer loop
    vertex -2.741647032369198 1.7452425475850546 14.0
    vertex -2.1965256654959346 2.3953653167768882 0.0
    vertex -2.1965256654959346 2.3953653167768882 14.0
  endloop
endfacet
facet normal 0.9961634394659549 0.0875122955438778 0.0
  outer loop
    vertex -3.2469572520344694 0.14060086578953124 0.0
    vertex -3.1727100484209116 -0.7045643679955552 14.0
    vertex -3.1727100484209116 -0.7045643679955552 0.0
  endloop
endfacet
facet normal 0.9961634394659549 0.0875122955438778 0.0
  outer loop
    vertex -3.1727100484209116 -0.7045643679955552 14.0
    vertex -3.2469572520344694 0.14060086578953124 0.0
    vertex -3.2469572520344694 0.14060086578953124 14.0
  endloop
endfacet
facet normal 0.08751229554387743 -0.9961634394659549 0.0
  outer loop
    vertex 0.14060086578953035 3.2469572520344694 14.0
    vertex -0.7045643679955556 3.1727100484209116 0.0
    vertex 0.14060086578953035 3.2469572520344694 0.0
  endloop
endfacet
facet normal 0.08751229554387743 -0.9961634394659549 0.0
  outer loop
    vertex -0.7045643679955556 3.1727100484209116 0.0
    vertex 0.14060086578953035 3.2469572520344694 14.0
    vertex -0.7045643679955556 3.1727100484209116 14.0
  endloop
endfacet
facet normal -0.08751229554387753 0.9961634394659549 0.0
  outer loop
    vertex -0.1406008657895314 -3.2469572520344694 14.0
    vertex 0.7045643679955534 -3.1727100484209116 0.0
    vertex -0.1406008657895314 -3.2469572520344694 0.0
  endloop
endfacet
facet normal -0.08751229554387753 0.9961634394659549 0.0
  outer loop
    vertex 0.7045643679955534 -3.1727100484209116 0.0
    vertex -0.1406008657895314 -3.2469572520344694 14.0
    vertex 0.7045643679955534 -3.1727100484209116 14.0
  endloop
endfacet
facet normal -0.13052619222005207 -0.9914448613738105 -0.0
  outer loop
    vertex -8.266365894244633e-16 -4.5 14.0
    vertex -1.1646857029613469 -4.346666218300807 0.0
    vertex -8.266365894244633e-16 -4.5 0.0
  endloop
endfacet
facet normal -0.13052619222005207 -0.9914448613738105 -0.0
  outer loop
    vertex -1.1646857029613469 -4.346666218300807 0.0
    vertex -8.266365894244633e-16 -4.5 14.0
    vertex -1.1646857029613469 -4.346666218300807 14.0
  endloop
endfacet
facet normal -0.9238795325112868 -0.3826834323650895 -0.0
  outer loop
    vertex -4.3466662183008085 -1.1646857029613418 14.0
    vertex -3.897114317029975 -2.2499999999999987 0.0
    vertex -3.897114317029975 -2.2499999999999987 14.0
  endloop
endfacet
facet normal -0.9238795325112868 -0.3826834323650895 -0.0
  outer loop
    vertex -3.897114317029975 -2.2499999999999987 0.0
    vertex -4.3466662183008085 -1.1646857029613418 14.0
    vertex -4.3466662183008085 -1.1646857029613418 0.0
  endloop
endfacet
facet normal -0.9914448613738105 0.13052619222005166 0.0
  outer loop
    vertex -4.346666218300808 1.1646857029613447 14.0
    vertex -4.5 5.51091059616309e-16 0.0
    vertex -4.5 5.51091059616309e-16 14.0
  endloop
endfacet
facet normal -0.9914448613738105 0.13052619222005166 0.0
  outer loop
    vertex -4.5 5.51091059616309e-16 0.0
    vertex -4.346666218300808 1.1646857029613447 14.0
    vertex -4.346666218300808 1.1646857029613447 0.0
  endloop
endfacet
facet normal -0.6087614290087213 -0.7933533402912347 -0.0
  outer loop
    vertex -2.250000000000002 -3.8971143170299727 14.0
    vertex -3.1819805153394656 -3.181980515339462 0.0
    vertex -2.250000000000002 -3.8971143170299727 0.0
  endloop
endfacet
facet normal -0.6087614290087213 -0.7933533402912347 -0.0
  outer loop
    vertex -3.1819805153394656 -3.181980515339462 0.0
    vertex -2.250000000000002 -3.8971143170299727 14.0
    vertex -3.1819805153394656 -3.181980515339462 14.0
  endloop
endfacet
facet normal -0.9848698421525088 0.1732956837849477 0.0
  outer loop
    vertex 3.2469572520344694 -0.14060086578953002 14.0
    vertex 3.0999296847724436 -0.9761843829249763 0.0
    vertex 3.0999296847724436 -0.9761843829249763 14.0
  endloop
endfacet
facet normal -0.9848698421525088 0.1732956837849477 0.0
  outer loop
    vertex 3.0999296847724436 -0.9761843829249763 0.0
    vertex 3.2469572520344694 -0.14060086578953002 14.0
    vertex 3.2469572520344694 -0.14060086578953002 0.0
  endloop
endfacet
facet normal 0.6425133856002143 0.7662744608327687 0.0
  outer loop
    vertex -2.3953653167768887 -2.196525665495934 14.0
    vertex -1.745242547585056 -2.7416470323691966 0.0
    vertex -2.3953653167768887 -2.196525665495934 0.0
  endloop
endfacet
facet normal 0.6425133856002143 0.7662744608327687 0.0
  outer loop
    vertex -1.745242547585056 -2.7416470323691966 0.0
    vertex -2.3953653167768887 -2.196525665495934 14.0
    vertex -1.745242547585056 -2.7416470323691966 14.0
  endloop
endfacet
facet normal -0.5738695908174674 0.81894669712686 0.0
  outer loop
    vertex 1.501714704449415 -2.8822478981587287 14.0
    vertex 2.196525665495934 -2.3953653167768887 0.0
    vertex 1.501714704449415 -2.8822478981587287 0.0
  endloop
endfacet
facet normal -0.5738695908174674 0.81894669712686 0.0
  outer loop
    vertex 2.196525665495934 -2.3953653167768887 0.0
    vertex 1.501714704449415 -2.8822478981587287 14.0
    vertex 2.196525665495934 -2.3953653167768887 14.0
  endloop
endfacet
facet normal -0.9914448613738106 -0.1305261922200513 -0.0
  outer loop
    vertex -4.5 5.51091059616309e-16 14.0
    vertex -4.3466662183008085 -1.1646857029613418 0.0
    vertex -4.3466662183008085 -1.1646857029613418 14.0
  endloop
endfacet
facet normal -0.9914448613738106 -0.1305261922200513 -0.0
  outer loop
    vertex -4.3466662183008085 -1.1646857029613418 0.0
    vertex -4.5 5.51091059616309e-16 14.0
    vertex -4.5 5.51091059616309e-16 0.0
  endloop
endfacet
facet normal -0.8189466971268596 -0.5738695908174678 -0.0
  outer loop
    vertex 2.395365316776888 2.196525665495935 14.0
    vertex 2.8822478981587283 1.5017147044494157 0.0
    vertex 2.8822478981587283 1.5017147044494157 14.0
  endloop
endfacet
facet normal -0.8189466971268596 -0.5738695908174678 -0.0
  outer loop
    vertex 2.8822478981587283 1.5017147044494157 0.0
    vertex 2.395365316776888 2.196525665495935 14.0
    vertex 2.395365316776888 2.196525665495935 0.0
  endloop
endfacet
facet normal 0.5738695908174676 -0.8189466971268596 0.0
  outer loop
    vertex -1.5017147044494157 2.8822478981587283 14.0
    vertex -2.1965256654959346 2.3953653167768882 0.0
    vertex -1.5017147044494157 2.8822478981587283 0.0
  endloop
endfacet
facet normal 0.5738695908174676 -0.8189466971268596 0.0
  outer loop
    vertex -2.1965256654959346 2.3953653167768882 0.0
    vertex -1.5017147044494157 2.8822478981587283 14.0
    vertex -2.1965256654959346 2.3953653167768882 14.0
  endloop
endfacet
facet normal 0.9848698421525086 -0.17329568378494786 0.0
  outer loop
    vertex -3.0999296847724436 0.9761843829249767 0.0
    vertex -3.2469572520344694 0.14060086578953124 14.0
    vertex -3.2469572520344694 0.14060086578953124 0.0
  endloop
endfacet
facet normal 0.9848698421525086 -0.17329568378494786 0.0
  outer loop
    vertex -3.2469572520344694 0.14060086578953124 14.0
    vertex -3.0999296847724436 0.9761843829249767 0.0
    vertex -3.0999296847724436 0.9761843829249767 14.0
  endloop
endfacet
facet normal -0.7662744608327685 0.6425133856002144 0.0
  outer loop
    vertex 2.7416470323691966 -1.7452425475850561 14.0
    vertex 2.196525665495934 -2.3953653167768887 0.0
    vertex 2.196525665495934 -2.3953653167768887 14.0
  endloop
endfacet
facet normal -0.7662744608327685 0.6425133856002144 0.0
  outer loop
    vertex 2.196525665495934 -2.3953653167768887 0.0
    vertex 2.7416470323691966 -1.7452425475850561 14.0
    vertex 2.7416470323691966 -1.7452425475850561 0.0
  endloop
endfacet
facet normal -0.17329568378494772 -0.9848698421525088 -0.0
  outer loop
    vertex 0.9761843829249764 3.0999296847724436 14.0
    vertex 0.14060086578953035 3.2469572520344694 0.0
    vertex 0.9761843829249764 3.0999296847724436 0.0
  endloop
endfacet
facet normal -0.17329568378494772 -0.9848698421525088 -0.0
  outer loop
    vertex 0.14060086578953035 3.2469572520344694 0.0
    vertex 0.9761843829249764 3.0999296847724436 14.0
    vertex 0.14060086578953035 3.2469572520344694 14.0
  endloop
endfacet
facet normal -0.3826834323650897 0.9238795325112867 0.0
  outer loop
    vertex -2.249999999999999 3.897114317029974 14.0
    vertex -1.1646857029613429 4.346666218300808 0.0
    vertex -2.249999999999999 3.897114317029974 0.0
  endloop
endfacet
facet normal -0.3826834323650897 0.9238795325112867 0.0
  outer loop
    vertex -1.1646857029613429 4.346666218300808 0.0
    vertex -2.249999999999999 3.897114317029974 14.0
    vertex -1.1646857029613429 4.346666218300808 14.0
  endloop
endfacet
facet normal 0.17329568378494825 0.9848698421525086 0.0
  outer loop
    vertex -0.9761843829249768 -3.099929684772443 14.0
    vertex -0.1406008657895314 -3.2469572520344694 0.0
    vertex -0.9761843829249768 -3.099929684772443 0.0
  endloop
endfacet
facet normal 0.17329568378494825 0.9848698421525086 0.0
  outer loop
    vertex -0.1406008657895314 -3.2469572520344694 0.0
    vertex -0.9761843829249768 -3.099929684772443 14.0
    vertex -0.1406008657895314 -3.2469572520344694 14.0
  endloop
endfacet
facet normal 0.3826834323650897 0.9238795325112867 0.0
  outer loop
    vertex 1.1646857029613444 4.346666218300808 14.0
    vertex 2.2500000000000004 3.897114317029974 0.0
    vertex 1.1646857029613444 4.346666218300808 0.0
  endloop
endfacet
facet normal 0.3826834323650897 0.9238795325112867 0.0
  outer loop
    vertex 2.2500000000000004 3.897114317029974 0.0
    vertex 1.1646857029613444 4.346666218300808 14.0
    vertex 2.2500000000000004 3.897114317029974 14.0
  endloop
endfacet
facet normal -0.42229384864848724 -0.9064589926707379 -0.0
  outer loop
    vertex 1.7452425475850546 2.741647032369198 14.0
    vertex 0.9761843829249764 3.0999296847724436 0.0
    vertex 1.7452425475850546 2.741647032369198 0.0
  endloop
endfacet
facet normal -0.42229384864848724 -0.9064589926707379 -0.0
  outer loop
    vertex 0.9761843829249764 3.0999296847724436 0.0
    vertex 1.7452425475850546 2.741647032369198 14.0
    vertex 0.9761843829249764 3.0999296847724436 14.0
  endloop
endfacet
facet normal -0.7933533402912349 0.6087614290087209 0.0
  outer loop
    vertex -3.1819805153394642 3.1819805153394642 14.0
    vertex -3.8971143170299736 2.2500000000000013 0.0
    vertex -3.8971143170299736 2.2500000000000013 14.0
  endloop
endfacet
facet normal -0.7933533402912349 0.6087614290087209 0.0
  outer loop
    vertex -3.8971143170299736 2.2500000000000013 0.0
    vertex -3.1819805153394642 3.1819805153394642 14.0
    vertex -3.1819805153394642 3.1819805153394642 0.0
  endloop
endfacet
facet normal -0.34235645655229346 0.9395701446177172 0.0
  outer loop
    vertex 0.7045643679955534 -3.1727100484209116 14.0
    vertex 1.501714704449415 -2.8822478981587287 0.0
    vertex 0.7045643679955534 -3.1727100484209116 0.0
  endloop
endfacet
facet normal -0.34235645655229346 0.9395701446177172 0.0
  outer loop
    vertex 1.501714704449415 -2.8822478981587287 0.0
    vertex 0.7045643679955534 -3.1727100484209116 14.0
    vertex 1.501714704449415 -2.8822478981587287 14.0
  endloop
endfacet
facet normal -0.7933533402912354 -0.6087614290087207 -0.0
  outer loop
    vertex -3.897114317029975 -2.2499999999999987 14.0
    vertex -3.1819805153394656 -3.181980515339462 0.0
    vertex -3.1819805153394656 -3.181980515339462 14.0
  endloop
endfacet
facet normal -0.7933533402912354 -0.6087614290087207 -0.0
  outer loop
    vertex -3.1819805153394656 -3.181980515339462 0.0
    vertex -3.897114317029975 -2.2499999999999987 14.0
    vertex -3.897114317029975 -2.2499999999999987 0.0
  endloop
endfacet
facet normal 0.13052619222005168 0.9914448613738105 0.0
  outer loop
    vertex 2.755455298081545e-16 4.5 14.0
    vertex 1.1646857029613444 4.346666218300808 0.0
    vertex 2.755455298081545e-16 4.5 0.0
  endloop
endfacet
facet normal 0.13052619222005168 0.9914448613738105 0.0
  outer loop
    vertex 1.1646857029613444 4.346666218300808 0.0
    vertex 2.755455298081545e-16 4.5 14.0
    vertex 1.1646857029613444 4.346666218300808 14.0
  endloop
endfacet
facet normal -0.13052619222005174 0.9914448613738104 0.0
  outer loop
    vertex -1.1646857029613429 4.346666218300808 14.0
    vertex 2.755455298081545e-16 4.5 0.0
    vertex -1.1646857029613429 4.346666218300808 0.0
  endloop
endfacet
facet normal -0.13052619222005174 0.9914448613738104 0.0
  outer loop
    vertex 2.755455298081545e-16 4.5 0.0
    vertex -1.1646857029613429 4.346666218300808 14.0
    vertex 2.755455298081545e-16 4.5 14.0
  endloop
endfacet
facet normal -0.9064589926707378 0.42229384864848735 0.0
  outer loop
    vertex 3.0999296847724436 -0.9761843829249763 14.0
    vertex 2.7416470323691966 -1.7452425475850561 0.0
    vertex 2.7416470323691966 -1.7452425475850561 14.0
  endloop
endfacet
facet normal -0.9064589926707378 0.42229384864848735 0.0
  outer loop
    vertex 2.7416470323691966 -1.7452425475850561 0.0
    vertex 3.0999296847724436 -0.9761843829249763 14.0
    vertex 3.0999296847724436 -0.9761843829249763 0.0
  endloop
endfacet
facet normal -0.38268343236509056 -0.9238795325112866 -0.0
  outer loop
    vertex -1.1646857029613469 -4.346666218300807 14.0
    vertex -2.250000000000002 -3.8971143170299727 0.0
    vertex -1.1646857029613469 -4.346666218300807 0.0
  endloop
endfacet
facet normal -0.38268343236509056 -0.9238795325112866 -0.0
  outer loop
    vertex -2.250000000000002 -3.8971143170299727 0.0
    vertex -1.1646857029613469 -4.346666218300807 14.0
    vertex -2.250000000000002 -3.8971143170299727 14.0
  endloop
endfacet
facet normal -0.9961634394659549 -0.08751229554387743 -0.0
  outer loop
    vertex 3.1727100484209116 0.7045643679955559 14.0
    vertex 3.2469572520344694 -0.14060086578953002 0.0
    vertex 3.2469572520344694 -0.14060086578953002 14.0
  endloop
endfacet
facet normal -0.9961634394659549 -0.08751229554387743 -0.0
  outer loop
    vertex 3.2469572520344694 -0.14060086578953002 0.0
    vertex 3.1727100484209116 0.7045643679955559 14.0
    vertex 3.1727100484209116 0.7045643679955559 0.0
  endloop
endfacet
facet normal 0.34235645655229435 -0.9395701446177168 0.0
  outer loop
    vertex -0.7045643679955556 3.1727100484209116 14.0
    vertex -1.5017147044494157 2.8822478981587283 0.0
    vertex -0.7045643679955556 3.1727100484209116 0.0
  endloop
endfacet
facet normal 0.34235645655229435 -0.9395701446177168 0.0
  outer loop
    vertex -1.5017147044494157 2.8822478981587283 0.0
    vertex -0.7045643679955556 3.1727100484209116 14.0
    vertex -1.5017147044494157 2.8822478981587283 14.0
  endloop
endfacet
facet normal -0.9395701446177166 -0.34235645655229446 -0.0
  outer loop
    vertex 2.8822478981587283 1.5017147044494157 14.0
    vertex 3.1727100484209116 0.7045643679955559 0.0
    vertex 3.1727100484209116 0.7045643679955559 14.0
  endloop
endfacet
facet normal -0.9395701446177166 -0.34235645655229446 -0.0
  outer loop
    vertex 3.1727100484209116 0.7045643679955559 0.0
    vertex 2.8822478981587283 1.5017147044494157 14.0
    vertex 2.8822478981587283 1.5017147044494157 0.0
  endloop
endfacet
facet normal -0.6087614290087202 0.7933533402912356 0.0
  outer loop
    vertex -3.1819805153394642 3.1819805153394642 14.0
    vertex -2.249999999999999 3.897114317029974 0.0
    vertex -3.1819805153394642 3.1819805153394642 0.0
  endloop
endfacet
facet normal -0.6087614290087202 0.7933533402912356 0.0
  outer loop
    vertex -2.249999999999999 3.897114317029974 0.0
    vertex -3.1819805153394642 3.1819805153394642 14.0
    vertex -2.249999999999999 3.897114317029974 14.0
  endloop
endfacet
facet normal 0.9395701446177169 0.3423564565522942 0.0
  outer loop
    vertex -3.1727100484209116 -0.7045643679955552 0.0
    vertex -2.8822478981587287 -1.501714704449414 14.0
    vertex -2.8822478981587287 -1.501714704449414 0.0
  endloop
endfacet
facet normal 0.9395701446177169 0.3423564565522942 0.0
  outer loop
    vertex -2.8822478981587287 -1.501714704449414 14.0
    vertex -3.1727100484209116 -0.7045643679955552 0.0
    vertex -3.1727100484209116 -0.7045643679955552 14.0
  endloop
endfacet
facet normal 0.0 0.0 -1.0
  outer loop
    vertex -3.1819805153394642 3.1819805153394642 0.0
    vertex -3.2469572520344694 0.14060086578953124 0.0
    vertex -3.8971143170299736 2.2500000000000013 0.0
  endloop
endfacet
facet normal 0.0 0.0 -1.0
  outer loop
    vertex -3.2469572520344694 0.14060086578953124 0.0
    vertex -3.1819805153394642 3.1819805153394642 0.0
    vertex -3.0999296847724436 0.9761843829249767 0.0
  endloop
endfacet
facet normal 0.0 0.0 -1.0
  outer loop
    vertex -3.0999296847724436 0.9761843829249767 0.0
    vertex -3.1819805153394642 3.1819805153394642 0.0
    vertex -2.249999999999999 3.897114317029974 0.0
  endloop
endfacet
facet normal 0.0 0.0 -1.0
  outer loop
    vertex -3.0999296847724436 0.9761843829249767 0.0
    vertex -2.249999999999999 3.897114317029974 0.0
    vertex -2.741647032369198 1.7452425475850546 0.0
  endloop
endfacet
facet normal 0.0 0.0 -1.0
  outer loop
    vertex -2.741647032369198 1.7452425475850546 0.0
    vertex -2.249999999999999 3.897114317029974 0.0
    vertex -2.1965256654959346 2.3953653167768882 0.0
  endloop
endfacet
facet normal 0.0 0.0 -1.0
  outer loop
    vertex -2.1965256654959346 2.3953653167768882 0.0
    vertex -2.249999999999999 3.897114317029974 0.0
    vertex -1.1646857029613429 4.346666218300808 0.0
  endloop
endfacet
facet normal 0.0 0.0 -1.0
  outer loop
    vertex -2.1965256654959346 2.3953653167768882 0.0
    vertex -1.1646857029613429 4.346666218300808 0.0
    vertex -1.5017147044494157 2.8822478981587283 0.0
  endloop
endfacet
facet normal 0.0 0.0 -1.0
  outer loop
    vertex -1.5017147044494157 2.8822478981587283 0.0
    vertex -1.1646857029613429 4.346666218300808 0.0
    vertex -0.7045643679955556 3.1727100484209116 0.0
  endloop
endfacet
facet normal 0.0 0.0 -1.0
  outer loop
    vertex -0.7045643679955556 3.1727100484209116 0.0
    vertex -1.1646857029613429 4.346666218300808 0.0
    vertex 2.755455298081545e-16 4.5 0.0
  endloop
endfacet
facet normal 0.0 0.0 -1.0
  outer loop
    vertex -0.7045643679955556 3.1727100484209116 0.0
    vertex 2.755455298081545e-16 4.5 0.0
    vertex 0.14060086578953035 3.2469572520344694 0.0
  endloop
endfacet
facet normal 0.0 0.0 -1.0
  outer loop
    vertex 0.14060086578953035 3.2469572520344694 0.0
    vertex 2.755455298081545e-16 4.5 0.0
    vertex 1.1646857029613444 4.346666218300808 0.0
  endloop
endfacet
facet normal 0.0 0.0 -1.0
  outer loop
    vertex 0.14060086578953035 3.2469572520344694 0.0
    vertex 1.1646857029613444 4.346666218300808 0.0
    vertex 0.9761843829249764 3.0999296847724436 0.0
  endloop
endfacet
facet normal 0.0 0.0 -1.0
  outer loop
    vertex 0.9761843829249764 3.0999296847724436 0.0
    vertex 1.1646857029613444 4.346666218300808 0.0
    vertex 1.7452425475850546 2.741647032369198 0.0
  endloop
endfacet
facet normal 0.0 0.0 -1.0
  outer loop
    vertex 1.7452425475850546 2.741647032369198 0.0
    vertex 1.1646857029613444 4.346666218300808 0.0
    vertex 2.2500000000000004 3.897114317029974 0.0
  endloop
endfacet
facet normal 0.0 0.0 -1.0
  outer loop
    vertex 1.7452425475850546 2.741647032369198 0.0
    vertex 2.2500000000000004 3.897114317029974 0.0
    vertex 2.395365316776888 2.196525665495935 0.0
  endloop
endfacet
facet normal 0.0 0.0 -1.0
  outer loop
    vertex 2.395365316776888 2.196525665495935 0.0
    vertex 2.2500000000000004 3.897114317029974 0.0
    vertex 3.1819805153394642 3.1819805153394642 0.0
  endloop
endfacet
facet normal 0.0 0.0 -1.0
  outer loop
    vertex 2.395365316776888 2.196525665495935 0.0
    vertex 3.1819805153394642 3.1819805153394642 0.0
    vertex 2.8822478981587283 1.5017147044494157 0.0
  endloop
endfacet
facet normal 0.0 0.0 -1.0
  outer loop
    vertex 2.8822478981587283 1.5017147044494157 0.0
    vertex 3.1819805153394642 3.1819805153394642 0.0
    vertex 3.1727100484209116 0.7045643679955559 0.0
  endloop
endfacet
facet normal 0.0 0.0 -1.0
  outer loop
    vertex 3.1727100484209116 0.7045643679955559 0.0
    vertex 3.1819805153394642 3.1819805153394642 0.0
    vertex 3.2469572520344694 -0.14060086578953002 0.0
  endloop
endfacet
facet normal 0.0 0.0 -1.0
  outer loop
    vertex 3.2469572520344694 -0.14060086578953002 0.0
    vertex 3.1819805153394642 3.1819805153394642 0.0
    vertex 3.897114317029974 2.2499999999999996 0.0
  endloop
endfacet
facet normal 0.0 0.0 -1.0
  outer loop
    vertex 3.2469572520344694 -0.14060086578953002 0.0
    vertex 3.897114317029974 2.2499999999999996 0.0
    vertex 3.8971143170299727 -2.250000000000002 0.0
  endloop
endfacet
facet normal 0.0 0.0 -1.0
  outer loop
    vertex 3.8971143170299727 -2.250000000000002 0.0
    vertex 3.897114317029974 2.2499999999999996 0.0
    vertex 4.346666218300807 -1.164685702961347 0.0
  endloop
endfacet
facet normal 0.0 0.0 -1.0
  outer loop
    vertex 4.346666218300807 -1.164685702961347 0.0
    vertex 3.897114317029974 2.2499999999999996 0.0
    vertex 4.346666218300808 1.1646857029613435 0.0
  endloop
endfacet
facet normal 0.0 0.0 -1.0
  outer loop
    vertex 4.346666218300807 -1.164685702961347 0.0
    vertex 4.346666218300808 1.1646857029613435 0.0
    vertex 4.5 0.0 0.0
  endloop
endfacet
facet normal 0.0 0.0 -1.0
  outer loop
    vertex -4.346666218300808 1.1646857029613447 0.0
    vertex -4.3466662183008085 -1.1646857029613418 0.0
    vertex -4.5 5.51091059616309e-16 0.0
  endloop
endfacet
facet normal 0.0 0.0 -1.0
  outer loop
    vertex -4.3466662183008085 -1.1646857029613418 0.0
    vertex -4.346666218300808 1.1646857029613447 0.0
    vertex -3.897114317029975 -2.2499999999999987 0.0
  endloop
endfacet
facet normal 0.0 0.0 -1.0
  outer loop
    vertex -3.897114317029975 -2.2499999999999987 0.0
    vertex -4.346666218300808 1.1646857029613447 0.0
    vertex -3.8971143170299736 2.2500000000000013 0.0
  endloop
endfacet
facet normal 0.0 0.0 -1.0
  outer loop
    vertex -3.897114317029975 -2.2499999999999987 0.0
    vertex -3.8971143170299736 2.2500000000000013 0.0
    vertex -3.1819805153394656 -3.181980515339462 0.0
  endloop
endfacet
facet normal 0.0 0.0 -1.0
  outer loop
    vertex -3.1819805153394656 -3.181980515339462 0.0
    vertex -3.8971143170299736 2.2500000000000013 0.0
    vertex -3.2469572520344694 0.14060086578953124 0.0
  endloop
endfacet
facet normal 0.0 0.0 -1.0
  outer loop
    vertex -3.1819805153394656 -3.181980515339462 0.0
    vertex -3.2469572520344694 0.14060086578953124 0.0
    vertex -3.1727100484209116 -0.7045643679955552 0.0
  endloop
endfacet
facet normal 0.0 0.0 -1.0
  outer loop
    vertex -3.1819805153394656 -3.181980515339462 0.0
    vertex -3.1727100484209116 -0.7045643679955552 0.0
    vertex -2.250000000000002 -3.8971143170299727 0.0
  endloop
endfacet
facet normal 0.0 0.0 -1.0
  outer loop
    vertex -2.250000000000002 -3.8971143170299727 0.0
    vertex -3.1727100484209116 -0.7045643679955552 0.0
    vertex -2.8822478981587287 -1.501714704449414 0.0
  endloop
endfacet
facet normal 0.0 0.0 -1.0
  outer loop
    vertex -2.250000000000002 -3.8971143170299727 0.0
    vertex -2.8822478981587287 -1.501714704449414 0.0
    vertex -2.3953653167768887 -2.196525665495934 0.0
  endloop
endfacet
facet normal 0.0 0.0 -1.0
  outer loop
    vertex -2.250000000000002 -3.8971143170299727 0.0
    vertex -2.3953653167768887 -2.196525665495934 0.0
    vertex -1.745242547585056 -2.7416470323691966 0.0
  endloop
endfacet
facet normal 0.0 0.0 -1.0
  outer loop
    vertex -2.250000000000002 -3.8971143170299727 0.0
    vertex -1.745242547585056 -2.7416470323691966 0.0
    vertex -1.1646857029613469 -4.346666218300807 0.0
  endloop
endfacet
facet normal 0.0 0.0 -1.0
  outer loop
    vertex -1.1646857029613469 -4.346666218300807 0.0
    vertex -1.745242547585056 -2.7416470323691966 0.0
    vertex -0.9761843829249768 -3.099929684772443 0.0
  endloop
endfacet
facet normal 0.0 0.0 -1.0
  outer loop
    vertex -1.1646857029613469 -4.346666218300807 0.0
    vertex -0.9761843829249768 -3.099929684772443 0.0
    vertex -8.266365894244633e-16 -4.5 0.0
  endloop
endfacet
facet normal 0.0 0.0 -1.0
  outer loop
    vertex -8.266365894244633e-16 -4.5 0.0
    vertex -0.9761843829249768 -3.099929684772443 0.0
    vertex -0.1406008657895314 -3.2469572520344694 0.0
  endloop
endfacet
facet normal 0.0 0.0 -1.0
  outer loop
    vertex -8.266365894244633e-16 -4.5 0.0
    vertex -0.1406008657895314 -3.2469572520344694 0.0
    vertex 0.7045643679955534 -3.1727100484209116 0.0
  endloop
endfacet
facet normal 0.0 0.0 -1.0
  outer loop
    vertex -8.266365894244633e-16 -4.5 0.0
    vertex 0.7045643679955534 -3.1727100484209116 0.0
    vertex 1.1646857029613413 -4.3466662183008085 0.0
  endloop
endfacet
facet normal 0.0 0.0 -1.0
  outer loop
    vertex 1.1646857029613413 -4.3466662183008085 0.0
    vertex 0.7045643679955534 -3.1727100484209116 0.0
    vertex 1.501714704449415 -2.8822478981587287 0.0
  endloop
endfacet
facet normal 0.0 0.0 -1.0
  outer loop
    vertex 1.1646857029613413 -4.3466662183008085 0.0
    vertex 1.501714704449415 -2.8822478981587287 0.0
    vertex 2.249999999999997 -3.8971143170299753 0.0
  endloop
endfacet
facet normal 0.0 0.0 -1.0
  outer loop
    vertex 2.249999999999997 -3.8971143170299753 0.0
    vertex 1.501714704449415 -2.8822478981587287 0.0
    vertex 2.196525665495934 -2.3953653167768887 0.0
  endloop
endfacet
facet normal 0.0 0.0 -1.0
  outer loop
    vertex 2.249999999999997 -3.8971143170299753 0.0
    vertex 2.196525665495934 -2.3953653167768887 0.0
    vertex 2.7416470323691966 -1.7452425475850561 0.0
  endloop
endfacet
facet normal 0.0 0.0 -1.0
  outer loop
    vertex 2.249999999999997 -3.8971143170299753 0.0
    vertex 2.7416470323691966 -1.7452425475850561 0.0
    vertex 3.1819805153394634 -3.1819805153394647 0.0
  endloop
endfacet
facet normal 0.0 0.0 -1.0
  outer loop
    vertex 3.1819805153394634 -3.1819805153394647 0.0
    vertex 2.7416470323691966 -1.7452425475850561 0.0
    vertex 3.0999296847724436 -0.9761843829249763 0.0
  endloop
endfacet
facet normal 0.0 0.0 -1.0
  outer loop
    vertex 3.1819805153394634 -3.1819805153394647 0.0
    vertex 3.0999296847724436 -0.9761843829249763 0.0
    vertex 3.2469572520344694 -0.14060086578953002 0.0
  endloop
endfacet
facet normal 0.0 0.0 -1.0
  outer loop
    vertex 3.1819805153394634 -3.1819805153394647 0.0
    vertex 3.2469572520344694 -0.14060086578953002 0.0
    vertex 3.8971143170299727 -2.250000000000002 0.0
  endloop
endfacet
endsolid Untitled-57254bc9
