solid Untitled-55f0d9a7
facet normal -2.3936153733097616e-17 5.734220972041719e-17 -1.0
  outer loop
    vertex -48.261246398395734 21.060000496874363 -0.9999999999999962
    vertex -48.13060714192052 14.71420061605431 -0.9999999999999978
    vertex -48.1752999431051 13.363618859917336 -0.9999999999999986
  endloop
endfacet
facet normal -2.3936153733097616e-17 5.734220972041719e-17 -1.0
  outer loop
    vertex -48.13060714192052 14.71420061605431 -0.9999999999999978
    vertex -48.261246398395734 21.060000496874363 -0.9999999999999962
    vertex -47.755252720555816 23.1160105502511 -0.999999999999996
  endloop
endfacet
facet normal -2.3936153733097616e-17 5.734220972041719e-17 -1.0
  outer loop
    vertex -48.13060714192052 14.71420061605431 -0.9999999999999978
    vertex -47.755252720555816 23.1160105502511 -0.999999999999996
    vertex -47.95498721856974 16.77200953566656 -0.9999999999999971
  endloop
endfacet
facet normal -2.3936153733097616e-17 5.734220972041719e-17 -1.0
  outer loop
    vertex -47.95498721856974 16.77200953566656 -0.9999999999999971
    vertex -47.755252720555816 23.1160105502511 -0.999999999999996
    vertex -47.67252936014538 18.817892588367087 -0.9999999999999966
  endloop
endfacet
facet normal -2.3936153733097616e-17 5.734220972041719e-17 -1.0
  outer loop
    vertex -47.67252936014538 18.817892588367087 -0.9999999999999966
    vertex -47.755252720555816 23.1160105502511 -0.999999999999996
    vertex -47.14296226089153 25.142906535397913 -0.999999999999996
  endloop
endfacet
facet normal -2.3936153733097616e-17 5.734220972041719e-17 -1.0
  outer loop
    vertex -47.67252936014538 18.817892588367087 -0.9999999999999966
    vertex -47.14296226089153 25.142906535397913 -0.999999999999996
    vertex -47.28399884750468 20.846306734408177 -0.9999999999999962
  endloop
endfacet
facet normal -2.3936153733097616e-17 5.734220972041719e-17 -1.0
  outer loop
    vertex -47.28399884750468 20.846306734408177 -0.9999999999999962
    vertex -47.14296226089153 25.142906535397913 -0.999999999999996
    vertex -46.790448350824335 22.851756263650948 -0.999999999999996
  endloop
endfacet
facet normal -2.3936153733097616e-17 5.734220972041719e-17 -1.0
  outer loop
    vertex -46.790448350824335 22.851756263650948 -0.999999999999996
    vertex -47.14296226089153 25.142906535397913 -0.999999999999996
    vertex -47.03138854727927 25.480274278875147 -0.999999999999996
  endloop
endfacet
facet normal -2.3936153733097616e-17 5.734220972041719e-17 -1.0
  outer loop
    vertex -46.790448350824335 22.851756263650948 -0.999999999999996
    vertex -47.03138854727927 25.480274278875147 -0.999999999999996
    vertex -46.42603393649035 27.135196855424457 -0.999999999999996
  endloop
endfacet
facet normal -2.3936153733097616e-17 5.734220972041719e-17 -1.0
  outer loop
    vertex -46.790448350824335 22.851756263650948 -0.999999999999996
    vertex -46.42603393649035 27.135196855424457 -0.999999999999996
    vertex -46.18945014329761 24.84127093710224 -0.999999999999996
  endloop
endfacet
facet normal -2.3936153733097616e-17 5.734220972041719e-17 -1.0
  outer loop
    vertex -46.18945014329761 24.84127093710224 -0.999999999999996
    vertex -46.42603393649035 27.135196855424457 -0.999999999999996
    vertex -45.60641016639386 29.087483672747425 -0.9999999999999962
  endloop
endfacet
facet normal -2.3936153733097616e-17 5.734220972041719e-17 -1.0
  outer loop
    vertex -46.18945014329761 24.84127093710224 -0.999999999999996
    vertex -45.60641016639386 29.087483672747425 -0.9999999999999962
    vertex -46.08687381066503 25.151433113783813 -0.999999999999996
  endloop
endfacet
facet normal -2.3936153733097616e-17 5.734220972041719e-17 -1.0
  outer loop
    vertex -46.08687381066503 25.151433113783813 -0.999999999999996
    vertex -45.60641016639386 29.087483672747425 -0.9999999999999962
    vertex -45.494933532882364 26.769683494985586 -0.999999999999996
  endloop
endfacet
facet normal -2.3936153733097616e-17 5.734220972041719e-17 -1.0
  outer loop
    vertex -45.494933532882364 26.769683494985586 -0.999999999999996
    vertex -45.60641016639386 29.087483672747425 -0.9999999999999962
    vertex -44.68631160887961 30.994477533791652 -0.9999999999999966
  endloop
endfacet
facet normal -2.3936153733097616e-17 5.734220972041719e-17 -1.0
  outer loop
    vertex -45.494933532882364 26.769683494985586 -0.999999999999996
    vertex -44.68631160887961 30.994477533791652 -0.9999999999999966
    vertex -44.694449218143475 28.67638146075412 -0.9999999999999962
  endloop
endfacet
facet normal -2.3936153733097616e-17 5.734220972041719e-17 -1.0
  outer loop
    vertex -44.694449218143475 28.67638146075412 -0.9999999999999962
    vertex -44.68631160887961 30.994477533791652 -0.9999999999999966
    vertex -43.79697733273456 30.5364793404403 -0.9999999999999966
  endloop
endfacet
facet normal -2.3936153733097616e-17 5.734220972041719e-17 -1.0
  outer loop
    vertex -43.79697733273456 30.5364793404403 -0.9999999999999966
    vertex -44.68631160887961 30.994477533791652 -0.9999999999999966
    vertex -43.668231144891784 32.85101170003975 -0.9999999999999971
  endloop
endfacet
facet normal -2.3936153733097616e-17 5.734220972041719e-17 -1.0
  outer loop
    vertex -43.79697733273456 30.5364793404403 -0.9999999999999966
    vertex -43.668231144891784 32.85101170003975 -0.9999999999999971
    vertex -42.80393307019205 32.347358408667745 -0.9999999999999971
  endloop
endfacet
facet normal -2.3936153733097616e-17 5.734220972041719e-17 -1.0
  outer loop
    vertex -42.80393307019205 32.347358408667745 -0.9999999999999971
    vertex -43.668231144891784 32.85101170003975 -0.9999999999999971
    vertex -42.554927123922006 34.65205614660199 -0.9999999999999978
  endloop
endfacet
facet normal -2.3936153733097616e-17 5.734220972041719e-17 -1.0
  outer loop
    vertex -42.80393307019205 32.347358408667745 -0.9999999999999971
    vertex -42.554927123922006 34.65205614660199 -0.9999999999999978
    vertex -41.718006947850846 34.1041123367779 -0.9999999999999978
  endloop
endfacet
facet normal -2.3936153733097616e-17 5.734220972041719e-17 -1.0
  outer loop
    vertex -41.718006947850846 34.1041123367779 -0.9999999999999978
    vertex -42.554927123922006 34.65205614660199 -0.9999999999999978
    vertex -41.34941589063933 36.39273119037939 -0.9999999999999986
  endloop
endfacet
facet normal -2.3936153733097616e-17 5.734220972041719e-17 -1.0
  outer loop
    vertex -41.718006947850846 34.1041123367779 -0.9999999999999978
    vertex -41.34941589063933 36.39273119037939 -0.9999999999999986
    vertex -40.93688411428496 35.23199981304001 -0.9999999999999983
  endloop
endfacet
facet normal -2.3936153733097616e-17 5.734220972041719e-17 -1.0
  outer loop
    vertex -40.93688411428496 35.23199981304001 -0.9999999999999983
    vertex -41.34941589063933 36.39273119037939 -0.9999999999999986
    vertex -38.87124786120114 35.67443568877019 -0.9999999999999981
  endloop
endfacet
facet normal -2.3936153733097616e-17 5.734220972041719e-17 -1.0
  outer loop
    vertex -40.93688411428496 35.23199981304001 -0.9999999999999983
    vertex -38.87124786120114 35.67443568877019 -0.9999999999999981
    vertex -39.215322443349194 34.73300620595344 -0.9999999999999981
  endloop
endfacet
facet normal -2.3936153733097616e-17 5.734220972041719e-17 -1.0
  outer loop
    vertex -39.215322443349194 34.73300620595344 -0.9999999999999981
    vertex -38.87124786120114 35.67443568877019 -0.9999999999999981
    vertex -36.98297358511968 33.739632824397766 -0.9999999999999977
  endloop
endfacet
facet normal -2.3936153733097616e-17 5.734220972041719e-17 -1.0
  outer loop
    vertex -36.98297358511968 33.739632824397766 -0.9999999999999977
    vertex -38.87124786120114 35.67443568877019 -0.9999999999999981
    vertex -36.51393856682918 34.62545613681069 -0.9999999999999977
  endloop
endfacet
facet normal -2.3936153733097616e-17 5.734220972041719e-17 -1.0
  outer loop
    vertex -36.98297358511968 33.739632824397766 -0.9999999999999977
    vertex -36.51393856682918 34.62545613681069 -0.9999999999999977
    vertex -34.90664326988778 32.45160156620928 -0.9999999999999973
  endloop
endfacet
facet normal -2.3936153733097616e-17 5.734220972041719e-17 -1.0
  outer loop
    vertex -34.90664326988778 32.45160156620928 -0.9999999999999973
    vertex -36.51393856682918 34.62545613681069 -0.9999999999999977
    vertex -34.32138128249664 33.2653246120375 -0.9999999999999973
  endloop
endfacet
facet normal -2.3936153733097616e-17 5.734220972041719e-17 -1.0
  outer loop
    vertex -34.90664326988778 32.45160156620928 -0.9999999999999973
    vertex -34.32138128249664 33.2653246120375 -0.9999999999999973
    vertex -33.02499292306721 30.89289566953353 -0.9999999999999969
  endloop
endfacet
facet normal -2.3936153733097616e-17 5.734220972041719e-17 -1.0
  outer loop
    vertex -33.02499292306721 30.89289566953353 -0.9999999999999969
    vertex -34.32138128249664 33.2653246120375 -0.9999999999999973
    vertex -32.33440158845529 31.61936686494042 -0.9999999999999969
  endloop
endfacet
facet normal -2.3936153733097616e-17 5.734220972041719e-17 -1.0
  outer loop
    vertex -33.02499292306721 30.89289566953353 -0.9999999999999969
    vertex -32.33440158845529 31.61936686494042 -0.9999999999999969
    vertex -31.37305901453218 29.092538354483587 -0.9999999999999968
  endloop
endfacet
facet normal -2.3936153733097616e-17 5.734220972041719e-17 -1.0
  outer loop
    vertex -31.37305901453218 29.092538354483587 -0.9999999999999968
    vertex -32.33440158845529 31.61936686494042 -0.9999999999999969
    vertex -30.589997194884674 29.718230751598426 -0.9999999999999968
  endloop
endfacet
facet normal -2.3936153733097616e-17 5.734220972041719e-17 -1.0
  outer loop
    vertex -31.37305901453218 29.092538354483587 -0.9999999999999968
    vertex -30.589997194884674 29.718230751598426 -0.9999999999999968
    vertex -29.981600676933613 27.084052408615623 -0.9999999999999968
  endloop
endfacet
facet normal -2.3936153733097616e-17 5.734220972041719e-17 -1.0
  outer loop
    vertex -29.981600676933613 27.084052408615623 -0.9999999999999968
    vertex -30.589997194884674 29.718230751598426 -0.9999999999999968
    vertex -29.12064904176761 27.597315568312446 -0.9999999999999968
  endloop
endfacet
facet normal -2.3936153733097616e-17 5.734220972041719e-17 -1.0
  outer loop
    vertex -29.981600676933613 27.084052408615623 -0.9999999999999968
    vertex -29.12064904176761 27.597315568312446 -0.9999999999999968
    vertex -28.876526968353826 24.904835990123036 -0.9999999999999968
  endloop
endfacet
facet normal -2.3936153733097616e-17 5.734220972041719e-17 -1.0
  outer loop
    vertex -28.876526968353826 24.904835990123036 -0.9999999999999968
    vertex -29.12064904176761 27.597315568312446 -0.9999999999999968
    vertex -27.95371650136384 25.29611291406654 -0.9999999999999968
  endloop
endfacet
facet normal -2.3936153733097616e-17 5.734220972041719e-17 -1.0
  outer loop
    vertex -28.876526968353826 24.904835990123036 -0.9999999999999968
    vertex -27.95371650136384 25.29611291406654 -0.9999999999999968
    vertex -28.078414443711722 22.595466271340225 -0.9999999999999969
  endloop
endfacet
facet normal -2.3936153733097616e-17 5.734220972041719e-17 -1.0
  outer loop
    vertex -28.078414443711722 22.595466271340225 -0.9999999999999969
    vertex -27.95371650136384 25.29611291406654 -0.9999999999999968
    vertex -27.60212401777448 20.198943888765374 -0.9999999999999973
  endloop
endfacet
facet normal -2.3936153733097616e-17 5.734220972041719e-17 -1.0
  outer loop
    vertex -27.60212401777448 20.198943888765374 -0.9999999999999973
    vertex -27.95371650136384 25.29611291406654 -0.9999999999999968
    vertex -27.11092794465693 22.85747135400786 -0.9999999999999969
  endloop
endfacet
facet normal -2.3936153733097616e-17 5.734220972041719e-17 -1.0
  outer loop
    vertex -27.60212401777448 20.198943888765374 -0.9999999999999973
    vertex -27.11092794465693 22.85747135400786 -0.9999999999999969
    vertex -27.45652425381579 17.75989226800025 -0.9999999999999977
  endloop
endfacet
facet normal -2.3936153733097616e-17 5.734220972041719e-17 -1.0
  outer loop
    vertex -27.45652425381579 17.75989226800025 -0.9999999999999977
    vertex -27.11092794465693 22.85747135400786 -0.9999999999999969
    vertex -27.199227289824456 12.657094249331813 -0.9999999999999986
  endloop
endfacet
facet normal -2.3936153733097616e-17 5.734220972041719e-17 -1.0
  outer loop
    vertex -27.199227289824456 12.657094249331813 -0.9999999999999986
    vertex -27.11092794465693 22.85747135400786 -0.9999999999999969
    vertex -26.652540727862014 15.178680855564336 -0.999999999999998
  endloop
endfacet
facet normal -2.3936153733097616e-17 5.734220972041719e-17 -1.0
  outer loop
    vertex -26.652540727862014 15.178680855564336 -0.999999999999998
    vertex -27.11092794465693 22.85747135400786 -0.9999999999999969
    vertex -26.607976157465057 20.326798575966006 -0.9999999999999973
  endloop
endfacet
facet normal -2.3936153733097616e-17 5.734220972041719e-17 -1.0
  outer loop
    vertex -26.652540727862014 15.178680855564336 -0.999999999999998
    vertex -26.607976157465057 20.326798575966006 -0.9999999999999973
    vertex -26.45422613959804 17.75121589591719 -0.9999999999999977
  endloop
endfacet
facet normal -2.3936153733097616e-17 5.734220972041719e-17 -1.0
  outer loop
    vertex -49.12919901411103 14.77329437743898 -0.9999999999999978
    vertex -47.42694404601347 12.050574970160158 -0.9999999999999986
    vertex -49.19922728982445 12.657094249331813 -0.9999999999999986
  endloop
endfacet
facet normal -2.3936153733097616e-17 5.734220972041719e-17 -1.0
  outer loop
    vertex -47.42694404601347 12.050574970160158 -0.9999999999999986
    vertex -49.12919901411103 14.77329437743898 -0.9999999999999978
    vertex -48.1752999431051 13.363618859917336 -0.9999999999999986
  endloop
endfacet
facet normal -2.3936153733097616e-17 5.734220972041719e-17 -1.0
  outer loop
    vertex -48.1752999431051 13.363618859917336 -0.9999999999999986
    vertex -49.12919901411103 14.77329437743898 -0.9999999999999978
    vertex -48.94915143738701 16.88298388343648 -0.9999999999999971
  endloop
endfacet
facet normal -2.3936153733097616e-17 5.734220972041719e-17 -1.0
  outer loop
    vertex -48.1752999431051 13.363618859917336 -0.9999999999999986
    vertex -48.94915143738701 16.88298388343648 -0.9999999999999971
    vertex -48.65957237388645 18.980446852735895 -0.9999999999999966
  endloop
endfacet
facet normal -2.3936153733097616e-17 5.734220972041719e-17 -1.0
  outer loop
    vertex -48.1752999431051 13.363618859917336 -0.9999999999999986
    vertex -48.65957237388645 18.980446852735895 -0.9999999999999966
    vertex -48.261246398395734 21.060000496874363 -0.9999999999999962
  endloop
endfacet
facet normal -2.3936153733097616e-17 5.734220972041719e-17 -1.0
  outer loop
    vertex -47.42694404601347 12.050574970160158 -0.9999999999999986
    vertex -48.1752999431051 13.363618859917336 -0.9999999999999986
    vertex -47.13152439721833 13.006412982177983 -0.9999999999999986
  endloop
endfacet
facet normal -2.3936153733097616e-17 5.734220972041719e-17 -1.0
  outer loop
    vertex -47.42694404601347 12.050574970160158 -0.9999999999999986
    vertex -47.13152439721833 13.006412982177983 -0.9999999999999986
    vertex -45.62150500671061 11.551332135798654 -0.9999999999999986
  endloop
endfacet
facet normal -2.3936153733097616e-17 5.734220972041719e-17 -1.0
  outer loop
    vertex -45.62150500671061 11.551332135798654 -0.9999999999999986
    vertex -47.13152439721833 13.006412982177983 -0.9999999999999986
    vertex -45.38388537291403 12.523153098603439 -0.9999999999999986
  endloop
endfacet
facet normal -2.3936153733097616e-17 5.734220972041719e-17 -1.0
  outer loop
    vertex -45.62150500671061 11.551332135798654 -0.9999999999999986
    vertex -45.38388537291403 12.523153098603439 -0.9999999999999986
    vertex -43.78939723357393 11.161159558709706 -0.9999999999999986
  endloop
endfacet
facet normal -2.3936153733097616e-17 5.734220972041719e-17 -1.0
  outer loop
    vertex -43.78939723357393 11.161159558709706 -0.9999999999999986
    vertex -45.38388537291403 12.523153098603439 -0.9999999999999986
    vertex -43.610431397807474 12.145471655425398 -0.9999999999999986
  endloop
endfacet
facet normal -2.3936153733097616e-17 5.734220972041719e-17 -1.0
  outer loop
    vertex -43.78939723357393 11.161159558709706 -0.9999999999999986
    vertex -43.610431397807474 12.145471655425398 -0.9999999999999986
    vertex -41.937203610782674 10.881459154720847 -0.9999999999999986
  endloop
endfacet
facet normal -2.3936153733097616e-17 5.734220972041719e-17 -1.0
  outer loop
    vertex -41.937203610782674 10.881459154720847 -0.9999999999999986
    vertex -43.610431397807474 12.145471655425398 -0.9999999999999986
    vertex -41.817534609108755 11.874725687002492 -0.9999999999999986
  endloop
endfacet
facet normal -2.3936153733097616e-17 5.734220972041719e-17 -1.0
  outer loop
    vertex -41.937203610782674 10.881459154720847 -0.9999999999999986
    vertex -41.817534609108755 11.874725687002492 -0.9999999999999986
    vertex -40.071579192299964 10.713235905848606 -0.9999999999999986
  endloop
endfacet
facet normal -2.3936153733097616e-17 5.734220972041719e-17 -1.0
  outer loop
    vertex -40.071579192299964 10.713235905848606 -0.9999999999999986
    vertex -41.817534609108755 11.874725687002492 -0.9999999999999986
    vertex -40.01163700334222 11.711888001473188 -0.9999999999999986
  endloop
endfacet
facet normal -2.3936153733097616e-17 5.734220972041719e-17 -1.0
  outer loop
    vertex -40.071579192299964 10.713235905848606 -0.9999999999999986
    vertex -40.01163700334222 11.711888001473188 -0.9999999999999986
    vertex -38.19922728982445 10.657094249331813 -0.9999999999999986
  endloop
endfacet
facet normal -2.3936153733097616e-17 5.734220972041719e-17 -1.0
  outer loop
    vertex -38.19922728982445 10.657094249331813 -0.9999999999999986
    vertex -40.01163700334222 11.711888001473188 -0.9999999999999986
    vertex -38.19922728982458 11.657543685391637 -0.9999999999999986
  endloop
endfacet
facet normal -2.3936153733097616e-17 5.734220972041719e-17 -1.0
  outer loop
    vertex -38.19922728982445 10.657094249331813 -0.9999999999999986
    vertex -38.19922728982458 11.657543685391637 -0.9999999999999986
    vertex -36.38681757630687 11.711888001473191 -0.9999999999999986
  endloop
endfacet
facet normal -2.3936153733097616e-17 5.734220972041719e-17 -1.0
  outer loop
    vertex -38.19922728982445 10.657094249331813 -0.9999999999999986
    vertex -36.38681757630687 11.711888001473191 -0.9999999999999986
    vertex -36.32687538734894 10.713235905848611 -0.9999999999999986
  endloop
endfacet
facet normal -2.3936153733097616e-17 5.734220972041719e-17 -1.0
  outer loop
    vertex -36.32687538734894 10.713235905848611 -0.9999999999999986
    vertex -36.38681757630687 11.711888001473191 -0.9999999999999986
    vertex -34.580919970539924 11.874725687002517 -0.9999999999999986
  endloop
endfacet
facet normal -2.3936153733097616e-17 5.734220972041719e-17 -1.0
  outer loop
    vertex -36.32687538734894 10.713235905848611 -0.9999999999999986
    vertex -34.580919970539924 11.874725687002517 -0.9999999999999986
    vertex -34.461250968866224 10.881459154720842 -0.9999999999999986
  endloop
endfacet
facet normal -2.3936153733097616e-17 5.734220972041719e-17 -1.0
  outer loop
    vertex -34.461250968866224 10.881459154720842 -0.9999999999999986
    vertex -34.580919970539924 11.874725687002517 -0.9999999999999986
    vertex -32.7880231818415 12.145471655425386 -0.9999999999999986
  endloop
endfacet
facet normal -2.3936153733097616e-17 5.734220972041719e-17 -1.0
  outer loop
    vertex -34.461250968866224 10.881459154720842 -0.9999999999999986
    vertex -32.7880231818415 12.145471655425386 -0.9999999999999986
    vertex -32.60905734607498 11.161159558709706 -0.9999999999999986
  endloop
endfacet
facet normal -2.3936153733097616e-17 5.734220972041719e-17 -1.0
  outer loop
    vertex -32.60905734607498 11.161159558709706 -0.9999999999999986
    vertex -32.7880231818415 12.145471655425386 -0.9999999999999986
    vertex -31.01456920673474 12.523153098603464 -0.9999999999999986
  endloop
endfacet
facet normal -2.3936153733097616e-17 5.734220972041719e-17 -1.0
  outer loop
    vertex -32.60905734607498 11.161159558709706 -0.9999999999999986
    vertex -31.01456920673474 12.523153098603464 -0.9999999999999986
    vertex -30.77694957293829 11.551332135798654 -0.9999999999999986
  endloop
endfacet
facet normal -2.3936153733097616e-17 5.734220972041719e-17 -1.0
  outer loop
    vertex -30.77694957293829 11.551332135798654 -0.9999999999999986
    vertex -31.01456920673474 12.523153098603464 -0.9999999999999986
    vertex -29.266930182430656 13.00641298217796 -0.9999999999999986
  endloop
endfacet
facet normal -2.3936153733097616e-17 5.734220972041719e-17 -1.0
  outer loop
    vertex -30.77694957293829 11.551332135798654 -0.9999999999999986
    vertex -29.266930182430656 13.00641298217796 -0.9999999999999986
    vertex -28.97151053363544 12.050574970160158 -0.9999999999999986
  endloop
endfacet
facet normal -2.3936153733097616e-17 5.734220972041719e-17 -1.0
  outer loop
    vertex -28.97151053363544 12.050574970160158 -0.9999999999999986
    vertex -29.266930182430656 13.00641298217796 -0.9999999999999986
    vertex -28.056951236760845 13.42049778521568 -0.9999999999999983
  endloop
endfacet
facet normal -2.3936153733097616e-17 5.734220972041719e-17 -1.0
  outer loop
    vertex -28.97151053363544 12.050574970160158 -0.9999999999999986
    vertex -28.056951236760845 13.42049778521568 -0.9999999999999983
    vertex -27.199227289824456 12.657094249331813 -0.9999999999999986
  endloop
endfacet
facet normal -2.3936153733097616e-17 5.734220972041719e-17 -1.0
  outer loop
    vertex -27.199227289824456 12.657094249331813 -0.9999999999999986
    vertex -28.056951236760845 13.42049778521568 -0.9999999999999983
    vertex -27.644326230305804 15.323726732235487 -0.999999999999998
  endloop
endfacet
facet normal -2.3936153733097616e-17 5.734220972041719e-17 -1.0
  outer loop
    vertex -27.199227289824456 12.657094249331813 -0.9999999999999986
    vertex -27.644326230305804 15.323726732235487 -0.999999999999998
    vertex -27.45652425381579 17.75989226800025 -0.9999999999999977
  endloop
endfacet
facet normal 0.2082927347814574 0.9780665297602519 5.109876914881673e-17
  outer loop
    vertex -45.38388537291403 12.523153098603439 1.0000000000000013
    vertex -43.610431397807474 12.145471655425398 -0.9999999999999986
    vertex -45.38388537291403 12.523153098603439 -0.9999999999999986
  endloop
endfacet
facet normal 0.2082927347814574 0.9780665297602519 5.109876914881673e-17
  outer loop
    vertex -43.610431397807474 12.145471655425398 -0.9999999999999986
    vertex -45.38388537291403 12.523153098603439 1.0000000000000013
    vertex -43.610431397807474 12.145471655425398 1.0000000000000013
  endloop
endfacet
facet normal 0.999452924965633 -0.033073414967932833 -2.581956155823306e-17
  outer loop
    vertex -48.13060714192052 14.71420061605431 -0.9999999999999978
    vertex -48.1752999431051 13.363618859917336 1.0000000000000013
    vertex -48.1752999431051 13.363618859917336 -0.9999999999999986
  endloop
endfacet
facet normal 0.999452924965633 -0.033073414967932833 -2.581956155823306e-17
  outer loop
    vertex -48.1752999431051 13.363618859917336 1.0000000000000013
    vertex -48.13060714192052 14.71420061605431 -0.9999999999999978
    vertex -48.13060714192052 14.71420061605431 1.000000000000002
  endloop
endfacet
facet normal 0.957275776543897 -0.28917656828014127 -3.949552357687552e-17
  outer loop
    vertex -46.18945014329761 24.84127093710224 -0.999999999999996
    vertex -46.790448350824335 22.851756263650948 1.0000000000000038
    vertex -46.790448350824335 22.851756263650948 -0.999999999999996
  endloop
endfacet
facet normal 0.957275776543897 -0.28917656828014127 -3.949552357687552e-17
  outer loop
    vertex -46.790448350824335 22.851756263650948 1.0000000000000038
    vertex -46.18945014329761 24.84127093710224 -0.999999999999996
    vertex -46.18945014329761 24.84127093710224 1.0000000000000038
  endloop
endfacet
facet normal -0.9572757765438965 0.28917656828014243 3.9495523576875574e-17
  outer loop
    vertex -47.14296226089153 25.142906535397913 1.0000000000000038
    vertex -47.755252720555816 23.1160105502511 -0.999999999999996
    vertex -47.755252720555816 23.1160105502511 1.0000000000000038
  endloop
endfacet
facet normal -0.9572757765438965 0.28917656828014243 3.9495523576875574e-17
  outer loop
    vertex -47.755252720555816 23.1160105502511 -0.999999999999996
    vertex -47.14296226089153 25.142906535397913 1.0000000000000038
    vertex -47.14296226089153 25.142906535397913 -0.999999999999996
  endloop
endfacet
facet normal -0.1493174187201665 -0.9887893144986685 -5.312527955177499e-17
  outer loop
    vertex -41.937203610782674 10.881459154720847 1.0000000000000013
    vertex -43.78939723357393 11.161159558709706 -0.9999999999999986
    vertex -41.937203610782674 10.881459154720847 -0.9999999999999986
  endloop
endfacet
facet normal -0.1493174187201665 -0.9887893144986685 -5.312527955177499e-17
  outer loop
    vertex -43.78939723357393 11.161159558709706 -0.9999999999999986
    vertex -41.937203610782674 10.881459154720847 1.0000000000000013
    vertex -43.78939723357393 11.161159558709706 1.0000000000000013
  endloop
endfacet
facet normal 0.637926661001522 0.7700971206175552 2.8889559967367183e-17
  outer loop
    vertex -34.32138128249664 33.2653246120375 1.0000000000000027
    vertex -32.33440158845529 31.61936686494042 -0.9999999999999969
    vertex -34.32138128249664 33.2653246120375 -0.9999999999999973
  endloop
endfacet
facet normal 0.637926661001522 0.7700971206175552 2.8889559967367183e-17
  outer loop
    vertex -32.33440158845529 31.61936686494042 -0.9999999999999969
    vertex -34.32138128249664 33.2653246120375 1.0000000000000027
    vertex -32.33440158845529 31.61936686494042 1.0000000000000029
  endloop
endfacet
facet normal 2.3936153733097616e-17 -5.734220972041719e-17 1.0
  outer loop
    vertex -47.42694404601347 12.050574970160158 1.0000000000000013
    vertex -49.12919901411103 14.77329437743898 1.000000000000002
    vertex -49.19922728982445 12.657094249331813 1.0000000000000013
  endloop
endfacet
facet normal 2.3936153733097616e-17 -5.734220972041719e-17 1.0
  outer loop
    vertex -49.12919901411103 14.77329437743898 1.000000000000002
    vertex -47.42694404601347 12.050574970160158 1.0000000000000013
    vertex -48.1752999431051 13.363618859917336 1.0000000000000013
  endloop
endfacet
facet normal 2.3936153733097616e-17 -5.734220972041719e-17 1.0
  outer loop
    vertex -49.12919901411103 14.77329437743898 1.000000000000002
    vertex -48.1752999431051 13.363618859917336 1.0000000000000013
    vertex -48.94915143738701 16.88298388343648 1.0000000000000027
  endloop
endfacet
facet normal 2.3936153733097616e-17 -5.734220972041719e-17 1.0
  outer loop
    vertex -48.94915143738701 16.88298388343648 1.0000000000000027
    vertex -48.1752999431051 13.363618859917336 1.0000000000000013
    vertex -48.65957237388645 18.980446852735895 1.0000000000000033
  endloop
endfacet
facet normal 2.3936153733097616e-17 -5.734220972041719e-17 1.0
  outer loop
    vertex -48.65957237388645 18.980446852735895 1.0000000000000033
    vertex -48.1752999431051 13.363618859917336 1.0000000000000013
    vertex -48.261246398395734 21.060000496874363 1.0000000000000036
  endloop
endfacet
facet normal 2.3936153733097616e-17 -5.734220972041719e-17 1.0
  outer loop
    vertex -48.1752999431051 13.363618859917336 1.0000000000000013
    vertex -47.42694404601347 12.050574970160158 1.0000000000000013
    vertex -47.13152439721833 13.006412982177983 1.0000000000000013
  endloop
endfacet
facet normal 2.3936153733097616e-17 -5.734220972041719e-17 1.0
  outer loop
    vertex -47.13152439721833 13.006412982177983 1.0000000000000013
    vertex -47.42694404601347 12.050574970160158 1.0000000000000013
    vertex -45.62150500671061 11.551332135798654 1.0000000000000013
  endloop
endfacet
facet normal 2.3936153733097616e-17 -5.734220972041719e-17 1.0
  outer loop
    vertex -47.13152439721833 13.006412982177983 1.0000000000000013
    vertex -45.62150500671061 11.551332135798654 1.0000000000000013
    vertex -45.38388537291403 12.523153098603439 1.0000000000000013
  endloop
endfacet
facet normal 2.3936153733097616e-17 -5.734220972041719e-17 1.0
  outer loop
    vertex -45.38388537291403 12.523153098603439 1.0000000000000013
    vertex -45.62150500671061 11.551332135798654 1.0000000000000013
    vertex -43.78939723357393 11.161159558709706 1.0000000000000013
  endloop
endfacet
facet normal 2.3936153733097616e-17 -5.734220972041719e-17 1.0
  outer loop
    vertex -45.38388537291403 12.523153098603439 1.0000000000000013
    vertex -43.78939723357393 11.161159558709706 1.0000000000000013
    vertex -43.610431397807474 12.145471655425398 1.0000000000000013
  endloop
endfacet
facet normal 2.3936153733097616e-17 -5.734220972041719e-17 1.0
  outer loop
    vertex -43.610431397807474 12.145471655425398 1.0000000000000013
    vertex -43.78939723357393 11.161159558709706 1.0000000000000013
    vertex -41.937203610782674 10.881459154720847 1.0000000000000013
  endloop
endfacet
facet normal 2.3936153733097616e-17 -5.734220972041719e-17 1.0
  outer loop
    vertex -43.610431397807474 12.145471655425398 1.0000000000000013
    vertex -41.937203610782674 10.881459154720847 1.0000000000000013
    vertex -41.817534609108755 11.874725687002492 1.0000000000000013
  endloop
endfacet
facet normal 2.3936153733097616e-17 -5.734220972041719e-17 1.0
  outer loop
    vertex -41.817534609108755 11.874725687002492 1.0000000000000013
    vertex -41.937203610782674 10.881459154720847 1.0000000000000013
    vertex -40.071579192299964 10.713235905848606 1.0000000000000013
  endloop
endfacet
facet normal 2.3936153733097616e-17 -5.734220972041719e-17 1.0
  outer loop
    vertex -41.817534609108755 11.874725687002492 1.0000000000000013
    vertex -40.071579192299964 10.713235905848606 1.0000000000000013
    vertex -40.01163700334222 11.711888001473188 1.0000000000000013
  endloop
endfacet
facet normal 2.3936153733097616e-17 -5.734220972041719e-17 1.0
  outer loop
    vertex -40.01163700334222 11.711888001473188 1.0000000000000013
    vertex -40.071579192299964 10.713235905848606 1.0000000000000013
    vertex -38.19922728982445 10.657094249331813 1.0000000000000013
  endloop
endfacet
facet normal 2.3936153733097616e-17 -5.734220972041719e-17 1.0
  outer loop
    vertex -40.01163700334222 11.711888001473188 1.0000000000000013
    vertex -38.19922728982445 10.657094249331813 1.0000000000000013
    vertex -38.19922728982458 11.657543685391637 1.0000000000000013
  endloop
endfacet
facet normal 2.3936153733097616e-17 -5.734220972041719e-17 1.0
  outer loop
    vertex -38.19922728982458 11.657543685391637 1.0000000000000013
    vertex -38.19922728982445 10.657094249331813 1.0000000000000013
    vertex -36.38681757630687 11.711888001473191 1.0000000000000013
  endloop
endfacet
facet normal 2.3936153733097616e-17 -5.734220972041719e-17 1.0
  outer loop
    vertex -36.38681757630687 11.711888001473191 1.0000000000000013
    vertex -38.19922728982445 10.657094249331813 1.0000000000000013
    vertex -36.32687538734894 10.713235905848611 1.0000000000000013
  endloop
endfacet
facet normal 2.3936153733097616e-17 -5.734220972041719e-17 1.0
  outer loop
    vertex -36.38681757630687 11.711888001473191 1.0000000000000013
    vertex -36.32687538734894 10.713235905848611 1.0000000000000013
    vertex -34.580919970539924 11.874725687002517 1.0000000000000013
  endloop
endfacet
facet normal 2.3936153733097616e-17 -5.734220972041719e-17 1.0
  outer loop
    vertex -34.580919970539924 11.874725687002517 1.0000000000000013
    vertex -36.32687538734894 10.713235905848611 1.0000000000000013
    vertex -34.461250968866224 10.881459154720842 1.0000000000000013
  endloop
endfacet
facet normal 2.3936153733097616e-17 -5.734220972041719e-17 1.0
  outer loop
    vertex -34.580919970539924 11.874725687002517 1.0000000000000013
    vertex -34.461250968866224 10.881459154720842 1.0000000000000013
    vertex -32.7880231818415 12.145471655425386 1.0000000000000013
  endloop
endfacet
facet normal 2.3936153733097616e-17 -5.734220972041719e-17 1.0
  outer loop
    vertex -32.7880231818415 12.145471655425386 1.0000000000000013
    vertex -34.461250968866224 10.881459154720842 1.0000000000000013
    vertex -32.60905734607498 11.161159558709706 1.0000000000000013
  endloop
endfacet
facet normal 2.3936153733097616e-17 -5.734220972041719e-17 1.0
  outer loop
    vertex -32.7880231818415 12.145471655425386 1.0000000000000013
    vertex -32.60905734607498 11.161159558709706 1.0000000000000013
    vertex -31.01456920673474 12.523153098603464 1.0000000000000013
  endloop
endfacet
facet normal 2.3936153733097616e-17 -5.734220972041719e-17 1.0
  outer loop
    vertex -31.01456920673474 12.523153098603464 1.0000000000000013
    vertex -32.60905734607498 11.161159558709706 1.0000000000000013
    vertex -30.77694957293829 11.551332135798654 1.0000000000000013
  endloop
endfacet
facet normal 2.3936153733097616e-17 -5.734220972041719e-17 1.0
  outer loop
    vertex -31.01456920673474 12.523153098603464 1.0000000000000013
    vertex -30.77694957293829 11.551332135798654 1.0000000000000013
    vertex -29.266930182430656 13.00641298217796 1.0000000000000013
  endloop
endfacet
facet normal 2.3936153733097616e-17 -5.734220972041719e-17 1.0
  outer loop
    vertex -29.266930182430656 13.00641298217796 1.0000000000000013
    vertex -30.77694957293829 11.551332135798654 1.0000000000000013
    vertex -28.97151053363544 12.050574970160158 1.0000000000000013
  endloop
endfacet
facet normal 2.3936153733097616e-17 -5.734220972041719e-17 1.0
  outer loop
    vertex -29.266930182430656 13.00641298217796 1.0000000000000013
    vertex -28.97151053363544 12.050574970160158 1.0000000000000013
    vertex -28.056951236760845 13.42049778521568 1.0000000000000016
  endloop
endfacet
facet normal 2.3936153733097616e-17 -5.734220972041719e-17 1.0
  outer loop
    vertex -28.056951236760845 13.42049778521568 1.0000000000000016
    vertex -28.97151053363544 12.050574970160158 1.0000000000000013
    vertex -27.199227289824456 12.657094249331813 1.0000000000000013
  endloop
endfacet
facet normal 2.3936153733097616e-17 -5.734220972041719e-17 1.0
  outer loop
    vertex -28.056951236760845 13.42049778521568 1.0000000000000016
    vertex -27.199227289824456 12.657094249331813 1.0000000000000013
    vertex -27.644326230305804 15.323726732235487 1.0000000000000018
  endloop
endfacet
facet normal 2.3936153733097616e-17 -5.734220972041719e-17 1.0
  outer loop
    vertex -27.644326230305804 15.323726732235487 1.0000000000000018
    vertex -27.199227289824456 12.657094249331813 1.0000000000000013
    vertex -27.45652425381579 17.75989226800025 1.0000000000000022
  endloop
endfacet
facet normal 2.3936153733097616e-17 -5.734220972041719e-17 1.0
  outer loop
    vertex -48.261246398395734 21.060000496874363 1.0000000000000036
    vertex -48.13060714192052 14.71420061605431 1.000000000000002
    vertex -47.755252720555816 23.1160105502511 1.0000000000000038
  endloop
endfacet
facet normal 2.3936153733097616e-17 -5.734220972041719e-17 1.0
  outer loop
    vertex -48.13060714192052 14.71420061605431 1.000000000000002
    vertex -48.261246398395734 21.060000496874363 1.0000000000000036
    vertex -48.1752999431051 13.363618859917336 1.0000000000000013
  endloop
endfacet
facet normal 2.3936153733097616e-17 -5.734220972041719e-17 1.0
  outer loop
    vertex -47.755252720555816 23.1160105502511 1.0000000000000038
    vertex -48.13060714192052 14.71420061605431 1.000000000000002
    vertex -47.95498721856974 16.77200953566656 1.0000000000000027
  endloop
endfacet
facet normal 2.3936153733097616e-17 -5.734220972041719e-17 1.0
  outer loop
    vertex -47.755252720555816 23.1160105502511 1.0000000000000038
    vertex -47.95498721856974 16.77200953566656 1.0000000000000027
    vertex -47.67252936014538 18.817892588367087 1.0000000000000033
  endloop
endfacet
facet normal 2.3936153733097616e-17 -5.734220972041719e-17 1.0
  outer loop
    vertex -47.755252720555816 23.1160105502511 1.0000000000000038
    vertex -47.67252936014538 18.817892588367087 1.0000000000000033
    vertex -47.14296226089153 25.142906535397913 1.0000000000000038
  endloop
endfacet
facet normal 2.3936153733097616e-17 -5.734220972041719e-17 1.0
  outer loop
    vertex -47.14296226089153 25.142906535397913 1.0000000000000038
    vertex -47.67252936014538 18.817892588367087 1.0000000000000033
    vertex -47.28399884750468 20.846306734408177 1.0000000000000036
  endloop
endfacet
facet normal 2.3936153733097616e-17 -5.734220972041719e-17 1.0
  outer loop
    vertex -47.14296226089153 25.142906535397913 1.0000000000000038
    vertex -47.28399884750468 20.846306734408177 1.0000000000000036
    vertex -46.790448350824335 22.851756263650948 1.0000000000000038
  endloop
endfacet
facet normal 2.3936153733097616e-17 -5.734220972041719e-17 1.0
  outer loop
    vertex -47.14296226089153 25.142906535397913 1.0000000000000038
    vertex -46.790448350824335 22.851756263650948 1.0000000000000038
    vertex -47.03138854727927 25.480274278875147 1.0000000000000038
  endloop
endfacet
facet normal 2.3936153733097616e-17 -5.734220972041719e-17 1.0
  outer loop
    vertex -47.03138854727927 25.480274278875147 1.0000000000000038
    vertex -46.790448350824335 22.851756263650948 1.0000000000000038
    vertex -46.42603393649035 27.135196855424457 1.0000000000000038
  endloop
endfacet
facet normal 2.3936153733097616e-17 -5.734220972041719e-17 1.0
  outer loop
    vertex -46.42603393649035 27.135196855424457 1.0000000000000038
    vertex -46.790448350824335 22.851756263650948 1.0000000000000038
    vertex -46.18945014329761 24.84127093710224 1.0000000000000038
  endloop
endfacet
facet normal 2.3936153733097616e-17 -5.734220972041719e-17 1.0
  outer loop
    vertex -46.42603393649035 27.135196855424457 1.0000000000000038
    vertex -46.18945014329761 24.84127093710224 1.0000000000000038
    vertex -45.60641016639386 29.087483672747425 1.0000000000000036
  endloop
endfacet
facet normal 2.3936153733097616e-17 -5.734220972041719e-17 1.0
  outer loop
    vertex -45.60641016639386 29.087483672747425 1.0000000000000036
    vertex -46.18945014329761 24.84127093710224 1.0000000000000038
    vertex -46.08687381066503 25.151433113783813 1.0000000000000038
  endloop
endfacet
facet normal 2.3936153733097616e-17 -5.734220972041719e-17 1.0
  outer loop
    vertex -45.60641016639386 29.087483672747425 1.0000000000000036
    vertex -46.08687381066503 25.151433113783813 1.0000000000000038
    vertex -45.494933532882364 26.769683494985586 1.0000000000000038
  endloop
endfacet
facet normal 2.3936153733097616e-17 -5.734220972041719e-17 1.0
  outer loop
    vertex -45.60641016639386 29.087483672747425 1.0000000000000036
    vertex -45.494933532882364 26.769683494985586 1.0000000000000038
    vertex -44.68631160887961 30.994477533791652 1.0000000000000033
  endloop
endfacet
facet normal 2.3936153733097616e-17 -5.734220972041719e-17 1.0
  outer loop
    vertex -44.68631160887961 30.994477533791652 1.0000000000000033
    vertex -45.494933532882364 26.769683494985586 1.0000000000000038
    vertex -44.694449218143475 28.67638146075412 1.0000000000000036
  endloop
endfacet
facet normal 2.3936153733097616e-17 -5.734220972041719e-17 1.0
  outer loop
    vertex -44.68631160887961 30.994477533791652 1.0000000000000033
    vertex -44.694449218143475 28.67638146075412 1.0000000000000036
    vertex -43.79697733273456 30.5364793404403 1.0000000000000033
  endloop
endfacet
facet normal 2.3936153733097616e-17 -5.734220972041719e-17 1.0
  outer loop
    vertex -44.68631160887961 30.994477533791652 1.0000000000000033
    vertex -43.79697733273456 30.5364793404403 1.0000000000000033
    vertex -43.668231144891784 32.85101170003975 1.0000000000000027
  endloop
endfacet
facet normal 2.3936153733097616e-17 -5.734220972041719e-17 1.0
  outer loop
    vertex -43.668231144891784 32.85101170003975 1.0000000000000027
    vertex -43.79697733273456 30.5364793404403 1.0000000000000033
    vertex -42.80393307019205 32.347358408667745 1.0000000000000027
  endloop
endfacet
facet normal 2.3936153733097616e-17 -5.734220972041719e-17 1.0
  outer loop
    vertex -43.668231144891784 32.85101170003975 1.0000000000000027
    vertex -42.80393307019205 32.347358408667745 1.0000000000000027
    vertex -42.554927123922006 34.65205614660199 1.000000000000002
  endloop
endfacet
facet normal 2.3936153733097616e-17 -5.734220972041719e-17 1.0
  outer loop
    vertex -42.554927123922006 34.65205614660199 1.000000000000002
    vertex -42.80393307019205 32.347358408667745 1.0000000000000027
    vertex -41.718006947850846 34.1041123367779 1.000000000000002
  endloop
endfacet
facet normal 2.3936153733097616e-17 -5.734220972041719e-17 1.0
  outer loop
    vertex -42.554927123922006 34.65205614660199 1.000000000000002
    vertex -41.718006947850846 34.1041123367779 1.000000000000002
    vertex -41.34941589063933 36.39273119037939 1.0000000000000013
  endloop
endfacet
facet normal 2.3936153733097616e-17 -5.734220972041719e-17 1.0
  outer loop
    vertex -41.34941589063933 36.39273119037939 1.0000000000000013
    vertex -41.718006947850846 34.1041123367779 1.000000000000002
    vertex -40.93688411428496 35.23199981304001 1.0000000000000016
  endloop
endfacet
facet normal 2.3936153733097616e-17 -5.734220972041719e-17 1.0
  outer loop
    vertex -41.34941589063933 36.39273119037939 1.0000000000000013
    vertex -40.93688411428496 35.23199981304001 1.0000000000000016
    vertex -38.87124786120114 35.67443568877019 1.0000000000000018
  endloop
endfacet
facet normal 2.3936153733097616e-17 -5.734220972041719e-17 1.0
  outer loop
    vertex -38.87124786120114 35.67443568877019 1.0000000000000018
    vertex -40.93688411428496 35.23199981304001 1.0000000000000016
    vertex -39.215322443349194 34.73300620595344 1.0000000000000018
  endloop
endfacet
facet normal 2.3936153733097616e-17 -5.734220972041719e-17 1.0
  outer loop
    vertex -38.87124786120114 35.67443568877019 1.0000000000000018
    vertex -39.215322443349194 34.73300620595344 1.0000000000000018
    vertex -36.98297358511968 33.739632824397766 1.0000000000000022
  endloop
endfacet
facet normal 2.3936153733097616e-17 -5.734220972041719e-17 1.0
  outer loop
    vertex -38.87124786120114 35.67443568877019 1.0000000000000018
    vertex -36.98297358511968 33.739632824397766 1.0000000000000022
    vertex -36.51393856682918 34.62545613681069 1.0000000000000022
  endloop
endfacet
facet normal 2.3936153733097616e-17 -5.734220972041719e-17 1.0
  outer loop
    vertex -36.51393856682918 34.62545613681069 1.0000000000000022
    vertex -36.98297358511968 33.739632824397766 1.0000000000000022
    vertex -34.90664326988778 32.45160156620928 1.0000000000000027
  endloop
endfacet
facet normal 2.3936153733097616e-17 -5.734220972041719e-17 1.0
  outer loop
    vertex -36.51393856682918 34.62545613681069 1.0000000000000022
    vertex -34.90664326988778 32.45160156620928 1.0000000000000027
    vertex -34.32138128249664 33.2653246120375 1.0000000000000027
  endloop
endfacet
facet normal 2.3936153733097616e-17 -5.734220972041719e-17 1.0
  outer loop
    vertex -34.32138128249664 33.2653246120375 1.0000000000000027
    vertex -34.90664326988778 32.45160156620928 1.0000000000000027
    vertex -33.02499292306721 30.89289566953353 1.0000000000000029
  endloop
endfacet
facet normal 2.3936153733097616e-17 -5.734220972041719e-17 1.0
  outer loop
    vertex -34.32138128249664 33.2653246120375 1.0000000000000027
    vertex -33.02499292306721 30.89289566953353 1.0000000000000029
    vertex -32.33440158845529 31.61936686494042 1.0000000000000029
  endloop
endfacet
facet normal 2.3936153733097616e-17 -5.734220972041719e-17 1.0
  outer loop
    vertex -32.33440158845529 31.61936686494042 1.0000000000000029
    vertex -33.02499292306721 30.89289566953353 1.0000000000000029
    vertex -31.37305901453218 29.092538354483587 1.000000000000003
  endloop
endfacet
facet normal 2.3936153733097616e-17 -5.734220972041719e-17 1.0
  outer loop
    vertex -32.33440158845529 31.61936686494042 1.0000000000000029
    vertex -31.37305901453218 29.092538354483587 1.000000000000003
    vertex -30.589997194884674 29.718230751598426 1.000000000000003
  endloop
endfacet
facet normal 2.3936153733097616e-17 -5.734220972041719e-17 1.0
  outer loop
    vertex -30.589997194884674 29.718230751598426 1.000000000000003
    vertex -31.37305901453218 29.092538354483587 1.000000000000003
    vertex -29.981600676933613 27.084052408615623 1.000000000000003
  endloop
endfacet
facet normal 2.3936153733097616e-17 -5.734220972041719e-17 1.0
  outer loop
    vertex -30.589997194884674 29.718230751598426 1.000000000000003
    vertex -29.981600676933613 27.084052408615623 1.000000000000003
    vertex -29.12064904176761 27.597315568312446 1.000000000000003
  endloop
endfacet
facet normal 2.3936153733097616e-17 -5.734220972041719e-17 1.0
  outer loop
    vertex -29.12064904176761 27.597315568312446 1.000000000000003
    vertex -29.981600676933613 27.084052408615623 1.000000000000003
    vertex -28.876526968353826 24.904835990123036 1.000000000000003
  endloop
endfacet
facet normal 2.3936153733097616e-17 -5.734220972041719e-17 1.0
  outer loop
    vertex -29.12064904176761 27.597315568312446 1.000000000000003
    vertex -28.876526968353826 24.904835990123036 1.000000000000003
    vertex -27.95371650136384 25.29611291406654 1.000000000000003
  endloop
endfacet
facet normal 2.3936153733097616e-17 -5.734220972041719e-17 1.0
  outer loop
    vertex -27.95371650136384 25.29611291406654 1.000000000000003
    vertex -28.876526968353826 24.904835990123036 1.000000000000003
    vertex -28.078414443711722 22.595466271340225 1.0000000000000029
  endloop
endfacet
facet normal 2.3936153733097616e-17 -5.734220972041719e-17 1.0
  outer loop
    vertex -27.95371650136384 25.29611291406654 1.000000000000003
    vertex -28.078414443711722 22.595466271340225 1.0000000000000029
    vertex -27.60212401777448 20.198943888765374 1.0000000000000027
  endloop
endfacet
facet normal 2.3936153733097616e-17 -5.734220972041719e-17 1.0
  outer loop
    vertex -27.95371650136384 25.29611291406654 1.000000000000003
    vertex -27.60212401777448 20.198943888765374 1.0000000000000027
    vertex -27.11092794465693 22.85747135400786 1.0000000000000029
  endloop
endfacet
facet normal 2.3936153733097616e-17 -5.734220972041719e-17 1.0
  outer loop
    vertex -27.11092794465693 22.85747135400786 1.0000000000000029
    vertex -27.60212401777448 20.198943888765374 1.0000000000000027
    vertex -27.45652425381579 17.75989226800025 1.0000000000000022
  endloop
endfacet
facet normal 2.3936153733097616e-17 -5.734220972041719e-17 1.0
  outer loop
    vertex -27.11092794465693 22.85747135400786 1.0000000000000029
    vertex -27.45652425381579 17.75989226800025 1.0000000000000022
    vertex -27.199227289824456 12.657094249331813 1.0000000000000013
  endloop
endfacet
facet normal 2.3936153733097616e-17 -5.734220972041719e-17 1.0
  outer loop
    vertex -27.11092794465693 22.85747135400786 1.0000000000000029
    vertex -27.199227289824456 12.657094249331813 1.0000000000000013
    vertex -26.652540727862014 15.178680855564336 1.0000000000000018
  endloop
endfacet
facet normal 2.3936153733097616e-17 -5.734220972041719e-17 1.0
  outer loop
    vertex -27.11092794465693 22.85747135400786 1.0000000000000029
    vertex -26.652540727862014 15.178680855564336 1.0000000000000018
    vertex -26.607976157465057 20.326798575966006 1.0000000000000027
  endloop
endfacet
facet normal 2.3936153733097616e-17 -5.734220972041719e-17 1.0
  outer loop
    vertex -26.607976157465057 20.326798575966006 1.0000000000000027
    vertex -26.652540727862014 15.178680855564336 1.0000000000000018
    vertex -26.45422613959804 17.75121589591719 1.0000000000000022
  endloop
endfacet
facet normal 0.8918810510780005 0.4522700418201508 4.585961638073229e-18
  outer loop
    vertex -29.12064904176761 27.597315568312446 -0.9999999999999968
    vertex -27.95371650136384 25.29611291406654 1.000000000000003
    vertex -27.95371650136384 25.29611291406654 -0.9999999999999968
  endloop
endfacet
facet normal 0.8918810510780005 0.4522700418201508 4.585961638073229e-18
  outer loop
    vertex -27.95371650136384 25.29611291406654 1.000000000000003
    vertex -29.12064904176761 27.597315568312446 -0.9999999999999968
    vertex -29.12064904176761 27.597315568312446 1.000000000000003
  endloop
endfacet
facet normal 0.27839101687884643 0.9604678244070239 4.8411737238934953e-17
  outer loop
    vertex -41.34941589063933 36.39273119037939 1.0000000000000013
    vertex -38.87124786120114 35.67443568877019 -0.9999999999999981
    vertex -41.34941589063933 36.39273119037939 -0.9999999999999986
  endloop
endfacet
facet normal 0.27839101687884643 0.9604678244070239 4.8411737238934953e-17
  outer loop
    vertex -38.87124786120114 35.67443568877019 -0.9999999999999981
    vertex -41.34941589063933 36.39273119037939 1.0000000000000013
    vertex -38.87124786120114 35.67443568877019 1.0000000000000018
  endloop
endfacet
facet normal 0.9808171796821112 0.19492988493412047 -1.2299280454265116e-17
  outer loop
    vertex -27.11092794465693 22.85747135400786 -0.9999999999999969
    vertex -26.607976157465057 20.326798575966006 1.0000000000000027
    vertex -26.607976157465057 20.326798575966006 -0.9999999999999973
  endloop
endfacet
facet normal 0.9808171796821112 0.19492988493412047 -1.2299280454265116e-17
  outer loop
    vertex -26.607976157465057 20.326798575966006 1.0000000000000027
    vertex -27.11092794465693 22.85747135400786 -0.9999999999999969
    vertex -27.11092794465693 22.85747135400786 1.0000000000000029
  endloop
endfacet
facet normal 0.9391420528373171 -0.3435290447582414 -4.2178163083512566e-17
  outer loop
    vertex -45.494933532882364 26.769683494985586 -0.999999999999996
    vertex -46.08687381066503 25.151433113783813 1.0000000000000038
    vertex -46.08687381066503 25.151433113783813 -0.999999999999996
  endloop
endfacet
facet normal 0.9391420528373171 -0.3435290447582414 -4.2178163083512566e-17
  outer loop
    vertex -46.08687381066503 25.151433113783813 1.0000000000000038
    vertex -45.494933532882364 26.769683494985586 -0.999999999999996
    vertex -45.494933532882364 26.769683494985586 1.0000000000000038
  endloop
endfacet
facet normal 0.9006476121976872 -0.4345502026723776 -4.64761085606004e-17
  outer loop
    vertex -43.79697733273456 30.5364793404403 -0.9999999999999966
    vertex -44.694449218143475 28.67638146075412 1.0000000000000036
    vertex -44.694449218143475 28.67638146075412 -0.9999999999999962
  endloop
endfacet
facet normal 0.9006476121976872 -0.4345502026723776 -4.64761085606004e-17
  outer loop
    vertex -44.694449218143475 28.67638146075412 1.0000000000000036
    vertex -43.79697733273456 30.5364793404403 -0.9999999999999966
    vertex -43.79697733273456 30.5364793404403 1.0000000000000033
  endloop
endfacet
facet normal 0.9710259603112872 -0.23897402453309194 -3.6945925297348393e-17
  outer loop
    vertex -46.790448350824335 22.851756263650948 -0.999999999999996
    vertex -47.28399884750468 20.846306734408177 1.0000000000000036
    vertex -47.28399884750468 20.846306734408177 -0.9999999999999962
  endloop
endfacet
facet normal 0.9710259603112872 -0.23897402453309194 -3.6945925297348393e-17
  outer loop
    vertex -47.28399884750468 20.846306734408177 1.0000000000000036
    vertex -46.790448350824335 22.851756263650948 -0.999999999999996
    vertex -46.790448350824335 22.851756263650948 1.0000000000000038
  endloop
endfacet
facet normal 0.32378892514411806 -0.9461293420849057 -6.200340864579706e-17
  outer loop
    vertex -27.199227289824456 12.657094249331813 1.0000000000000013
    vertex -28.97151053363544 12.050574970160158 -0.9999999999999986
    vertex -27.199227289824456 12.657094249331813 -0.9999999999999986
  endloop
endfacet
facet normal 0.32378892514411806 -0.9461293420849057 -6.200340864579706e-17
  outer loop
    vertex -28.97151053363544 12.050574970160158 -0.9999999999999986
    vertex -27.199227289824456 12.657094249331813 1.0000000000000013
    vertex -28.97151053363544 12.050574970160158 1.0000000000000013
  endloop
endfacet
facet normal -0.08980559531592247 -0.9959593139531118 -5.4960907318127884e-17
  outer loop
    vertex -40.071579192299964 10.713235905848606 1.0000000000000013
    vertex -41.937203610782674 10.881459154720847 -0.9999999999999986
    vertex -40.071579192299964 10.713235905848606 -0.9999999999999986
  endloop
endfacet
facet normal -0.08980559531592247 -0.9959593139531118 -5.4960907318127884e-17
  outer loop
    vertex -41.937203610782674 10.881459154720847 -0.9999999999999986
    vertex -40.071579192299964 10.713235905848606 1.0000000000000013
    vertex -41.937203610782674 10.881459154720847 1.0000000000000013
  endloop
endfacet
facet normal -0.9494254776419064 0.3139924559673977 4.0730615451667684e-17
  outer loop
    vertex -47.03138854727927 25.480274278875147 1.0000000000000038
    vertex -47.14296226089153 25.142906535397913 -0.999999999999996
    vertex -47.14296226089153 25.142906535397913 1.0000000000000038
  endloop
endfacet
facet normal -0.9494254776419064 0.3139924559673977 4.0730615451667684e-17
  outer loop
    vertex -47.14296226089153 25.142906535397913 -0.999999999999996
    vertex -47.03138854727927 25.480274278875147 1.0000000000000038
    vertex -47.03138854727927 25.480274278875147 -0.999999999999996
  endloop
endfacet
facet normal 0.2665196412957892 0.963829487411318 4.888865749491595e-17
  outer loop
    vertex -47.13152439721833 13.006412982177983 1.0000000000000013
    vertex -45.38388537291403 12.523153098603439 -0.9999999999999986
    vertex -47.13152439721833 13.006412982177983 -0.9999999999999986
  endloop
endfacet
facet normal 0.2665196412957892 0.963829487411318 4.888865749491595e-17
  outer loop
    vertex -45.38388537291403 12.523153098603439 -0.9999999999999986
    vertex -47.13152439721833 13.006412982177983 1.0000000000000013
    vertex -45.38388537291403 12.523153098603439 1.0000000000000013
  endloop
endfacet
facet normal 0.08980559531593037 0.995959313953111 5.4960907318127656e-17
  outer loop
    vertex -41.817534609108755 11.874725687002492 1.0000000000000013
    vertex -40.01163700334222 11.711888001473188 -0.9999999999999986
    vertex -41.817534609108755 11.874725687002492 -0.9999999999999986
  endloop
endfacet
facet normal 0.08980559531593037 0.995959313953111 5.4960907318127656e-17
  outer loop
    vertex -40.01163700334222 11.711888001473188 -0.9999999999999986
    vertex -41.817534609108755 11.874725687002492 1.0000000000000013
    vertex -40.01163700334222 11.711888001473188 1.0000000000000013
  endloop
endfacet
facet normal 0.029971094478994337 0.9995507658422015 5.659905691612873e-17
  outer loop
    vertex -40.01163700334222 11.711888001473188 1.0000000000000013
    vertex -38.19922728982458 11.657543685391637 -0.9999999999999986
    vertex -40.01163700334222 11.711888001473188 -0.9999999999999986
  endloop
endfacet
facet normal 0.029971094478994337 0.9995507658422015 5.659905691612873e-17
  outer loop
    vertex -38.19922728982458 11.657543685391637 -0.9999999999999986
    vertex -40.01163700334222 11.711888001473188 1.0000000000000013
    vertex -38.19922728982458 11.657543685391637 1.0000000000000013
  endloop
endfacet
facet normal -0.14931741872016768 0.9887893144986682 6.027344893080543e-17
  outer loop
    vertex -34.580919970539924 11.874725687002517 1.0000000000000013
    vertex -32.7880231818415 12.145471655425386 -0.9999999999999986
    vertex -34.580919970539924 11.874725687002517 -0.9999999999999986
  endloop
endfacet
facet normal -0.14931741872016768 0.9887893144986682 6.027344893080543e-17
  outer loop
    vertex -32.7880231818415 12.145471655425386 -0.9999999999999986
    vertex -34.580919970539924 11.874725687002517 1.0000000000000013
    vertex -32.7880231818415 12.145471655425386 1.0000000000000013
  endloop
endfacet
facet normal -0.20829273478145405 0.9780665297602527 6.107022299124927e-17
  outer loop
    vertex -32.7880231818415 12.145471655425386 1.0000000000000013
    vertex -31.01456920673474 12.523153098603464 -0.9999999999999986
    vertex -32.7880231818415 12.145471655425386 -0.9999999999999986
  endloop
endfacet
facet normal -0.20829273478145405 0.9780665297602527 6.107022299124927e-17
  outer loop
    vertex -31.01456920673474 12.523153098603464 -0.9999999999999986
    vertex -32.7880231818415 12.145471655425386 1.0000000000000013
    vertex -31.01456920673474 12.523153098603464 1.0000000000000013
  endloop
endfacet
facet normal -0.26651964129579503 0.9638294874113165 6.164756770880807e-17
  outer loop
    vertex -31.01456920673474 12.523153098603464 1.0000000000000013
    vertex -29.266930182430656 13.00641298217796 -0.9999999999999986
    vertex -31.01456920673474 12.523153098603464 -0.9999999999999986
  endloop
endfacet
facet normal -0.26651964129579503 0.9638294874113165 6.164756770880807e-17
  outer loop
    vertex -29.266930182430656 13.00641298217796 -0.9999999999999986
    vertex -31.01456920673474 12.523153098603464 1.0000000000000013
    vertex -29.266930182430656 13.00641298217796 1.0000000000000013
  endloop
endfacet
facet normal 0.9970418083307658 -0.07686112437712986 -2.827273271591131e-17
  outer loop
    vertex -26.45422613959804 17.75121589591719 -0.9999999999999977
    vertex -26.652540727862014 15.178680855564336 1.0000000000000018
    vertex -26.652540727862014 15.178680855564336 -0.999999999999998
  endloop
endfacet
facet normal 0.9970418083307658 -0.07686112437712986 -2.827273271591131e-17
  outer loop
    vertex -26.652540727862014 15.178680855564336 1.0000000000000018
    vertex -26.45422613959804 17.75121589591719 -0.9999999999999977
    vertex -26.45422613959804 17.75121589591719 1.0000000000000022
  endloop
endfacet
facet normal -0.32378892514411495 0.9461293420849071 6.200340864579705e-17
  outer loop
    vertex -29.266930182430656 13.00641298217796 1.0000000000000013
    vertex -28.056951236760845 13.42049778521568 -0.9999999999999983
    vertex -29.266930182430656 13.00641298217796 -0.9999999999999986
  endloop
endfacet
facet normal -0.32378892514411495 0.9461293420849071 6.200340864579705e-17
  outer loop
    vertex -28.056951236760845 13.42049778521568 -0.9999999999999983
    vertex -29.266930182430656 13.00641298217796 1.0000000000000013
    vertex -28.056951236760845 13.42049778521568 1.0000000000000016
  endloop
endfacet
facet normal -0.9772956365235256 0.2118802464414211 3.554238012557024e-17
  outer loop
    vertex -27.644326230305804 15.323726732235487 1.0000000000000018
    vertex -28.056951236760845 13.42049778521568 -0.9999999999999983
    vertex -28.056951236760845 13.42049778521568 1.0000000000000016
  endloop
endfacet
facet normal -0.9772956365235256 0.2118802464414211 3.554238012557024e-17
  outer loop
    vertex -28.056951236760845 13.42049778521568 -0.9999999999999983
    vertex -27.644326230305804 15.323726732235487 1.0000000000000018
    vertex -27.644326230305804 15.323726732235487 -0.999999999999998
  endloop
endfacet
facet normal 0.20829273478145516 -0.9780665297602522 -6.107022299124928e-17
  outer loop
    vertex -30.77694957293829 11.551332135798654 1.0000000000000013
    vertex -32.60905734607498 11.161159558709706 -0.9999999999999986
    vertex -30.77694957293829 11.551332135798654 -0.9999999999999986
  endloop
endfacet
facet normal 0.20829273478145516 -0.9780665297602522 -6.107022299124928e-17
  outer loop
    vertex -32.60905734607498 11.161159558709706 -0.9999999999999986
    vertex -30.77694957293829 11.551332135798654 1.0000000000000013
    vertex -32.60905734607498 11.161159558709706 1.0000000000000013
  endloop
endfacet
facet normal 0.9494254776419043 -0.3139924559674041 -4.0730615451668e-17
  outer loop
    vertex -46.08687381066503 25.151433113783813 -0.999999999999996
    vertex -46.18945014329761 24.84127093710224 1.0000000000000038
    vertex -46.18945014329761 24.84127093710224 -0.999999999999996
  endloop
endfacet
facet normal 0.9494254776419043 -0.3139924559674041 -4.0730615451668e-17
  outer loop
    vertex -46.18945014329761 24.84127093710224 1.0000000000000038
    vertex -46.08687381066503 25.151433113783813 -0.999999999999996
    vertex -46.08687381066503 25.151433113783813 1.0000000000000038
  endloop
endfacet
facet normal -0.20829273478145516 -0.9780665297602522 -5.10987691488168e-17
  outer loop
    vertex -43.78939723357393 11.161159558709706 1.0000000000000013
    vertex -45.62150500671061 11.551332135798654 -0.9999999999999986
    vertex -43.78939723357393 11.161159558709706 -0.9999999999999986
  endloop
endfacet
facet normal -0.20829273478145516 -0.9780665297602522 -5.10987691488168e-17
  outer loop
    vertex -45.62150500671061 11.551332135798654 -0.9999999999999986
    vertex -43.78939723357393 11.161159558709706 1.0000000000000013
    vertex -45.62150500671061 11.551332135798654 1.0000000000000013
  endloop
endfacet
facet normal -0.32378892514411806 -0.9461293420849057 -4.650288566714896e-17
  outer loop
    vertex -47.42694404601347 12.050574970160158 1.0000000000000013
    vertex -49.19922728982445 12.657094249331813 -0.9999999999999986
    vertex -47.42694404601347 12.050574970160158 -0.9999999999999986
  endloop
endfacet
facet normal -0.32378892514411806 -0.9461293420849057 -4.650288566714896e-17
  outer loop
    vertex -49.19922728982445 12.657094249331813 -0.9999999999999986
    vertex -47.42694404601347 12.050574970160158 1.0000000000000013
    vertex -49.19922728982445 12.657094249331813 1.0000000000000013
  endloop
endfacet
facet normal -0.9006476121976884 0.4345502026723751 4.647610856060028e-17
  outer loop
    vertex -44.68631160887961 30.994477533791652 1.0000000000000033
    vertex -45.60641016639386 29.087483672747425 -0.9999999999999962
    vertex -45.60641016639386 29.087483672747425 1.0000000000000036
  endloop
endfacet
facet normal -0.9006476121976884 0.4345502026723751 4.647610856060028e-17
  outer loop
    vertex -45.60641016639386 29.087483672747425 -0.9999999999999962
    vertex -44.68631160887961 30.994477533791652 1.0000000000000033
    vertex -44.68631160887961 30.994477533791652 -0.9999999999999966
  endloop
endfacet
facet normal -0.9710259603112859 0.23897402453309666 3.6945925297348634e-17
  outer loop
    vertex -47.755252720555816 23.1160105502511 1.0000000000000038
    vertex -48.261246398395734 21.060000496874363 -0.9999999999999962
    vertex -48.261246398395734 21.060000496874363 1.0000000000000036
  endloop
endfacet
facet normal -0.9710259603112859 0.23897402453309666 3.6945925297348634e-17
  outer loop
    vertex -48.261246398395734 21.060000496874363 -0.9999999999999962
    vertex -47.755252720555816 23.1160105502511 1.0000000000000038
    vertex -47.755252720555816 23.1160105502511 -0.999999999999996
  endloop
endfacet
facet normal -0.8768161754223874 0.4808257423616765 4.8559217328055495e-17
  outer loop
    vertex -43.668231144891784 32.85101170003975 1.0000000000000027
    vertex -44.68631160887961 30.994477533791652 -0.9999999999999966
    vertex -44.68631160887961 30.994477533791652 1.0000000000000033
  endloop
endfacet
facet normal -0.8768161754223874 0.4808257423616765 4.8559217328055495e-17
  outer loop
    vertex -44.68631160887961 30.994477533791652 -0.9999999999999966
    vertex -43.668231144891784 32.85101170003975 1.0000000000000027
    vertex -43.668231144891784 32.85101170003975 -0.9999999999999971
  endloop
endfacet
facet normal -0.26651964129579514 -0.9638294874113165 -4.888865749491572e-17
  outer loop
    vertex -45.62150500671061 11.551332135798654 1.0000000000000013
    vertex -47.42694404601347 12.050574970160158 -0.9999999999999986
    vertex -45.62150500671061 11.551332135798654 -0.9999999999999986
  endloop
endfacet
facet normal -0.26651964129579514 -0.9638294874113165 -4.888865749491572e-17
  outer loop
    vertex -47.42694404601347 12.050574970160158 -0.9999999999999986
    vertex -45.62150500671061 11.551332135798654 1.0000000000000013
    vertex -47.42694404601347 12.050574970160158 1.0000000000000013
  endloop
endfacet
facet normal -0.9906036162791699 0.13676430606935155 3.155360796871673e-17
  outer loop
    vertex -48.65957237388645 18.980446852735895 1.0000000000000033
    vertex -48.94915143738701 16.88298388343648 -0.9999999999999971
    vertex -48.94915143738701 16.88298388343648 1.0000000000000027
  endloop
endfacet
facet normal -0.9906036162791699 0.13676430606935155 3.155360796871673e-17
  outer loop
    vertex -48.94915143738701 16.88298388343648 -0.9999999999999971
    vertex -48.65957237388645 18.980446852735895 1.0000000000000033
    vertex -48.65957237388645 18.980446852735895 -0.9999999999999966
  endloop
endfacet
facet normal 0.3237889251441211 0.9461293420849048 4.6502885667148834e-17
  outer loop
    vertex -48.1752999431051 13.363618859917336 1.0000000000000013
    vertex -47.13152439721833 13.006412982177983 -0.9999999999999986
    vertex -48.1752999431051 13.363618859917336 -0.9999999999999986
  endloop
endfacet
facet normal 0.3237889251441211 0.9461293420849048 4.6502885667148834e-17
  outer loop
    vertex -47.13152439721833 13.006412982177983 -0.9999999999999986
    vertex -48.1752999431051 13.363618859917336 1.0000000000000013
    vertex -47.13152439721833 13.006412982177983 1.0000000000000013
  endloop
endfacet
facet normal -0.999452924965633 0.03307341496793106 2.5819561558232954e-17
  outer loop
    vertex -49.12919901411103 14.77329437743898 1.000000000000002
    vertex -49.19922728982445 12.657094249331813 -0.9999999999999986
    vertex -49.19922728982445 12.657094249331813 1.0000000000000013
  endloop
endfacet
facet normal -0.999452924965633 0.03307341496793106 2.5819561558232954e-17
  outer loop
    vertex -49.19922728982445 12.657094249331813 -0.9999999999999986
    vertex -49.12919901411103 14.77329437743898 1.000000000000002
    vertex -49.12919901411103 14.77329437743898 -0.9999999999999978
  endloop
endfacet
facet normal -0.8220974664972263 0.5693467797211488 5.232545378808196e-17
  outer loop
    vertex -41.34941589063933 36.39273119037939 1.0000000000000013
    vertex -42.554927123922006 34.65205614660199 -0.9999999999999978
    vertex -42.554927123922006 34.65205614660199 1.000000000000002
  endloop
endfacet
facet normal -0.8220974664972263 0.5693467797211488 5.232545378808196e-17
  outer loop
    vertex -42.554927123922006 34.65205614660199 -0.9999999999999978
    vertex -41.34941589063933 36.39273119037939 1.0000000000000013
    vertex -41.34941589063933 36.39273119037939 -0.9999999999999986
  endloop
endfacet
facet normal 0.9906036162791695 -0.13676430606935427 -3.1553607968716874e-17
  outer loop
    vertex -47.67252936014538 18.817892588367087 -0.9999999999999966
    vertex -47.95498721856974 16.77200953566656 1.0000000000000027
    vertex -47.95498721856974 16.77200953566656 -0.9999999999999971
  endloop
endfacet
facet normal 0.9906036162791695 -0.13676430606935427 -3.1553607968716874e-17
  outer loop
    vertex -47.95498721856974 16.77200953566656 1.0000000000000027
    vertex -47.67252936014538 18.817892588367087 -0.9999999999999966
    vertex -47.67252936014538 18.817892588367087 1.0000000000000033
  endloop
endfacet
facet normal -0.8506091253854173 0.5257985505980931 5.05107615510883e-17
  outer loop
    vertex -42.554927123922006 34.65205614660199 1.000000000000002
    vertex -43.668231144891784 32.85101170003975 -0.9999999999999971
    vertex -43.668231144891784 32.85101170003975 1.0000000000000027
  endloop
endfacet
facet normal -0.8506091253854173 0.5257985505980931 5.05107615510883e-17
  outer loop
    vertex -43.668231144891784 32.85101170003975 -0.9999999999999971
    vertex -42.554927123922006 34.65205614660199 1.000000000000002
    vertex -42.554927123922006 34.65205614660199 -0.9999999999999978
  endloop
endfacet
facet normal 0.0898055953159165 -0.9959593139531123 -5.926010838927632e-17
  outer loop
    vertex -34.461250968866224 10.881459154720842 1.0000000000000013
    vertex -36.32687538734894 10.713235905848611 -0.9999999999999986
    vertex -34.461250968866224 10.881459154720842 -0.9999999999999986
  endloop
endfacet
facet normal 0.0898055953159165 -0.9959593139531123 -5.926010838927632e-17
  outer loop
    vertex -36.32687538734894 10.713235905848611 -0.9999999999999986
    vertex -34.461250968866224 10.881459154720842 1.0000000000000013
    vertex -36.32687538734894 10.713235905848611 1.0000000000000013
  endloop
endfacet
facet normal 0.8506091253854167 -0.5257985505980944 -5.051076155108836e-17
  outer loop
    vertex -41.718006947850846 34.1041123367779 -0.9999999999999978
    vertex -42.80393307019205 32.347358408667745 1.0000000000000027
    vertex -42.80393307019205 32.347358408667745 -0.9999999999999971
  endloop
endfacet
facet normal 0.8506091253854167 -0.5257985505980944 -5.051076155108836e-17
  outer loop
    vertex -42.80393307019205 32.347358408667745 1.0000000000000027
    vertex -41.718006947850846 34.1041123367779 -0.9999999999999978
    vertex -41.718006947850846 34.1041123367779 1.000000000000002
  endloop
endfacet
facet normal -0.9821452823160749 0.18812401341742008 3.4296227096582405e-17
  outer loop
    vertex -48.261246398395734 21.060000496874363 1.0000000000000036
    vertex -48.65957237388645 18.980446852735895 -0.9999999999999966
    vertex -48.65957237388645 18.980446852735895 1.0000000000000033
  endloop
endfacet
facet normal -0.9821452823160749 0.18812401341742008 3.4296227096582405e-17
  outer loop
    vertex -48.65957237388645 18.980446852735895 -0.9999999999999966
    vertex -48.261246398395734 21.060000496874363 1.0000000000000036
    vertex -48.261246398395734 21.060000496874363 -0.9999999999999962
  endloop
endfacet
facet normal 0.02997109447899259 -0.9995507658422015 -5.803384236612549e-17
  outer loop
    vertex -36.32687538734894 10.713235905848611 1.0000000000000013
    vertex -38.19922728982445 10.657094249331813 -0.9999999999999986
    vertex -36.32687538734894 10.713235905848611 -0.9999999999999986
  endloop
endfacet
facet normal 0.02997109447899259 -0.9995507658422015 -5.803384236612549e-17
  outer loop
    vertex -38.19922728982445 10.657094249331813 -0.9999999999999986
    vertex -36.32687538734894 10.713235905848611 1.0000000000000013
    vertex -38.19922728982445 10.657094249331813 1.0000000000000013
  endloop
endfacet
facet normal 0.9963780455038936 -0.08503405457721679 -2.8725498664408694e-17
  outer loop
    vertex -47.95498721856974 16.77200953566656 -0.9999999999999971
    vertex -48.13060714192052 14.71420061605431 1.000000000000002
    vertex -48.13060714192052 14.71420061605431 -0.9999999999999978
  endloop
endfacet
facet normal 0.9963780455038936 -0.08503405457721679 -2.8725498664408694e-17
  outer loop
    vertex -48.13060714192052 14.71420061605431 1.000000000000002
    vertex -47.95498721856974 16.77200953566656 -0.9999999999999971
    vertex -47.95498721856974 16.77200953566656 1.0000000000000027
  endloop
endfacet
facet normal 0.14931741872016388 0.9887893144986689 5.3125279551775075e-17
  outer loop
    vertex -43.610431397807474 12.145471655425398 1.0000000000000013
    vertex -41.817534609108755 11.874725687002492 -0.9999999999999986
    vertex -43.610431397807474 12.145471655425398 -0.9999999999999986
  endloop
endfacet
facet normal 0.14931741872016388 0.9887893144986689 5.3125279551775075e-17
  outer loop
    vertex -41.817534609108755 11.874725687002492 -0.9999999999999986
    vertex -43.610431397807474 12.145471655425398 1.0000000000000013
    vertex -41.817534609108755 11.874725687002492 1.0000000000000013
  endloop
endfacet
facet normal -0.029971094478994865 0.9995507658422015 5.803384236612555e-17
  outer loop
    vertex -38.19922728982458 11.657543685391637 1.0000000000000013
    vertex -36.38681757630687 11.711888001473191 -0.9999999999999986
    vertex -38.19922728982458 11.657543685391637 -0.9999999999999986
  endloop
endfacet
facet normal -0.029971094478994865 0.9995507658422015 5.803384236612555e-17
  outer loop
    vertex -36.38681757630687 11.711888001473191 -0.9999999999999986
    vertex -38.19922728982458 11.657543685391637 1.0000000000000013
    vertex -36.38681757630687 11.711888001473191 1.0000000000000013
  endloop
endfacet
facet normal 0.5271485028408167 0.8497731791205732 3.610996424774751e-17
  outer loop
    vertex -36.51393856682918 34.62545613681069 1.0000000000000022
    vertex -34.32138128249664 33.2653246120375 -0.9999999999999973
    vertex -36.51393856682918 34.62545613681069 -0.9999999999999977
  endloop
endfacet
facet normal 0.5271485028408167 0.8497731791205732 3.610996424774751e-17
  outer loop
    vertex -34.32138128249664 33.2653246120375 -0.9999999999999973
    vertex -36.51393856682918 34.62545613681069 1.0000000000000022
    vertex -34.32138128249664 33.2653246120375 1.0000000000000027
  endloop
endfacet
facet normal 0.8220067274067484 0.569477778405837 1.2979434803616377e-17
  outer loop
    vertex -30.589997194884674 29.718230751598426 -0.9999999999999968
    vertex -29.12064904176761 27.597315568312446 1.000000000000003
    vertex -29.12064904176761 27.597315568312446 -0.9999999999999968
  endloop
endfacet
facet normal 0.8220067274067484 0.569477778405837 1.2979434803616377e-17
  outer loop
    vertex -29.12064904176761 27.597315568312446 1.000000000000003
    vertex -30.589997194884674 29.718230751598426 -0.9999999999999968
    vertex -30.589997194884674 29.718230751598426 1.000000000000003
  endloop
endfacet
facet normal -0.029971094478989577 -0.9995507658422015 -5.659905691612885e-17
  outer loop
    vertex -38.19922728982445 10.657094249331813 1.0000000000000013
    vertex -40.071579192299964 10.713235905848606 -0.9999999999999986
    vertex -38.19922728982445 10.657094249331813 -0.9999999999999986
  endloop
endfacet
facet normal -0.029971094478989577 -0.9995507658422015 -5.659905691612885e-17
  outer loop
    vertex -40.071579192299964 10.713235905848606 -0.9999999999999986
    vertex -38.19922728982445 10.657094249331813 1.0000000000000013
    vertex -40.071579192299964 10.713235905848606 1.0000000000000013
  endloop
endfacet
facet normal -0.922038867699409 0.3870973087630447 4.426707914644391e-17
  outer loop
    vertex -45.60641016639386 29.087483672747425 1.0000000000000036
    vertex -46.42603393649035 27.135196855424457 -0.999999999999996
    vertex -46.42603393649035 27.135196855424457 1.0000000000000038
  endloop
endfacet
facet normal -0.922038867699409 0.3870973087630447 4.426707914644391e-17
  outer loop
    vertex -46.42603393649035 27.135196855424457 -0.999999999999996
    vertex -45.60641016639386 29.087483672747425 1.0000000000000036
    vertex -45.60641016639386 29.087483672747425 -0.9999999999999962
  endloop
endfacet
facet normal 0.9982229872635859 0.05958915755876161 -2.0476644913255643e-17
  outer loop
    vertex -26.607976157465057 20.326798575966006 -0.9999999999999973
    vertex -26.45422613959804 17.75121589591719 1.0000000000000022
    vertex -26.45422613959804 17.75121589591719 -0.9999999999999977
  endloop
endfacet
facet normal 0.9982229872635859 0.05958915755876161 -2.0476644913255643e-17
  outer loop
    vertex -26.45422613959804 17.75121589591719 1.0000000000000022
    vertex -26.607976157465057 20.326798575966006 -0.9999999999999973
    vertex -26.607976157465057 20.326798575966006 1.0000000000000027
  endloop
endfacet
facet normal 0.9772956365235246 -0.2118802464414248 -3.554238012557044e-17
  outer loop
    vertex -26.652540727862014 15.178680855564336 -0.999999999999998
    vertex -27.199227289824456 12.657094249331813 1.0000000000000013
    vertex -27.199227289824456 12.657094249331813 -0.9999999999999986
  endloop
endfacet
facet normal 0.9772956365235246 -0.2118802464414248 -3.554238012557044e-17
  outer loop
    vertex -27.199227289824456 12.657094249331813 1.0000000000000013
    vertex -26.652540727862014 15.178680855564336 -0.999999999999998
    vertex -26.652540727862014 15.178680855564336 1.0000000000000018
  endloop
endfacet
facet normal -0.9391420528373154 0.3435290447582463 4.2178163083512807e-17
  outer loop
    vertex -46.42603393649035 27.135196855424457 1.0000000000000038
    vertex -47.03138854727927 25.480274278875147 -0.999999999999996
    vertex -47.03138854727927 25.480274278875147 1.0000000000000038
  endloop
endfacet
facet normal -0.9391420528373154 0.3435290447582463 4.2178163083512807e-17
  outer loop
    vertex -47.03138854727927 25.480274278875147 -0.999999999999996
    vertex -46.42603393649035 27.135196855424457 1.0000000000000038
    vertex -46.42603393649035 27.135196855424457 -0.999999999999996
  endloop
endfacet
facet normal 0.14931741872016943 -0.988789314498668 -6.027344893080545e-17
  outer loop
    vertex -32.60905734607498 11.161159558709706 1.0000000000000013
    vertex -34.461250968866224 10.881459154720842 -0.9999999999999986
    vertex -32.60905734607498 11.161159558709706 -0.9999999999999986
  endloop
endfacet
facet normal 0.14931741872016943 -0.988789314498668 -6.027344893080545e-17
  outer loop
    vertex -34.461250968866224 10.881459154720842 -0.9999999999999986
    vertex -32.60905734607498 11.161159558709706 1.0000000000000013
    vertex -34.461250968866224 10.881459154720842 1.0000000000000013
  endloop
endfacet
facet normal 0.8768161754223895 -0.48082574236167275 -4.855921732805533e-17
  outer loop
    vertex -42.80393307019205 32.347358408667745 -0.9999999999999971
    vertex -43.79697733273456 30.5364793404403 1.0000000000000033
    vertex -43.79697733273456 30.5364793404403 -0.9999999999999966
  endloop
endfacet
facet normal 0.8768161754223895 -0.48082574236167275 -4.855921732805533e-17
  outer loop
    vertex -43.79697733273456 30.5364793404403 1.0000000000000033
    vertex -42.80393307019205 32.347358408667745 -0.9999999999999971
    vertex -42.80393307019205 32.347358408667745 1.0000000000000027
  endloop
endfacet
facet normal 0.4065548002192575 0.9136263976148453 4.265799829916278e-17
  outer loop
    vertex -38.87124786120114 35.67443568877019 1.0000000000000018
    vertex -36.51393856682918 34.62545613681069 -0.9999999999999977
    vertex -38.87124786120114 35.67443568877019 -0.9999999999999981
  endloop
endfacet
facet normal 0.4065548002192575 0.9136263976148453 4.265799829916278e-17
  outer loop
    vertex -36.51393856682918 34.62545613681069 -0.9999999999999977
    vertex -38.87124786120114 35.67443568877019 1.0000000000000018
    vertex -36.51393856682918 34.62545613681069 1.0000000000000022
  endloop
endfacet
facet normal 0.9220388676994066 -0.3870973087630507 -4.426707914644419e-17
  outer loop
    vertex -44.694449218143475 28.67638146075412 -0.9999999999999962
    vertex -45.494933532882364 26.769683494985586 1.0000000000000038
    vertex -45.494933532882364 26.769683494985586 -0.999999999999996
  endloop
endfacet
facet normal 0.9220388676994066 -0.3870973087630507 -4.426707914644419e-17
  outer loop
    vertex -45.494933532882364 26.769683494985586 1.0000000000000038
    vertex -44.694449218143475 28.67638146075412 -0.9999999999999962
    vertex -44.694449218143475 28.67638146075412 1.0000000000000036
  endloop
endfacet
facet normal 0.9451484830224008 0.3266410033055474 -3.892902475394006e-18
  outer loop
    vertex -27.95371650136384 25.29611291406654 -0.9999999999999968
    vertex -27.11092794465693 22.85747135400786 1.0000000000000029
    vertex -27.11092794465693 22.85747135400786 -0.9999999999999969
  endloop
endfacet
facet normal 0.9451484830224008 0.3266410033055474 -3.892902475394006e-18
  outer loop
    vertex -27.11092794465693 22.85747135400786 1.0000000000000029
    vertex -27.95371650136384 25.29611291406654 -0.9999999999999968
    vertex -27.95371650136384 25.29611291406654 1.000000000000003
  endloop
endfacet
facet normal 0.26651964129579514 -0.9638294874113165 -6.164756770880809e-17
  outer loop
    vertex -28.97151053363544 12.050574970160158 1.0000000000000013
    vertex -30.77694957293829 11.551332135798654 -0.9999999999999986
    vertex -28.97151053363544 12.050574970160158 -0.9999999999999986
  endloop
endfacet
facet normal 0.26651964129579514 -0.9638294874113165 -6.164756770880809e-17
  outer loop
    vertex -30.77694957293829 11.551332135798654 -0.9999999999999986
    vertex -28.97151053363544 12.050574970160158 1.0000000000000013
    vertex -30.77694957293829 11.551332135798654 1.0000000000000013
  endloop
endfacet
facet normal 0.7368265771297058 0.676081796260868 2.113122992453831e-17
  outer loop
    vertex -32.33440158845529 31.61936686494042 -0.9999999999999969
    vertex -30.589997194884674 29.718230751598426 1.000000000000003
    vertex -30.589997194884674 29.718230751598426 -0.9999999999999968
  endloop
endfacet
facet normal 0.7368265771297058 0.676081796260868 2.113122992453831e-17
  outer loop
    vertex -30.589997194884674 29.718230751598426 1.000000000000003
    vertex -32.33440158845529 31.61936686494042 -0.9999999999999969
    vertex -32.33440158845529 31.61936686494042 1.0000000000000029
  endloop
endfacet
facet normal -0.9963780455038929 0.0850340545772245 2.872549866440912e-17
  outer loop
    vertex -48.94915143738701 16.88298388343648 1.0000000000000027
    vertex -49.12919901411103 14.77329437743898 -0.9999999999999978
    vertex -49.12919901411103 14.77329437743898 1.000000000000002
  endloop
endfacet
facet normal -0.9963780455038929 0.0850340545772245 2.872549866440912e-17
  outer loop
    vertex -49.12919901411103 14.77329437743898 -0.9999999999999978
    vertex -48.94915143738701 16.88298388343648 1.0000000000000027
    vertex -48.94915143738701 16.88298388343648 -0.9999999999999971
  endloop
endfacet
facet normal 0.9821452823160749 -0.18812401341742074 -3.429622709658244e-17
  outer loop
    vertex -47.28399884750468 20.846306734408177 -0.9999999999999962
    vertex -47.67252936014538 18.817892588367087 1.0000000000000033
    vertex -47.67252936014538 18.817892588367087 -0.9999999999999966
  endloop
endfacet
facet normal 0.9821452823160749 -0.18812401341742074 -3.429622709658244e-17
  outer loop
    vertex -47.67252936014538 18.817892588367087 1.0000000000000033
    vertex -47.28399884750468 20.846306734408177 -0.9999999999999962
    vertex -47.28399884750468 20.846306734408177 1.0000000000000036
  endloop
endfacet
facet normal -0.0898055953159224 0.9959593139531117 5.926010838927642e-17
  outer loop
    vertex -36.38681757630687 11.711888001473191 1.0000000000000013
    vertex -34.580919970539924 11.874725687002517 -0.9999999999999986
    vertex -36.38681757630687 11.711888001473191 -0.9999999999999986
  endloop
endfacet
facet normal -0.0898055953159224 0.9959593139531117 5.926010838927642e-17
  outer loop
    vertex -34.580919970539924 11.874725687002517 -0.9999999999999986
    vertex -36.38681757630687 11.711888001473191 1.0000000000000013
    vertex -34.580919970539924 11.874725687002517 1.0000000000000013
  endloop
endfacet
facet normal -0.8220067274067482 -0.5694777784058374 -1.2979434803616398e-17
  outer loop
    vertex -31.37305901453218 29.092538354483587 1.000000000000003
    vertex -29.981600676933613 27.084052408615623 -0.9999999999999968
    vertex -29.981600676933613 27.084052408615623 1.000000000000003
  endloop
endfacet
facet normal -0.8220067274067482 -0.5694777784058374 -1.2979434803616398e-17
  outer loop
    vertex -29.981600676933613 27.084052408615623 -0.9999999999999968
    vertex -31.37305901453218 29.092538354483587 1.000000000000003
    vertex -31.37305901453218 29.092538354483587 -0.9999999999999968
  endloop
endfacet
facet normal -0.891881051078 -0.4522700418201518 -4.585961638073299e-18
  outer loop
    vertex -29.981600676933613 27.084052408615623 1.000000000000003
    vertex -28.876526968353826 24.904835990123036 -0.9999999999999968
    vertex -28.876526968353826 24.904835990123036 1.000000000000003
  endloop
endfacet
facet normal -0.891881051078 -0.4522700418201518 -4.585961638073299e-18
  outer loop
    vertex -28.876526968353826 24.904835990123036 -0.9999999999999968
    vertex -29.981600676933613 27.084052408615623 1.000000000000003
    vertex -29.981600676933613 27.084052408615623 -0.9999999999999968
  endloop
endfacet
facet normal -0.9808171796821114 -0.19492988493411995 1.2299280454265148e-17
  outer loop
    vertex -28.078414443711722 22.595466271340225 1.0000000000000029
    vertex -27.60212401777448 20.198943888765374 -0.9999999999999973
    vertex -27.60212401777448 20.198943888765374 1.0000000000000027
  endloop
endfacet
facet normal -0.9808171796821114 -0.19492988493411995 1.2299280454265148e-17
  outer loop
    vertex -27.60212401777448 20.198943888765374 -0.9999999999999973
    vertex -28.078414443711722 22.595466271340225 1.0000000000000029
    vertex -28.078414443711722 22.595466271340225 -0.9999999999999969
  endloop
endfacet
facet normal -0.9982229872635862 -0.05958915755875747 2.0476644913255883e-17
  outer loop
    vertex -27.60212401777448 20.198943888765374 1.0000000000000027
    vertex -27.45652425381579 17.75989226800025 -0.9999999999999977
    vertex -27.45652425381579 17.75989226800025 1.0000000000000022
  endloop
endfacet
facet normal -0.9982229872635862 -0.05958915755875747 2.0476644913255883e-17
  outer loop
    vertex -27.45652425381579 17.75989226800025 -0.9999999999999977
    vertex -27.60212401777448 20.198943888765374 1.0000000000000027
    vertex -27.60212401777448 20.198943888765374 -0.9999999999999973
  endloop
endfacet
facet normal -0.4065548002192539 -0.9136263976148471 -4.2657998299162975e-17
  outer loop
    vertex -36.98297358511968 33.739632824397766 -0.9999999999999977
    vertex -39.215322443349194 34.73300620595344 1.0000000000000018
    vertex -39.215322443349194 34.73300620595344 -0.9999999999999981
  endloop
endfacet
facet normal -0.4065548002192539 -0.9136263976148471 -4.2657998299162975e-17
  outer loop
    vertex -39.215322443349194 34.73300620595344 1.0000000000000018
    vertex -36.98297358511968 33.739632824397766 -0.9999999999999977
    vertex -36.98297358511968 33.739632824397766 1.0000000000000022
  endloop
endfacet
facet normal 0.8220974664972238 -0.5693467797211522 -5.2325453788082097e-17
  outer loop
    vertex -40.93688411428496 35.23199981304001 -0.9999999999999983
    vertex -41.718006947850846 34.1041123367779 1.000000000000002
    vertex -41.718006947850846 34.1041123367779 -0.9999999999999978
  endloop
endfacet
facet normal 0.8220974664972238 -0.5693467797211522 -5.2325453788082097e-17
  outer loop
    vertex -41.718006947850846 34.1041123367779 1.000000000000002
    vertex -40.93688411428496 35.23199981304001 -0.9999999999999983
    vertex -40.93688411428496 35.23199981304001 1.0000000000000016
  endloop
endfacet
facet normal -0.9970418083307657 0.07686112437713158 2.8272732715911405e-17
  outer loop
    vertex -27.45652425381579 17.75989226800025 1.0000000000000022
    vertex -27.644326230305804 15.323726732235487 -0.999999999999998
    vertex -27.644326230305804 15.323726732235487 1.0000000000000018
  endloop
endfacet
facet normal -0.9970418083307657 0.07686112437713158 2.8272732715911405e-17
  outer loop
    vertex -27.644326230305804 15.323726732235487 -0.999999999999998
    vertex -27.45652425381579 17.75989226800025 1.0000000000000022
    vertex -27.45652425381579 17.75989226800025 -0.9999999999999977
  endloop
endfacet
facet normal -0.9451484830224013 -0.3266410033055459 3.892902475394103e-18
  outer loop
    vertex -28.876526968353826 24.904835990123036 1.000000000000003
    vertex -28.078414443711722 22.595466271340225 -0.9999999999999969
    vertex -28.078414443711722 22.595466271340225 1.0000000000000029
  endloop
endfacet
facet normal -0.9451484830224013 -0.3266410033055459 3.892902475394103e-18
  outer loop
    vertex -28.078414443711722 22.595466271340225 -0.9999999999999969
    vertex -28.876526968353826 24.904835990123036 1.000000000000003
    vertex -28.876526968353826 24.904835990123036 -0.9999999999999968
  endloop
endfacet
facet normal -0.7368265771297062 -0.6760817962608676 -2.113122992453828e-17
  outer loop
    vertex -33.02499292306721 30.89289566953353 1.0000000000000029
    vertex -31.37305901453218 29.092538354483587 -0.9999999999999968
    vertex -31.37305901453218 29.092538354483587 1.000000000000003
  endloop
endfacet
facet normal -0.7368265771297062 -0.6760817962608676 -2.113122992453828e-17
  outer loop
    vertex -31.37305901453218 29.092538354483587 -0.9999999999999968
    vertex -33.02499292306721 30.89289566953353 1.0000000000000029
    vertex -33.02499292306721 30.89289566953353 -0.9999999999999969
  endloop
endfacet
facet normal -0.2783910168788482 -0.9604678244070236 -4.84117372389349e-17
  outer loop
    vertex -39.215322443349194 34.73300620595344 -0.9999999999999981
    vertex -40.93688411428496 35.23199981304001 1.0000000000000016
    vertex -40.93688411428496 35.23199981304001 -0.9999999999999983
  endloop
endfacet
facet normal -0.2783910168788482 -0.9604678244070236 -4.84117372389349e-17
  outer loop
    vertex -40.93688411428496 35.23199981304001 1.0000000000000016
    vertex -39.215322443349194 34.73300620595344 -0.9999999999999981
    vertex -39.215322443349194 34.73300620595344 1.0000000000000018
  endloop
endfacet
facet normal -0.527148502840819 -0.8497731791205717 -3.610996424774737e-17
  outer loop
    vertex -34.90664326988778 32.45160156620928 -0.9999999999999973
    vertex -36.98297358511968 33.739632824397766 1.0000000000000022
    vertex -36.98297358511968 33.739632824397766 -0.9999999999999977
  endloop
endfacet
facet normal -0.527148502840819 -0.8497731791205717 -3.610996424774737e-17
  outer loop
    vertex -36.98297358511968 33.739632824397766 1.0000000000000022
    vertex -34.90664326988778 32.45160156620928 -0.9999999999999973
    vertex -34.90664326988778 32.45160156620928 1.0000000000000027
  endloop
endfacet
facet normal -0.637926661001521 -0.7700971206175562 -2.888955996736726e-17
  outer loop
    vertex -33.02499292306721 30.89289566953353 -0.9999999999999969
    vertex -34.90664326988778 32.45160156620928 1.0000000000000027
    vertex -34.90664326988778 32.45160156620928 -0.9999999999999973
  endloop
endfacet
facet normal -0.637926661001521 -0.7700971206175562 -2.888955996736726e-17
  outer loop
    vertex -34.90664326988778 32.45160156620928 1.0000000000000027
    vertex -33.02499292306721 30.89289566953353 -0.9999999999999969
    vertex -33.02499292306721 30.89289566953353 1.0000000000000029
  endloop
endfacet
endsolid Untitled-55f0d9a7
