solid Untitled-55f0d8df
facet normal -6.330738553427872e-17 5.57475069775795e-17 -1.0
  outer loop
    vertex -21.929971724286574 2.116200128107165 7.55221253726434e-16
    vertex -20.22771675618901 -0.6065192791716548 0.0
    vertex -21.999999999999996 0.0 0.0
  endloop
endfacet
facet normal -6.330738553427872e-17 5.57475069775795e-17 -1.0
  outer loop
    vertex -20.22771675618901 -0.6065192791716548 0.0
    vertex -21.929971724286574 2.116200128107165 7.55221253726434e-16
    vertex -21.74992414756256 4.225889634104668 1.3759395984388635e-15
  endloop
endfacet
facet normal -6.330738553427872e-17 5.57475069775795e-17 -1.0
  outer loop
    vertex -20.22771675618901 -0.6065192791716548 0.0
    vertex -21.74992414756256 4.225889634104668 1.3759395984388635e-15
    vertex -21.46034508406199 6.323352603404082 1.8604732828503215e-15
  endloop
endfacet
facet normal -6.330738553427872e-17 5.57475069775795e-17 -1.0
  outer loop
    vertex -20.22771675618901 -0.6065192791716548 0.0
    vertex -21.46034508406199 6.323352603404082 1.8604732828503215e-15
    vertex -21.062019108571278 8.40290624754255 2.2075095293471063e-15
  endloop
endfacet
facet normal -6.330738553427872e-17 5.57475069775795e-17 -1.0
  outer loop
    vertex -20.22771675618901 -0.6065192791716548 0.0
    vertex -21.062019108571278 8.40290624754255 2.2075095293471063e-15
    vertex -20.55602543073136 10.458916300919286 2.4161080907798467e-15
  endloop
endfacet
facet normal -6.330738553427872e-17 5.57475069775795e-17 -1.0
  outer loop
    vertex -20.22771675618901 -0.6065192791716548 0.0
    vertex -20.55602543073136 10.458916300919286 2.4161080907798467e-15
    vertex -19.943734971067077 12.485812286066098 2.4857037979342883e-15
  endloop
endfacet
facet normal -6.330738553427872e-17 5.57475069775795e-17 -1.0
  outer loop
    vertex -20.22771675618901 -0.6065192791716548 0.0
    vertex -19.943734971067077 12.485812286066098 2.4857037979342883e-15
    vertex -18.42227771688616 -1.1057621135331586 0.0
  endloop
endfacet
facet normal -6.330738553427872e-17 5.57475069775795e-17 -1.0
  outer loop
    vertex -18.42227771688616 -1.1057621135331586 0.0
    vertex -19.943734971067077 12.485812286066098 2.4857037979342883e-15
    vertex -19.832161257454818 12.82318002954333 2.4857037979342883e-15
  endloop
endfacet
facet normal -6.330738553427872e-17 5.57475069775795e-17 -1.0
  outer loop
    vertex -18.42227771688616 -1.1057621135331586 0.0
    vertex -19.832161257454818 12.82318002954333 2.4857037979342883e-15
    vertex -19.226806646665896 14.478102606092648 2.4161080907798364e-15
  endloop
endfacet
facet normal -6.330738553427872e-17 5.57475069775795e-17 -1.0
  outer loop
    vertex -18.42227771688616 -1.1057621135331586 0.0
    vertex -19.226806646665896 14.478102606092648 2.4161080907798364e-15
    vertex -18.407182876569404 16.43038942341561 2.2075095293470964e-15
  endloop
endfacet
facet normal -6.330738553427872e-17 5.57475069775795e-17 -1.0
  outer loop
    vertex -18.42227771688616 -1.1057621135331586 0.0
    vertex -18.407182876569404 16.43038942341561 2.2075095293470964e-15
    vertex -16.590169943749476 -1.4959346906221074 0.0
  endloop
endfacet
facet normal -6.330738553427872e-17 5.57475069775795e-17 -1.0
  outer loop
    vertex -16.590169943749476 -1.4959346906221074 0.0
    vertex -18.407182876569404 16.43038942341561 2.2075095293470964e-15
    vertex -17.487084319055157 18.33738328445984 1.8604732828503215e-15
  endloop
endfacet
facet normal -6.330738553427872e-17 5.57475069775795e-17 -1.0
  outer loop
    vertex -16.590169943749476 -1.4959346906221074 0.0
    vertex -17.487084319055157 18.33738328445984 1.8604732828503215e-15
    vertex -16.46900385506733 20.19391745070794 1.3759395984388635e-15
  endloop
endfacet
facet normal -6.330738553427872e-17 5.57475069775795e-17 -1.0
  outer loop
    vertex -16.590169943749476 -1.4959346906221074 0.0
    vertex -16.46900385506733 20.19391745070794 1.3759395984388635e-15
    vertex -14.737976320958222 -1.775635094610965 0.0
  endloop
endfacet
facet normal -6.330738553427872e-17 5.57475069775795e-17 -1.0
  outer loop
    vertex -14.737976320958222 -1.775635094610965 0.0
    vertex -16.46900385506733 20.19391745070794 1.3759395984388635e-15
    vertex -15.355699834097553 21.99496189727018 7.55221253726434e-16
  endloop
endfacet
facet normal -6.330738553427872e-17 5.57475069775795e-17 -1.0
  outer loop
    vertex -14.737976320958222 -1.775635094610965 0.0
    vertex -15.355699834097553 21.99496189727018 7.55221253726434e-16
    vertex -14.150188600814873 23.73563694104758 0.0
  endloop
endfacet
facet normal -6.330738553427872e-17 5.57475069775795e-17 -1.0
  outer loop
    vertex -14.737976320958222 -1.775635094610965 0.0
    vertex -14.150188600814873 23.73563694104758 0.0
    vertex -12.872351902475508 -1.943858343483207 0.0
  endloop
endfacet
facet normal -6.330738553427872e-17 5.57475069775795e-17 -1.0
  outer loop
    vertex -12.872351902475508 -1.943858343483207 0.0
    vertex -14.150188600814873 23.73563694104758 0.0
    vertex 0.0 0.0 0.0
  endloop
endfacet
facet normal -6.330738553427872e-17 5.57475069775795e-17 -1.0
  outer loop
    vertex -12.872351902475508 -1.943858343483207 0.0
    vertex 0.0 0.0 0.0
    vertex -10.999999999999998 -1.9999999999999998 0.0
  endloop
endfacet
facet normal -6.330738553427872e-17 5.57475069775795e-17 -1.0
  outer loop
    vertex -10.999999999999998 -1.9999999999999998 0.0
    vertex 0.0 0.0 0.0
    vertex -9.127648097524492 -1.9438583434832013 0.0
  endloop
endfacet
facet normal -6.330738553427872e-17 5.57475069775795e-17 -1.0
  outer loop
    vertex -9.127648097524492 -1.9438583434832013 0.0
    vertex 0.0 0.0 0.0
    vertex -7.262023679041775 -1.7756350946109705 0.0
  endloop
endfacet
facet normal -6.330738553427872e-17 5.57475069775795e-17 -1.0
  outer loop
    vertex -7.262023679041775 -1.7756350946109705 0.0
    vertex 0.0 0.0 0.0
    vertex -5.409830056250526 -1.4959346906221074 0.0
  endloop
endfacet
facet normal -6.330738553427872e-17 5.57475069775795e-17 -1.0
  outer loop
    vertex -5.409830056250526 -1.4959346906221074 0.0
    vertex 0.0 0.0 0.0
    vertex -3.5777222831138387 -1.1057621135331586 0.0
  endloop
endfacet
facet normal -6.330738553427872e-17 5.57475069775795e-17 -1.0
  outer loop
    vertex -3.5777222831138387 -1.1057621135331586 0.0
    vertex 0.0 0.0 0.0
    vertex -1.7722832438109888 -0.6065192791716548 0.0
  endloop
endfacet
facet normal 7.125399727194886e-17 -4.333924971307444e-17 1.0
  outer loop
    vertex -20.81855605377937 -2.518195303207278 -7.371685878137725e-17
    vertex -23.9271554686676 2.2343876508761107 9.040263575053022e-16
    vertex -24.047854693438694 -1.4130492211710435 -6.449224356748527e-17
  endloop
endfacet
facet normal 7.125399727194886e-17 -4.333924971307444e-17 1.0
  outer loop
    vertex -23.9271554686676 2.2343876508761107 9.040263575053022e-16
    vertex -20.81855605377937 -2.518195303207278 -7.371685878137725e-17
    vertex -21.999999999999996 0.0 0.0
  endloop
endfacet
facet normal 7.125399727194886e-17 -4.333924971307444e-17 1.0
  outer loop
    vertex -23.9271554686676 2.2343876508761107 9.040263575053022e-16
    vertex -21.999999999999996 0.0 0.0
    vertex -23.7382525851971 4.4478383296446395 1.5268410910069937e-15
  endloop
endfacet
facet normal 7.125399727194886e-17 -4.333924971307444e-17 1.0
  outer loop
    vertex -23.7382525851971 4.4478383296446395 1.5268410910069937e-15
    vertex -21.999999999999996 0.0 0.0
    vertex -23.434431111544132 6.648461132141568 2.0130623172941534e-15
  endloop
endfacet
facet normal 7.125399727194886e-17 -4.333924971307444e-17 1.0
  outer loop
    vertex -23.434431111544132 6.648461132141568 2.0130623172941534e-15
    vertex -21.999999999999996 0.0 0.0
    vertex -23.016514210353446 8.830293772474667 2.3613726865898808e-15
  endloop
endfacet
facet normal 7.125399727194886e-17 -4.333924971307444e-17 1.0
  outer loop
    vertex -23.016514210353446 8.830293772474667 2.3613726865898808e-15
    vertex -21.999999999999996 0.0 0.0
    vertex -22.48563417019433 10.987424874119588 2.5708284996835767e-15
  endloop
endfacet
facet normal 7.125399727194886e-17 -4.333924971307444e-17 1.0
  outer loop
    vertex -21.999999999999996 0.0 0.0
    vertex -20.81855605377937 -2.518195303207278 -7.371685878137725e-17
    vertex -20.22771675618901 -0.6065192791716548 0.0
  endloop
endfacet
facet normal 7.125399727194886e-17 -4.333924971307444e-17 1.0
  outer loop
    vertex -20.22771675618901 -0.6065192791716548 0.0
    vertex -20.81855605377937 -2.518195303207278 -7.371685878137725e-17
    vertex -18.897516984478845 -3.049404039142828 -8.267660445509551e-17
  endloop
endfacet
facet normal 7.125399727194886e-17 -4.333924971307444e-17 1.0
  outer loop
    vertex -20.22771675618901 -0.6065192791716548 0.0
    vertex -18.897516984478845 -3.049404039142828 -8.267660445509551e-17
    vertex -18.42227771688616 -1.1057621135331586 0.0
  endloop
endfacet
facet normal 7.125399727194886e-17 -4.333924971307444e-17 1.0
  outer loop
    vertex -18.42227771688616 -1.1057621135331586 0.0
    vertex -18.897516984478845 -3.049404039142828 -8.267660445509551e-17
    vertex -16.948101615282482 -3.4645588840534765 -9.133928763093939e-17
  endloop
endfacet
facet normal 7.125399727194886e-17 -4.333924971307444e-17 1.0
  outer loop
    vertex -18.42227771688616 -1.1057621135331586 0.0
    vertex -16.948101615282482 -3.4645588840534765 -9.133928763093939e-17
    vertex -16.590169943749476 -1.4959346906221074 0.0
  endloop
endfacet
facet normal 7.125399727194886e-17 -4.333924971307444e-17 1.0
  outer loop
    vertex -16.590169943749476 -1.4959346906221074 0.0
    vertex -16.948101615282482 -3.4645588840534765 -9.133928763093939e-17
    vertex -14.977314324305862 -3.7621681591742697 -9.967378271637172e-17
  endloop
endfacet
facet normal 7.125399727194886e-17 -4.333924971307444e-17 1.0
  outer loop
    vertex -16.590169943749476 -1.4959346906221074 0.0
    vertex -14.977314324305862 -3.7621681591742697 -9.967378271637172e-17
    vertex -14.737976320958222 -1.775635094610965 0.0
  endloop
endfacet
facet normal 7.125399727194886e-17 -4.333924971307444e-17 1.0
  outer loop
    vertex -14.737976320958222 -1.775635094610965 0.0
    vertex -14.977314324305862 -3.7621681591742697 -9.967378271637172e-17
    vertex -12.992236280391577 -3.9411625347323533 -1.076501433203347e-16
  endloop
endfacet
facet normal 7.125399727194886e-17 -4.333924971307444e-17 1.0
  outer loop
    vertex -14.737976320958222 -1.775635094610965 0.0
    vertex -12.992236280391577 -3.9411625347323533 -1.076501433203347e-16
    vertex -12.872351902475508 -1.943858343483207 0.0
  endloop
endfacet
facet normal 7.125399727194886e-17 -4.333924971307444e-17 1.0
  outer loop
    vertex -12.872351902475508 -1.943858343483207 0.0
    vertex -12.992236280391577 -3.9411625347323533 -1.076501433203347e-16
    vertex -11.00000000000014 -4.000898872119661 -1.1523970985259792e-16
  endloop
endfacet
facet normal 7.125399727194886e-17 -4.333924971307444e-17 1.0
  outer loop
    vertex -12.872351902475508 -1.943858343483207 0.0
    vertex -11.00000000000014 -4.000898872119661 -1.1523970985259792e-16
    vertex -10.999999999999998 -1.9999999999999998 0.0
  endloop
endfacet
facet normal 7.125399727194886e-17 -4.333924971307444e-17 1.0
  outer loop
    vertex -10.999999999999998 -1.9999999999999998 0.0
    vertex -11.00000000000014 -4.000898872119661 -1.1523970985259792e-16
    vertex -9.007763719608446 -3.941162534732343 -1.2241521249957308e-16
  endloop
endfacet
facet normal 7.125399727194886e-17 -4.333924971307444e-17 1.0
  outer loop
    vertex -10.999999999999998 -1.9999999999999998 0.0
    vertex -9.007763719608446 -3.941162534732343 -1.2241521249957308e-16
    vertex -9.127648097524492 -1.9438583434832013 0.0
  endloop
endfacet
facet normal 7.125399727194886e-17 -4.333924971307444e-17 1.0
  outer loop
    vertex -9.127648097524492 -1.9438583434832013 0.0
    vertex -9.007763719608446 -3.941162534732343 -1.2241521249957308e-16
    vertex -7.262023679041775 -1.7756350946109705 0.0
  endloop
endfacet
facet normal 7.125399727194886e-17 -4.333924971307444e-17 1.0
  outer loop
    vertex -7.262023679041775 -1.7756350946109705 0.0
    vertex -9.007763719608446 -3.941162534732343 -1.2241521249957308e-16
    vertex -7.0226856756939045 -3.762168159174244 -1.2915086920654327e-16
  endloop
endfacet
facet normal 7.125399727194886e-17 -4.333924971307444e-17 1.0
  outer loop
    vertex -7.262023679041775 -1.7756350946109705 0.0
    vertex -7.0226856756939045 -3.762168159174244 -1.2915086920654327e-16
    vertex -5.409830056250526 -1.4959346906221074 0.0
  endloop
endfacet
facet normal 7.125399727194886e-17 -4.333924971307444e-17 1.0
  outer loop
    vertex -5.409830056250526 -1.4959346906221074 0.0
    vertex -7.0226856756939045 -3.762168159174244 -1.2915086920654327e-16
    vertex -5.051898384717675 -3.4645588840535066 -1.3542247831429096e-16
  endloop
endfacet
facet normal 7.125399727194886e-17 -4.333924971307444e-17 1.0
  outer loop
    vertex -5.409830056250526 -1.4959346906221074 0.0
    vertex -5.051898384717675 -3.4645588840535066 -1.3542247831429096e-16
    vertex -3.5777222831138387 -1.1057621135331586 0.0
  endloop
endfacet
facet normal 7.125399727194886e-17 -4.333924971307444e-17 1.0
  outer loop
    vertex -3.5777222831138387 -1.1057621135331586 0.0
    vertex -5.051898384717675 -3.4645588840535066 -1.3542247831429096e-16
    vertex -3.1024830155209324 -3.049404039142777 -1.412075055172596e-16
  endloop
endfacet
facet normal 7.125399727194886e-17 -4.333924971307444e-17 1.0
  outer loop
    vertex -3.5777222831138387 -1.1057621135331586 0.0
    vertex -3.1024830155209324 -3.049404039142777 -1.412075055172596e-16
    vertex -1.7722832438109888 -0.6065192791716548 0.0
  endloop
endfacet
facet normal 7.125399727194886e-17 -4.333924971307444e-17 1.0
  outer loop
    vertex -1.7722832438109888 -0.6065192791716548 0.0
    vertex -3.1024830155209324 -3.049404039142777 -1.412075055172596e-16
    vertex -1.181443946220567 -2.518195303207256 -1.4648516483079868e-16
  endloop
endfacet
facet normal 7.125399727194886e-17 -4.333924971307444e-17 1.0
  outer loop
    vertex -1.7722832438109888 -0.6065192791716548 0.0
    vertex -1.181443946220567 -2.518195303207256 -1.4648516483079868e-16
    vertex 0.0 0.0 0.0
  endloop
endfacet
facet normal 7.125399727194886e-17 -4.333924971307444e-17 1.0
  outer loop
    vertex 0.0 0.0 0.0
    vertex -1.181443946220567 -2.518195303207256 -1.4648516483079868e-16
    vertex 2.9805488673040417 -1.0938581437877382 -5.166224523692487e-17
  endloop
endfacet
facet normal 7.125399727194886e-17 -4.333924971307444e-17 1.0
  outer loop
    vertex -21.999999999999996 0.0 0.0
    vertex -21.850759206254946 13.089083482657307 2.640006385795974e-15
    vertex -22.48563417019433 10.987424874119588 2.5708284996835767e-15
  endloop
endfacet
facet normal 7.125399727194886e-17 -4.333924971307444e-17 1.0
  outer loop
    vertex -21.850759206254946 13.089083482657307 2.640006385795974e-15
    vertex -21.999999999999996 0.0 0.0
    vertex -21.929971724286574 2.116200128107165 7.55221253726434e-16
  endloop
endfacet
facet normal 7.125399727194886e-17 -4.333924971307444e-17 1.0
  outer loop
    vertex -21.850759206254946 13.089083482657307 2.640006385795974e-15
    vertex -21.929971724286574 2.116200128107165 7.55221253726434e-16
    vertex -21.74992414756256 4.225889634104668 1.3759395984388635e-15
  endloop
endfacet
facet normal 7.125399727194886e-17 -4.333924971307444e-17 1.0
  outer loop
    vertex -21.850759206254946 13.089083482657307 2.640006385795974e-15
    vertex -21.74992414756256 4.225889634104668 1.3759395984388635e-15
    vertex -21.721190730683407 13.480862359725649 2.640923680692474e-15
  endloop
endfacet
facet normal 7.125399727194886e-17 -4.333924971307444e-17 1.0
  outer loop
    vertex -21.721190730683407 13.480862359725649 2.640923680692474e-15
    vertex -21.74992414756256 4.225889634104668 1.3759395984388635e-15
    vertex -21.46034508406199 6.323352603404082 1.8604732828503215e-15
  endloop
endfacet
facet normal 7.125399727194886e-17 -4.333924971307444e-17 1.0
  outer loop
    vertex -21.721190730683407 13.480862359725649 2.640923680692474e-15
    vertex -21.46034508406199 6.323352603404082 1.8604732828503215e-15
    vertex -21.08900745388181 15.209129326970556 2.5714700764268793e-15
  endloop
endfacet
facet normal 7.125399727194886e-17 -4.333924971307444e-17 1.0
  outer loop
    vertex -21.08900745388181 15.209129326970556 2.5714700764268793e-15
    vertex -21.46034508406199 6.323352603404082 1.8604732828503215e-15
    vertex -21.062019108571278 8.40290624754255 2.2075095293471063e-15
  endloop
endfacet
facet normal 7.125399727194886e-17 -4.333924971307444e-17 1.0
  outer loop
    vertex -21.08900745388181 15.209129326970556 2.5714700764268793e-15
    vertex -21.062019108571278 8.40290624754255 2.2075095293471063e-15
    vertex -20.23110477307001 17.25259384740257 2.3622829223026436e-15
  endloop
endfacet
facet normal 7.125399727194886e-17 -4.333924971307444e-17 1.0
  outer loop
    vertex -20.23110477307001 17.25259384740257 2.3622829223026436e-15
    vertex -21.062019108571278 8.40290624754255 2.2075095293471063e-15
    vertex -20.55602543073136 10.458916300919286 2.4161080907798467e-15
  endloop
endfacet
facet normal 7.125399727194886e-17 -4.333924971307444e-17 1.0
  outer loop
    vertex -20.23110477307001 17.25259384740257 2.3622829223026436e-15
    vertex -20.55602543073136 10.458916300919286 2.4161080907798467e-15
    vertex -19.943734971067077 12.485812286066098 2.4857037979342883e-15
  endloop
endfacet
facet normal 7.125399727194886e-17 -4.333924971307444e-17 1.0
  outer loop
    vertex -20.23110477307001 17.25259384740257 2.3622829223026436e-15
    vertex -19.943734971067077 12.485812286066098 2.4857037979342883e-15
    vertex -19.26575287134529 19.253379671162424 2.0144245873283853e-15
  endloop
endfacet
facet normal 7.125399727194886e-17 -4.333924971307444e-17 1.0
  outer loop
    vertex -19.26575287134529 19.253379671162424 2.0144245873283853e-15
    vertex -19.943734971067077 12.485812286066098 2.4857037979342883e-15
    vertex -19.832161257454818 12.82318002954333 2.4857037979342883e-15
  endloop
endfacet
facet normal 7.125399727194886e-17 -4.333924971307444e-17 1.0
  outer loop
    vertex -19.26575287134529 19.253379671162424 2.0144245873283853e-15
    vertex -19.832161257454818 12.82318002954333 2.4857037979342883e-15
    vertex -19.226806646665896 14.478102606092648 2.4161080907798364e-15
  endloop
endfacet
facet normal 7.125399727194886e-17 -4.333924971307444e-17 1.0
  outer loop
    vertex -19.26575287134529 19.253379671162424 2.0144245873283853e-15
    vertex -19.226806646665896 14.478102606092648 2.4161080907798364e-15
    vertex -18.1976000044668 21.201224033451957 1.5286517044785738e-15
  endloop
endfacet
facet normal 7.125399727194886e-17 -4.333924971307444e-17 1.0
  outer loop
    vertex -18.1976000044668 21.201224033451957 1.5286517044785738e-15
    vertex -19.226806646665896 14.478102606092648 2.4161080907798364e-15
    vertex -18.407182876569404 16.43038942341561 2.2075095293470964e-15
  endloop
endfacet
facet normal 7.125399727194886e-17 -4.333924971307444e-17 1.0
  outer loop
    vertex -18.1976000044668 21.201224033451957 1.5286517044785738e-15
    vertex -18.407182876569404 16.43038942341561 2.2075095293470964e-15
    vertex -17.487084319055157 18.33738328445984 1.8604732828503215e-15
  endloop
endfacet
facet normal 7.125399727194886e-17 -4.333924971307444e-17 1.0
  outer loop
    vertex -18.1976000044668 21.201224033451957 1.5286517044785738e-15
    vertex -17.487084319055157 18.33738328445984 1.8604732828503215e-15
    vertex -17.029540186239533 23.0908495169189 9.062804088052305e-16
  endloop
endfacet
facet normal 7.125399727194886e-17 -4.333924971307444e-17 1.0
  outer loop
    vertex -17.029540186239533 23.0908495169189 9.062804088052305e-16
    vertex -17.487084319055157 18.33738328445984 1.8604732828503215e-15
    vertex -16.46900385506733 20.19391745070794 1.3759395984388635e-15
  endloop
endfacet
facet normal 7.125399727194886e-17 -4.333924971307444e-17 1.0
  outer loop
    vertex -17.029540186239533 23.0908495169189 9.062804088052305e-16
    vertex -16.46900385506733 20.19391745070794 1.3759395984388635e-15
    vertex -14.024300241926595 27.430208642908756 -9.413418706205137e-16
  endloop
endfacet
facet normal 7.125399727194886e-17 -4.333924971307444e-17 1.0
  outer loop
    vertex -14.024300241926595 27.430208642908756 -9.413418706205137e-16
    vertex -16.46900385506733 20.19391745070794 1.3759395984388635e-15
    vertex -15.355699834097553 21.99496189727018 7.55221253726434e-16
  endloop
endfacet
facet normal 7.125399727194886e-17 -4.333924971307444e-17 1.0
  outer loop
    vertex -14.024300241926595 27.430208642908756 -9.413418706205137e-16
    vertex -15.355699834097553 21.99496189727018 7.55221253726434e-16
    vertex -14.150188600814873 23.73563694104758 0.0
  endloop
endfacet
facet normal 7.125399727194886e-17 -4.333924971307444e-17 1.0
  outer loop
    vertex -14.024300241926595 27.430208642908756 -9.413418706205137e-16
    vertex -14.150188600814873 23.73563694104758 0.0
    vertex 0.0 0.0 0.0
  endloop
endfacet
facet normal 7.125399727194886e-17 -4.333924971307444e-17 1.0
  outer loop
    vertex -14.024300241926595 27.430208642908756 -9.413418706205137e-16
    vertex 0.0 0.0 0.0
    vertex 2.9805488673040417 -1.0938581437877382 -5.166224523692487e-17
  endloop
endfacet
facet normal 0.9572757765438973 -0.28917656828014 -8.07424210742245e-17
  outer loop
    vertex -19.943734971067077 12.485812286066098 -0.9999999999999974
    vertex -20.55602543073136 10.458916300919286 2.4161080907798467e-15
    vertex -20.55602543073136 10.458916300919286 -0.9999999999999974
  endloop
endfacet
facet normal 0.9572757765438973 -0.28917656828014 -8.07424210742245e-17
  outer loop
    vertex -20.55602543073136 10.458916300919286 2.4161080907798467e-15
    vertex -19.943734971067077 12.485812286066098 -0.9999999999999974
    vertex -19.943734971067077 12.485812286066098 2.4857037979342883e-15
  endloop
endfacet
facet normal 0.9821452823160749 -0.18812401341742008 -7.813493086133039e-17
  outer loop
    vertex -21.062019108571278 8.40290624754255 -0.9999999999999977
    vertex -21.46034508406199 6.323352603404082 1.8604732828503215e-15
    vertex -21.46034508406199 6.323352603404082 -0.999999999999998
  endloop
endfacet
facet normal 0.9821452823160749 -0.18812401341742008 -7.813493086133039e-17
  outer loop
    vertex -21.46034508406199 6.323352603404082 1.8604732828503215e-15
    vertex -21.062019108571278 8.40290624754255 -0.9999999999999977
    vertex -21.062019108571278 8.40290624754255 2.2075095293471063e-15
  endloop
endfacet
facet normal -0.9710259603112859 0.2389740245330968 7.954643605119015e-17
  outer loop
    vertex -22.48563417019433 10.987424874119588 2.5708284996835767e-15
    vertex -23.016514210353446 8.830293772474667 -0.9999999999999977
    vertex -23.016514210353446 8.830293772474667 2.3613726865898808e-15
  endloop
endfacet
facet normal -0.9710259603112859 0.2389740245330968 7.954643605119015e-17
  outer loop
    vertex -23.016514210353446 8.830293772474667 -0.9999999999999977
    vertex -22.48563417019433 10.987424874119588 2.5708284996835767e-15
    vertex -22.48563417019433 10.987424874119588 -0.9999999999999973
  endloop
endfacet
facet normal 0.20829273478145696 -0.9780665297602519 -5.723035952516441e-17
  outer loop
    vertex -3.1024830155209324 -3.049404039142777 -1.412075055172596e-16
    vertex -5.051898384717675 -3.4645588840535066 -1.0
    vertex -3.1024830155209324 -3.049404039142777 -1.0
  endloop
endfacet
facet normal 0.20829273478145696 -0.9780665297602519 -5.723035952516441e-17
  outer loop
    vertex -5.051898384717675 -3.4645588840535066 -1.0
    vertex -3.1024830155209324 -3.049404039142777 -1.412075055172596e-16
    vertex -5.051898384717675 -3.4645588840535066 -1.3542247831429096e-16
  endloop
endfacet
facet normal 0.3237889251441176 0.946129342084906 1.793328062857836e-17
  outer loop
    vertex -21.999999999999996 0.0 0.0
    vertex -20.22771675618901 -0.6065192791716548 -0.9999999999999999
    vertex -21.999999999999996 4.333924971307443e-17 -0.9999999999999999
  endloop
endfacet
facet normal 0.3237889251441176 0.946129342084906 1.793328062857836e-17
  outer loop
    vertex -20.22771675618901 -0.6065192791716548 -0.9999999999999999
    vertex -21.999999999999996 0.0 0.0
    vertex -20.22771675618901 -0.6065192791716548 0.0
  endloop
endfacet
facet normal -0.9494254776419033 0.3139924559674068 8.12585578510079e-17
  outer loop
    vertex -21.721190730683407 13.480862359725649 2.640923680692474e-15
    vertex -21.850759206254946 13.089083482657307 -0.9999999999999973
    vertex -21.850759206254946 13.089083482657307 2.640006385795974e-15
  endloop
endfacet
facet normal -0.9494254776419033 0.3139924559674068 8.12585578510079e-17
  outer loop
    vertex -21.850759206254946 13.089083482657307 -0.9999999999999973
    vertex -21.721190730683407 13.480862359725649 2.640923680692474e-15
    vertex -21.721190730683407 13.480862359725649 -0.9999999999999973
  endloop
endfacet
facet normal 0.2665196412957955 0.9638294874113162 2.278105704193217e-17
  outer loop
    vertex -20.22771675618901 -0.6065192791716548 0.0
    vertex -18.42227771688616 -1.1057621135331586 -0.9999999999999999
    vertex -20.22771675618901 -0.6065192791716548 -0.9999999999999999
  endloop
endfacet
facet normal 0.2665196412957955 0.9638294874113162 2.278105704193217e-17
  outer loop
    vertex -18.42227771688616 -1.1057621135331586 -0.9999999999999999
    vertex -20.22771675618901 -0.6065192791716548 0.0
    vertex -18.42227771688616 -1.1057621135331586 0.0
  endloop
endfacet
facet normal 0.02997109447898998 0.9995507658422016 4.118421995748669e-17
  outer loop
    vertex -12.872351902475508 -1.943858343483207 0.0
    vertex -10.999999999999998 -1.9999999999999998 -0.9999999999999999
    vertex -12.872351902475508 -1.943858343483207 -0.9999999999999999
  endloop
endfacet
facet normal 0.02997109447898998 0.9995507658422016 4.118421995748669e-17
  outer loop
    vertex -10.999999999999998 -1.9999999999999998 -0.9999999999999999
    vertex -12.872351902475508 -1.943858343483207 0.0
    vertex -10.999999999999998 -1.9999999999999998 0.0
  endloop
endfacet
facet normal -0.08980559531591635 0.9959593139531122 4.9563137055122275e-17
  outer loop
    vertex -9.127648097524492 -1.9438583434832013 0.0
    vertex -7.262023679041775 -1.7756350946109705 -0.9999999999999999
    vertex -9.127648097524492 -1.9438583434832013 -0.9999999999999999
  endloop
endfacet
facet normal -0.08980559531591635 0.9959593139531122 4.9563137055122275e-17
  outer loop
    vertex -7.262023679041775 -1.7756350946109705 -0.9999999999999999
    vertex -9.127648097524492 -1.9438583434832013 0.0
    vertex -7.262023679041775 -1.7756350946109705 0.0
  endloop
endfacet
facet normal -0.9006476121976869 0.43455020267237837 8.300782224900655e-17
  outer loop
    vertex -19.26575287134529 19.253379671162424 2.0144245873283853e-15
    vertex -20.23110477307001 17.25259384740257 -0.9999999999999977
    vertex -20.23110477307001 17.25259384740257 2.3622829223026436e-15
  endloop
endfacet
facet normal -0.9006476121976869 0.43455020267237837 8.300782224900655e-17
  outer loop
    vertex -20.23110477307001 17.25259384740257 -0.9999999999999977
    vertex -19.26575287134529 19.253379671162424 2.0144245873283853e-15
    vertex -19.26575287134529 19.253379671162424 -0.999999999999998
  endloop
endfacet
facet normal -0.02997109447899422 -0.9995507658422014 -4.1184219957486384e-17
  outer loop
    vertex -11.00000000000014 -4.000898872119661 -1.1523970985259792e-16
    vertex -12.992236280391577 -3.9411625347323533 -1.0
    vertex -11.00000000000014 -4.000898872119661 -1.0
  endloop
endfacet
facet normal -0.02997109447899422 -0.9995507658422014 -4.1184219957486384e-17
  outer loop
    vertex -12.992236280391577 -3.9411625347323533 -1.0
    vertex -11.00000000000014 -4.000898872119661 -1.1523970985259792e-16
    vertex -12.992236280391577 -3.9411625347323533 -1.076501433203347e-16
  endloop
endfacet
facet normal 0.08980559531592247 0.9959593139531118 3.676512176782973e-17
  outer loop
    vertex -14.737976320958222 -1.775635094610965 0.0
    vertex -12.872351902475508 -1.943858343483207 -0.9999999999999999
    vertex -14.737976320958222 -1.775635094610965 -0.9999999999999999
  endloop
endfacet
facet normal 0.08980559531592247 0.9959593139531118 3.676512176782973e-17
  outer loop
    vertex -12.872351902475508 -1.943858343483207 -0.9999999999999999
    vertex -14.737976320958222 -1.775635094610965 0.0
    vertex -12.872351902475508 -1.943858343483207 0.0
  endloop
endfacet
facet normal -0.1493174187201695 0.988789314498668 5.349284996081887e-17
  outer loop
    vertex -7.262023679041775 -1.7756350946109705 0.0
    vertex -5.409830056250526 -1.4959346906221074 -0.9999999999999999
    vertex -7.262023679041775 -1.7756350946109705 -0.9999999999999999
  endloop
endfacet
facet normal -0.1493174187201695 0.988789314498668 5.349284996081887e-17
  outer loop
    vertex -5.409830056250526 -1.4959346906221074 -0.9999999999999999
    vertex -7.262023679041775 -1.7756350946109705 0.0
    vertex -5.409830056250526 -1.4959346906221074 0.0
  endloop
endfacet
facet normal 0.8589454247440472 0.5120671414094722 -3.9010689240059984e-17
  outer loop
    vertex -14.024300241926595 27.430208642908756 -1.0000000000000009
    vertex 2.9805488673040417 -1.0938581437877382 -5.166224523692487e-17
    vertex 2.9805488673040417 -1.0938581437877382 -0.9999999999999999
  endloop
endfacet
facet normal 0.8589454247440472 0.5120671414094722 -3.9010689240059984e-17
  outer loop
    vertex 2.9805488673040417 -1.0938581437877382 -5.166224523692487e-17
    vertex -14.024300241926595 27.430208642908756 -1.0000000000000009
    vertex -14.024300241926595 27.430208642908756 -9.413418706205137e-16
  endloop
endfacet
facet normal 0.14931741872016605 -0.9887893144986686 -5.349284996081864e-17
  outer loop
    vertex -5.051898384717675 -3.4645588840535066 -1.3542247831429096e-16
    vertex -7.0226856756939045 -3.762168159174244 -1.0
    vertex -5.051898384717675 -3.4645588840535066 -1.0
  endloop
endfacet
facet normal 0.14931741872016605 -0.9887893144986686 -5.349284996081864e-17
  outer loop
    vertex -7.0226856756939045 -3.762168159174244 -1.0
    vertex -5.051898384717675 -3.4645588840535066 -1.3542247831429096e-16
    vertex -7.0226856756939045 -3.762168159174244 -1.2915086920654327e-16
  endloop
endfacet
facet normal -0.08980559531592493 -0.9959593139531114 -3.676512176782954e-17
  outer loop
    vertex -12.992236280391577 -3.9411625347323533 -1.076501433203347e-16
    vertex -14.977314324305862 -3.7621681591742697 -1.0
    vertex -12.992236280391577 -3.9411625347323533 -1.0
  endloop
endfacet
facet normal -0.08980559531592493 -0.9959593139531114 -3.676512176782954e-17
  outer loop
    vertex -14.977314324305862 -3.7621681591742697 -1.0
    vertex -12.992236280391577 -3.9411625347323533 -1.076501433203347e-16
    vertex -14.977314324305862 -3.7621681591742697 -9.967378271637172e-17
  endloop
endfacet
facet normal -0.9963780455038932 0.08503405457722031 7.46812306616015e-17
  outer loop
    vertex -23.7382525851971 4.4478383296446395 1.5268410910069937e-15
    vertex -23.9271554686676 2.2343876508761107 -0.999999999999999
    vertex -23.9271554686676 2.2343876508761107 9.040263575053022e-16
  endloop
endfacet
facet normal -0.9963780455038932 0.08503405457722031 7.46812306616015e-17
  outer loop
    vertex -23.9271554686676 2.2343876508761107 -0.999999999999999
    vertex -23.7382525851971 4.4478383296446395 1.5268410910069937e-15
    vertex -23.7382525851971 4.4478383296446395 -0.9999999999999983
  endloop
endfacet
facet normal -0.9906036162791692 0.13676430606935733 7.651172978451381e-17
  outer loop
    vertex -23.434431111544132 6.648461132141568 2.0130623172941534e-15
    vertex -23.7382525851971 4.4478383296446395 -0.9999999999999983
    vertex -23.7382525851971 4.4478383296446395 1.5268410910069937e-15
  endloop
endfacet
facet normal -0.9906036162791692 0.13676430606935733 7.651172978451381e-17
  outer loop
    vertex -23.7382525851971 4.4478383296446395 -0.9999999999999983
    vertex -23.434431111544132 6.648461132141568 2.0130623172941534e-15
    vertex -23.434431111544132 6.648461132141568 -0.999999999999998
  endloop
endfacet
facet normal 0.9710259603112859 -0.23897402453309666 -7.954643605119013e-17
  outer loop
    vertex -20.55602543073136 10.458916300919286 -0.9999999999999974
    vertex -21.062019108571278 8.40290624754255 2.2075095293471063e-15
    vertex -21.062019108571278 8.40290624754255 -0.9999999999999977
  endloop
endfacet
facet normal 0.9710259603112859 -0.23897402453309666 -7.954643605119013e-17
  outer loop
    vertex -21.062019108571278 8.40290624754255 2.2075095293471063e-15
    vertex -20.55602543073136 10.458916300919286 -0.9999999999999974
    vertex -20.55602543073136 10.458916300919286 2.4161080907798467e-15
  endloop
endfacet
facet normal -0.9391420528373153 0.3435290447582465 8.180591632531409e-17
  outer loop
    vertex -21.08900745388181 15.209129326970556 2.5714700764268793e-15
    vertex -21.721190730683407 13.480862359725649 -0.9999999999999973
    vertex -21.721190730683407 13.480862359725649 2.640923680692474e-15
  endloop
endfacet
facet normal -0.9391420528373153 0.3435290447582465 8.180591632531409e-17
  outer loop
    vertex -21.721190730683407 13.480862359725649 -0.9999999999999973
    vertex -21.08900745388181 15.209129326970556 2.5714700764268793e-15
    vertex -21.08900745388181 15.209129326970556 -0.9999999999999973
  endloop
endfacet
facet normal -0.20829273478145524 0.9780665297602522 5.72303595251643e-17
  outer loop
    vertex -5.409830056250526 -1.4959346906221074 0.0
    vertex -3.5777222831138387 -1.1057621135331586 -0.9999999999999999
    vertex -5.409830056250526 -1.4959346906221074 -0.9999999999999999
  endloop
endfacet
facet normal -0.20829273478145524 0.9780665297602522 5.72303595251643e-17
  outer loop
    vertex -3.5777222831138387 -1.1057621135331586 -0.9999999999999999
    vertex -5.409830056250526 -1.4959346906221074 0.0
    vertex -3.5777222831138387 -1.1057621135331586 0.0
  endloop
endfacet
facet normal -0.32378892514411717 0.9461293420849063 6.407579100639076e-17
  outer loop
    vertex -1.7722832438109888 -0.6065192791716548 0.0
    vertex -7.125399727194886e-17 4.333924971307443e-17 -0.9999999999999999
    vertex -1.7722832438109888 -0.6065192791716548 -0.9999999999999999
  endloop
endfacet
facet normal -0.32378892514411717 0.9461293420849063 6.407579100639076e-17
  outer loop
    vertex -7.125399727194886e-17 4.333924971307443e-17 -0.9999999999999999
    vertex -1.7722832438109888 -0.6065192791716548 0.0
    vertex 0.0 0.0 0.0
  endloop
endfacet
facet normal 0.14931741872016605 0.9887893144986685 3.221392406853633e-17
  outer loop
    vertex -16.590169943749476 -1.4959346906221074 0.0
    vertex -14.737976320958222 -1.775635094610965 -0.9999999999999999
    vertex -16.590169943749476 -1.4959346906221074 -0.9999999999999999
  endloop
endfacet
facet normal 0.14931741872016605 0.9887893144986685 3.221392406853633e-17
  outer loop
    vertex -14.737976320958222 -1.775635094610965 -0.9999999999999999
    vertex -16.590169943749476 -1.4959346906221074 0.0
    vertex -14.737976320958222 -1.775635094610965 0.0
  endloop
endfacet
facet normal 0.8506091253854166 -0.5257985505980942 -8.339701498285069e-17
  outer loop
    vertex -15.355699834097553 21.99496189727018 -0.9999999999999992
    vertex -16.46900385506733 20.19391745070794 1.3759395984388635e-15
    vertex -16.46900385506733 20.19391745070794 -0.9999999999999986
  endloop
endfacet
facet normal 0.8506091253854166 -0.5257985505980942 -8.339701498285069e-17
  outer loop
    vertex -16.46900385506733 20.19391745070794 1.3759395984388635e-15
    vertex -15.355699834097553 21.99496189727018 -0.9999999999999992
    vertex -15.355699834097553 21.99496189727018 7.55221253726434e-16
  endloop
endfacet
facet normal 0.2082927347814555 0.9780665297602522 2.7546979613395128e-17
  outer loop
    vertex -18.42227771688616 -1.1057621135331586 0.0
    vertex -16.590169943749476 -1.4959346906221074 -0.9999999999999999
    vertex -18.42227771688616 -1.1057621135331586 -0.9999999999999999
  endloop
endfacet
facet normal 0.2082927347814555 0.9780665297602522 2.7546979613395128e-17
  outer loop
    vertex -16.590169943749476 -1.4959346906221074 -0.9999999999999999
    vertex -18.42227771688616 -1.1057621135331586 0.0
    vertex -16.590169943749476 -1.4959346906221074 0.0
  endloop
endfacet
facet normal 0.9906036162791695 -0.13676430606935414 -7.65117297845137e-17
  outer loop
    vertex -21.46034508406199 6.323352603404082 -0.999999999999998
    vertex -21.74992414756256 4.225889634104668 1.3759395984388635e-15
    vertex -21.74992414756256 4.225889634104668 -0.9999999999999986
  endloop
endfacet
facet normal 0.9906036162791695 -0.13676430606935414 -7.65117297845137e-17
  outer loop
    vertex -21.74992414756256 4.225889634104668 1.3759395984388635e-15
    vertex -21.46034508406199 6.323352603404082 -0.999999999999998
    vertex -21.46034508406199 6.323352603404082 1.8604732828503215e-15
  endloop
endfacet
facet normal 0.9963780455038931 -0.08503405457722187 -7.468123066160156e-17
  outer loop
    vertex -21.74992414756256 4.225889634104668 -0.9999999999999986
    vertex -21.929971724286574 2.116200128107165 7.55221253726434e-16
    vertex -21.929971724286574 2.116200128107165 -0.9999999999999992
  endloop
endfacet
facet normal 0.9963780455038931 -0.08503405457722187 -7.468123066160156e-17
  outer loop
    vertex -21.929971724286574 2.116200128107165 7.55221253726434e-16
    vertex -21.74992414756256 4.225889634104668 -0.9999999999999986
    vertex -21.74992414756256 4.225889634104668 1.3759395984388635e-15
  endloop
endfacet
facet normal -0.26651964129579525 0.9638294874113162 6.076223662955496e-17
  outer loop
    vertex -3.5777222831138387 -1.1057621135331586 0.0
    vertex -1.7722832438109888 -0.6065192791716548 -0.9999999999999999
    vertex -3.5777222831138387 -1.1057621135331586 -0.9999999999999999
  endloop
endfacet
facet normal -0.26651964129579525 0.9638294874113162 6.076223662955496e-17
  outer loop
    vertex -1.7722832438109888 -0.6065192791716548 -0.9999999999999999
    vertex -3.5777222831138387 -1.1057621135331586 0.0
    vertex -1.7722832438109888 -0.6065192791716548 0.0
  endloop
endfacet
facet normal -0.9821452823160753 0.18812401341741827 7.813493086133033e-17
  outer loop
    vertex -23.016514210353446 8.830293772474667 2.3613726865898808e-15
    vertex -23.434431111544132 6.648461132141568 -0.999999999999998
    vertex -23.434431111544132 6.648461132141568 2.0130623172941534e-15
  endloop
endfacet
facet normal -0.9821452823160753 0.18812401341741827 7.813493086133033e-17
  outer loop
    vertex -23.434431111544132 6.648461132141568 -0.999999999999998
    vertex -23.016514210353446 8.830293772474667 2.3613726865898808e-15
    vertex -23.016514210353446 8.830293772474667 -0.9999999999999977
  endloop
endfacet
facet normal 0.8220974664972254 -0.56934677972115 -8.325279289473907e-17
  outer loop
    vertex -14.150188600814873 23.73563694104758 -0.9999999999999999
    vertex -15.355699834097553 21.99496189727018 7.55221253726434e-16
    vertex -15.355699834097553 21.99496189727018 -0.9999999999999992
  endloop
endfacet
facet normal 0.8220974664972254 -0.56934677972115 -8.325279289473907e-17
  outer loop
    vertex -15.355699834097553 21.99496189727018 7.55221253726434e-16
    vertex -14.150188600814873 23.73563694104758 -0.9999999999999999
    vertex -14.150188600814873 23.73563694104758 0.0
  endloop
endfacet
facet normal 0.9994529249656329 -0.03307341496793241 -7.264839297910186e-17
  outer loop
    vertex -21.999999999999996 4.333924971307443e-17 -0.9999999999999999
    vertex -21.929971724286574 2.116200128107165 7.55221253726434e-16
    vertex -21.999999999999996 0.0 0.0
  endloop
endfacet
facet normal 0.9994529249656329 -0.03307341496793241 -7.264839297910186e-17
  outer loop
    vertex -21.929971724286574 2.116200128107165 7.55221253726434e-16
    vertex -21.999999999999996 4.333924971307443e-17 -0.9999999999999999
    vertex -21.929971724286574 2.116200128107165 -0.9999999999999992
  endloop
endfacet
facet normal -0.029971094478993033 0.9995507658422015 4.5455340525973456e-17
  outer loop
    vertex -10.999999999999998 -1.9999999999999998 0.0
    vertex -9.127648097524492 -1.9438583434832013 -0.9999999999999999
    vertex -10.999999999999998 -1.9999999999999998 -0.9999999999999999
  endloop
endfacet
facet normal -0.029971094478993033 0.9995507658422015 4.5455340525973456e-17
  outer loop
    vertex -9.127648097524492 -1.9438583434832013 -0.9999999999999999
    vertex -10.999999999999998 -1.9999999999999998 0.0
    vertex -9.127648097524492 -1.9438583434832013 0.0
  endloop
endfacet
facet normal -0.999452924965633 0.03307341496793258 7.264839297910189e-17
  outer loop
    vertex -23.9271554686676 2.2343876508761107 9.040263575053022e-16
    vertex -24.047854693438694 -1.4130492211710435 -0.9999999999999999
    vertex -24.047854693438694 -1.4130492211710435 -6.449224356748527e-17
  endloop
endfacet
facet normal -0.999452924965633 0.03307341496793258 7.264839297910189e-17
  outer loop
    vertex -24.047854693438694 -1.4130492211710435 -0.9999999999999999
    vertex -23.9271554686676 2.2343876508761107 9.040263575053022e-16
    vertex -23.9271554686676 2.2343876508761107 -0.999999999999999
  endloop
endfacet
facet normal 0.26651964129579747 -0.9638294874113158 -6.076223662955509e-17
  outer loop
    vertex -1.181443946220567 -2.518195303207256 -1.4648516483079868e-16
    vertex -3.1024830155209324 -3.049404039142777 -1.0
    vertex -1.181443946220567 -2.518195303207256 -1.0
  endloop
endfacet
facet normal 0.26651964129579747 -0.9638294874113158 -6.076223662955509e-17
  outer loop
    vertex -3.1024830155209324 -3.049404039142777 -1.0
    vertex -1.181443946220567 -2.518195303207256 -1.4648516483079868e-16
    vertex -3.1024830155209324 -3.049404039142777 -1.412075055172596e-16
  endloop
endfacet
facet normal -0.8589454247440472 -0.5120671414094723 3.901068924005998e-17
  outer loop
    vertex -14.150188600814873 23.73563694104758 0.0
    vertex -7.125399727194886e-17 4.333924971307443e-17 -0.9999999999999999
    vertex 0.0 0.0 0.0
  endloop
endfacet
facet normal -0.8589454247440472 -0.5120671414094723 3.901068924005998e-17
  outer loop
    vertex -7.125399727194886e-17 4.333924971307443e-17 -0.9999999999999999
    vertex -14.150188600814873 23.73563694104758 0.0
    vertex -14.150188600814873 23.73563694104758 -0.9999999999999999
  endloop
endfacet
facet normal -0.922038867699409 0.38709730876304443 8.247546189142516e-17
  outer loop
    vertex -20.23110477307001 17.25259384740257 2.3622829223026436e-15
    vertex -21.08900745388181 15.209129326970556 -0.9999999999999973
    vertex -21.08900745388181 15.209129326970556 2.5714700764268793e-15
  endloop
endfacet
facet normal -0.922038867699409 0.38709730876304443 8.247546189142516e-17
  outer loop
    vertex -21.08900745388181 15.209129326970556 -0.9999999999999973
    vertex -20.23110477307001 17.25259384740257 2.3622829223026436e-15
    vertex -20.23110477307001 17.25259384740257 -0.9999999999999977
  endloop
endfacet
facet normal 0.9391420528373152 -0.3435290447582467 -8.180591632531409e-17
  outer loop
    vertex -19.226806646665896 14.478102606092648 -0.9999999999999974
    vertex -19.832161257454818 12.82318002954333 2.4857037979342883e-15
    vertex -19.832161257454818 12.82318002954333 -0.9999999999999974
  endloop
endfacet
facet normal 0.9391420528373152 -0.3435290447582467 -8.180591632531409e-17
  outer loop
    vertex -19.832161257454818 12.82318002954333 2.4857037979342883e-15
    vertex -19.226806646665896 14.478102606092648 -0.9999999999999974
    vertex -19.226806646665896 14.478102606092648 2.4161080907798364e-15
  endloop
endfacet
facet normal -0.9572757765438974 0.28917656828013993 8.074242107422449e-17
  outer loop
    vertex -21.850759206254946 13.089083482657307 2.640006385795974e-15
    vertex -22.48563417019433 10.987424874119588 -0.9999999999999973
    vertex -22.48563417019433 10.987424874119588 2.5708284996835767e-15
  endloop
endfacet
facet normal -0.9572757765438974 0.28917656828013993 8.074242107422449e-17
  outer loop
    vertex -22.48563417019433 10.987424874119588 -0.9999999999999973
    vertex -21.850759206254946 13.089083482657307 2.640006385795974e-15
    vertex -21.850759206254946 13.089083482657307 -0.9999999999999973
  endloop
endfacet
facet normal 0.323788925144117 -0.9461293420849062 -6.407579100639075e-17
  outer loop
    vertex 2.9805488673040417 -1.0938581437877382 -0.9999999999999999
    vertex -1.181443946220567 -2.518195303207256 -1.4648516483079868e-16
    vertex -1.181443946220567 -2.518195303207256 -1.0
  endloop
endfacet
facet normal 0.323788925144117 -0.9461293420849062 -6.407579100639075e-17
  outer loop
    vertex -1.181443946220567 -2.518195303207256 -1.4648516483079868e-16
    vertex 2.9805488673040417 -1.0938581437877382 -0.9999999999999999
    vertex 2.9805488673040417 -1.0938581437877382 -5.166224523692487e-17
  endloop
endfacet
facet normal 0.9006476121976884 -0.4345502026723751 -8.300782224900651e-17
  outer loop
    vertex -17.487084319055157 18.33738328445984 -0.999999999999998
    vertex -18.407182876569404 16.43038942341561 2.2075095293470964e-15
    vertex -18.407182876569404 16.43038942341561 -0.9999999999999977
  endloop
endfacet
facet normal 0.9006476121976884 -0.4345502026723751 -8.300782224900651e-17
  outer loop
    vertex -18.407182876569404 16.43038942341561 2.2075095293470964e-15
    vertex -17.487084319055157 18.33738328445984 -0.999999999999998
    vertex -17.487084319055157 18.33738328445984 1.8604732828503215e-15
  endloop
endfacet
facet normal -0.822097466497223 0.5693467797211531 8.325279289473903e-17
  outer loop
    vertex -14.024300241926595 27.430208642908756 -9.413418706205137e-16
    vertex -17.029540186239533 23.0908495169189 -0.999999999999999
    vertex -17.029540186239533 23.0908495169189 9.062804088052305e-16
  endloop
endfacet
facet normal -0.822097466497223 0.5693467797211531 8.325279289473903e-17
  outer loop
    vertex -17.029540186239533 23.0908495169189 -0.999999999999999
    vertex -14.024300241926595 27.430208642908756 -9.413418706205137e-16
    vertex -14.024300241926595 27.430208642908756 -1.0000000000000009
  endloop
endfacet
facet normal 0.08980559531592149 -0.9959593139531119 -4.956313705512263e-17
  outer loop
    vertex -7.0226856756939045 -3.762168159174244 -1.2915086920654327e-16
    vertex -9.007763719608446 -3.941162534732343 -1.0
    vertex -7.0226856756939045 -3.762168159174244 -1.0
  endloop
endfacet
facet normal 0.08980559531592149 -0.9959593139531119 -4.956313705512263e-17
  outer loop
    vertex -9.007763719608446 -3.941162534732343 -1.0
    vertex -7.0226856756939045 -3.762168159174244 -1.2915086920654327e-16
    vertex -9.007763719608446 -3.941162534732343 -1.2241521249957308e-16
  endloop
endfacet
facet normal -0.8768161754223905 0.48082574236167075 8.331528428823449e-17
  outer loop
    vertex -18.1976000044668 21.201224033451957 1.5286517044785738e-15
    vertex -19.26575287134529 19.253379671162424 -0.999999999999998
    vertex -19.26575287134529 19.253379671162424 2.0144245873283853e-15
  endloop
endfacet
facet normal -0.8768161754223905 0.48082574236167075 8.331528428823449e-17
  outer loop
    vertex -19.26575287134529 19.253379671162424 -0.999999999999998
    vertex -18.1976000044668 21.201224033451957 1.5286517044785738e-15
    vertex -18.1976000044668 21.201224033451957 -0.9999999999999983
  endloop
endfacet
facet normal -0.8506091253854163 0.5257985505980949 8.33970149828507e-17
  outer loop
    vertex -17.029540186239533 23.0908495169189 9.062804088052305e-16
    vertex -18.1976000044668 21.201224033451957 -0.9999999999999983
    vertex -18.1976000044668 21.201224033451957 1.5286517044785738e-15
  endloop
endfacet
facet normal -0.8506091253854163 0.5257985505980949 8.33970149828507e-17
  outer loop
    vertex -18.1976000044668 21.201224033451957 -0.9999999999999983
    vertex -17.029540186239533 23.0908495169189 9.062804088052305e-16
    vertex -17.029540186239533 23.0908495169189 -0.999999999999999
  endloop
endfacet
facet normal -0.20829273478145643 -0.978066529760252 -2.7546979613395048e-17
  outer loop
    vertex -16.948101615282482 -3.4645588840534765 -9.133928763093939e-17
    vertex -18.897516984478845 -3.049404039142828 -0.9999999999999999
    vertex -16.948101615282482 -3.4645588840534765 -1.0
  endloop
endfacet
facet normal -0.20829273478145643 -0.978066529760252 -2.7546979613395048e-17
  outer loop
    vertex -18.897516984478845 -3.049404039142828 -0.9999999999999999
    vertex -16.948101615282482 -3.4645588840534765 -9.133928763093939e-17
    vertex -18.897516984478845 -3.049404039142828 -8.267660445509551e-17
  endloop
endfacet
facet normal 0.02997109447899529 -0.9995507658422015 -4.5455340525973616e-17
  outer loop
    vertex -9.007763719608446 -3.941162534732343 -1.2241521249957308e-16
    vertex -11.00000000000014 -4.000898872119661 -1.0
    vertex -9.007763719608446 -3.941162534732343 -1.0
  endloop
endfacet
facet normal 0.02997109447899529 -0.9995507658422015 -4.5455340525973616e-17
  outer loop
    vertex -11.00000000000014 -4.000898872119661 -1.0
    vertex -9.007763719608446 -3.941162534732343 -1.2241521249957308e-16
    vertex -11.00000000000014 -4.000898872119661 -1.1523970985259792e-16
  endloop
endfacet
facet normal -0.26651964129579075 -0.9638294874113177 -2.2781057041932574e-17
  outer loop
    vertex -18.897516984478845 -3.049404039142828 -8.267660445509551e-17
    vertex -20.81855605377937 -2.518195303207278 -0.9999999999999999
    vertex -18.897516984478845 -3.049404039142828 -0.9999999999999999
  endloop
endfacet
facet normal -0.26651964129579075 -0.9638294874113177 -2.2781057041932574e-17
  outer loop
    vertex -20.81855605377937 -2.518195303207278 -0.9999999999999999
    vertex -18.897516984478845 -3.049404039142828 -8.267660445509551e-17
    vertex -20.81855605377937 -2.518195303207278 -7.371685878137725e-17
  endloop
endfacet
facet normal 0.8768161754223891 -0.48082574236167336 -8.33152842882345e-17
  outer loop
    vertex -16.46900385506733 20.19391745070794 -0.9999999999999986
    vertex -17.487084319055157 18.33738328445984 1.8604732828503215e-15
    vertex -17.487084319055157 18.33738328445984 -0.999999999999998
  endloop
endfacet
facet normal 0.8768161754223891 -0.48082574236167336 -8.33152842882345e-17
  outer loop
    vertex -17.487084319055157 18.33738328445984 1.8604732828503215e-15
    vertex -16.46900385506733 20.19391745070794 -0.9999999999999986
    vertex -16.46900385506733 20.19391745070794 1.3759395984388635e-15
  endloop
endfacet
facet normal -0.32378892514411767 -0.9461293420849061 -1.793328062857835e-17
  outer loop
    vertex -20.81855605377937 -2.518195303207278 -7.371685878137725e-17
    vertex -24.047854693438694 -1.4130492211710435 -0.9999999999999999
    vertex -20.81855605377937 -2.518195303207278 -0.9999999999999999
  endloop
endfacet
facet normal -0.32378892514411767 -0.9461293420849061 -1.793328062857835e-17
  outer loop
    vertex -24.047854693438694 -1.4130492211710435 -0.9999999999999999
    vertex -20.81855605377937 -2.518195303207278 -7.371685878137725e-17
    vertex -24.047854693438694 -1.4130492211710435 -6.449224356748527e-17
  endloop
endfacet
facet normal -7.125399727194886e-17 4.333924971307444e-17 -1.0
  outer loop
    vertex -21.850759206254946 13.089083482657307 -0.9999999999999973
    vertex -21.999999999999996 4.333924971307443e-17 -0.9999999999999999
    vertex -22.48563417019433 10.987424874119588 -0.9999999999999973
  endloop
endfacet
facet normal -7.125399727194886e-17 4.333924971307444e-17 -1.0
  outer loop
    vertex -21.999999999999996 4.333924971307443e-17 -0.9999999999999999
    vertex -21.850759206254946 13.089083482657307 -0.9999999999999973
    vertex -21.929971724286574 2.116200128107165 -0.9999999999999992
  endloop
endfacet
facet normal -7.125399727194886e-17 4.333924971307444e-17 -1.0
  outer loop
    vertex -21.929971724286574 2.116200128107165 -0.9999999999999992
    vertex -21.850759206254946 13.089083482657307 -0.9999999999999973
    vertex -21.74992414756256 4.225889634104668 -0.9999999999999986
  endloop
endfacet
facet normal -7.125399727194886e-17 4.333924971307444e-17 -1.0
  outer loop
    vertex -21.74992414756256 4.225889634104668 -0.9999999999999986
    vertex -21.850759206254946 13.089083482657307 -0.9999999999999973
    vertex -21.721190730683407 13.480862359725649 -0.9999999999999973
  endloop
endfacet
facet normal -7.125399727194886e-17 4.333924971307444e-17 -1.0
  outer loop
    vertex -21.74992414756256 4.225889634104668 -0.9999999999999986
    vertex -21.721190730683407 13.480862359725649 -0.9999999999999973
    vertex -21.46034508406199 6.323352603404082 -0.999999999999998
  endloop
endfacet
facet normal -7.125399727194886e-17 4.333924971307444e-17 -1.0
  outer loop
    vertex -21.46034508406199 6.323352603404082 -0.999999999999998
    vertex -21.721190730683407 13.480862359725649 -0.9999999999999973
    vertex -21.08900745388181 15.209129326970556 -0.9999999999999973
  endloop
endfacet
facet normal -7.125399727194886e-17 4.333924971307444e-17 -1.0
  outer loop
    vertex -21.46034508406199 6.323352603404082 -0.999999999999998
    vertex -21.08900745388181 15.209129326970556 -0.9999999999999973
    vertex -21.062019108571278 8.40290624754255 -0.9999999999999977
  endloop
endfacet
facet normal -7.125399727194886e-17 4.333924971307444e-17 -1.0
  outer loop
    vertex -21.062019108571278 8.40290624754255 -0.9999999999999977
    vertex -21.08900745388181 15.209129326970556 -0.9999999999999973
    vertex -20.23110477307001 17.25259384740257 -0.9999999999999977
  endloop
endfacet
facet normal -7.125399727194886e-17 4.333924971307444e-17 -1.0
  outer loop
    vertex -21.062019108571278 8.40290624754255 -0.9999999999999977
    vertex -20.23110477307001 17.25259384740257 -0.9999999999999977
    vertex -20.55602543073136 10.458916300919286 -0.9999999999999974
  endloop
endfacet
facet normal -7.125399727194886e-17 4.333924971307444e-17 -1.0
  outer loop
    vertex -20.55602543073136 10.458916300919286 -0.9999999999999974
    vertex -20.23110477307001 17.25259384740257 -0.9999999999999977
    vertex -19.943734971067077 12.485812286066098 -0.9999999999999974
  endloop
endfacet
facet normal -7.125399727194886e-17 4.333924971307444e-17 -1.0
  outer loop
    vertex -19.943734971067077 12.485812286066098 -0.9999999999999974
    vertex -20.23110477307001 17.25259384740257 -0.9999999999999977
    vertex -19.26575287134529 19.253379671162424 -0.999999999999998
  endloop
endfacet
facet normal -7.125399727194886e-17 4.333924971307444e-17 -1.0
  outer loop
    vertex -19.943734971067077 12.485812286066098 -0.9999999999999974
    vertex -19.26575287134529 19.253379671162424 -0.999999999999998
    vertex -19.832161257454818 12.82318002954333 -0.9999999999999974
  endloop
endfacet
facet normal -7.125399727194886e-17 4.333924971307444e-17 -1.0
  outer loop
    vertex -19.832161257454818 12.82318002954333 -0.9999999999999974
    vertex -19.26575287134529 19.253379671162424 -0.999999999999998
    vertex -19.226806646665896 14.478102606092648 -0.9999999999999974
  endloop
endfacet
facet normal -7.125399727194886e-17 4.333924971307444e-17 -1.0
  outer loop
    vertex -19.226806646665896 14.478102606092648 -0.9999999999999974
    vertex -19.26575287134529 19.253379671162424 -0.999999999999998
    vertex -18.1976000044668 21.201224033451957 -0.9999999999999983
  endloop
endfacet
facet normal -7.125399727194886e-17 4.333924971307444e-17 -1.0
  outer loop
    vertex -19.226806646665896 14.478102606092648 -0.9999999999999974
    vertex -18.1976000044668 21.201224033451957 -0.9999999999999983
    vertex -18.407182876569404 16.43038942341561 -0.9999999999999977
  endloop
endfacet
facet normal -7.125399727194886e-17 4.333924971307444e-17 -1.0
  outer loop
    vertex -18.407182876569404 16.43038942341561 -0.9999999999999977
    vertex -18.1976000044668 21.201224033451957 -0.9999999999999983
    vertex -17.487084319055157 18.33738328445984 -0.999999999999998
  endloop
endfacet
facet normal -7.125399727194886e-17 4.333924971307444e-17 -1.0
  outer loop
    vertex -17.487084319055157 18.33738328445984 -0.999999999999998
    vertex -18.1976000044668 21.201224033451957 -0.9999999999999983
    vertex -17.029540186239533 23.0908495169189 -0.999999999999999
  endloop
endfacet
facet normal -7.125399727194886e-17 4.333924971307444e-17 -1.0
  outer loop
    vertex -17.487084319055157 18.33738328445984 -0.999999999999998
    vertex -17.029540186239533 23.0908495169189 -0.999999999999999
    vertex -16.46900385506733 20.19391745070794 -0.9999999999999986
  endloop
endfacet
facet normal -7.125399727194886e-17 4.333924971307444e-17 -1.0
  outer loop
    vertex -16.46900385506733 20.19391745070794 -0.9999999999999986
    vertex -17.029540186239533 23.0908495169189 -0.999999999999999
    vertex -14.024300241926595 27.430208642908756 -1.0000000000000009
  endloop
endfacet
facet normal -7.125399727194886e-17 4.333924971307444e-17 -1.0
  outer loop
    vertex -16.46900385506733 20.19391745070794 -0.9999999999999986
    vertex -14.024300241926595 27.430208642908756 -1.0000000000000009
    vertex -15.355699834097553 21.99496189727018 -0.9999999999999992
  endloop
endfacet
facet normal -7.125399727194886e-17 4.333924971307444e-17 -1.0
  outer loop
    vertex -15.355699834097553 21.99496189727018 -0.9999999999999992
    vertex -14.024300241926595 27.430208642908756 -1.0000000000000009
    vertex -14.150188600814873 23.73563694104758 -0.9999999999999999
  endloop
endfacet
facet normal -7.125399727194886e-17 4.333924971307444e-17 -1.0
  outer loop
    vertex -14.150188600814873 23.73563694104758 -0.9999999999999999
    vertex -14.024300241926595 27.430208642908756 -1.0000000000000009
    vertex -7.125399727194886e-17 4.333924971307443e-17 -0.9999999999999999
  endloop
endfacet
facet normal -7.125399727194886e-17 4.333924971307444e-17 -1.0
  outer loop
    vertex -7.125399727194886e-17 4.333924971307443e-17 -0.9999999999999999
    vertex -14.024300241926595 27.430208642908756 -1.0000000000000009
    vertex 2.9805488673040417 -1.0938581437877382 -0.9999999999999999
  endloop
endfacet
facet normal -7.125399727194886e-17 4.333924971307444e-17 -1.0
  outer loop
    vertex -23.9271554686676 2.2343876508761107 -0.999999999999999
    vertex -20.81855605377937 -2.518195303207278 -0.9999999999999999
    vertex -24.047854693438694 -1.4130492211710435 -0.9999999999999999
  endloop
endfacet
facet normal -7.125399727194886e-17 4.333924971307444e-17 -1.0
  outer loop
    vertex -20.81855605377937 -2.518195303207278 -0.9999999999999999
    vertex -23.9271554686676 2.2343876508761107 -0.999999999999999
    vertex -21.999999999999996 4.333924971307443e-17 -0.9999999999999999
  endloop
endfacet
facet normal -7.125399727194886e-17 4.333924971307444e-17 -1.0
  outer loop
    vertex -21.999999999999996 4.333924971307443e-17 -0.9999999999999999
    vertex -23.9271554686676 2.2343876508761107 -0.999999999999999
    vertex -23.7382525851971 4.4478383296446395 -0.9999999999999983
  endloop
endfacet
facet normal -7.125399727194886e-17 4.333924971307444e-17 -1.0
  outer loop
    vertex -21.999999999999996 4.333924971307443e-17 -0.9999999999999999
    vertex -23.7382525851971 4.4478383296446395 -0.9999999999999983
    vertex -23.434431111544132 6.648461132141568 -0.999999999999998
  endloop
endfacet
facet normal -7.125399727194886e-17 4.333924971307444e-17 -1.0
  outer loop
    vertex -21.999999999999996 4.333924971307443e-17 -0.9999999999999999
    vertex -23.434431111544132 6.648461132141568 -0.999999999999998
    vertex -23.016514210353446 8.830293772474667 -0.9999999999999977
  endloop
endfacet
facet normal -7.125399727194886e-17 4.333924971307444e-17 -1.0
  outer loop
    vertex -21.999999999999996 4.333924971307443e-17 -0.9999999999999999
    vertex -23.016514210353446 8.830293772474667 -0.9999999999999977
    vertex -22.48563417019433 10.987424874119588 -0.9999999999999973
  endloop
endfacet
facet normal -7.125399727194886e-17 4.333924971307444e-17 -1.0
  outer loop
    vertex -20.81855605377937 -2.518195303207278 -0.9999999999999999
    vertex -21.999999999999996 4.333924971307443e-17 -0.9999999999999999
    vertex -20.22771675618901 -0.6065192791716548 -0.9999999999999999
  endloop
endfacet
facet normal -7.125399727194886e-17 4.333924971307444e-17 -1.0
  outer loop
    vertex -20.81855605377937 -2.518195303207278 -0.9999999999999999
    vertex -20.22771675618901 -0.6065192791716548 -0.9999999999999999
    vertex -18.897516984478845 -3.049404039142828 -0.9999999999999999
  endloop
endfacet
facet normal -7.125399727194886e-17 4.333924971307444e-17 -1.0
  outer loop
    vertex -18.897516984478845 -3.049404039142828 -0.9999999999999999
    vertex -20.22771675618901 -0.6065192791716548 -0.9999999999999999
    vertex -18.42227771688616 -1.1057621135331586 -0.9999999999999999
  endloop
endfacet
facet normal -7.125399727194886e-17 4.333924971307444e-17 -1.0
  outer loop
    vertex -18.897516984478845 -3.049404039142828 -0.9999999999999999
    vertex -18.42227771688616 -1.1057621135331586 -0.9999999999999999
    vertex -16.948101615282482 -3.4645588840534765 -1.0
  endloop
endfacet
facet normal -7.125399727194886e-17 4.333924971307444e-17 -1.0
  outer loop
    vertex -16.948101615282482 -3.4645588840534765 -1.0
    vertex -18.42227771688616 -1.1057621135331586 -0.9999999999999999
    vertex -16.590169943749476 -1.4959346906221074 -0.9999999999999999
  endloop
endfacet
facet normal -7.125399727194886e-17 4.333924971307444e-17 -1.0
  outer loop
    vertex -16.948101615282482 -3.4645588840534765 -1.0
    vertex -16.590169943749476 -1.4959346906221074 -0.9999999999999999
    vertex -14.977314324305862 -3.7621681591742697 -1.0
  endloop
endfacet
facet normal -7.125399727194886e-17 4.333924971307444e-17 -1.0
  outer loop
    vertex -14.977314324305862 -3.7621681591742697 -1.0
    vertex -16.590169943749476 -1.4959346906221074 -0.9999999999999999
    vertex -14.737976320958222 -1.775635094610965 -0.9999999999999999
  endloop
endfacet
facet normal -7.125399727194886e-17 4.333924971307444e-17 -1.0
  outer loop
    vertex -14.977314324305862 -3.7621681591742697 -1.0
    vertex -14.737976320958222 -1.775635094610965 -0.9999999999999999
    vertex -12.992236280391577 -3.9411625347323533 -1.0
  endloop
endfacet
facet normal -7.125399727194886e-17 4.333924971307444e-17 -1.0
  outer loop
    vertex -12.992236280391577 -3.9411625347323533 -1.0
    vertex -14.737976320958222 -1.775635094610965 -0.9999999999999999
    vertex -12.872351902475508 -1.943858343483207 -0.9999999999999999
  endloop
endfacet
facet normal -7.125399727194886e-17 4.333924971307444e-17 -1.0
  outer loop
    vertex -12.992236280391577 -3.9411625347323533 -1.0
    vertex -12.872351902475508 -1.943858343483207 -0.9999999999999999
    vertex -11.00000000000014 -4.000898872119661 -1.0
  endloop
endfacet
facet normal -7.125399727194886e-17 4.333924971307444e-17 -1.0
  outer loop
    vertex -11.00000000000014 -4.000898872119661 -1.0
    vertex -12.872351902475508 -1.943858343483207 -0.9999999999999999
    vertex -10.999999999999998 -1.9999999999999998 -0.9999999999999999
  endloop
endfacet
facet normal -7.125399727194886e-17 4.333924971307444e-17 -1.0
  outer loop
    vertex -11.00000000000014 -4.000898872119661 -1.0
    vertex -10.999999999999998 -1.9999999999999998 -0.9999999999999999
    vertex -9.007763719608446 -3.941162534732343 -1.0
  endloop
endfacet
facet normal -7.125399727194886e-17 4.333924971307444e-17 -1.0
  outer loop
    vertex -9.007763719608446 -3.941162534732343 -1.0
    vertex -10.999999999999998 -1.9999999999999998 -0.9999999999999999
    vertex -9.127648097524492 -1.9438583434832013 -0.9999999999999999
  endloop
endfacet
facet normal -7.125399727194886e-17 4.333924971307444e-17 -1.0
  outer loop
    vertex -9.007763719608446 -3.941162534732343 -1.0
    vertex -9.127648097524492 -1.9438583434832013 -0.9999999999999999
    vertex -7.262023679041775 -1.7756350946109705 -0.9999999999999999
  endloop
endfacet
facet normal -7.125399727194886e-17 4.333924971307444e-17 -1.0
  outer loop
    vertex -9.007763719608446 -3.941162534732343 -1.0
    vertex -7.262023679041775 -1.7756350946109705 -0.9999999999999999
    vertex -7.0226856756939045 -3.762168159174244 -1.0
  endloop
endfacet
facet normal -7.125399727194886e-17 4.333924971307444e-17 -1.0
  outer loop
    vertex -7.0226856756939045 -3.762168159174244 -1.0
    vertex -7.262023679041775 -1.7756350946109705 -0.9999999999999999
    vertex -5.409830056250526 -1.4959346906221074 -0.9999999999999999
  endloop
endfacet
facet normal -7.125399727194886e-17 4.333924971307444e-17 -1.0
  outer loop
    vertex -7.0226856756939045 -3.762168159174244 -1.0
    vertex -5.409830056250526 -1.4959346906221074 -0.9999999999999999
    vertex -5.051898384717675 -3.4645588840535066 -1.0
  endloop
endfacet
facet normal -7.125399727194886e-17 4.333924971307444e-17 -1.0
  outer loop
    vertex -5.051898384717675 -3.4645588840535066 -1.0
    vertex -5.409830056250526 -1.4959346906221074 -0.9999999999999999
    vertex -3.5777222831138387 -1.1057621135331586 -0.9999999999999999
  endloop
endfacet
facet normal -7.125399727194886e-17 4.333924971307444e-17 -1.0
  outer loop
    vertex -5.051898384717675 -3.4645588840535066 -1.0
    vertex -3.5777222831138387 -1.1057621135331586 -0.9999999999999999
    vertex -3.1024830155209324 -3.049404039142777 -1.0
  endloop
endfacet
facet normal -7.125399727194886e-17 4.333924971307444e-17 -1.0
  outer loop
    vertex -3.1024830155209324 -3.049404039142777 -1.0
    vertex -3.5777222831138387 -1.1057621135331586 -0.9999999999999999
    vertex -1.7722832438109888 -0.6065192791716548 -0.9999999999999999
  endloop
endfacet
facet normal -7.125399727194886e-17 4.333924971307444e-17 -1.0
  outer loop
    vertex -3.1024830155209324 -3.049404039142777 -1.0
    vertex -1.7722832438109888 -0.6065192791716548 -0.9999999999999999
    vertex -1.181443946220567 -2.518195303207256 -1.0
  endloop
endfacet
facet normal -7.125399727194886e-17 4.333924971307444e-17 -1.0
  outer loop
    vertex -1.181443946220567 -2.518195303207256 -1.0
    vertex -1.7722832438109888 -0.6065192791716548 -0.9999999999999999
    vertex -7.125399727194886e-17 4.333924971307443e-17 -0.9999999999999999
  endloop
endfacet
facet normal -7.125399727194886e-17 4.333924971307444e-17 -1.0
  outer loop
    vertex -1.181443946220567 -2.518195303207256 -1.0
    vertex -7.125399727194886e-17 4.333924971307443e-17 -0.9999999999999999
    vertex 2.9805488673040417 -1.0938581437877382 -0.9999999999999999
  endloop
endfacet
facet normal -0.14931741872016488 -0.9887893144986687 -3.221392406853642e-17
  outer loop
    vertex -14.977314324305862 -3.7621681591742697 -9.967378271637172e-17
    vertex -16.948101615282482 -3.4645588840534765 -1.0
    vertex -14.977314324305862 -3.7621681591742697 -1.0
  endloop
endfacet
facet normal -0.14931741872016488 -0.9887893144986687 -3.221392406853642e-17
  outer loop
    vertex -16.948101615282482 -3.4645588840534765 -1.0
    vertex -14.977314324305862 -3.7621681591742697 -9.967378271637172e-17
    vertex -16.948101615282482 -3.4645588840534765 -9.133928763093939e-17
  endloop
endfacet
facet normal 0.9220388676994087 -0.3870973087630457 -8.247546189142518e-17
  outer loop
    vertex -18.407182876569404 16.43038942341561 -0.9999999999999977
    vertex -19.226806646665896 14.478102606092648 2.4161080907798364e-15
    vertex -19.226806646665896 14.478102606092648 -0.9999999999999974
  endloop
endfacet
facet normal 0.9220388676994087 -0.3870973087630457 -8.247546189142518e-17
  outer loop
    vertex -19.226806646665896 14.478102606092648 2.4161080907798364e-15
    vertex -18.407182876569404 16.43038942341561 -0.9999999999999977
    vertex -18.407182876569404 16.43038942341561 2.2075095293470964e-15
  endloop
endfacet
facet normal 0.9494254776419035 -0.313992455967406 -8.125855785100788e-17
  outer loop
    vertex -19.832161257454818 12.82318002954333 -0.9999999999999974
    vertex -19.943734971067077 12.485812286066098 2.4857037979342883e-15
    vertex -19.943734971067077 12.485812286066098 -0.9999999999999974
  endloop
endfacet
facet normal 0.9494254776419035 -0.313992455967406 -8.125855785100788e-17
  outer loop
    vertex -19.943734971067077 12.485812286066098 2.4857037979342883e-15
    vertex -19.832161257454818 12.82318002954333 -0.9999999999999974
    vertex -19.832161257454818 12.82318002954333 2.4857037979342883e-15
  endloop
endfacet
endsolid Untitled-55f0d8df
