solid Untitled-57255411
facet normal 0.9238795325112871 0.3826834323650893 0.0
  outer loop
    vertex 6.062177826491071 3.499999999999997 0.0
    vertex 6.761480784023478 1.8117333157176427 11.0
    vertex 6.761480784023478 1.8117333157176427 0.0
  endloop
endfacet
facet normal 0.9238795325112871 0.3826834323650893 0.0
  outer loop
    vertex 6.761480784023478 1.8117333157176427 11.0
    vertex 6.062177826491071 3.499999999999997 0.0
    vertex 6.062177826491071 3.499999999999997 11.0
  endloop
endfacet
facet normal -0.9238795325112868 0.38268343236509006 0.0
  outer loop
    vertex 3.380740392011739 -0.9058666578588234 11.0
    vertex 3.031088913245535 -1.7500000000000002 0.0
    vertex 3.031088913245535 -1.7500000000000002 11.0
  endloop
endfacet
facet normal -0.9238795325112868 0.38268343236509006 0.0
  outer loop
    vertex 3.031088913245535 -1.7500000000000002 0.0
    vertex 3.380740392011739 -0.9058666578588234 11.0
    vertex 3.380740392011739 -0.9058666578588234 0.0
  endloop
endfacet
facet normal 0.0 0.0 1.0
  outer loop
    vertex -3.500000000000004 -6.062177826491068 11.0
    vertex -3.3807403920117394 -0.905866657858821 11.0
    vertex -3.5 6.071816739965523e-16 11.0
  endloop
endfacet
facet normal 0.0 0.0 1.0
  outer loop
    vertex -3.3807403920117394 -0.905866657858821 11.0
    vertex -3.500000000000004 -6.062177826491068 11.0
    vertex -1.8117333157176523 -6.761480784023476 11.0
  endloop
endfacet
facet normal 0.0 0.0 1.0
  outer loop
    vertex -3.3807403920117394 -0.905866657858821 11.0
    vertex -1.8117333157176523 -6.761480784023476 11.0
    vertex -3.0310889132455365 -1.7499999999999976 11.0
  endloop
endfacet
facet normal 0.0 0.0 1.0
  outer loop
    vertex -3.0310889132455365 -1.7499999999999976 11.0
    vertex -1.8117333157176523 -6.761480784023476 11.0
    vertex -2.474873734152917 -2.474873734152916 11.0
  endloop
endfacet
facet normal 0.0 0.0 1.0
  outer loop
    vertex -2.474873734152917 -2.474873734152916 11.0
    vertex -1.8117333157176523 -6.761480784023476 11.0
    vertex -1.7500000000000013 -3.0310889132455343 11.0
  endloop
endfacet
facet normal 0.0 0.0 1.0
  outer loop
    vertex -1.7500000000000013 -3.0310889132455343 11.0
    vertex -1.8117333157176523 -6.761480784023476 11.0
    vertex -1.285879139104721e-15 -7.0 11.0
  endloop
endfacet
facet normal 0.0 0.0 1.0
  outer loop
    vertex -1.7500000000000013 -3.0310889132455343 11.0
    vertex -1.285879139104721e-15 -7.0 11.0
    vertex -0.9058666578588255 -3.380740392011738 11.0
  endloop
endfacet
facet normal 0.0 0.0 1.0
  outer loop
    vertex -0.9058666578588255 -3.380740392011738 11.0
    vertex -1.285879139104721e-15 -7.0 11.0
    vertex 3.575789555580817e-17 -3.5 11.0
  endloop
endfacet
facet normal 0.0 0.0 1.0
  outer loop
    vertex 3.575789555580817e-17 -3.5 11.0
    vertex -1.285879139104721e-15 -7.0 11.0
    vertex 1.8117333157176438 -6.761480784023478 11.0
  endloop
endfacet
facet normal 0.0 0.0 1.0
  outer loop
    vertex 3.575789555580817e-17 -3.5 11.0
    vertex 1.8117333157176438 -6.761480784023478 11.0
    vertex 0.9058666578588226 -3.380740392011739 11.0
  endloop
endfacet
facet normal 0.0 0.0 1.0
  outer loop
    vertex 0.9058666578588226 -3.380740392011739 11.0
    vertex 1.8117333157176438 -6.761480784023478 11.0
    vertex 1.7499999999999996 -3.031088913245535 11.0
  endloop
endfacet
facet normal 0.0 0.0 1.0
  outer loop
    vertex 1.7499999999999996 -3.031088913245535 11.0
    vertex 1.8117333157176438 -6.761480784023478 11.0
    vertex 2.4748737341529163 -2.4748737341529163 11.0
  endloop
endfacet
facet normal 0.0 0.0 1.0
  outer loop
    vertex 2.4748737341529163 -2.4748737341529163 11.0
    vertex 1.8117333157176438 -6.761480784023478 11.0
    vertex 3.499999999999998 -6.062177826491071 11.0
  endloop
endfacet
facet normal 0.0 0.0 1.0
  outer loop
    vertex 2.4748737341529163 -2.4748737341529163 11.0
    vertex 3.499999999999998 -6.062177826491071 11.0
    vertex 3.031088913245535 -1.7500000000000002 11.0
  endloop
endfacet
facet normal 0.0 0.0 1.0
  outer loop
    vertex 3.031088913245535 -1.7500000000000002 11.0
    vertex 3.499999999999998 -6.062177826491071 11.0
    vertex 3.380740392011739 -0.9058666578588234 11.0
  endloop
endfacet
facet normal 0.0 0.0 1.0
  outer loop
    vertex 3.380740392011739 -0.9058666578588234 11.0
    vertex 3.499999999999998 -6.062177826491071 11.0
    vertex 3.5 -1.7855529429497864e-16 11.0
  endloop
endfacet
facet normal 0.0 0.0 1.0
  outer loop
    vertex 3.5 -1.7855529429497864e-16 11.0
    vertex 3.499999999999998 -6.062177826491071 11.0
    vertex 4.949747468305832 -4.949747468305834 11.0
  endloop
endfacet
facet normal 0.0 0.0 1.0
  outer loop
    vertex 3.5 -1.7855529429497864e-16 11.0
    vertex 4.949747468305832 -4.949747468305834 11.0
    vertex 3.5000000000000036 6.062177826491069 11.0
  endloop
endfacet
facet normal 0.0 0.0 1.0
  outer loop
    vertex 3.5000000000000036 6.062177826491069 11.0
    vertex 4.949747468305832 -4.949747468305834 11.0
    vertex 4.949747468305834 4.949747468305832 11.0
  endloop
endfacet
facet normal 0.0 0.0 1.0
  outer loop
    vertex 4.949747468305834 4.949747468305832 11.0
    vertex 4.949747468305832 -4.949747468305834 11.0
    vertex 6.0621778264910695 -3.500000000000002 11.0
  endloop
endfacet
facet normal 0.0 0.0 1.0
  outer loop
    vertex 4.949747468305834 4.949747468305832 11.0
    vertex 6.0621778264910695 -3.500000000000002 11.0
    vertex 6.062177826491071 3.499999999999997 11.0
  endloop
endfacet
facet normal 0.0 0.0 1.0
  outer loop
    vertex 6.062177826491071 3.499999999999997 11.0
    vertex 6.0621778264910695 -3.500000000000002 11.0
    vertex 6.761480784023478 -1.811733315717648 11.0
  endloop
endfacet
facet normal 0.0 0.0 1.0
  outer loop
    vertex 6.062177826491071 3.499999999999997 11.0
    vertex 6.761480784023478 -1.811733315717648 11.0
    vertex 6.761480784023478 1.8117333157176427 11.0
  endloop
endfacet
facet normal 0.0 0.0 1.0
  outer loop
    vertex 6.761480784023478 1.8117333157176427 11.0
    vertex 6.761480784023478 -1.811733315717648 11.0
    vertex 7.0 -1.7145055188062944e-15 11.0
  endloop
endfacet
facet normal 0.0 0.0 1.0
  outer loop
    vertex -6.761480784023479 -1.8117333157176407 11.0
    vertex -6.761480784023476 1.811733315717652 11.0
    vertex -7.0 2.571758278209442e-15 11.0
  endloop
endfacet
facet normal 0.0 0.0 1.0
  outer loop
    vertex -6.761480784023476 1.811733315717652 11.0
    vertex -6.761480784023479 -1.8117333157176407 11.0
    vertex -6.062177826491074 -3.499999999999994 11.0
  endloop
endfacet
facet normal 0.0 0.0 1.0
  outer loop
    vertex -6.761480784023476 1.811733315717652 11.0
    vertex -6.062177826491074 -3.499999999999994 11.0
    vertex -6.062177826491068 3.500000000000004 11.0
  endloop
endfacet
facet normal 0.0 0.0 1.0
  outer loop
    vertex -6.062177826491068 3.500000000000004 11.0
    vertex -6.062177826491074 -3.499999999999994 11.0
    vertex -4.9497474683058345 -4.949747468305831 11.0
  endloop
endfacet
facet normal 0.0 0.0 1.0
  outer loop
    vertex -6.062177826491068 3.500000000000004 11.0
    vertex -4.9497474683058345 -4.949747468305831 11.0
    vertex -4.949747468305829 4.949747468305836 11.0
  endloop
endfacet
facet normal 0.0 0.0 1.0
  outer loop
    vertex -4.949747468305829 4.949747468305836 11.0
    vertex -4.9497474683058345 -4.949747468305831 11.0
    vertex -3.500000000000004 -6.062177826491068 11.0
  endloop
endfacet
facet normal 0.0 0.0 1.0
  outer loop
    vertex -4.949747468305829 4.949747468305836 11.0
    vertex -3.500000000000004 -6.062177826491068 11.0
    vertex -3.4999999999999964 6.062177826491072 11.0
  endloop
endfacet
facet normal 0.0 0.0 1.0
  outer loop
    vertex -3.4999999999999964 6.062177826491072 11.0
    vertex -3.500000000000004 -6.062177826491068 11.0
    vertex -3.5 6.071816739965523e-16 11.0
  endloop
endfacet
facet normal 0.0 0.0 1.0
  outer loop
    vertex -3.4999999999999964 6.062177826491072 11.0
    vertex -3.5 6.071816739965523e-16 11.0
    vertex -3.380740392011738 0.9058666578588253 11.0
  endloop
endfacet
facet normal 0.0 0.0 1.0
  outer loop
    vertex -3.4999999999999964 6.062177826491072 11.0
    vertex -3.380740392011738 0.9058666578588253 11.0
    vertex -1.811733315717641 6.761480784023479 11.0
  endloop
endfacet
facet normal 0.0 0.0 1.0
  outer loop
    vertex -1.811733315717641 6.761480784023479 11.0
    vertex -3.380740392011738 0.9058666578588253 11.0
    vertex -3.0310889132455343 1.7500000000000013 11.0
  endloop
endfacet
facet normal 0.0 0.0 1.0
  outer loop
    vertex -1.811733315717641 6.761480784023479 11.0
    vertex -3.0310889132455343 1.7500000000000013 11.0
    vertex -2.4748737341529146 2.4748737341529177 11.0
  endloop
endfacet
facet normal 0.0 0.0 1.0
  outer loop
    vertex -1.811733315717641 6.761480784023479 11.0
    vertex -2.4748737341529146 2.4748737341529177 11.0
    vertex -1.749999999999999 3.0310889132455356 11.0
  endloop
endfacet
facet normal 0.0 0.0 1.0
  outer loop
    vertex -1.811733315717641 6.761480784023479 11.0
    vertex -1.749999999999999 3.0310889132455356 11.0
    vertex 2.1431318985078682e-15 7.0 11.0
  endloop
endfacet
facet normal 0.0 0.0 1.0
  outer loop
    vertex 2.1431318985078682e-15 7.0 11.0
    vertex -1.749999999999999 3.0310889132455356 11.0
    vertex -0.9058666578588213 3.3807403920117394 11.0
  endloop
endfacet
facet normal 0.0 0.0 1.0
  outer loop
    vertex 2.1431318985078682e-15 7.0 11.0
    vertex -0.9058666578588213 3.3807403920117394 11.0
    vertex 3.928684841457655e-16 3.5 11.0
  endloop
endfacet
facet normal 0.0 0.0 1.0
  outer loop
    vertex 2.1431318985078682e-15 7.0 11.0
    vertex 3.928684841457655e-16 3.5 11.0
    vertex 0.9058666578588235 3.380740392011739 11.0
  endloop
endfacet
facet normal 0.0 0.0 1.0
  outer loop
    vertex 2.1431318985078682e-15 7.0 11.0
    vertex 0.9058666578588235 3.380740392011739 11.0
    vertex 1.8117333157176485 6.761480784023478 11.0
  endloop
endfacet
facet normal 0.0 0.0 1.0
  outer loop
    vertex 1.8117333157176485 6.761480784023478 11.0
    vertex 0.9058666578588235 3.380740392011739 11.0
    vertex 1.750000000000001 3.0310889132455348 11.0
  endloop
endfacet
facet normal 0.0 0.0 1.0
  outer loop
    vertex 1.8117333157176485 6.761480784023478 11.0
    vertex 1.750000000000001 3.0310889132455348 11.0
    vertex 2.4748737341529163 2.4748737341529163 11.0
  endloop
endfacet
facet normal 0.0 0.0 1.0
  outer loop
    vertex 1.8117333157176485 6.761480784023478 11.0
    vertex 2.4748737341529163 2.4748737341529163 11.0
    vertex 3.5000000000000036 6.062177826491069 11.0
  endloop
endfacet
facet normal 0.0 0.0 1.0
  outer loop
    vertex 3.5000000000000036 6.062177826491069 11.0
    vertex 2.4748737341529163 2.4748737341529163 11.0
    vertex 3.031088913245535 1.7499999999999993 11.0
  endloop
endfacet
facet normal 0.0 0.0 1.0
  outer loop
    vertex 3.5000000000000036 6.062177826491069 11.0
    vertex 3.031088913245535 1.7499999999999993 11.0
    vertex 3.380740392011739 0.9058666578588221 11.0
  endloop
endfacet
facet normal 0.0 0.0 1.0
  outer loop
    vertex 3.5000000000000036 6.062177826491069 11.0
    vertex 3.380740392011739 0.9058666578588221 11.0
    vertex 3.5 -1.7855529429497864e-16 11.0
  endloop
endfacet
facet normal 0.13052619222005177 -0.9914448613738105 0.0
  outer loop
    vertex 1.8117333157176438 -6.761480784023478 11.0
    vertex -1.285879139104721e-15 -7.0 0.0
    vertex 1.8117333157176438 -6.761480784023478 0.0
  endloop
endfacet
facet normal 0.13052619222005177 -0.9914448613738105 0.0
  outer loop
    vertex -1.285879139104721e-15 -7.0 0.0
    vertex 1.8117333157176438 -6.761480784023478 11.0
    vertex -1.285879139104721e-15 -7.0 11.0
  endloop
endfacet
facet normal -0.9914448613738105 0.1305261922200522 0.0
  outer loop
    vertex -6.761480784023476 1.811733315717652 11.0
    vertex -7.0 2.571758278209442e-15 0.0
    vertex -7.0 2.571758278209442e-15 11.0
  endloop
endfacet
facet normal -0.9914448613738105 0.1305261922200522 0.0
  outer loop
    vertex -7.0 2.571758278209442e-15 0.0
    vertex -6.761480784023476 1.811733315717652 11.0
    vertex -6.761480784023476 1.811733315717652 0.0
  endloop
endfacet
facet normal 0.38268343236509056 0.9238795325112866 0.0
  outer loop
    vertex 1.8117333157176485 6.761480784023478 11.0
    vertex 3.5000000000000036 6.062177826491069 0.0
    vertex 1.8117333157176485 6.761480784023478 0.0
  endloop
endfacet
facet normal 0.38268343236509056 0.9238795325112866 0.0
  outer loop
    vertex 3.5000000000000036 6.062177826491069 0.0
    vertex 1.8117333157176485 6.761480784023478 11.0
    vertex 3.5000000000000036 6.062177826491069 11.0
  endloop
endfacet
facet normal 0.608761429008721 0.793353340291235 0.0
  outer loop
    vertex 3.5000000000000036 6.062177826491069 11.0
    vertex 4.949747468305834 4.949747468305832 0.0
    vertex 3.5000000000000036 6.062177826491069 0.0
  endloop
endfacet
facet normal 0.608761429008721 0.793353340291235 0.0
  outer loop
    vertex 4.949747468305834 4.949747468305832 0.0
    vertex 3.5000000000000036 6.062177826491069 11.0
    vertex 4.949747468305834 4.949747468305832 11.0
  endloop
endfacet
facet normal 0.7933533402912356 0.6087614290087201 0.0
  outer loop
    vertex 4.949747468305834 4.949747468305832 0.0
    vertex 6.062177826491071 3.499999999999997 11.0
    vertex 6.062177826491071 3.499999999999997 0.0
  endloop
endfacet
facet normal 0.7933533402912356 0.6087614290087201 0.0
  outer loop
    vertex 6.062177826491071 3.499999999999997 11.0
    vertex 4.949747468305834 4.949747468305832 0.0
    vertex 4.949747468305834 4.949747468305832 11.0
  endloop
endfacet
facet normal -0.6087614290087204 0.7933533402912353 0.0
  outer loop
    vertex 1.7499999999999996 -3.031088913245535 11.0
    vertex 2.4748737341529163 -2.4748737341529163 0.0
    vertex 1.7499999999999996 -3.031088913245535 0.0
  endloop
endfacet
facet normal -0.6087614290087204 0.7933533402912353 0.0
  outer loop
    vertex 2.4748737341529163 -2.4748737341529163 0.0
    vertex 1.7499999999999996 -3.031088913245535 11.0
    vertex 2.4748737341529163 -2.4748737341529163 11.0
  endloop
endfacet
facet normal -0.6087614290087208 -0.793353340291235 -0.0
  outer loop
    vertex 2.4748737341529163 2.4748737341529163 11.0
    vertex 1.750000000000001 3.0310889132455348 0.0
    vertex 2.4748737341529163 2.4748737341529163 0.0
  endloop
endfacet
facet normal -0.6087614290087208 -0.793353340291235 -0.0
  outer loop
    vertex 1.750000000000001 3.0310889132455348 0.0
    vertex 2.4748737341529163 2.4748737341529163 11.0
    vertex 1.750000000000001 3.0310889132455348 11.0
  endloop
endfacet
facet normal 0.6087614290087203 -0.7933533402912356 0.0
  outer loop
    vertex 4.949747468305832 -4.949747468305834 11.0
    vertex 3.499999999999998 -6.062177826491071 0.0
    vertex 4.949747468305832 -4.949747468305834 0.0
  endloop
endfacet
facet normal 0.6087614290087203 -0.7933533402912356 0.0
  outer loop
    vertex 3.499999999999998 -6.062177826491071 0.0
    vertex 4.949747468305832 -4.949747468305834 11.0
    vertex 3.499999999999998 -6.062177826491071 11.0
  endloop
endfacet
facet normal -0.6087614290087202 0.7933533402912357 0.0
  outer loop
    vertex -4.949747468305829 4.949747468305836 11.0
    vertex -3.4999999999999964 6.062177826491072 0.0
    vertex -4.949747468305829 4.949747468305836 0.0
  endloop
endfacet
facet normal -0.6087614290087202 0.7933533402912357 0.0
  outer loop
    vertex -3.4999999999999964 6.062177826491072 0.0
    vertex -4.949747468305829 4.949747468305836 11.0
    vertex -3.4999999999999964 6.062177826491072 11.0
  endloop
endfacet
facet normal -0.3826834323650901 -0.9238795325112867 -0.0
  outer loop
    vertex 1.750000000000001 3.0310889132455348 11.0
    vertex 0.9058666578588235 3.380740392011739 0.0
    vertex 1.750000000000001 3.0310889132455348 0.0
  endloop
endfacet
facet normal -0.3826834323650901 -0.9238795325112867 -0.0
  outer loop
    vertex 0.9058666578588235 3.380740392011739 0.0
    vertex 1.750000000000001 3.0310889132455348 11.0
    vertex 0.9058666578588235 3.380740392011739 11.0
  endloop
endfacet
facet normal 0.13052619222005113 -0.9914448613738105 0.0
  outer loop
    vertex 3.928684841457655e-16 3.5 11.0
    vertex -0.9058666578588213 3.3807403920117394 0.0
    vertex 3.928684841457655e-16 3.5 0.0
  endloop
endfacet
facet normal 0.13052619222005113 -0.9914448613738105 0.0
  outer loop
    vertex -0.9058666578588213 3.3807403920117394 0.0
    vertex 3.928684841457655e-16 3.5 11.0
    vertex -0.9058666578588213 3.3807403920117394 11.0
  endloop
endfacet
facet normal -0.38268343236508967 0.9238795325112868 0.0
  outer loop
    vertex 0.9058666578588226 -3.380740392011739 11.0
    vertex 1.7499999999999996 -3.031088913245535 0.0
    vertex 0.9058666578588226 -3.380740392011739 0.0
  endloop
endfacet
facet normal -0.38268343236508967 0.9238795325112868 0.0
  outer loop
    vertex 1.7499999999999996 -3.031088913245535 0.0
    vertex 0.9058666578588226 -3.380740392011739 11.0
    vertex 1.7499999999999996 -3.031088913245535 11.0
  endloop
endfacet
facet normal 0.9914448613738104 -0.13052619222005168 0.0
  outer loop
    vertex 7.0 -1.7145055188062944e-15 0.0
    vertex 6.761480784023478 -1.811733315717648 11.0
    vertex 6.761480784023478 -1.811733315717648 0.0
  endloop
endfacet
facet normal 0.9914448613738104 -0.13052619222005168 0.0
  outer loop
    vertex 6.761480784023478 -1.811733315717648 11.0
    vertex 7.0 -1.7145055188062944e-15 0.0
    vertex 7.0 -1.7145055188062944e-15 11.0
  endloop
endfacet
facet normal 0.3826834323650898 -0.9238795325112868 0.0
  outer loop
    vertex -0.9058666578588213 3.3807403920117394 11.0
    vertex -1.749999999999999 3.0310889132455356 0.0
    vertex -0.9058666578588213 3.3807403920117394 0.0
  endloop
endfacet
facet normal 0.3826834323650898 -0.9238795325112868 0.0
  outer loop
    vertex -1.749999999999999 3.0310889132455356 0.0
    vertex -0.9058666578588213 3.3807403920117394 11.0
    vertex -1.749999999999999 3.0310889132455356 11.0
  endloop
endfacet
facet normal 0.9914448613738105 -0.1305261922200522 0.0
  outer loop
    vertex -3.380740392011738 0.9058666578588253 0.0
    vertex -3.5 6.071816739965523e-16 11.0
    vertex -3.5 6.071816739965523e-16 0.0
  endloop
endfacet
facet normal 0.9914448613738105 -0.1305261922200522 0.0
  outer loop
    vertex -3.5 6.071816739965523e-16 11.0
    vertex -3.380740392011738 0.9058666578588253 0.0
    vertex -3.380740392011738 0.9058666578588253 11.0
  endloop
endfacet
facet normal 0.0 0.0 -1.0
  outer loop
    vertex -6.761480784023476 1.811733315717652 0.0
    vertex -6.761480784023479 -1.8117333157176407 0.0
    vertex -7.0 2.571758278209442e-15 0.0
  endloop
endfacet
facet normal 0.0 0.0 -1.0
  outer loop
    vertex -6.761480784023479 -1.8117333157176407 0.0
    vertex -6.761480784023476 1.811733315717652 0.0
    vertex -6.062177826491074 -3.499999999999994 0.0
  endloop
endfacet
facet normal 0.0 0.0 -1.0
  outer loop
    vertex -6.062177826491074 -3.499999999999994 0.0
    vertex -6.761480784023476 1.811733315717652 0.0
    vertex -6.062177826491068 3.500000000000004 0.0
  endloop
endfacet
facet normal 0.0 0.0 -1.0
  outer loop
    vertex -6.062177826491074 -3.499999999999994 0.0
    vertex -6.062177826491068 3.500000000000004 0.0
    vertex -4.9497474683058345 -4.949747468305831 0.0
  endloop
endfacet
facet normal 0.0 0.0 -1.0
  outer loop
    vertex -4.9497474683058345 -4.949747468305831 0.0
    vertex -6.062177826491068 3.500000000000004 0.0
    vertex -4.949747468305829 4.949747468305836 0.0
  endloop
endfacet
facet normal 0.0 0.0 -1.0
  outer loop
    vertex -4.9497474683058345 -4.949747468305831 0.0
    vertex -4.949747468305829 4.949747468305836 0.0
    vertex -3.500000000000004 -6.062177826491068 0.0
  endloop
endfacet
facet normal 0.0 0.0 -1.0
  outer loop
    vertex -3.500000000000004 -6.062177826491068 0.0
    vertex -4.949747468305829 4.949747468305836 0.0
    vertex -3.4999999999999964 6.062177826491072 0.0
  endloop
endfacet
facet normal 0.0 0.0 -1.0
  outer loop
    vertex -3.500000000000004 -6.062177826491068 0.0
    vertex -3.4999999999999964 6.062177826491072 0.0
    vertex -3.5 6.071816739965523e-16 0.0
  endloop
endfacet
facet normal 0.0 0.0 -1.0
  outer loop
    vertex -3.5 6.071816739965523e-16 0.0
    vertex -3.4999999999999964 6.062177826491072 0.0
    vertex -3.380740392011738 0.9058666578588253 0.0
  endloop
endfacet
facet normal 0.0 0.0 -1.0
  outer loop
    vertex -3.380740392011738 0.9058666578588253 0.0
    vertex -3.4999999999999964 6.062177826491072 0.0
    vertex -1.811733315717641 6.761480784023479 0.0
  endloop
endfacet
facet normal 0.0 0.0 -1.0
  outer loop
    vertex -3.380740392011738 0.9058666578588253 0.0
    vertex -1.811733315717641 6.761480784023479 0.0
    vertex -3.0310889132455343 1.7500000000000013 0.0
  endloop
endfacet
facet normal 0.0 0.0 -1.0
  outer loop
    vertex -3.0310889132455343 1.7500000000000013 0.0
    vertex -1.811733315717641 6.761480784023479 0.0
    vertex -2.4748737341529146 2.4748737341529177 0.0
  endloop
endfacet
facet normal 0.0 0.0 -1.0
  outer loop
    vertex -2.4748737341529146 2.4748737341529177 0.0
    vertex -1.811733315717641 6.761480784023479 0.0
    vertex -1.749999999999999 3.0310889132455356 0.0
  endloop
endfacet
facet normal 0.0 0.0 -1.0
  outer loop
    vertex -1.749999999999999 3.0310889132455356 0.0
    vertex -1.811733315717641 6.761480784023479 0.0
    vertex 2.1431318985078682e-15 7.0 0.0
  endloop
endfacet
facet normal 0.0 0.0 -1.0
  outer loop
    vertex -1.749999999999999 3.0310889132455356 0.0
    vertex 2.1431318985078682e-15 7.0 0.0
    vertex -0.9058666578588213 3.3807403920117394 0.0
  endloop
endfacet
facet normal 0.0 0.0 -1.0
  outer loop
    vertex -0.9058666578588213 3.3807403920117394 0.0
    vertex 2.1431318985078682e-15 7.0 0.0
    vertex 3.928684841457655e-16 3.5 0.0
  endloop
endfacet
facet normal 0.0 0.0 -1.0
  outer loop
    vertex 3.928684841457655e-16 3.5 0.0
    vertex 2.1431318985078682e-15 7.0 0.0
    vertex 0.9058666578588235 3.380740392011739 0.0
  endloop
endfacet
facet normal 0.0 0.0 -1.0
  outer loop
    vertex 0.9058666578588235 3.380740392011739 0.0
    vertex 2.1431318985078682e-15 7.0 0.0
    vertex 1.8117333157176485 6.761480784023478 0.0
  endloop
endfacet
facet normal 0.0 0.0 -1.0
  outer loop
    vertex 0.9058666578588235 3.380740392011739 0.0
    vertex 1.8117333157176485 6.761480784023478 0.0
    vertex 1.750000000000001 3.0310889132455348 0.0
  endloop
endfacet
facet normal 0.0 0.0 -1.0
  outer loop
    vertex 1.750000000000001 3.0310889132455348 0.0
    vertex 1.8117333157176485 6.761480784023478 0.0
    vertex 2.4748737341529163 2.4748737341529163 0.0
  endloop
endfacet
facet normal 0.0 0.0 -1.0
  outer loop
    vertex 2.4748737341529163 2.4748737341529163 0.0
    vertex 1.8117333157176485 6.761480784023478 0.0
    vertex 3.5000000000000036 6.062177826491069 0.0
  endloop
endfacet
facet normal 0.0 0.0 -1.0
  outer loop
    vertex 2.4748737341529163 2.4748737341529163 0.0
    vertex 3.5000000000000036 6.062177826491069 0.0
    vertex 3.031088913245535 1.7499999999999993 0.0
  endloop
endfacet
facet normal 0.0 0.0 -1.0
  outer loop
    vertex 3.031088913245535 1.7499999999999993 0.0
    vertex 3.5000000000000036 6.062177826491069 0.0
    vertex 3.380740392011739 0.9058666578588221 0.0
  endloop
endfacet
facet normal 0.0 0.0 -1.0
  outer loop
    vertex 3.380740392011739 0.9058666578588221 0.0
    vertex 3.5000000000000036 6.062177826491069 0.0
    vertex 3.5 -1.7855529429497864e-16 0.0
  endloop
endfacet
facet normal 0.0 0.0 -1.0
  outer loop
    vertex -3.500000000000004 -6.062177826491068 0.0
    vertex -3.3807403920117394 -0.905866657858821 0.0
    vertex -1.8117333157176523 -6.761480784023476 0.0
  endloop
endfacet
facet normal 0.0 0.0 -1.0
  outer loop
    vertex -3.3807403920117394 -0.905866657858821 0.0
    vertex -3.500000000000004 -6.062177826491068 0.0
    vertex -3.5 6.071816739965523e-16 0.0
  endloop
endfacet
facet normal 0.0 0.0 -1.0
  outer loop
    vertex -1.8117333157176523 -6.761480784023476 0.0
    vertex -3.3807403920117394 -0.905866657858821 0.0
    vertex -3.0310889132455365 -1.7499999999999976 0.0
  endloop
endfacet
facet normal 0.0 0.0 -1.0
  outer loop
    vertex -1.8117333157176523 -6.761480784023476 0.0
    vertex -3.0310889132455365 -1.7499999999999976 0.0
    vertex -2.474873734152917 -2.474873734152916 0.0
  endloop
endfacet
facet normal 0.0 0.0 -1.0
  outer loop
    vertex -1.8117333157176523 -6.761480784023476 0.0
    vertex -2.474873734152917 -2.474873734152916 0.0
    vertex -1.7500000000000013 -3.0310889132455343 0.0
  endloop
endfacet
facet normal 0.0 0.0 -1.0
  outer loop
    vertex -1.8117333157176523 -6.761480784023476 0.0
    vertex -1.7500000000000013 -3.0310889132455343 0.0
    vertex -1.285879139104721e-15 -7.0 0.0
  endloop
endfacet
facet normal 0.0 0.0 -1.0
  outer loop
    vertex -1.285879139104721e-15 -7.0 0.0
    vertex -1.7500000000000013 -3.0310889132455343 0.0
    vertex -0.9058666578588255 -3.380740392011738 0.0
  endloop
endfacet
facet normal 0.0 0.0 -1.0
  outer loop
    vertex -1.285879139104721e-15 -7.0 0.0
    vertex -0.9058666578588255 -3.380740392011738 0.0
    vertex 3.575789555580817e-17 -3.5 0.0
  endloop
endfacet
facet normal 0.0 0.0 -1.0
  outer loop
    vertex -1.285879139104721e-15 -7.0 0.0
    vertex 3.575789555580817e-17 -3.5 0.0
    vertex 1.8117333157176438 -6.761480784023478 0.0
  endloop
endfacet
facet normal 0.0 0.0 -1.0
  outer loop
    vertex 1.8117333157176438 -6.761480784023478 0.0
    vertex 3.575789555580817e-17 -3.5 0.0
    vertex 0.9058666578588226 -3.380740392011739 0.0
  endloop
endfacet
facet normal 0.0 0.0 -1.0
  outer loop
    vertex 1.8117333157176438 -6.761480784023478 0.0
    vertex 0.9058666578588226 -3.380740392011739 0.0
    vertex 1.7499999999999996 -3.031088913245535 0.0
  endloop
endfacet
facet normal 0.0 0.0 -1.0
  outer loop
    vertex 1.8117333157176438 -6.761480784023478 0.0
    vertex 1.7499999999999996 -3.031088913245535 0.0
    vertex 2.4748737341529163 -2.4748737341529163 0.0
  endloop
endfacet
facet normal 0.0 0.0 -1.0
  outer loop
    vertex 1.8117333157176438 -6.761480784023478 0.0
    vertex 2.4748737341529163 -2.4748737341529163 0.0
    vertex 3.499999999999998 -6.062177826491071 0.0
  endloop
endfacet
facet normal 0.0 0.0 -1.0
  outer loop
    vertex 3.499999999999998 -6.062177826491071 0.0
    vertex 2.4748737341529163 -2.4748737341529163 0.0
    vertex 3.031088913245535 -1.7500000000000002 0.0
  endloop
endfacet
facet normal 0.0 0.0 -1.0
  outer loop
    vertex 3.499999999999998 -6.062177826491071 0.0
    vertex 3.031088913245535 -1.7500000000000002 0.0
    vertex 3.380740392011739 -0.9058666578588234 0.0
  endloop
endfacet
facet normal 0.0 0.0 -1.0
  outer loop
    vertex 3.499999999999998 -6.062177826491071 0.0
    vertex 3.380740392011739 -0.9058666578588234 0.0
    vertex 3.5 -1.7855529429497864e-16 0.0
  endloop
endfacet
facet normal 0.0 0.0 -1.0
  outer loop
    vertex 3.499999999999998 -6.062177826491071 0.0
    vertex 3.5 -1.7855529429497864e-16 0.0
    vertex 4.949747468305832 -4.949747468305834 0.0
  endloop
endfacet
facet normal 0.0 0.0 -1.0
  outer loop
    vertex 4.949747468305832 -4.949747468305834 0.0
    vertex 3.5 -1.7855529429497864e-16 0.0
    vertex 3.5000000000000036 6.062177826491069 0.0
  endloop
endfacet
facet normal 0.0 0.0 -1.0
  outer loop
    vertex 4.949747468305832 -4.949747468305834 0.0
    vertex 3.5000000000000036 6.062177826491069 0.0
    vertex 4.949747468305834 4.949747468305832 0.0
  endloop
endfacet
facet normal 0.0 0.0 -1.0
  outer loop
    vertex 4.949747468305832 -4.949747468305834 0.0
    vertex 4.949747468305834 4.949747468305832 0.0
    vertex 6.0621778264910695 -3.500000000000002 0.0
  endloop
endfacet
facet normal 0.0 0.0 -1.0
  outer loop
    vertex 6.0621778264910695 -3.500000000000002 0.0
    vertex 4.949747468305834 4.949747468305832 0.0
    vertex 6.062177826491071 3.499999999999997 0.0
  endloop
endfacet
facet normal 0.0 0.0 -1.0
  outer loop
    vertex 6.0621778264910695 -3.500000000000002 0.0
    vertex 6.062177826491071 3.499999999999997 0.0
    vertex 6.761480784023478 -1.811733315717648 0.0
  endloop
endfacet
facet normal 0.0 0.0 -1.0
  outer loop
    vertex 6.761480784023478 -1.811733315717648 0.0
    vertex 6.062177826491071 3.499999999999997 0.0
    vertex 6.761480784023478 1.8117333157176427 0.0
  endloop
endfacet
facet normal 0.0 0.0 -1.0
  outer loop
    vertex 6.761480784023478 -1.811733315717648 0.0
    vertex 6.761480784023478 1.8117333157176427 0.0
    vertex 7.0 -1.7145055188062944e-15 0.0
  endloop
endfacet
facet normal 0.9914448613738105 0.1305261922200518 0.0
  outer loop
    vertex 6.761480784023478 1.8117333157176427 0.0
    vertex 7.0 -1.7145055188062944e-15 11.0
    vertex 7.0 -1.7145055188062944e-15 0.0
  endloop
endfacet
facet normal 0.9914448613738105 0.1305261922200518 0.0
  outer loop
    vertex 7.0 -1.7145055188062944e-15 11.0
    vertex 6.761480784023478 1.8117333157176427 0.0
    vertex 6.761480784023478 1.8117333157176427 11.0
  endloop
endfacet
facet normal -0.3826834323650894 0.923879532511287 0.0
  outer loop
    vertex -3.4999999999999964 6.062177826491072 11.0
    vertex -1.811733315717641 6.761480784023479 0.0
    vertex -3.4999999999999964 6.062177826491072 0.0
  endloop
endfacet
facet normal -0.3826834323650894 0.923879532511287 0.0
  outer loop
    vertex -1.811733315717641 6.761480784023479 0.0
    vertex -3.4999999999999964 6.062177826491072 11.0
    vertex -1.811733315717641 6.761480784023479 11.0
  endloop
endfacet
facet normal 0.38268343236508934 -0.923879532511287 0.0
  outer loop
    vertex 3.499999999999998 -6.062177826491071 11.0
    vertex 1.8117333157176438 -6.761480784023478 0.0
    vertex 3.499999999999998 -6.062177826491071 0.0
  endloop
endfacet
facet normal 0.38268343236508934 -0.923879532511287 0.0
  outer loop
    vertex 1.8117333157176438 -6.761480784023478 0.0
    vertex 3.499999999999998 -6.062177826491071 11.0
    vertex 1.8117333157176438 -6.761480784023478 11.0
  endloop
endfacet
facet normal -0.7933533402912353 0.6087614290087207 0.0
  outer loop
    vertex 3.031088913245535 -1.7500000000000002 11.0
    vertex 2.4748737341529163 -2.4748737341529163 0.0
    vertex 2.4748737341529163 -2.4748737341529163 11.0
  endloop
endfacet
facet normal -0.7933533402912353 0.6087614290087207 0.0
  outer loop
    vertex 2.4748737341529163 -2.4748737341529163 0.0
    vertex 3.031088913245535 -1.7500000000000002 11.0
    vertex 3.031088913245535 -1.7500000000000002 0.0
  endloop
endfacet
facet normal -0.9914448613738105 -0.13052619222005113 -0.0
  outer loop
    vertex -7.0 2.571758278209442e-15 11.0
    vertex -6.761480784023479 -1.8117333157176407 0.0
    vertex -6.761480784023479 -1.8117333157176407 11.0
  endloop
endfacet
facet normal -0.9914448613738105 -0.13052619222005113 -0.0
  outer loop
    vertex -6.761480784023479 -1.8117333157176407 0.0
    vertex -7.0 2.571758278209442e-15 11.0
    vertex -7.0 2.571758278209442e-15 0.0
  endloop
endfacet
facet normal -0.3826834323650907 -0.9238795325112864 -0.0
  outer loop
    vertex -1.8117333157176523 -6.761480784023476 11.0
    vertex -3.500000000000004 -6.062177826491068 0.0
    vertex -1.8117333157176523 -6.761480784023476 0.0
  endloop
endfacet
facet normal -0.3826834323650907 -0.9238795325112864 -0.0
  outer loop
    vertex -3.500000000000004 -6.062177826491068 0.0
    vertex -1.8117333157176523 -6.761480784023476 11.0
    vertex -3.500000000000004 -6.062177826491068 11.0
  endloop
endfacet
facet normal 0.9238795325112867 -0.3826834323650904 0.0
  outer loop
    vertex 6.761480784023478 -1.811733315717648 0.0
    vertex 6.0621778264910695 -3.500000000000002 11.0
    vertex 6.0621778264910695 -3.500000000000002 0.0
  endloop
endfacet
facet normal 0.9238795325112867 -0.3826834323650904 0.0
  outer loop
    vertex 6.0621778264910695 -3.500000000000002 11.0
    vertex 6.761480784023478 -1.811733315717648 0.0
    vertex 6.761480784023478 -1.811733315717648 11.0
  endloop
endfacet
facet normal -0.13052619222005177 0.9914448613738105 0.0
  outer loop
    vertex 3.575789555580817e-17 -3.5 11.0
    vertex 0.9058666578588226 -3.380740392011739 0.0
    vertex 3.575789555580817e-17 -3.5 0.0
  endloop
endfacet
facet normal -0.13052619222005177 0.9914448613738105 0.0
  outer loop
    vertex 0.9058666578588226 -3.380740392011739 0.0
    vertex 3.575789555580817e-17 -3.5 11.0
    vertex 0.9058666578588226 -3.380740392011739 11.0
  endloop
endfacet
facet normal -0.9914448613738104 0.13052619222005168 0.0
  outer loop
    vertex 3.5 -1.7855529429497864e-16 11.0
    vertex 3.380740392011739 -0.9058666578588234 0.0
    vertex 3.380740392011739 -0.9058666578588234 11.0
  endloop
endfacet
facet normal -0.9914448613738104 0.13052619222005168 0.0
  outer loop
    vertex 3.380740392011739 -0.9058666578588234 0.0
    vertex 3.5 -1.7855529429497864e-16 11.0
    vertex 3.5 -1.7855529429497864e-16 0.0
  endloop
endfacet
facet normal 0.13052619222005168 0.9914448613738104 0.0
  outer loop
    vertex 2.1431318985078682e-15 7.0 11.0
    vertex 1.8117333157176485 6.761480784023478 0.0
    vertex 2.1431318985078682e-15 7.0 0.0
  endloop
endfacet
facet normal 0.13052619222005168 0.9914448613738104 0.0
  outer loop
    vertex 1.8117333157176485 6.761480784023478 0.0
    vertex 2.1431318985078682e-15 7.0 11.0
    vertex 1.8117333157176485 6.761480784023478 11.0
  endloop
endfacet
facet normal 0.7933533402912348 -0.6087614290087211 0.0
  outer loop
    vertex -2.4748737341529146 2.4748737341529177 0.0
    vertex -3.0310889132455343 1.7500000000000013 11.0
    vertex -3.0310889132455343 1.7500000000000013 0.0
  endloop
endfacet
facet normal 0.7933533402912348 -0.6087614290087211 0.0
  outer loop
    vertex -3.0310889132455343 1.7500000000000013 11.0
    vertex -2.4748737341529146 2.4748737341529177 0.0
    vertex -2.4748737341529146 2.4748737341529177 11.0
  endloop
endfacet
facet normal 0.923879532511287 0.38268343236508917 0.0
  outer loop
    vertex -3.3807403920117394 -0.905866657858821 0.0
    vertex -3.0310889132455365 -1.7499999999999976 11.0
    vertex -3.0310889132455365 -1.7499999999999976 0.0
  endloop
endfacet
facet normal 0.923879532511287 0.38268343236508917 0.0
  outer loop
    vertex -3.0310889132455365 -1.7499999999999976 11.0
    vertex -3.3807403920117394 -0.905866657858821 0.0
    vertex -3.3807403920117394 -0.905866657858821 11.0
  endloop
endfacet
facet normal 0.7933533402912356 0.6087614290087203 0.0
  outer loop
    vertex -3.0310889132455365 -1.7499999999999976 0.0
    vertex -2.474873734152917 -2.474873734152916 11.0
    vertex -2.474873734152917 -2.474873734152916 0.0
  endloop
endfacet
facet normal 0.7933533402912356 0.6087614290087203 0.0
  outer loop
    vertex -2.474873734152917 -2.474873734152916 11.0
    vertex -3.0310889132455365 -1.7499999999999976 0.0
    vertex -3.0310889132455365 -1.7499999999999976 11.0
  endloop
endfacet
facet normal 0.6087614290087208 0.793353340291235 0.0
  outer loop
    vertex -2.474873734152917 -2.474873734152916 11.0
    vertex -1.7500000000000013 -3.0310889132455343 0.0
    vertex -2.474873734152917 -2.474873734152916 0.0
  endloop
endfacet
facet normal 0.6087614290087208 0.793353340291235 0.0
  outer loop
    vertex -1.7500000000000013 -3.0310889132455343 0.0
    vertex -2.474873734152917 -2.474873734152916 11.0
    vertex -1.7500000000000013 -3.0310889132455343 11.0
  endloop
endfacet
facet normal 0.6087614290087203 -0.7933533402912354 0.0
  outer loop
    vertex -1.749999999999999 3.0310889132455356 11.0
    vertex -2.4748737341529146 2.4748737341529177 0.0
    vertex -1.749999999999999 3.0310889132455356 0.0
  endloop
endfacet
facet normal 0.6087614290087203 -0.7933533402912354 0.0
  outer loop
    vertex -2.4748737341529146 2.4748737341529177 0.0
    vertex -1.749999999999999 3.0310889132455356 11.0
    vertex -2.4748737341529146 2.4748737341529177 11.0
  endloop
endfacet
facet normal -0.7933533402912357 -0.6087614290087201 -0.0
  outer loop
    vertex -6.062177826491074 -3.499999999999994 11.0
    vertex -4.9497474683058345 -4.949747468305831 0.0
    vertex -4.9497474683058345 -4.949747468305831 11.0
  endloop
endfacet
facet normal -0.7933533402912357 -0.6087614290087201 -0.0
  outer loop
    vertex -4.9497474683058345 -4.949747468305831 0.0
    vertex -6.062177826491074 -3.499999999999994 11.0
    vertex -6.062177826491074 -3.499999999999994 0.0
  endloop
endfacet
facet normal -0.13052619222005213 -0.9914448613738105 -0.0
  outer loop
    vertex -1.285879139104721e-15 -7.0 11.0
    vertex -1.8117333157176523 -6.761480784023476 0.0
    vertex -1.285879139104721e-15 -7.0 0.0
  endloop
endfacet
facet normal -0.13052619222005213 -0.9914448613738105 -0.0
  outer loop
    vertex -1.8117333157176523 -6.761480784023476 0.0
    vertex -1.285879139104721e-15 -7.0 11.0
    vertex -1.8117333157176523 -6.761480784023476 11.0
  endloop
endfacet
facet normal -0.13052619222005168 -0.9914448613738104 -0.0
  outer loop
    vertex 0.9058666578588235 3.380740392011739 11.0
    vertex 3.928684841457655e-16 3.5 0.0
    vertex 0.9058666578588235 3.380740392011739 0.0
  endloop
endfacet
facet normal -0.13052619222005168 -0.9914448613738104 -0.0
  outer loop
    vertex 3.928684841457655e-16 3.5 0.0
    vertex 0.9058666578588235 3.380740392011739 11.0
    vertex 3.928684841457655e-16 3.5 11.0
  endloop
endfacet
facet normal 0.9238795325112865 -0.38268343236509034 0.0
  outer loop
    vertex -3.0310889132455343 1.7500000000000013 0.0
    vertex -3.380740392011738 0.9058666578588253 11.0
    vertex -3.380740392011738 0.9058666578588253 0.0
  endloop
endfacet
facet normal 0.9238795325112865 -0.38268343236509034 0.0
  outer loop
    vertex -3.380740392011738 0.9058666578588253 11.0
    vertex -3.0310889132455343 1.7500000000000013 0.0
    vertex -3.0310889132455343 1.7500000000000013 11.0
  endloop
endfacet
facet normal 0.3826834323650904 0.9238795325112865 0.0
  outer loop
    vertex -1.7500000000000013 -3.0310889132455343 11.0
    vertex -0.9058666578588255 -3.380740392011738 0.0
    vertex -1.7500000000000013 -3.0310889132455343 0.0
  endloop
endfacet
facet normal 0.3826834323650904 0.9238795325112865 0.0
  outer loop
    vertex -0.9058666578588255 -3.380740392011738 0.0
    vertex -1.7500000000000013 -3.0310889132455343 11.0
    vertex -0.9058666578588255 -3.380740392011738 11.0
  endloop
endfacet
facet normal 0.13052619222005213 0.9914448613738105 0.0
  outer loop
    vertex -0.9058666578588255 -3.380740392011738 11.0
    vertex 3.575789555580817e-17 -3.5 0.0
    vertex -0.9058666578588255 -3.380740392011738 0.0
  endloop
endfacet
facet normal 0.13052619222005213 0.9914448613738105 0.0
  outer loop
    vertex 3.575789555580817e-17 -3.5 0.0
    vertex -0.9058666578588255 -3.380740392011738 11.0
    vertex 3.575789555580817e-17 -3.5 11.0
  endloop
endfacet
facet normal 0.793353340291235 -0.6087614290087208 0.0
  outer loop
    vertex 6.0621778264910695 -3.500000000000002 0.0
    vertex 4.949747468305832 -4.949747468305834 11.0
    vertex 4.949747468305832 -4.949747468305834 0.0
  endloop
endfacet
facet normal 0.793353340291235 -0.6087614290087208 0.0
  outer loop
    vertex 4.949747468305832 -4.949747468305834 11.0
    vertex 6.0621778264910695 -3.500000000000002 0.0
    vertex 6.0621778264910695 -3.500000000000002 11.0
  endloop
endfacet
facet normal -0.923879532511287 -0.38268343236508967 -0.0
  outer loop
    vertex 3.031088913245535 1.7499999999999993 11.0
    vertex 3.380740392011739 0.9058666578588221 0.0
    vertex 3.380740392011739 0.9058666578588221 11.0
  endloop
endfacet
facet normal -0.923879532511287 -0.38268343236508967 -0.0
  outer loop
    vertex 3.380740392011739 0.9058666578588221 0.0
    vertex 3.031088913245535 1.7499999999999993 11.0
    vertex 3.031088913245535 1.7499999999999993 0.0
  endloop
endfacet
facet normal 0.9914448613738105 0.13052619222005113 0.0
  outer loop
    vertex -3.5 6.071816739965523e-16 0.0
    vertex -3.3807403920117394 -0.905866657858821 11.0
    vertex -3.3807403920117394 -0.905866657858821 0.0
  endloop
endfacet
facet normal 0.9914448613738105 0.13052619222005113 0.0
  outer loop
    vertex -3.3807403920117394 -0.905866657858821 11.0
    vertex -3.5 6.071816739965523e-16 0.0
    vertex -3.5 6.071816739965523e-16 11.0
  endloop
endfacet
facet normal -0.608761429008721 -0.793353340291235 -0.0
  outer loop
    vertex -3.500000000000004 -6.062177826491068 11.0
    vertex -4.9497474683058345 -4.949747468305831 0.0
    vertex -3.500000000000004 -6.062177826491068 0.0
  endloop
endfacet
facet normal -0.608761429008721 -0.793353340291235 -0.0
  outer loop
    vertex -4.9497474683058345 -4.949747468305831 0.0
    vertex -3.500000000000004 -6.062177826491068 11.0
    vertex -4.9497474683058345 -4.949747468305831 11.0
  endloop
endfacet
facet normal -0.9914448613738105 -0.1305261922200518 -0.0
  outer loop
    vertex 3.380740392011739 0.9058666578588221 11.0
    vertex 3.5 -1.7855529429497864e-16 0.0
    vertex 3.5 -1.7855529429497864e-16 11.0
  endloop
endfacet
facet normal -0.9914448613738105 -0.1305261922200518 -0.0
  outer loop
    vertex 3.5 -1.7855529429497864e-16 0.0
    vertex 3.380740392011739 0.9058666578588221 11.0
    vertex 3.380740392011739 0.9058666578588221 0.0
  endloop
endfacet
facet normal -0.9238795325112873 -0.38268343236508895 -0.0
  outer loop
    vertex -6.761480784023479 -1.8117333157176407 11.0
    vertex -6.062177826491074 -3.499999999999994 0.0
    vertex -6.062177826491074 -3.499999999999994 11.0
  endloop
endfacet
facet normal -0.9238795325112873 -0.38268343236508895 -0.0
  outer loop
    vertex -6.062177826491074 -3.499999999999994 0.0
    vertex -6.761480784023479 -1.8117333157176407 11.0
    vertex -6.761480784023479 -1.8117333157176407 0.0
  endloop
endfacet
facet normal -0.7933533402912356 -0.6087614290087203 -0.0
  outer loop
    vertex 2.4748737341529163 2.4748737341529163 11.0
    vertex 3.031088913245535 1.7499999999999993 0.0
    vertex 3.031088913245535 1.7499999999999993 11.0
  endloop
endfacet
facet normal -0.7933533402912356 -0.6087614290087203 -0.0
  outer loop
    vertex 3.031088913245535 1.7499999999999993 0.0
    vertex 2.4748737341529163 2.4748737341529163 11.0
    vertex 2.4748737341529163 2.4748737341529163 0.0
  endloop
endfacet
facet normal -0.7933533402912347 0.6087614290087213 0.0
  outer loop
    vertex -4.949747468305829 4.949747468305836 11.0
    vertex -6.062177826491068 3.500000000000004 0.0
    vertex -6.062177826491068 3.500000000000004 11.0
  endloop
endfacet
facet normal -0.7933533402912347 0.6087614290087213 0.0
  outer loop
    vertex -6.062177826491068 3.500000000000004 0.0
    vertex -4.949747468305829 4.949747468305836 11.0
    vertex -4.949747468305829 4.949747468305836 0.0
  endloop
endfacet
facet normal -0.13052619222005113 0.9914448613738105 0.0
  outer loop
    vertex -1.811733315717641 6.761480784023479 11.0
    vertex 2.1431318985078682e-15 7.0 0.0
    vertex -1.811733315717641 6.761480784023479 0.0
  endloop
endfacet
facet normal -0.13052619222005113 0.9914448613738105 0.0
  outer loop
    vertex 2.1431318985078682e-15 7.0 0.0
    vertex -1.811733315717641 6.761480784023479 11.0
    vertex 2.1431318985078682e-15 7.0 11.0
  endloop
endfacet
facet normal -0.9238795325112865 0.3826834323650907 0.0
  outer loop
    vertex -6.062177826491068 3.500000000000004 11.0
    vertex -6.761480784023476 1.811733315717652 0.0
    vertex -6.761480784023476 1.811733315717652 11.0
  endloop
endfacet
facet normal -0.9238795325112865 0.3826834323650907 0.0
  outer loop
    vertex -6.761480784023476 1.811733315717652 0.0
    vertex -6.062177826491068 3.500000000000004 11.0
    vertex -6.062177826491068 3.500000000000004 0.0
  endloop
endfacet
endsolid Untitled-57255411
