solid Untitled-57ab7d62
facet normal -0.38268343236508956 0.923879532511287 0.0
  outer loop
    vertex -8.749999999999995 15.155444566227677 10.0
    vertex -4.529333289294111 16.903701960058694 0.0
    vertex -8.749999999999995 15.155444566227677 0.0
  endloop
endfacet
facet normal -0.38268343236508956 0.923879532511287 0.0
  outer loop
    vertex -4.529333289294111 16.903701960058694 0.0
    vertex -8.749999999999995 15.155444566227677 10.0
    vertex -4.529333289294111 16.903701960058694 10.0
  endloop
endfacet
facet normal 0.13052619222005218 0.9914448613738105 -0.0
  outer loop
    vertex -1.0352761804100858 -3.863703305156272 5.0
    vertex -7.347880794884117e-16 -3.9999999999999996 0.0
    vertex -1.0352761804100858 -3.863703305156272 0.0
  endloop
endfacet
facet normal 0.13052619222005218 0.9914448613738105 -0.0
  outer loop
    vertex -7.347880794884117e-16 -3.9999999999999996 0.0
    vertex -1.0352761804100858 -3.863703305156272 5.0
    vertex -7.347880794884117e-16 -3.9999999999999996 5.0
  endloop
endfacet
facet normal 0.9238795325112866 -0.3826834323650904 0.0
  outer loop
    vertex 16.90370196005869 -4.529333289294128 0.0
    vertex 15.155444566227672 -8.750000000000007 10.0
    vertex 15.155444566227672 -8.750000000000007 0.0
  endloop
endfacet
facet normal 0.9238795325112866 -0.3826834323650904 0.0
  outer loop
    vertex 15.155444566227672 -8.750000000000007 10.0
    vertex 16.90370196005869 -4.529333289294128 0.0
    vertex 16.90370196005869 -4.529333289294128 10.0
  endloop
endfacet
facet normal -0.7933533402912356 -0.6087614290087203 -0.0
  outer loop
    vertex -15.155444566227677 -8.749999999999995 10.0
    vertex -12.374368670764587 -12.374368670764575 0.0
    vertex -12.374368670764587 -12.374368670764575 10.0
  endloop
endfacet
facet normal -0.7933533402912356 -0.6087614290087203 -0.0
  outer loop
    vertex -12.374368670764587 -12.374368670764575 0.0
    vertex -15.155444566227677 -8.749999999999995 10.0
    vertex -15.155444566227677 -8.749999999999995 0.0
  endloop
endfacet
facet normal -0.9238795325112868 -0.38268343236508967 -0.0
  outer loop
    vertex -16.903701960058697 -4.529333289294106 10.0
    vertex -15.155444566227677 -8.749999999999995 0.0
    vertex -15.155444566227677 -8.749999999999995 10.0
  endloop
endfacet
facet normal -0.9238795325112868 -0.38268343236508967 -0.0
  outer loop
    vertex -15.155444566227677 -8.749999999999995 0.0
    vertex -16.903701960058697 -4.529333289294106 10.0
    vertex -16.903701960058697 -4.529333289294106 0.0
  endloop
endfacet
facet normal -0.9914448613738104 0.13052619222005168 0.0
  outer loop
    vertex -16.903701960058694 4.529333289294118 10.0
    vertex -17.5 2.143131898507868e-15 0.0
    vertex -17.5 2.143131898507868e-15 10.0
  endloop
endfacet
facet normal -0.9914448613738104 0.13052619222005168 0.0
  outer loop
    vertex -17.5 2.143131898507868e-15 0.0
    vertex -16.903701960058694 4.529333289294118 10.0
    vertex -16.903701960058694 4.529333289294118 0.0
  endloop
endfacet
facet normal 0.793353340291235 -0.6087614290087208 0.0
  outer loop
    vertex -2.8284271247461894 2.8284271247461903 0.0
    vertex -3.464101615137753 2.0000000000000013 5.0
    vertex -3.464101615137753 2.0000000000000013 0.0
  endloop
endfacet
facet normal 0.793353340291235 -0.6087614290087208 0.0
  outer loop
    vertex -3.464101615137753 2.0000000000000013 5.0
    vertex -2.8284271247461894 2.8284271247461903 0.0
    vertex -2.8284271247461894 2.8284271247461903 5.0
  endloop
endfacet
facet normal -0.6087614290087205 -0.7933533402912353 -0.0
  outer loop
    vertex 2.82842712474619 2.82842712474619 5.0
    vertex 1.9999999999999998 3.464101615137754 0.0
    vertex 2.82842712474619 2.82842712474619 0.0
  endloop
endfacet
facet normal -0.6087614290087205 -0.7933533402912353 -0.0
  outer loop
    vertex 1.9999999999999998 3.464101615137754 0.0
    vertex 2.82842712474619 2.82842712474619 5.0
    vertex 1.9999999999999998 3.464101615137754 5.0
  endloop
endfacet
facet normal 0.6087614290087202 -0.7933533402912355 0.0
  outer loop
    vertex -1.9999999999999984 3.4641016151377544 5.0
    vertex -2.8284271247461894 2.8284271247461903 0.0
    vertex -1.9999999999999984 3.4641016151377544 0.0
  endloop
endfacet
facet normal 0.6087614290087202 -0.7933533402912355 0.0
  outer loop
    vertex -2.8284271247461894 2.8284271247461903 0.0
    vertex -1.9999999999999984 3.4641016151377544 5.0
    vertex -2.8284271247461894 2.8284271247461903 5.0
  endloop
endfacet
facet normal 0.793353340291235 0.6087614290087207 0.0
  outer loop
    vertex 12.374368670764582 12.37436867076458 0.0
    vertex 15.155444566227677 8.749999999999998 10.0
    vertex 15.155444566227677 8.749999999999998 0.0
  endloop
endfacet
facet normal 0.793353340291235 0.6087614290087207 0.0
  outer loop
    vertex 15.155444566227677 8.749999999999998 10.0
    vertex 12.374368670764582 12.37436867076458 0.0
    vertex 12.374368670764582 12.37436867076458 10.0
  endloop
endfacet
facet normal 0.9914448613738104 -0.13052619222005168 0.0
  outer loop
    vertex -3.863703305156272 1.035276180410084 0.0
    vertex -3.999999999999999 4.898587196589412e-16 5.0
    vertex -3.999999999999999 4.898587196589412e-16 0.0
  endloop
endfacet
facet normal 0.9914448613738104 -0.13052619222005168 0.0
  outer loop
    vertex -3.999999999999999 4.898587196589412e-16 5.0
    vertex -3.863703305156272 1.035276180410084 0.0
    vertex -3.863703305156272 1.035276180410084 5.0
  endloop
endfacet
facet normal 0.7933533402912355 0.6087614290087203 0.0
  outer loop
    vertex -3.4641016151377544 -1.999999999999999 0.0
    vertex -2.828427124746191 -2.8284271247461885 5.0
    vertex -2.828427124746191 -2.8284271247461885 0.0
  endloop
endfacet
facet normal 0.7933533402912355 0.6087614290087203 0.0
  outer loop
    vertex -2.828427124746191 -2.8284271247461885 5.0
    vertex -3.4641016151377544 -1.999999999999999 0.0
    vertex -3.4641016151377544 -1.999999999999999 5.0
  endloop
endfacet
facet normal -0.38268343236509034 -0.9238795325112867 -0.0
  outer loop
    vertex 1.9999999999999998 3.464101615137754 5.0
    vertex 1.0352761804100836 3.863703305156273 0.0
    vertex 1.9999999999999998 3.464101615137754 0.0
  endloop
endfacet
facet normal -0.38268343236509034 -0.9238795325112867 -0.0
  outer loop
    vertex 1.0352761804100836 3.863703305156273 0.0
    vertex 1.9999999999999998 3.464101615137754 5.0
    vertex 1.0352761804100836 3.863703305156273 5.0
  endloop
endfacet
facet normal -0.13052619222005168 -0.9914448613738105 0.0
  outer loop
    vertex 1.0352761804100836 3.863703305156273 5.0
    vertex 2.449293598294706e-16 3.9999999999999996 0.0
    vertex 1.0352761804100836 3.863703305156273 0.0
  endloop
endfacet
facet normal -0.13052619222005168 -0.9914448613738105 0.0
  outer loop
    vertex 2.449293598294706e-16 3.9999999999999996 0.0
    vertex 1.0352761804100836 3.863703305156273 5.0
    vertex 2.449293598294706e-16 3.9999999999999996 5.0
  endloop
endfacet
facet normal -0.9238795325112865 0.3826834323650905 0.0
  outer loop
    vertex 3.8637033051562715 -1.035276180410086 5.0
    vertex 3.4641016151377526 -2.0000000000000018 0.0
    vertex 3.4641016151377526 -2.0000000000000018 5.0
  endloop
endfacet
facet normal -0.9238795325112865 0.3826834323650905 0.0
  outer loop
    vertex 3.4641016151377526 -2.0000000000000018 0.0
    vertex 3.8637033051562715 -1.035276180410086 5.0
    vertex 3.8637033051562715 -1.035276180410086 0.0
  endloop
endfacet
facet normal -0.9914448613738104 0.13052619222005202 0.0
  outer loop
    vertex 3.999999999999999 0.0 5.0
    vertex 3.8637033051562715 -1.035276180410086 0.0
    vertex 3.8637033051562715 -1.035276180410086 5.0
  endloop
endfacet
facet normal -0.9914448613738104 0.13052619222005202 0.0
  outer loop
    vertex 3.8637033051562715 -1.035276180410086 0.0
    vertex 3.999999999999999 0.0 5.0
    vertex 3.999999999999999 0.0 0.0
  endloop
endfacet
facet normal -0.9238795325112867 0.3826834323650904 0.0
  outer loop
    vertex -15.155444566227672 8.750000000000005 10.0
    vertex -16.903701960058694 4.529333289294118 0.0
    vertex -16.903701960058694 4.529333289294118 10.0
  endloop
endfacet
facet normal -0.9238795325112867 0.3826834323650904 0.0
  outer loop
    vertex -16.903701960058694 4.529333289294118 0.0
    vertex -15.155444566227672 8.750000000000005 10.0
    vertex -15.155444566227672 8.750000000000005 0.0
  endloop
endfacet
facet normal 0.0 0.0 -1.0
  outer loop
    vertex -4.529333289294111 16.903701960058694 0.0
    vertex -3.863703305156272 1.035276180410084 0.0
    vertex -3.999999999999999 4.898587196589412e-16 0.0
  endloop
endfacet
facet normal 0.0 0.0 -1.0
  outer loop
    vertex -3.863703305156272 1.035276180410084 0.0
    vertex -4.529333289294111 16.903701960058694 0.0
    vertex 1.071565949253934e-15 17.5 0.0
  endloop
endfacet
facet normal 0.0 0.0 -1.0
  outer loop
    vertex -3.863703305156272 1.035276180410084 0.0
    vertex 1.071565949253934e-15 17.5 0.0
    vertex -3.464101615137753 2.0000000000000013 0.0
  endloop
endfacet
facet normal 0.0 0.0 -1.0
  outer loop
    vertex -3.464101615137753 2.0000000000000013 0.0
    vertex 1.071565949253934e-15 17.5 0.0
    vertex -2.8284271247461894 2.8284271247461903 0.0
  endloop
endfacet
facet normal 0.0 0.0 -1.0
  outer loop
    vertex -2.8284271247461894 2.8284271247461903 0.0
    vertex 1.071565949253934e-15 17.5 0.0
    vertex -1.9999999999999984 3.4641016151377544 0.0
  endloop
endfacet
facet normal 0.0 0.0 -1.0
  outer loop
    vertex -1.9999999999999984 3.4641016151377544 0.0
    vertex 1.071565949253934e-15 17.5 0.0
    vertex -1.0352761804100823 3.863703305156273 0.0
  endloop
endfacet
facet normal 0.0 0.0 -1.0
  outer loop
    vertex -1.0352761804100823 3.863703305156273 0.0
    vertex 1.071565949253934e-15 17.5 0.0
    vertex 2.449293598294706e-16 3.9999999999999996 0.0
  endloop
endfacet
facet normal 0.0 0.0 -1.0
  outer loop
    vertex 2.449293598294706e-16 3.9999999999999996 0.0
    vertex 1.071565949253934e-15 17.5 0.0
    vertex 1.0352761804100836 3.863703305156273 0.0
  endloop
endfacet
facet normal 0.0 0.0 -1.0
  outer loop
    vertex 1.0352761804100836 3.863703305156273 0.0
    vertex 1.071565949253934e-15 17.5 0.0
    vertex 4.529333289294117 16.903701960058694 0.0
  endloop
endfacet
facet normal 0.0 0.0 -1.0
  outer loop
    vertex 1.0352761804100836 3.863703305156273 0.0
    vertex 4.529333289294117 16.903701960058694 0.0
    vertex 1.9999999999999998 3.464101615137754 0.0
  endloop
endfacet
facet normal 0.0 0.0 -1.0
  outer loop
    vertex 1.9999999999999998 3.464101615137754 0.0
    vertex 4.529333289294117 16.903701960058694 0.0
    vertex 2.82842712474619 2.82842712474619 0.0
  endloop
endfacet
facet normal 0.0 0.0 -1.0
  outer loop
    vertex 2.82842712474619 2.82842712474619 0.0
    vertex 4.529333289294117 16.903701960058694 0.0
    vertex 3.464101615137754 1.9999999999999996 0.0
  endloop
endfacet
facet normal 0.0 0.0 -1.0
  outer loop
    vertex 3.464101615137754 1.9999999999999996 0.0
    vertex 4.529333289294117 16.903701960058694 0.0
    vertex 3.863703305156272 1.035276180410083 0.0
  endloop
endfacet
facet normal 0.0 0.0 -1.0
  outer loop
    vertex 3.863703305156272 1.035276180410083 0.0
    vertex 4.529333289294117 16.903701960058694 0.0
    vertex 3.999999999999999 0.0 0.0
  endloop
endfacet
facet normal 0.0 0.0 -1.0
  outer loop
    vertex 3.999999999999999 0.0 0.0
    vertex 4.529333289294117 16.903701960058694 0.0
    vertex 4.5293332892941045 -16.903701960058697 0.0
  endloop
endfacet
facet normal 0.0 0.0 -1.0
  outer loop
    vertex 4.5293332892941045 -16.903701960058697 0.0
    vertex 4.529333289294117 16.903701960058694 0.0
    vertex 8.749999999999988 -15.155444566227683 0.0
  endloop
endfacet
facet normal 0.0 0.0 -1.0
  outer loop
    vertex 8.749999999999988 -15.155444566227683 0.0
    vertex 4.529333289294117 16.903701960058694 0.0
    vertex 8.75 15.155444566227674 0.0
  endloop
endfacet
facet normal 0.0 0.0 -1.0
  outer loop
    vertex 8.749999999999988 -15.155444566227683 0.0
    vertex 8.75 15.155444566227674 0.0
    vertex 12.374368670764577 -12.374368670764584 0.0
  endloop
endfacet
facet normal 0.0 0.0 -1.0
  outer loop
    vertex 12.374368670764577 -12.374368670764584 0.0
    vertex 8.75 15.155444566227674 0.0
    vertex 12.374368670764582 12.37436867076458 0.0
  endloop
endfacet
facet normal 0.0 0.0 -1.0
  outer loop
    vertex 12.374368670764577 -12.374368670764584 0.0
    vertex 12.374368670764582 12.37436867076458 0.0
    vertex 15.155444566227672 -8.750000000000007 0.0
  endloop
endfacet
facet normal 0.0 0.0 -1.0
  outer loop
    vertex 15.155444566227672 -8.750000000000007 0.0
    vertex 12.374368670764582 12.37436867076458 0.0
    vertex 15.155444566227677 8.749999999999998 0.0
  endloop
endfacet
facet normal 0.0 0.0 -1.0
  outer loop
    vertex 15.155444566227672 -8.750000000000007 0.0
    vertex 15.155444566227677 8.749999999999998 0.0
    vertex 16.90370196005869 -4.529333289294128 0.0
  endloop
endfacet
facet normal 0.0 0.0 -1.0
  outer loop
    vertex 16.90370196005869 -4.529333289294128 0.0
    vertex 15.155444566227677 8.749999999999998 0.0
    vertex 16.903701960058694 4.5293332892941125 0.0
  endloop
endfacet
facet normal 0.0 0.0 -1.0
  outer loop
    vertex 16.90370196005869 -4.529333289294128 0.0
    vertex 16.903701960058694 4.5293332892941125 0.0
    vertex 17.5 0.0 0.0
  endloop
endfacet
facet normal 0.0 0.0 -1.0
  outer loop
    vertex -16.903701960058694 4.529333289294118 0.0
    vertex -16.903701960058697 -4.529333289294106 0.0
    vertex -17.5 2.143131898507868e-15 0.0
  endloop
endfacet
facet normal 0.0 0.0 -1.0
  outer loop
    vertex -16.903701960058697 -4.529333289294106 0.0
    vertex -16.903701960058694 4.529333289294118 0.0
    vertex -15.155444566227677 -8.749999999999995 0.0
  endloop
endfacet
facet normal 0.0 0.0 -1.0
  outer loop
    vertex -15.155444566227677 -8.749999999999995 0.0
    vertex -16.903701960058694 4.529333289294118 0.0
    vertex -15.155444566227672 8.750000000000005 0.0
  endloop
endfacet
facet normal 0.0 0.0 -1.0
  outer loop
    vertex -15.155444566227677 -8.749999999999995 0.0
    vertex -15.155444566227672 8.750000000000005 0.0
    vertex -12.374368670764587 -12.374368670764575 0.0
  endloop
endfacet
facet normal 0.0 0.0 -1.0
  outer loop
    vertex -12.374368670764587 -12.374368670764575 0.0
    vertex -15.155444566227672 8.750000000000005 0.0
    vertex -12.37436867076458 12.374368670764582 0.0
  endloop
endfacet
facet normal 0.0 0.0 -1.0
  outer loop
    vertex -12.374368670764587 -12.374368670764575 0.0
    vertex -12.37436867076458 12.374368670764582 0.0
    vertex -8.750000000000007 -15.155444566227672 0.0
  endloop
endfacet
facet normal 0.0 0.0 -1.0
  outer loop
    vertex -8.750000000000007 -15.155444566227672 0.0
    vertex -12.37436867076458 12.374368670764582 0.0
    vertex -8.749999999999995 15.155444566227677 0.0
  endloop
endfacet
facet normal 0.0 0.0 -1.0
  outer loop
    vertex -8.750000000000007 -15.155444566227672 0.0
    vertex -8.749999999999995 15.155444566227677 0.0
    vertex -4.529333289294127 -16.90370196005869 0.0
  endloop
endfacet
facet normal 0.0 0.0 -1.0
  outer loop
    vertex -4.529333289294127 -16.90370196005869 0.0
    vertex -8.749999999999995 15.155444566227677 0.0
    vertex -4.529333289294111 16.903701960058694 0.0
  endloop
endfacet
facet normal 0.0 0.0 -1.0
  outer loop
    vertex -4.529333289294127 -16.90370196005869 0.0
    vertex -4.529333289294111 16.903701960058694 0.0
    vertex -3.999999999999999 4.898587196589412e-16 0.0
  endloop
endfacet
facet normal 0.0 0.0 -1.0
  outer loop
    vertex -4.529333289294127 -16.90370196005869 0.0
    vertex -3.999999999999999 4.898587196589412e-16 0.0
    vertex -3.863703305156273 -1.0352761804100814 0.0
  endloop
endfacet
facet normal 0.0 0.0 -1.0
  outer loop
    vertex -4.529333289294127 -16.90370196005869 0.0
    vertex -3.863703305156273 -1.0352761804100814 0.0
    vertex -3.214697847761802e-15 -17.5 0.0
  endloop
endfacet
facet normal 0.0 0.0 -1.0
  outer loop
    vertex -3.214697847761802e-15 -17.5 0.0
    vertex -3.863703305156273 -1.0352761804100814 0.0
    vertex -3.4641016151377544 -1.999999999999999 0.0
  endloop
endfacet
facet normal 0.0 0.0 -1.0
  outer loop
    vertex -3.214697847761802e-15 -17.5 0.0
    vertex -3.4641016151377544 -1.999999999999999 0.0
    vertex -2.828427124746191 -2.8284271247461885 0.0
  endloop
endfacet
facet normal 0.0 0.0 -1.0
  outer loop
    vertex -3.214697847761802e-15 -17.5 0.0
    vertex -2.828427124746191 -2.8284271247461885 0.0
    vertex -2.0000000000000013 -3.464101615137753 0.0
  endloop
endfacet
facet normal 0.0 0.0 -1.0
  outer loop
    vertex -3.214697847761802e-15 -17.5 0.0
    vertex -2.0000000000000013 -3.464101615137753 0.0
    vertex -1.0352761804100858 -3.863703305156272 0.0
  endloop
endfacet
facet normal 0.0 0.0 -1.0
  outer loop
    vertex -3.214697847761802e-15 -17.5 0.0
    vertex -1.0352761804100858 -3.863703305156272 0.0
    vertex -7.347880794884117e-16 -3.9999999999999996 0.0
  endloop
endfacet
facet normal 0.0 0.0 -1.0
  outer loop
    vertex -3.214697847761802e-15 -17.5 0.0
    vertex -7.347880794884117e-16 -3.9999999999999996 0.0
    vertex 4.5293332892941045 -16.903701960058697 0.0
  endloop
endfacet
facet normal 0.0 0.0 -1.0
  outer loop
    vertex 4.5293332892941045 -16.903701960058697 0.0
    vertex -7.347880794884117e-16 -3.9999999999999996 0.0
    vertex 1.035276180410081 -3.8637033051562732 0.0
  endloop
endfacet
facet normal 0.0 0.0 -1.0
  outer loop
    vertex 4.5293332892941045 -16.903701960058697 0.0
    vertex 1.035276180410081 -3.8637033051562732 0.0
    vertex 1.9999999999999967 -3.464101615137756 0.0
  endloop
endfacet
facet normal 0.0 0.0 -1.0
  outer loop
    vertex 4.5293332892941045 -16.903701960058697 0.0
    vertex 1.9999999999999967 -3.464101615137756 0.0
    vertex 2.8284271247461885 -2.8284271247461903 0.0
  endloop
endfacet
facet normal 0.0 0.0 -1.0
  outer loop
    vertex 4.5293332892941045 -16.903701960058697 0.0
    vertex 2.8284271247461885 -2.8284271247461903 0.0
    vertex 3.4641016151377526 -2.0000000000000018 0.0
  endloop
endfacet
facet normal 0.0 0.0 -1.0
  outer loop
    vertex 4.5293332892941045 -16.903701960058697 0.0
    vertex 3.4641016151377526 -2.0000000000000018 0.0
    vertex 3.8637033051562715 -1.035276180410086 0.0
  endloop
endfacet
facet normal 0.0 0.0 -1.0
  outer loop
    vertex 4.5293332892941045 -16.903701960058697 0.0
    vertex 3.8637033051562715 -1.035276180410086 0.0
    vertex 3.999999999999999 0.0 0.0
  endloop
endfacet
facet normal -0.38268343236509034 -0.9238795325112867 -0.0
  outer loop
    vertex -4.529333289294127 -16.90370196005869 10.0
    vertex -8.750000000000007 -15.155444566227672 0.0
    vertex -4.529333289294127 -16.90370196005869 0.0
  endloop
endfacet
facet normal -0.38268343236509034 -0.9238795325112867 -0.0
  outer loop
    vertex -8.750000000000007 -15.155444566227672 0.0
    vertex -4.529333289294127 -16.90370196005869 10.0
    vertex -8.750000000000007 -15.155444566227672 10.0
  endloop
endfacet
facet normal 0.6087614290087207 0.7933533402912352 0.0
  outer loop
    vertex 8.75 15.155444566227674 10.0
    vertex 12.374368670764582 12.37436867076458 0.0
    vertex 8.75 15.155444566227674 0.0
  endloop
endfacet
facet normal 0.6087614290087207 0.7933533402912352 0.0
  outer loop
    vertex 12.374368670764582 12.37436867076458 0.0
    vertex 8.75 15.155444566227674 10.0
    vertex 12.374368670764582 12.37436867076458 10.0
  endloop
endfacet
facet normal -0.7933533402912353 0.6087614290087208 0.0
  outer loop
    vertex -12.37436867076458 12.374368670764582 10.0
    vertex -15.155444566227672 8.750000000000005 0.0
    vertex -15.155444566227672 8.750000000000005 10.0
  endloop
endfacet
facet normal -0.7933533402912353 0.6087614290087208 0.0
  outer loop
    vertex -15.155444566227672 8.750000000000005 0.0
    vertex -12.37436867076458 12.374368670764582 10.0
    vertex -12.37436867076458 12.374368670764582 0.0
  endloop
endfacet
facet normal 0.1305261922200513 -0.9914448613738106 0.0
  outer loop
    vertex 4.5293332892941045 -16.903701960058697 10.0
    vertex -3.214697847761802e-15 -17.5 0.0
    vertex 4.5293332892941045 -16.903701960058697 0.0
  endloop
endfacet
facet normal 0.1305261922200513 -0.9914448613738106 0.0
  outer loop
    vertex -3.214697847761802e-15 -17.5 0.0
    vertex 4.5293332892941045 -16.903701960058697 10.0
    vertex -3.214697847761802e-15 -17.5 10.0
  endloop
endfacet
facet normal 0.3826834323650896 -0.9238795325112867 0.0
  outer loop
    vertex -1.0352761804100823 3.863703305156273 5.0
    vertex -1.9999999999999984 3.4641016151377544 0.0
    vertex -1.0352761804100823 3.863703305156273 0.0
  endloop
endfacet
facet normal 0.3826834323650896 -0.9238795325112867 0.0
  outer loop
    vertex -1.9999999999999984 3.4641016151377544 0.0
    vertex -1.0352761804100823 3.863703305156273 5.0
    vertex -1.9999999999999984 3.4641016151377544 5.0
  endloop
endfacet
facet normal 0.9238795325112867 -0.3826834323650899 0.0
  outer loop
    vertex -3.464101615137753 2.0000000000000013 0.0
    vertex -3.863703305156272 1.035276180410084 5.0
    vertex -3.863703305156272 1.035276180410084 0.0
  endloop
endfacet
facet normal 0.9238795325112867 -0.3826834323650899 0.0
  outer loop
    vertex -3.863703305156272 1.035276180410084 5.0
    vertex -3.464101615137753 2.0000000000000013 0.0
    vertex -3.464101615137753 2.0000000000000013 5.0
  endloop
endfacet
facet normal 0.9914448613738105 -0.13052619222005196 0.0
  outer loop
    vertex 17.5 0.0 0.0
    vertex 16.90370196005869 -4.529333289294128 10.0
    vertex 16.90370196005869 -4.529333289294128 0.0
  endloop
endfacet
facet normal 0.9914448613738105 -0.13052619222005196 0.0
  outer loop
    vertex 16.90370196005869 -4.529333289294128 10.0
    vertex 17.5 0.0 0.0
    vertex 17.5 8.954445574807165e-32 10.0
  endloop
endfacet
facet normal 0.9914448613738106 0.13052619222005124 0.0
  outer loop
    vertex -3.999999999999999 4.898587196589412e-16 0.0
    vertex -3.863703305156273 -1.0352761804100814 5.0
    vertex -3.863703305156273 -1.0352761804100814 0.0
  endloop
endfacet
facet normal 0.9914448613738106 0.13052619222005124 0.0
  outer loop
    vertex -3.863703305156273 -1.0352761804100814 5.0
    vertex -3.999999999999999 4.898587196589412e-16 0.0
    vertex -3.999999999999999 4.898587196589412e-16 5.0
  endloop
endfacet
facet normal 0.6087614290087203 -0.7933533402912356 0.0
  outer loop
    vertex 12.374368670764577 -12.374368670764584 10.0
    vertex 8.749999999999988 -15.155444566227683 0.0
    vertex 12.374368670764577 -12.374368670764584 0.0
  endloop
endfacet
facet normal 0.6087614290087203 -0.7933533402912356 0.0
  outer loop
    vertex 8.749999999999988 -15.155444566227683 0.0
    vertex 12.374368670764577 -12.374368670764584 10.0
    vertex 8.749999999999988 -15.155444566227683 10.0
  endloop
endfacet
facet normal -0.1305261922200513 0.9914448613738105 -0.0
  outer loop
    vertex -7.347880794884117e-16 -3.9999999999999996 5.0
    vertex 1.035276180410081 -3.8637033051562732 0.0
    vertex -7.347880794884117e-16 -3.9999999999999996 0.0
  endloop
endfacet
facet normal -0.1305261922200513 0.9914448613738105 -0.0
  outer loop
    vertex 1.035276180410081 -3.8637033051562732 0.0
    vertex -7.347880794884117e-16 -3.9999999999999996 5.0
    vertex 1.035276180410081 -3.8637033051562732 5.0
  endloop
endfacet
facet normal -0.6087614290087204 0.7933533402912355 0.0
  outer loop
    vertex 1.9999999999999967 -3.464101615137756 5.0
    vertex 2.8284271247461885 -2.8284271247461903 0.0
    vertex 1.9999999999999967 -3.464101615137756 0.0
  endloop
endfacet
facet normal -0.6087614290087204 0.7933533402912355 0.0
  outer loop
    vertex 2.8284271247461885 -2.8284271247461903 0.0
    vertex 1.9999999999999967 -3.464101615137756 5.0
    vertex 2.8284271247461885 -2.8284271247461903 5.0
  endloop
endfacet
facet normal -0.9914448613738104 -0.13052619222005174 -0.0
  outer loop
    vertex 3.863703305156272 1.035276180410083 5.0
    vertex 3.999999999999999 0.0 0.0
    vertex 3.999999999999999 0.0 5.0
  endloop
endfacet
facet normal -0.9914448613738104 -0.13052619222005174 -0.0
  outer loop
    vertex 3.999999999999999 0.0 0.0
    vertex 3.863703305156272 1.035276180410083 5.0
    vertex 3.863703305156272 1.035276180410083 0.0
  endloop
endfacet
facet normal -0.9914448613738106 -0.1305261922200513 -0.0
  outer loop
    vertex -17.5 2.143131898507868e-15 10.0
    vertex -16.903701960058697 -4.529333289294106 0.0
    vertex -16.903701960058697 -4.529333289294106 10.0
  endloop
endfacet
facet normal -0.9914448613738106 -0.1305261922200513 -0.0
  outer loop
    vertex -16.903701960058697 -4.529333289294106 0.0
    vertex -17.5 2.143131898507868e-15 10.0
    vertex -17.5 2.143131898507868e-15 0.0
  endloop
endfacet
facet normal 0.1305261922200518 -0.9914448613738105 0.0
  outer loop
    vertex 2.449293598294706e-16 3.9999999999999996 5.0
    vertex -1.0352761804100823 3.863703305156273 0.0
    vertex 2.449293598294706e-16 3.9999999999999996 0.0
  endloop
endfacet
facet normal 0.1305261922200518 -0.9914448613738105 0.0
  outer loop
    vertex -1.0352761804100823 3.863703305156273 0.0
    vertex 2.449293598294706e-16 3.9999999999999996 5.0
    vertex -1.0352761804100823 3.863703305156273 5.0
  endloop
endfacet
facet normal -0.7933533402912354 -0.6087614290087203 -0.0
  outer loop
    vertex 2.82842712474619 2.82842712474619 5.0
    vertex 3.464101615137754 1.9999999999999996 0.0
    vertex 3.464101615137754 1.9999999999999996 5.0
  endloop
endfacet
facet normal -0.7933533402912354 -0.6087614290087203 -0.0
  outer loop
    vertex 3.464101615137754 1.9999999999999996 0.0
    vertex 2.82842712474619 2.82842712474619 5.0
    vertex 2.82842712474619 2.82842712474619 0.0
  endloop
endfacet
facet normal -0.1305261922200521 -0.9914448613738105 -0.0
  outer loop
    vertex -3.214697847761802e-15 -17.5 10.0
    vertex -4.529333289294127 -16.90370196005869 0.0
    vertex -3.214697847761802e-15 -17.5 0.0
  endloop
endfacet
facet normal -0.1305261922200521 -0.9914448613738105 -0.0
  outer loop
    vertex -4.529333289294127 -16.90370196005869 0.0
    vertex -3.214697847761802e-15 -17.5 10.0
    vertex -4.529333289294127 -16.90370196005869 10.0
  endloop
endfacet
facet normal -0.13052619222005177 0.9914448613738104 0.0
  outer loop
    vertex -4.529333289294111 16.903701960058694 10.0
    vertex 1.071565949253934e-15 17.5 0.0
    vertex -4.529333289294111 16.903701960058694 0.0
  endloop
endfacet
facet normal -0.13052619222005177 0.9914448613738104 0.0
  outer loop
    vertex 1.071565949253934e-15 17.5 0.0
    vertex -4.529333289294111 16.903701960058694 10.0
    vertex 1.071565949253934e-15 17.5 10.0
  endloop
endfacet
facet normal 0.3826834323650901 0.9238795325112867 0.0
  outer loop
    vertex 4.529333289294117 16.903701960058694 10.0
    vertex 8.75 15.155444566227674 0.0
    vertex 4.529333289294117 16.903701960058694 0.0
  endloop
endfacet
facet normal 0.3826834323650901 0.9238795325112867 0.0
  outer loop
    vertex 8.75 15.155444566227674 0.0
    vertex 4.529333289294117 16.903701960058694 10.0
    vertex 8.75 15.155444566227674 10.0
  endloop
endfacet
facet normal -0.6087614290087213 -0.7933533402912348 -0.0
  outer loop
    vertex -8.750000000000007 -15.155444566227672 10.0
    vertex -12.374368670764587 -12.374368670764575 0.0
    vertex -8.750000000000007 -15.155444566227672 0.0
  endloop
endfacet
facet normal -0.6087614290087213 -0.7933533402912348 -0.0
  outer loop
    vertex -12.374368670764587 -12.374368670764575 0.0
    vertex -8.750000000000007 -15.155444566227672 10.0
    vertex -12.374368670764587 -12.374368670764575 10.0
  endloop
endfacet
facet normal -0.6087614290087204 0.7933533402912354 0.0
  outer loop
    vertex -12.37436867076458 12.374368670764582 10.0
    vertex -8.749999999999995 15.155444566227677 0.0
    vertex -12.37436867076458 12.374368670764582 0.0
  endloop
endfacet
facet normal -0.6087614290087204 0.7933533402912354 0.0
  outer loop
    vertex -8.749999999999995 15.155444566227677 0.0
    vertex -12.37436867076458 12.374368670764582 10.0
    vertex -8.749999999999995 15.155444566227677 10.0
  endloop
endfacet
facet normal 0.923879532511287 0.3826834323650894 0.0
  outer loop
    vertex 15.155444566227677 8.749999999999998 0.0
    vertex 16.903701960058694 4.5293332892941125 10.0
    vertex 16.903701960058694 4.5293332892941125 0.0
  endloop
endfacet
facet normal 0.923879532511287 0.3826834323650894 0.0
  outer loop
    vertex 16.903701960058694 4.5293332892941125 10.0
    vertex 15.155444566227677 8.749999999999998 0.0
    vertex 15.155444566227677 8.749999999999998 10.0
  endloop
endfacet
facet normal 0.7933533402912349 -0.6087614290087212 0.0
  outer loop
    vertex 15.155444566227672 -8.750000000000007 0.0
    vertex 12.374368670764577 -12.374368670764584 10.0
    vertex 12.374368670764577 -12.374368670764584 0.0
  endloop
endfacet
facet normal 0.7933533402912349 -0.6087614290087212 0.0
  outer loop
    vertex 12.374368670764577 -12.374368670764584 10.0
    vertex 15.155444566227672 -8.750000000000007 0.0
    vertex 15.155444566227672 -8.750000000000007 10.0
  endloop
endfacet
facet normal 0.13052619222005168 0.9914448613738104 0.0
  outer loop
    vertex 1.071565949253934e-15 17.5 10.0
    vertex 4.529333289294117 16.903701960058694 0.0
    vertex 1.071565949253934e-15 17.5 0.0
  endloop
endfacet
facet normal 0.13052619222005168 0.9914448613738104 0.0
  outer loop
    vertex 4.529333289294117 16.903701960058694 0.0
    vertex 1.071565949253934e-15 17.5 10.0
    vertex 4.529333289294117 16.903701960058694 10.0
  endloop
endfacet
facet normal 0.3826834323650892 -0.9238795325112872 0.0
  outer loop
    vertex 8.749999999999988 -15.155444566227683 10.0
    vertex 4.5293332892941045 -16.903701960058697 0.0
    vertex 8.749999999999988 -15.155444566227683 0.0
  endloop
endfacet
facet normal 0.3826834323650892 -0.9238795325112872 0.0
  outer loop
    vertex 4.5293332892941045 -16.903701960058697 0.0
    vertex 8.749999999999988 -15.155444566227683 10.0
    vertex 4.5293332892941045 -16.903701960058697 10.0
  endloop
endfacet
facet normal 0.9238795325112871 0.38268343236508934 0.0
  outer loop
    vertex -3.863703305156273 -1.0352761804100814 0.0
    vertex -3.4641016151377544 -1.999999999999999 5.0
    vertex -3.4641016151377544 -1.999999999999999 0.0
  endloop
endfacet
facet normal 0.9238795325112871 0.38268343236508934 0.0
  outer loop
    vertex -3.4641016151377544 -1.999999999999999 5.0
    vertex -3.863703305156273 -1.0352761804100814 0.0
    vertex -3.863703305156273 -1.0352761804100814 5.0
  endloop
endfacet
facet normal -0.793353340291235 0.6087614290087208 0.0
  outer loop
    vertex 3.4641016151377526 -2.0000000000000018 5.0
    vertex 2.8284271247461885 -2.8284271247461903 0.0
    vertex 2.8284271247461885 -2.8284271247461903 5.0
  endloop
endfacet
facet normal -0.793353340291235 0.6087614290087208 0.0
  outer loop
    vertex 2.8284271247461885 -2.8284271247461903 0.0
    vertex 3.4641016151377526 -2.0000000000000018 5.0
    vertex 3.4641016151377526 -2.0000000000000018 0.0
  endloop
endfacet
facet normal 0.9914448613738104 0.13052619222005177 0.0
  outer loop
    vertex 16.903701960058694 4.5293332892941125 0.0
    vertex 17.5 8.954445574807165e-32 10.0
    vertex 17.5 0.0 0.0
  endloop
endfacet
facet normal 0.9914448613738104 0.13052619222005177 0.0
  outer loop
    vertex 17.5 8.954445574807165e-32 10.0
    vertex 16.903701960058694 4.5293332892941125 0.0
    vertex 16.903701960058694 4.5293332892941125 10.0
  endloop
endfacet
facet normal -0.9238795325112868 -0.38268343236508956 -0.0
  outer loop
    vertex 3.464101615137754 1.9999999999999996 5.0
    vertex 3.863703305156272 1.035276180410083 0.0
    vertex 3.863703305156272 1.035276180410083 5.0
  endloop
endfacet
facet normal -0.9238795325112868 -0.38268343236508956 -0.0
  outer loop
    vertex 3.863703305156272 1.035276180410083 0.0
    vertex 3.464101615137754 1.9999999999999996 5.0
    vertex 3.464101615137754 1.9999999999999996 0.0
  endloop
endfacet
facet normal 0.6087614290087209 0.7933533402912349 0.0
  outer loop
    vertex -2.828427124746191 -2.8284271247461885 5.0
    vertex -2.0000000000000013 -3.464101615137753 0.0
    vertex -2.828427124746191 -2.8284271247461885 0.0
  endloop
endfacet
facet normal 0.6087614290087209 0.7933533402912349 0.0
  outer loop
    vertex -2.0000000000000013 -3.464101615137753 0.0
    vertex -2.828427124746191 -2.8284271247461885 5.0
    vertex -2.0000000000000013 -3.464101615137753 5.0
  endloop
endfacet
facet normal 0.3826834323650905 0.9238795325112865 0.0
  outer loop
    vertex -2.0000000000000013 -3.464101615137753 5.0
    vertex -1.0352761804100858 -3.863703305156272 0.0
    vertex -2.0000000000000013 -3.464101615137753 0.0
  endloop
endfacet
facet normal 0.3826834323650905 0.9238795325112865 0.0
  outer loop
    vertex -1.0352761804100858 -3.863703305156272 0.0
    vertex -2.0000000000000013 -3.464101615137753 5.0
    vertex -1.0352761804100858 -3.863703305156272 5.0
  endloop
endfacet
facet normal -0.3826834323650892 0.923879532511287 0.0
  outer loop
    vertex 1.035276180410081 -3.8637033051562732 5.0
    vertex 1.9999999999999967 -3.464101615137756 0.0
    vertex 1.035276180410081 -3.8637033051562732 0.0
  endloop
endfacet
facet normal -0.3826834323650892 0.923879532511287 0.0
  outer loop
    vertex 1.9999999999999967 -3.464101615137756 0.0
    vertex 1.035276180410081 -3.8637033051562732 5.0
    vertex 1.9999999999999967 -3.464101615137756 5.0
  endloop
endfacet
facet normal -0.6087614290087208 -0.7933533402912353 2.096803260510158e-32
  outer loop
    vertex 8.838834764831843 8.838834764831843 10.0
    vertex 6.249999999999998 10.825317547305481 5.0
    vertex 8.838834764831843 8.838834764831843 5.0
  endloop
endfacet
facet normal -0.6087614290087208 -0.7933533402912353 2.096803260510158e-32
  outer loop
    vertex 6.249999999999998 10.825317547305481 5.0
    vertex 8.838834764831843 8.838834764831843 10.0
    vertex 6.249999999999998 10.825317547305481 10.0
  endloop
endfacet
facet normal -0.13052619222005135 -0.9914448613738104 1.9205098207576287e-32
  outer loop
    vertex 3.2352380637815084 12.074072828613351 10.0
    vertex -2.4492935982947054e-16 12.499999999999996 5.0
    vertex 3.2352380637815084 12.074072828613351 5.0
  endloop
endfacet
facet normal -0.13052619222005135 -0.9914448613738104 1.9205098207576287e-32
  outer loop
    vertex -2.4492935982947054e-16 12.499999999999996 5.0
    vertex 3.2352380637815084 12.074072828613351 10.0
    vertex -2.449293598294705e-16 12.499999999999996 10.0
  endloop
endfacet
facet normal 0.9238795325112865 0.38268343236509056 -1.7112599599220455e-32
  outer loop
    vertex -12.07407282861335 -3.2352380637815177 5.0
    vertex -10.825317547305477 -6.250000000000004 10.0
    vertex -10.825317547305477 -6.250000000000004 5.0
  endloop
endfacet
facet normal 0.9238795325112865 0.38268343236509056 -1.7112599599220455e-32
  outer loop
    vertex -10.825317547305477 -6.250000000000004 10.0
    vertex -12.07407282861335 -3.2352380637815177 5.0
    vertex -12.07407282861335 -3.2352380637815177 10.0
  endloop
endfacet
facet normal -0.3826834323650898 -0.9238795325112868 2.079514271143188e-32
  outer loop
    vertex 6.249999999999998 10.825317547305481 10.0
    vertex 3.2352380637815084 12.074072828613351 5.0
    vertex 6.249999999999998 10.825317547305481 5.0
  endloop
endfacet
facet normal -0.3826834323650898 -0.9238795325112868 2.079514271143188e-32
  outer loop
    vertex 3.2352380637815084 12.074072828613351 5.0
    vertex 6.249999999999998 10.825317547305481 10.0
    vertex 3.2352380637815084 12.074072828613351 10.0
  endloop
endfacet
facet normal -0.7933533402912354 0.6087614290087204 -2.0924986083558455e-33
  outer loop
    vertex 10.825317547305483 -6.249999999999996 10.0
    vertex 8.838834764831844 -8.83883476483184 5.0
    vertex 8.838834764831844 -8.83883476483184 10.0
  endloop
endfacet
facet normal -0.7933533402912354 0.6087614290087204 -2.0924986083558455e-33
  outer loop
    vertex 8.838834764831844 -8.83883476483184 5.0
    vertex 10.825317547305483 -6.249999999999996 10.0
    vertex 10.825317547305483 -6.249999999999996 5.0
  endloop
endfacet
facet normal -0.9238795325112868 0.38268343236508984 3.4057277292460595e-33
  outer loop
    vertex 12.074072828613353 -3.2352380637815066 10.0
    vertex 10.825317547305483 -6.249999999999996 5.0
    vertex 10.825317547305483 -6.249999999999996 10.0
  endloop
endfacet
facet normal -0.9238795325112868 0.38268343236508984 3.4057277292460595e-33
  outer loop
    vertex 10.825317547305483 -6.249999999999996 5.0
    vertex 12.074072828613353 -3.2352380637815066 10.0
    vertex 12.074072828613353 -3.2352380637815066 5.0
  endloop
endfacet
facet normal -0.6087614290087209 0.7933533402912349 -7.448124623815753e-33
  outer loop
    vertex 6.2500000000000036 -10.825317547305477 10.0
    vertex 8.838834764831844 -8.83883476483184 5.0
    vertex 6.2500000000000036 -10.825317547305477 5.0
  endloop
endfacet
facet normal -0.6087614290087209 0.7933533402912349 -7.448124623815753e-33
  outer loop
    vertex 8.838834764831844 -8.83883476483184 5.0
    vertex 6.2500000000000036 -10.825317547305477 10.0
    vertex 8.838834764831844 -8.83883476483184 10.0
  endloop
endfacet
facet normal 0.7933533402912348 0.6087614290087212 -1.9711985728045858e-32
  outer loop
    vertex -10.825317547305477 -6.250000000000004 5.0
    vertex -8.838834764831837 -8.838834764831846 10.0
    vertex -8.838834764831837 -8.838834764831846 5.0
  endloop
endfacet
facet normal 0.7933533402912348 0.6087614290087212 -1.9711985728045858e-32
  outer loop
    vertex -8.838834764831837 -8.838834764831846 10.0
    vertex -10.825317547305477 -6.250000000000004 5.0
    vertex -10.825317547305477 -6.250000000000004 10.0
  endloop
endfacet
facet normal 0.9238795325112871 -0.3826834323650895 -3.4057277292460705e-33
  outer loop
    vertex -10.825317547305486 6.249999999999989 5.0
    vertex -12.074072828613355 3.235238063781503 10.0
    vertex -12.074072828613355 3.235238063781503 5.0
  endloop
endfacet
facet normal 0.9238795325112871 -0.3826834323650895 -3.4057277292460705e-33
  outer loop
    vertex -12.074072828613355 3.235238063781503 10.0
    vertex -10.825317547305486 6.249999999999989 5.0
    vertex -10.825317547305486 6.249999999999989 10.0
  endloop
endfacet
facet normal -0.1305261922200517 0.9914448613738105 -1.6306257998799786e-32
  outer loop
    vertex 1.285879139104721e-15 -12.499999999999996 10.0
    vertex 3.235238063781512 -12.07407282861335 5.0
    vertex 1.285879139104721e-15 -12.499999999999996 5.0
  endloop
endfacet
facet normal -0.1305261922200517 0.9914448613738105 -1.6306257998799786e-32
  outer loop
    vertex 3.235238063781512 -12.07407282861335 5.0
    vertex 1.285879139104721e-15 -12.499999999999996 10.0
    vertex 3.235238063781512 -12.07407282861335 10.0
  endloop
endfacet
facet normal 0.1305261922200518 -0.9914448613738104 1.6306257998799786e-32
  outer loop
    vertex -2.449293598294705e-16 12.499999999999996 10.0
    vertex -3.235238063781519 12.074072828613348 5.0
    vertex -2.4492935982947054e-16 12.499999999999996 5.0
  endloop
endfacet
facet normal 0.1305261922200518 -0.9914448613738104 1.6306257998799786e-32
  outer loop
    vertex -3.235238063781519 12.074072828613348 5.0
    vertex -2.449293598294705e-16 12.499999999999996 10.0
    vertex -3.235238063781519 12.074072828613348 10.0
  endloop
endfacet
facet normal 0.7933533402912355 -0.6087614290087203 2.0924986083558407e-33
  outer loop
    vertex -8.838834764831844 8.838834764831839 5.0
    vertex -10.825317547305486 6.249999999999989 10.0
    vertex -10.825317547305486 6.249999999999989 5.0
  endloop
endfacet
facet normal 0.7933533402912355 -0.6087614290087203 2.0924986083558407e-33
  outer loop
    vertex -10.825317547305486 6.249999999999989 10.0
    vertex -8.838834764831844 8.838834764831839 5.0
    vertex -8.838834764831844 8.838834764831839 10.0
  endloop
endfacet
facet normal 0.9914448613738104 0.13052619222005193 -1.3347018087616123e-32
  outer loop
    vertex -12.499999999999998 -2.2962127484012864e-15 5.0
    vertex -12.07407282861335 -3.2352380637815177 10.0
    vertex -12.07407282861335 -3.2352380637815177 5.0
  endloop
endfacet
facet normal 0.9914448613738104 0.13052619222005193 -1.3347018087616123e-32
  outer loop
    vertex -12.07407282861335 -3.2352380637815177 10.0
    vertex -12.499999999999998 -2.2962127484012864e-15 5.0
    vertex -12.499999999999998 -2.2962127484012864e-15 10.0
  endloop
endfacet
facet normal 0.13052619222005105 0.9914448613738106 -1.9205098207576287e-32
  outer loop
    vertex -3.2352380637815044 -12.074072828613353 10.0
    vertex 1.285879139104721e-15 -12.499999999999996 5.0
    vertex -3.2352380637815044 -12.074072828613353 5.0
  endloop
endfacet
facet normal 0.13052619222005105 0.9914448613738106 -1.9205098207576287e-32
  outer loop
    vertex 1.285879139104721e-15 -12.499999999999996 5.0
    vertex -3.2352380637815044 -12.074072828613353 10.0
    vertex 1.285879139104721e-15 -12.499999999999996 10.0
  endloop
endfacet
facet normal 1.1104438731689208e-32 1.790889114961433e-32 1.0
  outer loop
    vertex -16.903701960058697 -4.529333289294106 10.0
    vertex -16.903701960058694 4.529333289294118 10.0
    vertex -17.5 2.143131898507868e-15 10.0
  endloop
endfacet
facet normal 1.1104438731689208e-32 1.790889114961433e-32 1.0
  outer loop
    vertex -16.903701960058694 4.529333289294118 10.0
    vertex -16.903701960058697 -4.529333289294106 10.0
    vertex -15.155444566227677 -8.749999999999995 10.0
  endloop
endfacet
facet normal 1.1104438731689208e-32 1.790889114961433e-32 1.0
  outer loop
    vertex -16.903701960058694 4.529333289294118 10.0
    vertex -15.155444566227677 -8.749999999999995 10.0
    vertex -15.155444566227672 8.750000000000005 10.0
  endloop
endfacet
facet normal 1.1104438731689208e-32 1.790889114961433e-32 1.0
  outer loop
    vertex -15.155444566227672 8.750000000000005 10.0
    vertex -15.155444566227677 -8.749999999999995 10.0
    vertex -12.374368670764587 -12.374368670764575 10.0
  endloop
endfacet
facet normal 1.1104438731689208e-32 1.790889114961433e-32 1.0
  outer loop
    vertex -15.155444566227672 8.750000000000005 10.0
    vertex -12.374368670764587 -12.374368670764575 10.0
    vertex -12.499999999999998 -2.2962127484012864e-15 10.0
  endloop
endfacet
facet normal 1.1104438731689208e-32 1.790889114961433e-32 1.0
  outer loop
    vertex -12.499999999999998 -2.2962127484012864e-15 10.0
    vertex -12.374368670764587 -12.374368670764575 10.0
    vertex -12.07407282861335 -3.2352380637815177 10.0
  endloop
endfacet
facet normal 1.1104438731689208e-32 1.790889114961433e-32 1.0
  outer loop
    vertex -12.07407282861335 -3.2352380637815177 10.0
    vertex -12.374368670764587 -12.374368670764575 10.0
    vertex -8.750000000000007 -15.155444566227672 10.0
  endloop
endfacet
facet normal 1.1104438731689208e-32 1.790889114961433e-32 1.0
  outer loop
    vertex -12.07407282861335 -3.2352380637815177 10.0
    vertex -8.750000000000007 -15.155444566227672 10.0
    vertex -10.825317547305477 -6.250000000000004 10.0
  endloop
endfacet
facet normal 1.1104438731689208e-32 1.790889114961433e-32 1.0
  outer loop
    vertex -10.825317547305477 -6.250000000000004 10.0
    vertex -8.750000000000007 -15.155444566227672 10.0
    vertex -8.838834764831837 -8.838834764831846 10.0
  endloop
endfacet
facet normal 1.1104438731689208e-32 1.790889114961433e-32 1.0
  outer loop
    vertex -8.838834764831837 -8.838834764831846 10.0
    vertex -8.750000000000007 -15.155444566227672 10.0
    vertex -6.249999999999996 -10.825317547305483 10.0
  endloop
endfacet
facet normal 1.1104438731689208e-32 1.790889114961433e-32 1.0
  outer loop
    vertex -6.249999999999996 -10.825317547305483 10.0
    vertex -8.750000000000007 -15.155444566227672 10.0
    vertex -4.529333289294127 -16.90370196005869 10.0
  endloop
endfacet
facet normal 1.1104438731689208e-32 1.790889114961433e-32 1.0
  outer loop
    vertex -6.249999999999996 -10.825317547305483 10.0
    vertex -4.529333289294127 -16.90370196005869 10.0
    vertex -3.2352380637815044 -12.074072828613353 10.0
  endloop
endfacet
facet normal 1.1104438731689208e-32 1.790889114961433e-32 1.0
  outer loop
    vertex -3.2352380637815044 -12.074072828613353 10.0
    vertex -4.529333289294127 -16.90370196005869 10.0
    vertex -3.214697847761802e-15 -17.5 10.0
  endloop
endfacet
facet normal 1.1104438731689208e-32 1.790889114961433e-32 1.0
  outer loop
    vertex -3.2352380637815044 -12.074072828613353 10.0
    vertex -3.214697847761802e-15 -17.5 10.0
    vertex 1.285879139104721e-15 -12.499999999999996 10.0
  endloop
endfacet
facet normal 1.1104438731689208e-32 1.790889114961433e-32 1.0
  outer loop
    vertex 1.285879139104721e-15 -12.499999999999996 10.0
    vertex -3.214697847761802e-15 -17.5 10.0
    vertex 4.5293332892941045 -16.903701960058697 10.0
  endloop
endfacet
facet normal 1.1104438731689208e-32 1.790889114961433e-32 1.0
  outer loop
    vertex 1.285879139104721e-15 -12.499999999999996 10.0
    vertex 4.5293332892941045 -16.903701960058697 10.0
    vertex 3.235238063781512 -12.07407282861335 10.0
  endloop
endfacet
facet normal 1.1104438731689208e-32 1.790889114961433e-32 1.0
  outer loop
    vertex 3.235238063781512 -12.07407282861335 10.0
    vertex 4.5293332892941045 -16.903701960058697 10.0
    vertex 6.2500000000000036 -10.825317547305477 10.0
  endloop
endfacet
facet normal 1.1104438731689208e-32 1.790889114961433e-32 1.0
  outer loop
    vertex 6.2500000000000036 -10.825317547305477 10.0
    vertex 4.5293332892941045 -16.903701960058697 10.0
    vertex 8.749999999999988 -15.155444566227683 10.0
  endloop
endfacet
facet normal 1.1104438731689208e-32 1.790889114961433e-32 1.0
  outer loop
    vertex 6.2500000000000036 -10.825317547305477 10.0
    vertex 8.749999999999988 -15.155444566227683 10.0
    vertex 8.838834764831844 -8.83883476483184 10.0
  endloop
endfacet
facet normal 1.1104438731689208e-32 1.790889114961433e-32 1.0
  outer loop
    vertex 8.838834764831844 -8.83883476483184 10.0
    vertex 8.749999999999988 -15.155444566227683 10.0
    vertex 12.374368670764577 -12.374368670764584 10.0
  endloop
endfacet
facet normal 1.1104438731689208e-32 1.790889114961433e-32 1.0
  outer loop
    vertex 8.838834764831844 -8.83883476483184 10.0
    vertex 12.374368670764577 -12.374368670764584 10.0
    vertex 10.825317547305483 -6.249999999999996 10.0
  endloop
endfacet
facet normal 1.1104438731689208e-32 1.790889114961433e-32 1.0
  outer loop
    vertex 10.825317547305483 -6.249999999999996 10.0
    vertex 12.374368670764577 -12.374368670764584 10.0
    vertex 12.074072828613353 -3.2352380637815066 10.0
  endloop
endfacet
facet normal 1.1104438731689208e-32 1.790889114961433e-32 1.0
  outer loop
    vertex 12.074072828613353 -3.2352380637815066 10.0
    vertex 12.374368670764577 -12.374368670764584 10.0
    vertex 12.499999999999998 7.654042494670958e-16 10.0
  endloop
endfacet
facet normal 1.1104438731689208e-32 1.790889114961433e-32 1.0
  outer loop
    vertex 12.499999999999998 7.654042494670958e-16 10.0
    vertex 12.374368670764577 -12.374368670764584 10.0
    vertex 15.155444566227672 -8.750000000000007 10.0
  endloop
endfacet
facet normal 1.1104438731689208e-32 1.790889114961433e-32 1.0
  outer loop
    vertex -12.499999999999998 -2.2962127484012864e-15 10.0
    vertex -12.37436867076458 12.374368670764582 10.0
    vertex -15.155444566227672 8.750000000000005 10.0
  endloop
endfacet
facet normal 1.1104438731689208e-32 1.790889114961433e-32 1.0
  outer loop
    vertex -12.37436867076458 12.374368670764582 10.0
    vertex -12.499999999999998 -2.2962127484012864e-15 10.0
    vertex -12.074072828613355 3.235238063781503 10.0
  endloop
endfacet
facet normal 1.1104438731689208e-32 1.790889114961433e-32 1.0
  outer loop
    vertex -12.37436867076458 12.374368670764582 10.0
    vertex -12.074072828613355 3.235238063781503 10.0
    vertex -8.749999999999995 15.155444566227677 10.0
  endloop
endfacet
facet normal 1.1104438731689208e-32 1.790889114961433e-32 1.0
  outer loop
    vertex -8.749999999999995 15.155444566227677 10.0
    vertex -12.074072828613355 3.235238063781503 10.0
    vertex -10.825317547305486 6.249999999999989 10.0
  endloop
endfacet
facet normal 1.1104438731689208e-32 1.790889114961433e-32 1.0
  outer loop
    vertex -8.749999999999995 15.155444566227677 10.0
    vertex -10.825317547305486 6.249999999999989 10.0
    vertex -8.838834764831844 8.838834764831839 10.0
  endloop
endfacet
facet normal 1.1104438731689208e-32 1.790889114961433e-32 1.0
  outer loop
    vertex -8.749999999999995 15.155444566227677 10.0
    vertex -8.838834764831844 8.838834764831839 10.0
    vertex -6.250000000000004 10.825317547305477 10.0
  endloop
endfacet
facet normal 1.1104438731689208e-32 1.790889114961433e-32 1.0
  outer loop
    vertex -8.749999999999995 15.155444566227677 10.0
    vertex -6.250000000000004 10.825317547305477 10.0
    vertex -4.529333289294111 16.903701960058694 10.0
  endloop
endfacet
facet normal 1.1104438731689208e-32 1.790889114961433e-32 1.0
  outer loop
    vertex -4.529333289294111 16.903701960058694 10.0
    vertex -6.250000000000004 10.825317547305477 10.0
    vertex -3.235238063781519 12.074072828613348 10.0
  endloop
endfacet
facet normal 1.1104438731689208e-32 1.790889114961433e-32 1.0
  outer loop
    vertex -4.529333289294111 16.903701960058694 10.0
    vertex -3.235238063781519 12.074072828613348 10.0
    vertex 1.071565949253934e-15 17.5 10.0
  endloop
endfacet
facet normal 1.1104438731689208e-32 1.790889114961433e-32 1.0
  outer loop
    vertex 1.071565949253934e-15 17.5 10.0
    vertex -3.235238063781519 12.074072828613348 10.0
    vertex -2.449293598294705e-16 12.499999999999996 10.0
  endloop
endfacet
facet normal 1.1104438731689208e-32 1.790889114961433e-32 1.0
  outer loop
    vertex 1.071565949253934e-15 17.5 10.0
    vertex -2.449293598294705e-16 12.499999999999996 10.0
    vertex 3.2352380637815084 12.074072828613351 10.0
  endloop
endfacet
facet normal 1.1104438731689208e-32 1.790889114961433e-32 1.0
  outer loop
    vertex 1.071565949253934e-15 17.5 10.0
    vertex 3.2352380637815084 12.074072828613351 10.0
    vertex 4.529333289294117 16.903701960058694 10.0
  endloop
endfacet
facet normal 1.1104438731689208e-32 1.790889114961433e-32 1.0
  outer loop
    vertex 4.529333289294117 16.903701960058694 10.0
    vertex 3.2352380637815084 12.074072828613351 10.0
    vertex 6.249999999999998 10.825317547305481 10.0
  endloop
endfacet
facet normal 1.1104438731689208e-32 1.790889114961433e-32 1.0
  outer loop
    vertex 4.529333289294117 16.903701960058694 10.0
    vertex 6.249999999999998 10.825317547305481 10.0
    vertex 8.75 15.155444566227674 10.0
  endloop
endfacet
facet normal 1.1104438731689208e-32 1.790889114961433e-32 1.0
  outer loop
    vertex 8.75 15.155444566227674 10.0
    vertex 6.249999999999998 10.825317547305481 10.0
    vertex 8.838834764831843 8.838834764831843 10.0
  endloop
endfacet
facet normal 1.1104438731689208e-32 1.790889114961433e-32 1.0
  outer loop
    vertex 8.75 15.155444566227674 10.0
    vertex 8.838834764831843 8.838834764831843 10.0
    vertex 12.374368670764582 12.37436867076458 10.0
  endloop
endfacet
facet normal 1.1104438731689208e-32 1.790889114961433e-32 1.0
  outer loop
    vertex 12.374368670764582 12.37436867076458 10.0
    vertex 8.838834764831843 8.838834764831843 10.0
    vertex 10.825317547305481 6.25 10.0
  endloop
endfacet
facet normal 1.1104438731689208e-32 1.790889114961433e-32 1.0
  outer loop
    vertex 12.374368670764582 12.37436867076458 10.0
    vertex 10.825317547305481 6.25 10.0
    vertex 12.074072828613351 3.2352380637815106 10.0
  endloop
endfacet
facet normal 1.1104438731689208e-32 1.790889114961433e-32 1.0
  outer loop
    vertex 12.374368670764582 12.37436867076458 10.0
    vertex 12.074072828613351 3.2352380637815106 10.0
    vertex 12.499999999999998 7.654042494670958e-16 10.0
  endloop
endfacet
facet normal 1.1104438731689208e-32 1.790889114961433e-32 1.0
  outer loop
    vertex 12.374368670764582 12.37436867076458 10.0
    vertex 12.499999999999998 7.654042494670958e-16 10.0
    vertex 15.155444566227677 8.749999999999998 10.0
  endloop
endfacet
facet normal 1.1104438731689208e-32 1.790889114961433e-32 1.0
  outer loop
    vertex 15.155444566227677 8.749999999999998 10.0
    vertex 12.499999999999998 7.654042494670958e-16 10.0
    vertex 15.155444566227672 -8.750000000000007 10.0
  endloop
endfacet
facet normal 1.1104438731689208e-32 1.790889114961433e-32 1.0
  outer loop
    vertex 15.155444566227677 8.749999999999998 10.0
    vertex 15.155444566227672 -8.750000000000007 10.0
    vertex 16.90370196005869 -4.529333289294128 10.0
  endloop
endfacet
facet normal 1.1104438731689208e-32 1.790889114961433e-32 1.0
  outer loop
    vertex 15.155444566227677 8.749999999999998 10.0
    vertex 16.90370196005869 -4.529333289294128 10.0
    vertex 16.903701960058694 4.5293332892941125 10.0
  endloop
endfacet
facet normal 1.1104438731689208e-32 1.790889114961433e-32 1.0
  outer loop
    vertex 16.903701960058694 4.5293332892941125 10.0
    vertex 16.90370196005869 -4.529333289294128 10.0
    vertex 17.5 8.954445574807165e-32 10.0
  endloop
endfacet
facet normal 0.6087614290087203 0.7933533402912354 -2.0968032605101574e-32
  outer loop
    vertex -8.838834764831837 -8.838834764831846 10.0
    vertex -6.249999999999996 -10.825317547305483 5.0
    vertex -8.838834764831837 -8.838834764831846 5.0
  endloop
endfacet
facet normal 0.6087614290087203 0.7933533402912354 -2.0968032605101574e-32
  outer loop
    vertex -6.249999999999996 -10.825317547305483 5.0
    vertex -8.838834764831837 -8.838834764831846 10.0
    vertex -6.249999999999996 -10.825317547305483 10.0
  endloop
endfacet
facet normal -0.38268343236509006 0.9238795325112868 -1.2296173254770537e-32
  outer loop
    vertex 3.235238063781512 -12.07407282861335 10.0
    vertex 6.2500000000000036 -10.825317547305477 5.0
    vertex 3.235238063781512 -12.07407282861335 5.0
  endloop
endfacet
facet normal -0.38268343236509006 0.9238795325112868 -1.2296173254770537e-32
  outer loop
    vertex 6.2500000000000036 -10.825317547305477 5.0
    vertex 3.235238063781512 -12.07407282861335 10.0
    vertex 6.2500000000000036 -10.825317547305477 10.0
  endloop
endfacet
facet normal 0.9914448613738105 -0.13052619222005107 -8.671859350331048e-33
  outer loop
    vertex -12.074072828613355 3.235238063781503 5.0
    vertex -12.499999999999998 -2.2962127484012864e-15 10.0
    vertex -12.499999999999998 -2.2962127484012864e-15 5.0
  endloop
endfacet
facet normal 0.9914448613738105 -0.13052619222005107 -8.671859350331048e-33
  outer loop
    vertex -12.499999999999998 -2.2962127484012864e-15 10.0
    vertex -12.074072828613355 3.235238063781503 5.0
    vertex -12.074072828613355 3.235238063781503 10.0
  endloop
endfacet
facet normal 3.751042906930927e-32 2.75895321932197e-32 1.0
  outer loop
    vertex -3.2352380637815044 -12.074072828613353 5.0
    vertex -3.999999999999999 4.898587196589412e-16 5.0
    vertex -6.249999999999996 -10.825317547305483 5.0
  endloop
endfacet
facet normal 3.751042906930927e-32 2.75895321932197e-32 1.0
  outer loop
    vertex -3.999999999999999 4.898587196589412e-16 5.0
    vertex -3.2352380637815044 -12.074072828613353 5.0
    vertex -3.863703305156273 -1.0352761804100814 5.0
  endloop
endfacet
facet normal 3.751042906930927e-32 2.75895321932197e-32 1.0
  outer loop
    vertex -3.863703305156273 -1.0352761804100814 5.0
    vertex -3.2352380637815044 -12.074072828613353 5.0
    vertex -3.4641016151377544 -1.999999999999999 5.0
  endloop
endfacet
facet normal 3.751042906930927e-32 2.75895321932197e-32 1.0
  outer loop
    vertex -3.4641016151377544 -1.999999999999999 5.0
    vertex -3.2352380637815044 -12.074072828613353 5.0
    vertex -2.828427124746191 -2.8284271247461885 5.0
  endloop
endfacet
facet normal 3.751042906930927e-32 2.75895321932197e-32 1.0
  outer loop
    vertex -2.828427124746191 -2.8284271247461885 5.0
    vertex -3.2352380637815044 -12.074072828613353 5.0
    vertex 1.285879139104721e-15 -12.499999999999996 5.0
  endloop
endfacet
facet normal 3.751042906930927e-32 2.75895321932197e-32 1.0
  outer loop
    vertex -2.828427124746191 -2.8284271247461885 5.0
    vertex 1.285879139104721e-15 -12.499999999999996 5.0
    vertex -2.0000000000000013 -3.464101615137753 5.0
  endloop
endfacet
facet normal 3.751042906930927e-32 2.75895321932197e-32 1.0
  outer loop
    vertex -2.0000000000000013 -3.464101615137753 5.0
    vertex 1.285879139104721e-15 -12.499999999999996 5.0
    vertex -1.0352761804100858 -3.863703305156272 5.0
  endloop
endfacet
facet normal 3.751042906930927e-32 2.75895321932197e-32 1.0
  outer loop
    vertex -1.0352761804100858 -3.863703305156272 5.0
    vertex 1.285879139104721e-15 -12.499999999999996 5.0
    vertex -7.347880794884117e-16 -3.9999999999999996 5.0
  endloop
endfacet
facet normal 3.751042906930927e-32 2.75895321932197e-32 1.0
  outer loop
    vertex -7.347880794884117e-16 -3.9999999999999996 5.0
    vertex 1.285879139104721e-15 -12.499999999999996 5.0
    vertex 1.035276180410081 -3.8637033051562732 5.0
  endloop
endfacet
facet normal 3.751042906930927e-32 2.75895321932197e-32 1.0
  outer loop
    vertex 1.035276180410081 -3.8637033051562732 5.0
    vertex 1.285879139104721e-15 -12.499999999999996 5.0
    vertex 3.235238063781512 -12.07407282861335 5.0
  endloop
endfacet
facet normal 3.751042906930927e-32 2.75895321932197e-32 1.0
  outer loop
    vertex 1.035276180410081 -3.8637033051562732 5.0
    vertex 3.235238063781512 -12.07407282861335 5.0
    vertex 1.9999999999999967 -3.464101615137756 5.0
  endloop
endfacet
facet normal 3.751042906930927e-32 2.75895321932197e-32 1.0
  outer loop
    vertex 1.9999999999999967 -3.464101615137756 5.0
    vertex 3.235238063781512 -12.07407282861335 5.0
    vertex 2.8284271247461885 -2.8284271247461903 5.0
  endloop
endfacet
facet normal 3.751042906930927e-32 2.75895321932197e-32 1.0
  outer loop
    vertex 2.8284271247461885 -2.8284271247461903 5.0
    vertex 3.235238063781512 -12.07407282861335 5.0
    vertex 3.4641016151377526 -2.0000000000000018 5.0
  endloop
endfacet
facet normal 3.751042906930927e-32 2.75895321932197e-32 1.0
  outer loop
    vertex 3.4641016151377526 -2.0000000000000018 5.0
    vertex 3.235238063781512 -12.07407282861335 5.0
    vertex 6.2500000000000036 -10.825317547305477 5.0
  endloop
endfacet
facet normal 3.751042906930927e-32 2.75895321932197e-32 1.0
  outer loop
    vertex 3.4641016151377526 -2.0000000000000018 5.0
    vertex 6.2500000000000036 -10.825317547305477 5.0
    vertex 3.8637033051562715 -1.035276180410086 5.0
  endloop
endfacet
facet normal 3.751042906930927e-32 2.75895321932197e-32 1.0
  outer loop
    vertex 3.8637033051562715 -1.035276180410086 5.0
    vertex 6.2500000000000036 -10.825317547305477 5.0
    vertex 3.999999999999999 0.0 5.0
  endloop
endfacet
facet normal 3.751042906930927e-32 2.75895321932197e-32 1.0
  outer loop
    vertex 3.999999999999999 0.0 5.0
    vertex 6.2500000000000036 -10.825317547305477 5.0
    vertex 6.249999999999998 10.825317547305481 5.0
  endloop
endfacet
facet normal 3.751042906930927e-32 2.75895321932197e-32 1.0
  outer loop
    vertex 6.249999999999998 10.825317547305481 5.0
    vertex 6.2500000000000036 -10.825317547305477 5.0
    vertex 8.838834764831843 8.838834764831843 5.0
  endloop
endfacet
facet normal 3.751042906930927e-32 2.75895321932197e-32 1.0
  outer loop
    vertex 8.838834764831843 8.838834764831843 5.0
    vertex 6.2500000000000036 -10.825317547305477 5.0
    vertex 8.838834764831844 -8.83883476483184 5.0
  endloop
endfacet
facet normal 3.751042906930927e-32 2.75895321932197e-32 1.0
  outer loop
    vertex 8.838834764831843 8.838834764831843 5.0
    vertex 8.838834764831844 -8.83883476483184 5.0
    vertex 10.825317547305481 6.25 5.0
  endloop
endfacet
facet normal 3.751042906930927e-32 2.75895321932197e-32 1.0
  outer loop
    vertex 10.825317547305481 6.25 5.0
    vertex 8.838834764831844 -8.83883476483184 5.0
    vertex 10.825317547305483 -6.249999999999996 5.0
  endloop
endfacet
facet normal 3.751042906930927e-32 2.75895321932197e-32 1.0
  outer loop
    vertex 10.825317547305481 6.25 5.0
    vertex 10.825317547305483 -6.249999999999996 5.0
    vertex 12.074072828613351 3.2352380637815106 5.0
  endloop
endfacet
facet normal 3.751042906930927e-32 2.75895321932197e-32 1.0
  outer loop
    vertex 12.074072828613351 3.2352380637815106 5.0
    vertex 10.825317547305483 -6.249999999999996 5.0
    vertex 12.074072828613353 -3.2352380637815066 5.0
  endloop
endfacet
facet normal 3.751042906930927e-32 2.75895321932197e-32 1.0
  outer loop
    vertex 12.074072828613351 3.2352380637815106 5.0
    vertex 12.074072828613353 -3.2352380637815066 5.0
    vertex 12.499999999999998 7.654042494670956e-16 5.0
  endloop
endfacet
facet normal 3.751042906930927e-32 2.75895321932197e-32 1.0
  outer loop
    vertex -12.07407282861335 -3.2352380637815177 5.0
    vertex -12.074072828613355 3.235238063781503 5.0
    vertex -12.499999999999998 -2.2962127484012864e-15 5.0
  endloop
endfacet
facet normal 3.751042906930927e-32 2.75895321932197e-32 1.0
  outer loop
    vertex -12.074072828613355 3.235238063781503 5.0
    vertex -12.07407282861335 -3.2352380637815177 5.0
    vertex -10.825317547305486 6.249999999999989 5.0
  endloop
endfacet
facet normal 3.751042906930927e-32 2.75895321932197e-32 1.0
  outer loop
    vertex -10.825317547305486 6.249999999999989 5.0
    vertex -12.07407282861335 -3.2352380637815177 5.0
    vertex -10.825317547305477 -6.250000000000004 5.0
  endloop
endfacet
facet normal 3.751042906930927e-32 2.75895321932197e-32 1.0
  outer loop
    vertex -10.825317547305486 6.249999999999989 5.0
    vertex -10.825317547305477 -6.250000000000004 5.0
    vertex -8.838834764831844 8.838834764831839 5.0
  endloop
endfacet
facet normal 3.751042906930927e-32 2.75895321932197e-32 1.0
  outer loop
    vertex -8.838834764831844 8.838834764831839 5.0
    vertex -10.825317547305477 -6.250000000000004 5.0
    vertex -8.838834764831837 -8.838834764831846 5.0
  endloop
endfacet
facet normal 3.751042906930927e-32 2.75895321932197e-32 1.0
  outer loop
    vertex -8.838834764831844 8.838834764831839 5.0
    vertex -8.838834764831837 -8.838834764831846 5.0
    vertex -6.250000000000004 10.825317547305477 5.0
  endloop
endfacet
facet normal 3.751042906930927e-32 2.75895321932197e-32 1.0
  outer loop
    vertex -6.250000000000004 10.825317547305477 5.0
    vertex -8.838834764831837 -8.838834764831846 5.0
    vertex -6.249999999999996 -10.825317547305483 5.0
  endloop
endfacet
facet normal 3.751042906930927e-32 2.75895321932197e-32 1.0
  outer loop
    vertex -6.250000000000004 10.825317547305477 5.0
    vertex -6.249999999999996 -10.825317547305483 5.0
    vertex -3.235238063781519 12.074072828613348 5.0
  endloop
endfacet
facet normal 3.751042906930927e-32 2.75895321932197e-32 1.0
  outer loop
    vertex -3.235238063781519 12.074072828613348 5.0
    vertex -6.249999999999996 -10.825317547305483 5.0
    vertex -3.999999999999999 4.898587196589412e-16 5.0
  endloop
endfacet
facet normal 3.751042906930927e-32 2.75895321932197e-32 1.0
  outer loop
    vertex -3.235238063781519 12.074072828613348 5.0
    vertex -3.999999999999999 4.898587196589412e-16 5.0
    vertex -3.863703305156272 1.035276180410084 5.0
  endloop
endfacet
facet normal 3.751042906930927e-32 2.75895321932197e-32 1.0
  outer loop
    vertex -3.235238063781519 12.074072828613348 5.0
    vertex -3.863703305156272 1.035276180410084 5.0
    vertex -3.464101615137753 2.0000000000000013 5.0
  endloop
endfacet
facet normal 3.751042906930927e-32 2.75895321932197e-32 1.0
  outer loop
    vertex -3.235238063781519 12.074072828613348 5.0
    vertex -3.464101615137753 2.0000000000000013 5.0
    vertex -2.8284271247461894 2.8284271247461903 5.0
  endloop
endfacet
facet normal 3.751042906930927e-32 2.75895321932197e-32 1.0
  outer loop
    vertex -3.235238063781519 12.074072828613348 5.0
    vertex -2.8284271247461894 2.8284271247461903 5.0
    vertex -2.4492935982947054e-16 12.499999999999996 5.0
  endloop
endfacet
facet normal 3.751042906930927e-32 2.75895321932197e-32 1.0
  outer loop
    vertex -2.4492935982947054e-16 12.499999999999996 5.0
    vertex -2.8284271247461894 2.8284271247461903 5.0
    vertex -1.9999999999999984 3.4641016151377544 5.0
  endloop
endfacet
facet normal 3.751042906930927e-32 2.75895321932197e-32 1.0
  outer loop
    vertex -2.4492935982947054e-16 12.499999999999996 5.0
    vertex -1.9999999999999984 3.4641016151377544 5.0
    vertex -1.0352761804100823 3.863703305156273 5.0
  endloop
endfacet
facet normal 3.751042906930927e-32 2.75895321932197e-32 1.0
  outer loop
    vertex -2.4492935982947054e-16 12.499999999999996 5.0
    vertex -1.0352761804100823 3.863703305156273 5.0
    vertex 2.449293598294706e-16 3.9999999999999996 5.0
  endloop
endfacet
facet normal 3.751042906930927e-32 2.75895321932197e-32 1.0
  outer loop
    vertex -2.4492935982947054e-16 12.499999999999996 5.0
    vertex 2.449293598294706e-16 3.9999999999999996 5.0
    vertex 3.2352380637815084 12.074072828613351 5.0
  endloop
endfacet
facet normal 3.751042906930927e-32 2.75895321932197e-32 1.0
  outer loop
    vertex 3.2352380637815084 12.074072828613351 5.0
    vertex 2.449293598294706e-16 3.9999999999999996 5.0
    vertex 1.0352761804100836 3.863703305156273 5.0
  endloop
endfacet
facet normal 3.751042906930927e-32 2.75895321932197e-32 1.0
  outer loop
    vertex 3.2352380637815084 12.074072828613351 5.0
    vertex 1.0352761804100836 3.863703305156273 5.0
    vertex 1.9999999999999998 3.464101615137754 5.0
  endloop
endfacet
facet normal 3.751042906930927e-32 2.75895321932197e-32 1.0
  outer loop
    vertex 3.2352380637815084 12.074072828613351 5.0
    vertex 1.9999999999999998 3.464101615137754 5.0
    vertex 2.82842712474619 2.82842712474619 5.0
  endloop
endfacet
facet normal 3.751042906930927e-32 2.75895321932197e-32 1.0
  outer loop
    vertex 3.2352380637815084 12.074072828613351 5.0
    vertex 2.82842712474619 2.82842712474619 5.0
    vertex 3.464101615137754 1.9999999999999996 5.0
  endloop
endfacet
facet normal 3.751042906930927e-32 2.75895321932197e-32 1.0
  outer loop
    vertex 3.2352380637815084 12.074072828613351 5.0
    vertex 3.464101615137754 1.9999999999999996 5.0
    vertex 6.249999999999998 10.825317547305481 5.0
  endloop
endfacet
facet normal 3.751042906930927e-32 2.75895321932197e-32 1.0
  outer loop
    vertex 6.249999999999998 10.825317547305481 5.0
    vertex 3.464101615137754 1.9999999999999996 5.0
    vertex 3.863703305156272 1.035276180410083 5.0
  endloop
endfacet
facet normal 3.751042906930927e-32 2.75895321932197e-32 1.0
  outer loop
    vertex 6.249999999999998 10.825317547305481 5.0
    vertex 3.863703305156272 1.035276180410083 5.0
    vertex 3.999999999999999 0.0 5.0
  endloop
endfacet
facet normal -0.7933533402912349 -0.6087614290087209 1.9711985728045853e-32
  outer loop
    vertex 8.838834764831843 8.838834764831843 10.0
    vertex 10.825317547305481 6.25 5.0
    vertex 10.825317547305481 6.25 10.0
  endloop
endfacet
facet normal -0.7933533402912349 -0.6087614290087209 1.9711985728045853e-32
  outer loop
    vertex 10.825317547305481 6.25 5.0
    vertex 8.838834764831843 8.838834764831843 10.0
    vertex 8.838834764831843 8.838834764831843 5.0
  endloop
endfacet
facet normal 0.3826834323650896 0.9238795325112868 -2.0795142711431877e-32
  outer loop
    vertex -6.249999999999996 -10.825317547305483 10.0
    vertex -3.2352380637815044 -12.074072828613353 5.0
    vertex -6.249999999999996 -10.825317547305483 5.0
  endloop
endfacet
facet normal 0.3826834323650896 0.9238795325112868 -2.0795142711431877e-32
  outer loop
    vertex -3.2352380637815044 -12.074072828613353 5.0
    vertex -6.249999999999996 -10.825317547305483 10.0
    vertex -3.2352380637815044 -12.074072828613353 10.0
  endloop
endfacet
facet normal 0.3826834323650906 -0.9238795325112865 1.2296173254770525e-32
  outer loop
    vertex -3.235238063781519 12.074072828613348 10.0
    vertex -6.250000000000004 10.825317547305477 5.0
    vertex -3.235238063781519 12.074072828613348 5.0
  endloop
endfacet
facet normal 0.3826834323650906 -0.9238795325112865 1.2296173254770525e-32
  outer loop
    vertex -6.250000000000004 10.825317547305477 5.0
    vertex -3.235238063781519 12.074072828613348 10.0
    vertex -6.250000000000004 10.825317547305477 10.0
  endloop
endfacet
facet normal -0.9238795325112868 -0.38268343236508984 1.7112599599220444e-32
  outer loop
    vertex 10.825317547305481 6.25 10.0
    vertex 12.074072828613351 3.2352380637815106 5.0
    vertex 12.074072828613351 3.2352380637815106 10.0
  endloop
endfacet
facet normal -0.9238795325112868 -0.38268343236508984 1.7112599599220444e-32
  outer loop
    vertex 12.074072828613351 3.2352380637815106 5.0
    vertex 10.825317547305481 6.25 10.0
    vertex 10.825317547305481 6.25 5.0
  endloop
endfacet
facet normal -0.9914448613738104 0.1305261922200514 8.67185935033104e-33
  outer loop
    vertex 12.499999999999998 7.654042494670958e-16 10.0
    vertex 12.074072828613353 -3.2352380637815066 5.0
    vertex 12.074072828613353 -3.2352380637815066 10.0
  endloop
endfacet
facet normal -0.9914448613738104 0.1305261922200514 8.67185935033104e-33
  outer loop
    vertex 12.074072828613353 -3.2352380637815066 5.0
    vertex 12.499999999999998 7.654042494670958e-16 10.0
    vertex 12.499999999999998 7.654042494670956e-16 5.0
  endloop
endfacet
facet normal -0.9914448613738105 -0.13052619222005174 1.3347018087616123e-32
  outer loop
    vertex 12.499999999999998 7.654042494670958e-16 10.0
    vertex 12.074072828613351 3.2352380637815106 5.0
    vertex 12.499999999999998 7.654042494670956e-16 5.0
  endloop
endfacet
facet normal -0.9914448613738105 -0.13052619222005174 1.3347018087616123e-32
  outer loop
    vertex 12.074072828613351 3.2352380637815106 5.0
    vertex 12.499999999999998 7.654042494670958e-16 10.0
    vertex 12.074072828613351 3.2352380637815106 10.0
  endloop
endfacet
facet normal 0.6087614290087209 -0.7933533402912349 7.448124623815753e-33
  outer loop
    vertex -6.250000000000004 10.825317547305477 10.0
    vertex -8.838834764831844 8.838834764831839 5.0
    vertex -6.250000000000004 10.825317547305477 5.0
  endloop
endfacet
facet normal 0.6087614290087209 -0.7933533402912349 7.448124623815753e-33
  outer loop
    vertex -8.838834764831844 8.838834764831839 5.0
    vertex -6.250000000000004 10.825317547305477 10.0
    vertex -8.838834764831844 8.838834764831839 10.0
  endloop
endfacet
endsolid Untitled-57ab7d62
